<svg width="15" height="12" viewBox="0 0 15 12" fill="none" xmlns="http://www.w3.org/2000/svg">
<path fill-rule="evenodd" clip-rule="evenodd" d="M7.63225 0.292893C8.02277 -0.0976311 8.65594 -0.0976311 9.04646 0.292893L14.0465 5.29289C14.234 5.48043 14.3394 5.73478 14.3394 6C14.3394 6.26522 14.234 6.51957 14.0465 6.70711L9.04646 11.7071C8.65594 12.0976 8.02277 12.0976 7.63225 11.7071C7.24172 11.3166 7.24172 10.6834 7.63225 10.2929L10.9251 7L1.33936 7C0.787071 7 0.339355 6.55228 0.339355 6C0.339356 5.44771 0.787071 5 1.33936 5L10.9251 5L7.63225 1.70711C7.24172 1.31658 7.24172 0.683417 7.63225 0.292893Z" fill="#545F71"/>
</svg>
