<svg width="15" height="12" viewBox="0 0 15 12" fill="none" xmlns="http://www.w3.org/2000/svg">
<path fill-rule="evenodd" clip-rule="evenodd" d="M7.04646 0.292893C7.43699 0.683418 7.43699 1.31658 7.04646 1.70711L3.75357 5L13.3394 5C13.8916 5 14.3394 5.44772 14.3394 6C14.3394 6.55229 13.8916 7 13.3394 7L3.75357 7L7.04646 10.2929C7.43699 10.6834 7.43699 11.3166 7.04646 11.7071C6.65594 12.0976 6.02277 12.0976 5.63225 11.7071L0.632249 6.70711C0.444712 6.51957 0.339355 6.26522 0.339355 6C0.339356 5.73478 0.444712 5.48043 0.632249 5.29289L5.63225 0.292893C6.02277 -0.0976311 6.65594 -0.097631 7.04646 0.292893Z" fill="#545F71"/>
</svg>
