<svg width="21" height="20" viewBox="0 0 21 20" fill="none" xmlns="http://www.w3.org/2000/svg">
<path fill-rule="evenodd" clip-rule="evenodd" d="M6.33936 0C6.89164 0 7.33936 0.447715 7.33936 1V2H13.3394V1C13.3394 0.447715 13.7871 0 14.3394 0C14.8916 0 15.3394 0.447715 15.3394 1V2H17.3394C18.9962 2 20.3394 3.34315 20.3394 5V17C20.3394 18.6569 18.9962 20 17.3394 20H3.33936C1.6825 20 0.339355 18.6569 0.339355 17V5C0.339355 3.34315 1.6825 2 3.33936 2H5.33936V1C5.33936 0.447715 5.78707 0 6.33936 0ZM5.33936 4H3.33936C2.78707 4 2.33936 4.44772 2.33936 5V17C2.33936 17.5523 2.78707 18 3.33936 18H17.3394C17.8916 18 18.3394 17.5523 18.3394 17V5C18.3394 4.44772 17.8916 4 17.3394 4H15.3394V5C15.3394 5.55228 14.8916 6 14.3394 6C13.7871 6 13.3394 5.55228 13.3394 5V4H7.33936V5C7.33936 5.55228 6.89164 6 6.33936 6C5.78707 6 5.33936 5.55228 5.33936 5V4ZM4.33936 9C4.33936 8.44772 4.78707 8 5.33936 8H15.3394C15.8916 8 16.3394 8.44772 16.3394 9C16.3394 9.55229 15.8916 10 15.3394 10H5.33936C4.78707 10 4.33936 9.55229 4.33936 9Z" fill="#545F71"/>
</svg>
