<svg xmlns="http://www.w3.org/2000/svg" viewBox="0 0 377.71 312.4"><title>Recurso 1</title><g id="Capa_2" data-name="Capa 2"><g id="Capa_1-2" data-name="Capa 1"><path d="M147,312.38c-33.33,0-66.67-.05-100,0-18.32,0-33-6.85-41.45-23.49a50.34,50.34,0,0,1-5.26-21.5c-.46-47.33-.2-94.67-.26-142C0,100.69,17.84,83.22,37.29,81c4-.44,4.64-3.3,5.32-6.24,3-13.11,10.32-23.05,22.2-29.24,4.2-2.18,9-3.31,13.63-4.49,3-.78,4.94-1.87,5.64-5.29C88.51,14.22,105.67.23,127.89.17Q195.63,0,263.38.07c22.84,0,45.67-.18,68.5,0,20.11.2,34.83,9.25,42.51,28.13a44.14,44.14,0,0,1,3.12,16q.36,71.75.12,143.5c-.05,22-15.29,39.92-36.67,43.4-3.3.54-4.81,1.94-5.57,5.22-3.73,16-13.07,27.4-28.6,33.39-.31.12-.61.38-.92.38-9.2-.1-11.71,5.71-14.41,13.53-6.36,18.44-22.19,28.62-42,28.66C215.32,312.44,181.16,312.38,147,312.38Zm.19-18.58q51,0,101.95,0c15.68,0,26.82-11.13,26.84-26.74q.07-71,0-141.92c0-15-11.23-26.19-26.27-26.2q-102-.09-203.89,0c-16.06,0-27,11-27,26.95q-.09,70.71,0,141.43a24.66,24.66,0,0,0,.94,7.37c3.89,12.37,12.9,19.08,26.05,19.12C79.55,293.87,113.37,293.8,147.18,293.8ZM230.41,18.67h0q-51,0-102,0c-10.31,0-18.29,4.35-23.48,13.4-3.6,6.26-2.46,8.13,4.8,8.13,59.65,0,119.31-.07,179,.1,5.91,0,12.18.51,17.67,2.48,19.21,6.91,29.53,22.36,29.55,42.91q.06,60.48.06,121c0,5.94,1.27,6.8,6.86,4.83,9.35-3.29,16-13.24,16-24.27q0-71-.06-142a26.16,26.16,0,0,0-1.18-8.33c-4.16-12-13-18.19-26.26-18.22C297.73,18.62,264.07,18.67,230.41,18.67ZM159.13,80.26v0c29.83,0,59.66-.11,89.48.11,5.43,0,11.2.47,16.19,2.36,19.85,7.5,29.64,22.09,29.69,43.33q.13,59.24.08,118.48c0,1.5-.05,3,.06,4.49.25,3.18,1.59,4.33,5,3.28,10.41-3.24,17.44-12.76,17.45-24.67q.07-71.47-.08-143a26.33,26.33,0,0,0-2-10.65c-5-10.83-14-15.42-25.73-15.41q-76.23.09-152.47,0c-16.83,0-33.66,0-50.49.13-10.38.09-18.18,4.78-23.06,14-3.39,6.4-2.75,7.45,4.43,7.46Q113.39,80.3,159.13,80.26Z"/><path d="M147.14,283.09q-50,0-99.93,0c-12,0-17.75-5.8-17.77-17.76,0-6.49-.27-13,.18-19.47A9.91,9.91,0,0,1,33,239.3c12.66-9.44,25.52-18.64,38.44-27.73,8.34-5.86,15.74-5.6,23.92.45,5.48,4,10.86,8.25,16.39,12.25,8.37,6,16.82,5.75,24.64-1q26.25-22.68,52.35-45.54c8.7-7.61,17.05-8.08,26.14-1.2,15.38,11.64,30.71,23.36,46.15,34.93a10,10,0,0,1,4.47,8.83c-.16,15.32,0,30.65-.09,46-.05,10.57-6.28,16.81-16.78,16.82Q197.87,283.13,147.14,283.09Z"/><path d="M126,140.15c0,10.88-8.48,19.1-19.5,18.94a18.69,18.69,0,0,1-18.7-18.74c-.11-10.92,8.23-19.19,19.28-19.12C117.9,121.29,126,129.38,126,140.15Z"/></g></g></svg>