<?xml version="1.0" encoding="utf-8"?>
<!-- Generator: Adobe Illustrator 26.0.0, SVG Export Plug-In . SVG Version: 6.00 Build 0)  -->
<svg version="1.1" id="Capa_1" xmlns="http://www.w3.org/2000/svg" xmlns:xlink="http://www.w3.org/1999/xlink" x="0px" y="0px"
	 viewBox="0 0 346.3 346.3" style="enable-background:new 0 0 346.3 346.3;" xml:space="preserve">
<style type="text/css">
	.st0{fill:#FFFFFF;}
</style>
<g>
	<g>
		<g id="bg">
			<path d="M16.8,173.1c0,86.3,70,156.3,156.3,156.3s156.3-70,156.3-156.3s-70-156.3-156.3-156.3S16.8,86.8,16.8,173.1"/>
		</g>
	</g>
	<g>
		<path id="i-419" class="st0" d="M243.7,214.3l-28.1-18.8c-4.7-3.1-9.2-3-13.1,0.2c-11,9-17.5,6.4-18.5,5.9c-6.2-3.1-12-6-21.1-15
			c-11.2-11.2-15.2-18.4-18.2-24.2c-1.2-2.3-2.5-10.2,5.2-18.3c3.6-3.8,3.9-8.5,0.9-13.2c-2.3-3.6-2.3-3.6-4.1-6.3
			c-1.8-2.6-5.3-7.9-14.7-21.9c-2-3-4.9-4.5-8.8-4.5c-4.4,0-6.7,2.2-8.5,4l-9.4,9.4c-6.6,6.6-7.2,10.4-7.2,14.7
			c0,5.4,7.8,40.5,44.7,77.2c36.8,36.9,71.8,44.7,77.2,44.7h0.2c4.2-0.1,8-0.6,14.5-7.2l9.4-9.4c1.8-1.8,4-4,4-8.5
			C248.2,219.3,246.7,216.4,243.7,214.3z"/>
	</g>
</g>
</svg>
