<svg viewBox="0 0 22 16" fill="none" xmlns="http://www.w3.org/2000/svg">
<path fill-rule="evenodd" clip-rule="evenodd" d="M2.05402 7.99997C3.28974 11.4965 6.62485 14 10.5422 14C14.4595 14 17.7946 11.4966 19.0304 8.00003C17.7947 4.50345 14.4595 2 10.5422 2C6.62485 2 3.28976 4.50342 2.05402 7.99997ZM0.0459517 7.70031C1.44737 3.23842 5.61528 0 10.5422 0C15.4691 0 19.6371 3.23846 21.0384 7.70039C21.0997 7.89546 21.0997 8.10462 21.0384 8.29969C19.637 12.7616 15.4691 16 10.5422 16C5.61528 16 1.44734 12.7615 0.0459496 8.29961C-0.0153173 8.10454 -0.0153165 7.89538 0.0459517 7.70031ZM10.5417 6C9.43718 6 8.54175 6.89543 8.54175 8C8.54175 9.10457 9.43718 10 10.5417 10C11.6463 10 12.5417 9.10457 12.5417 8C12.5417 6.89543 11.6463 6 10.5417 6ZM6.54175 8C6.54175 5.79086 8.33261 4 10.5417 4C12.7509 4 14.5417 5.79086 14.5417 8C14.5417 10.2091 12.7509 12 10.5417 12C8.33261 12 6.54175 10.2091 6.54175 8Z" fill="#545F71"/>
</svg>
