<?xml version="1.0" encoding="utf-8"?>
<!-- Generator: Adobe Illustrator 26.0.0, SVG Export Plug-In . SVG Version: 6.00 Build 0)  -->
<svg version="1.1" id="Capa_1" xmlns="http://www.w3.org/2000/svg" xmlns:xlink="http://www.w3.org/1999/xlink" x="0px" y="0px"
	 viewBox="0 0 346.3 346.3" style="enable-background:new 0 0 346.3 346.3;" xml:space="preserve">
<style type="text/css">
	.mail{fill:#FFFFFF;}
</style>
<g>
	<g>
		<g id="bg">
			<path d="M16.8,173.1c0,86.3,70,156.3,156.3,156.3s156.3-70,156.3-156.3s-70-156.3-156.3-156.3S16.8,86.8,16.8,173.1"/>
		</g>
	</g>
</g>
<g id="Glyph_copy_2">
	<path class="mail" d="M258.4,104.2c-2.5-3.6-6.6-6-11.3-6H99.2c-4.6,0-8.6,2.3-11.1,5.8l85.3,71.1L258.4,104.2z"/>
	<path class="mail" d="M85.5,129.2v101c0,7.5,6.2,13.7,13.7,13.7H247c7.5,0,13.7-6.2,13.7-13.7V129.5l-87.3,72.9L85.5,129.2z"/>
</g>
</svg>
