<svg width="18" height="14" viewBox="0 0 18 14" fill="none" xmlns="http://www.w3.org/2000/svg">
<path fill-rule="evenodd" clip-rule="evenodd" d="M0 1C0 0.447715 0.447715 0 1 0H17C17.5523 0 18 0.447715 18 1C18 1.55228 17.5523 2 17 2H1C0.447715 2 0 1.55228 0 1ZM0 5C0 4.44772 0.447715 4 1 4H17C17.5523 4 18 4.44772 18 5C18 5.55228 17.5523 6 17 6H1C0.447715 6 0 5.55228 0 5ZM0 9C0 8.44772 0.447715 8 1 8H17C17.5523 8 18 8.44772 18 9C18 9.55229 17.5523 10 17 10H1C0.447715 10 0 9.55229 0 9ZM0 13C0 12.4477 0.447715 12 1 12H17C17.5523 12 18 12.4477 18 13C18 13.5523 17.5523 14 17 14H1C0.447715 14 0 13.5523 0 13Z" fill="#545F71"/>
</svg>
