<?xml version="1.0" encoding="utf-8"?>
<!-- Generator: Adobe Illustrator 26.0.0, SVG Export Plug-In . SVG Version: 6.00 Build 0)  -->
<svg version="1.1" id="Capa_1" xmlns="http://www.w3.org/2000/svg" xmlns:xlink="http://www.w3.org/1999/xlink" x="0px" y="0px"
	 viewBox="0 0 440 440" style="enable-background:new 0 0 440 440;" xml:space="preserve">
<style type="text/css">
	.st0{fill:url(#SVGID_1_);}
	.st1{fill:#FFFFFF;}
	.st2{fill:url(#SVGID_00000047050682355384241380000002425572724716652929_);}
	.st3{fill:url(#SVGID_00000096035986652949785340000004576050099441115569_);}
	.st4{fill:url(#SVGID_00000154387047470270358940000000738308755199387804_);}
</style>
<linearGradient id="SVGID_1_" gradientUnits="userSpaceOnUse" x1="0" y1="220" x2="440" y2="220">
	<stop  offset="0" style="stop-color:#EC4747"/>
	<stop  offset="1" style="stop-color:#EA1D3A"/>
</linearGradient>
<circle class="st0" cx="220" cy="220" r="220"/>
<g>
	<path class="st1" d="M295.41,189.94c13.22,0,24.41,0.16,35.59-0.06c7.61-0.15,10.87,3.28,10.84,10.8
		c-0.09,29.18,0.38,58.36-0.15,87.53c-0.33,18.35-12.3,30.02-30.81,30.11c-60.6,0.29-121.2,0.3-181.79,0
		c-18.88-0.1-30.73-12.2-30.84-31.26c-0.3-51.25,0-102.49-0.21-153.74c-0.04-8.79,3.67-11.86,12.13-11.84
		c57.98,0.16,115.96,0.18,173.94-0.02c8.82-0.03,11.72,3.36,11.46,12.08C295.03,151.74,295.41,169.96,295.41,189.94z M282.13,304.42
		c0-56.6,0-112.29,0-168.13c-57.55,0-112.97,0-169.08,0c0,48.78-0.01,96.56,0,144.34c0,20.03,4.09,24.08,24.28,24.05
		c42.57-0.07,85.14-0.17,127.72-0.25C271.33,304.41,277.62,304.42,282.13,304.42z M296.57,205.32c-0.35,3.36-0.89,6.26-0.91,9.15
		c-0.17,23.57-0.31,47.14-0.26,70.71c0.01,3.29-0.02,7.97,1.95,9.58c4.81,3.93,11.15,9.33,16.17,8.68
		c4.89-0.63,12.51-7.9,12.7-12.51c1.18-28.28,0.59-56.64,0.59-85.6C316.27,205.32,306.74,205.32,296.57,205.32z"/>
	
		<linearGradient id="SVGID_00000021085043645876390200000016352802885179031724_" gradientUnits="userSpaceOnUse" x1="113.0473" y1="220.4809" x2="282.1299" y2="220.4809">
		<stop  offset="0" style="stop-color:#EC4747"/>
		<stop  offset="1" style="stop-color:#EA1D3A"/>
	</linearGradient>
	<path style="fill:url(#SVGID_00000021085043645876390200000016352802885179031724_);" d="M282.13,304.42
		c-4.51,0-10.79-0.01-17.08,0c-42.57,0.08-85.14,0.18-127.72,0.25c-20.19,0.04-24.28-4.02-24.28-24.05c-0.01-47.78,0-95.56,0-144.34
		c56.11,0,111.53,0,169.08,0C282.13,192.13,282.13,247.82,282.13,304.42z M129.19,188.85c-0.03,0-0.06,0-0.09,0
		c0,9.34,0.2,18.69-0.07,28.02c-0.2,6.97,2.63,10.55,9.74,10.55c18.68-0.02,37.38,0.47,56.02-0.45c3.42-0.17,9.21-5.93,9.38-9.33
		c0.93-18.63,0.92-37.36,0.02-56c-0.16-3.4-5.84-9.18-9.19-9.33c-19-0.89-38.09-0.8-57.1,0.01c-3.02,0.13-7.9,5.31-8.31,8.6
		C128.45,170.09,129.19,179.52,129.19,188.85z M197.33,288.19c18.68,0,37.38,0.41,56.03-0.32c4.08-0.16,7.99-4.37,11.99-6.71
		c-3.91-2.49-7.79-7.09-11.73-7.15c-37.73-0.55-75.47-0.55-113.19,0.01c-3.77,0.06-7.46,4.82-11.19,7.41
		c3.66,2.25,7.27,6.31,11,6.44C159.25,288.52,178.29,288.16,197.33,288.19z M197.51,243.54c-19.03,0-38.06,0-57.09,0
		c-5.36,0-11.89-0.12-10.66,7.33c0.44,2.69,6.78,6.24,10.47,6.28c37.68,0.46,75.37,0.47,113.05-0.04c4.03-0.05,8.01-4.23,12.01-6.5
		c-3.94-2.36-7.8-6.6-11.82-6.75C234.84,243.14,216.17,243.55,197.51,243.54z M243.99,212.68c0,0.01,0,0.03,0,0.04
		c-5.19,0-10.55-0.79-15.5,0.31c-2.77,0.61-6.61,4.24-6.75,6.69c-0.13,2.37,3.71,6.91,6.09,7.12c9.94,0.85,20.02,0.9,29.96,0.13
		c2.66-0.21,5.02-4.34,7.52-6.66c-2.66-2.54-4.93-6.33-8.08-7.32C253.19,211.71,248.44,212.68,243.99,212.68z M242.91,151.87
		c-4.82,0-9.82-0.78-14.39,0.29c-2.82,0.66-6.83,4.07-6.93,6.39c-0.11,2.41,3.68,6.96,6.06,7.17c9.93,0.86,20.02,0.99,29.94,0.11
		c2.76-0.25,5.13-4.9,7.68-7.53c-2.64-2.14-5-5.47-7.97-6.14C252.73,151.1,247.73,151.87,242.91,151.87z M243.27,196.35
		c0-0.01,0-0.03,0-0.04c5.22,0,10.59,0.71,15.6-0.3c2.47-0.5,5.87-4.16,5.95-6.48c0.07-2.14-3.62-6.17-5.86-6.33
		c-10.4-0.73-20.89-0.76-31.3-0.16c-2.31,0.13-6.48,4.3-6.16,5.83c0.59,2.8,3.56,6.55,6.17,7.15
		C232.64,197.15,238.05,196.35,243.27,196.35z"/>
	
		<linearGradient id="SVGID_00000165192111590972310560000013133926957536554175_" gradientUnits="userSpaceOnUse" x1="295.3922" y1="254.4079" x2="326.9699" y2="254.4079">
		<stop  offset="0" style="stop-color:#EC4747"/>
		<stop  offset="1" style="stop-color:#EA1D3A"/>
	</linearGradient>
	<path style="fill:url(#SVGID_00000165192111590972310560000013133926957536554175_);" d="M296.57,205.32c10.17,0,19.7,0,30.25,0
		c0,28.96,0.59,57.32-0.59,85.6c-0.19,4.61-7.81,11.88-12.7,12.51c-5.02,0.65-11.36-4.75-16.17-8.68c-1.97-1.61-1.95-6.29-1.95-9.58
		c-0.05-23.57,0.09-47.14,0.26-70.71C295.68,211.58,296.22,208.69,296.57,205.32z"/>
	<path class="st1" d="M129.19,188.85c0-9.33-0.75-18.75,0.4-27.94c0.41-3.29,5.29-8.47,8.31-8.6c19.01-0.81,38.1-0.9,57.1-0.01
		c3.35,0.16,9.03,5.94,9.19,9.33c0.9,18.64,0.91,37.36-0.02,56c-0.17,3.4-5.96,9.16-9.38,9.33c-18.63,0.93-37.34,0.43-56.02,0.45
		c-7.1,0.01-9.94-3.57-9.74-10.55c0.27-9.33,0.07-18.68,0.07-28.02C129.14,188.85,129.17,188.85,129.19,188.85z M143.54,167.01
		c0,15.72,0,30.06,0,44.68c15.73,0,30.71,0,45.74,0c0-15.29,0-29.66,0-44.68C173.89,167.01,159.17,167.01,143.54,167.01z"/>
	<path class="st1" d="M197.33,288.17c-19.03-0.01-38.08,0.34-57.09-0.32c-3.74-0.13-7.34-4.19-11-6.44
		c3.73-2.58,7.43-7.35,11.19-7.41c37.73-0.56,75.47-0.56,113.19-0.01c3.94,0.06,7.82,4.66,11.73,7.15
		c-3.99,2.34-7.91,6.55-11.99,6.71C234.71,288.59,216.01,288.19,197.33,288.17z"/>
	<path class="st1" d="M197.51,243.55c18.66,0,37.33-0.4,55.96,0.32c4.02,0.16,7.89,4.39,11.82,6.75c-4,2.27-7.98,6.44-12.01,6.5
		c-37.68,0.51-75.37,0.49-113.05,0.04c-3.69-0.04-10.02-3.59-10.47-6.28c-1.23-7.45,5.3-7.33,10.66-7.33
		C159.45,243.54,178.48,243.54,197.51,243.55z"/>
	<path class="st1" d="M243.99,212.68c4.45,0,9.2-0.97,13.25,0.31c3.15,0.99,5.42,4.78,8.08,7.32c-2.5,2.33-4.86,6.46-7.52,6.66
		c-9.94,0.77-20.02,0.71-29.96-0.13c-2.38-0.2-6.23-4.75-6.09-7.12c0.14-2.45,3.98-6.08,6.75-6.69c4.95-1.09,10.31-0.31,15.5-0.31
		C243.99,212.71,243.99,212.69,243.99,212.68z"/>
	<path class="st1" d="M242.91,151.87c4.82,0,9.81-0.77,14.39,0.28c2.97,0.68,5.34,4,7.97,6.14c-2.55,2.63-4.92,7.29-7.68,7.53
		c-9.92,0.88-20.01,0.75-29.94-0.11c-2.38-0.21-6.17-4.76-6.06-7.17c0.1-2.32,4.11-5.73,6.93-6.39
		C233.09,151.09,238.09,151.87,242.91,151.87z"/>
	<path class="st1" d="M243.27,196.35c-5.22,0-10.63,0.81-15.59-0.33c-2.61-0.6-5.58-4.35-6.17-7.15c-0.33-1.54,3.85-5.7,6.16-5.83
		c10.41-0.6,20.9-0.57,31.3,0.16c2.25,0.16,5.93,4.19,5.86,6.33c-0.08,2.33-3.48,5.98-5.95,6.48c-5.02,1.02-10.38,0.3-15.6,0.3
		C243.27,196.32,243.27,196.33,243.27,196.35z"/>
	
		<linearGradient id="SVGID_00000173857032087907833990000001347211124993502604_" gradientUnits="userSpaceOnUse" x1="143.5372" y1="189.3492" x2="189.2773" y2="189.3492">
		<stop  offset="0" style="stop-color:#EC4747"/>
		<stop  offset="1" style="stop-color:#EA1D3A"/>
	</linearGradient>
	<path style="fill:url(#SVGID_00000173857032087907833990000001347211124993502604_);" d="M143.54,167.01c15.64,0,30.36,0,45.74,0
		c0,15.02,0,29.39,0,44.68c-15.03,0-30.01,0-45.74,0C143.54,197.07,143.54,182.73,143.54,167.01z"/>
</g>
</svg>
