<?xml version="1.0" encoding="UTF-8"?>
<svg id="Capa_1" xmlns="http://www.w3.org/2000/svg" version="1.1" xmlns:xlink="http://www.w3.org/1999/xlink" viewBox="0 0 440 440">
  <!-- Generator: Adobe Illustrator 29.7.1, SVG Export Plug-In . SVG Version: 2.1.1 Build 8)  -->
  <defs>
    <style>
      .st0, .st1 {
        fill: #fff;
      }

      .st1 {
        fill-rule: evenodd;
      }

      .st2 {
        fill: url(#Degradado_sin_nombre);
      }
    </style>
    <linearGradient id="Degradado_sin_nombre" data-name="Degradado sin nombre" x1="82.3" y1="220" x2="357.7" y2="220" gradientUnits="userSpaceOnUse">
      <stop offset="0" stop-color="#ec4747"/>
      <stop offset="1" stop-color="#ea1d3a"/>
    </linearGradient>
  </defs>
  <circle class="st0" cx="220" cy="220" r="220"/>
  <g>
    <path class="st2" d="M320.3,314.3s-75.2,2.1-100.3,2.1-100.3-2.1-100.3-2.1c-19.4,0-35.3-15.9-35.3-35.3,0,0-2.1-44.2-2.1-58.9s2.1-58.9,2.1-58.9c0-19.4,15.9-35.3,35.3-35.3,0,0,75.2-2.1,100.3-2.1s100.3,2.1,100.3,2.1c19.4,0,35.3,15.9,35.3,35.3,0,0,2.1,44.1,2.1,58.9s-2.1,58.9-2.1,58.9c0,19.4-15.9,35.3-35.3,35.3Z"/>
    <polygon class="st1" points="193.6 263.1 193.6 176.9 263.2 220 193.6 263.1"/>
  </g>
</svg>