<?xml version="1.0" encoding="utf-8"?>
<!-- Generator: Adobe Illustrator 26.0.0, SVG Export Plug-In . SVG Version: 6.00 Build 0)  -->
<svg version="1.1" id="Capa_1" xmlns="http://www.w3.org/2000/svg" xmlns:xlink="http://www.w3.org/1999/xlink" x="0px" y="0px"
	 viewBox="0 0 174.66 38.55" style="enable-background:new 0 0 174.66 38.55;" xml:space="preserve">
<style type="text/css">
	.st0{fill:url(#SVGID_1_);}
	.st1{fill:url(#SVGID_00000009565182748766173970000006383873743762294412_);}
	.st2{fill:url(#SVGID_00000012469383636815418840000001986192735796499900_);}
	.st3{fill:url(#SVGID_00000062893434813855487290000000056384338668582312_);}
	.st4{fill:url(#SVGID_00000152224656672777956550000008318084283031916475_);}
	.st5{fill:url(#SVGID_00000085215620570922482100000000047638551518405287_);}
	.st6{fill:url(#SVGID_00000047038642390772244490000018353478968391368086_);}
	.st7{fill:url(#SVGID_00000126299233311547414380000002633422138189583531_);}
	.st8{fill:url(#SVGID_00000099631736221939598780000005794869666523310249_);}
	.st9{fill:url(#SVGID_00000004505812178058916750000013749442724747545243_);}
	.st10{fill:url(#SVGID_00000045615979344102998780000001445329278190103474_);}
	.st11{fill:url(#SVGID_00000086687274295677242030000012948752075271192459_);}
	.st12{fill:url(#SVGID_00000105410928484597845410000007336419400645249210_);}
	.st13{fill:url(#SVGID_00000041256782401955434460000013720955009423463309_);}
	.st14{fill:url(#SVGID_00000021115520783568914350000013275999774984527749_);}
	.st15{fill:url(#SVGID_00000091006581485387747420000007753513328861159329_);}
	.st16{fill:url(#SVGID_00000023976509538465869140000011188895564712351160_);}
	.st17{fill:url(#SVGID_00000116223088888679189540000001866192529330535053_);}
	.st18{fill:#231F20;}
	.st19{fill:url(#SVGID_00000118392821966620319230000006739871397788142005_);}
	.st20{fill:url(#SVGID_00000121993988201337241800000011163543366204695468_);}
	.cloud, 
	.arrow{
		fill:#EC3F44
	}
</style>
<g>
	<g>
		<g>
			<linearGradient id="SVGID_1_" gradientUnits="userSpaceOnUse" x1="59.93" y1="26.7448" x2="64.76" y2="26.7448">
				<stop  offset="0" style="stop-color:#EC4747"/>
				<stop  offset="1" style="stop-color:#EA1D3A"/>
			</linearGradient>
			<path style="fill:url(#SVGID_00000106857708910816322640000012194228024254968252_);" class="st0" d="M59.93,24.12h2.05c0.41,0,0.79,0.07,1.13,0.2c0.34,0.13,0.64,0.32,0.88,0.55c0.25,0.24,0.44,0.51,0.57,0.83
				c0.14,0.32,0.2,0.66,0.2,1.03v0.01c0,0.37-0.07,0.71-0.2,1.04c-0.13,0.32-0.33,0.6-0.57,0.83c-0.25,0.24-0.54,0.42-0.88,0.56
				c-0.34,0.13-0.72,0.2-1.13,0.2h-2.05C59.93,29.37,59.93,24.12,59.93,24.12z M61.98,28.33c0.23,0,0.45-0.04,0.64-0.11
				c0.2-0.08,0.36-0.18,0.5-0.32s0.25-0.3,0.32-0.5c0.08-0.19,0.12-0.4,0.12-0.64v-0.01c0-0.23-0.04-0.44-0.12-0.64
				c-0.08-0.19-0.18-0.36-0.32-0.5s-0.3-0.25-0.5-0.33c-0.19-0.08-0.41-0.12-0.64-0.12h-0.89v3.16h0.89V28.33z"/>
			
			<linearGradient id="SVGID_00000023249835513889857910000017502768451080411325_" gradientUnits="userSpaceOnUse" x1="66.17" y1="26.7498" x2="70.16" y2="26.7498">
				<stop  offset="0" style="stop-color:#EC4747"/>
				<stop  offset="1" style="stop-color:#EA1D3A"/>
			</linearGradient>
			<path style="fill:url(#SVGID_00000023249835513889857910000017502768451080411325_);" d="M66.17,24.12h3.95v1.03h-2.81v1.07h2.48
				v1.03h-2.48v1.1h2.85v1.03h-3.99V24.12z"/>
			
			<linearGradient id="SVGID_00000106857708910816322640000012194228024254968252_" gradientUnits="userSpaceOnUse" x1="71.21" y1="26.7498" x2="75.37" y2="26.7498">
				<stop  offset="0" style="stop-color:#EC4747"/>
				<stop  offset="1" style="stop-color:#EA1D3A"/>
			</linearGradient>
			<path style="fill:url(#SVGID_00000106857708910816322640000012194228024254968252_);" d="M73.44,29.45
				c-0.4,0-0.79-0.07-1.18-0.21c-0.38-0.14-0.73-0.35-1.05-0.63l0.68-0.82c0.24,0.19,0.49,0.35,0.74,0.46
				c0.25,0.12,0.53,0.17,0.83,0.17c0.24,0,0.43-0.04,0.56-0.13c0.13-0.09,0.2-0.21,0.2-0.36v-0.01c0-0.08-0.01-0.14-0.04-0.2
				c-0.03-0.06-0.08-0.11-0.16-0.16s-0.19-0.1-0.32-0.15c-0.14-0.05-0.32-0.1-0.54-0.16c-0.27-0.07-0.51-0.14-0.72-0.22
				s-0.4-0.18-0.55-0.3c-0.15-0.12-0.27-0.26-0.35-0.44c-0.08-0.17-0.12-0.39-0.12-0.65v-0.01c0-0.24,0.04-0.46,0.13-0.65
				s0.21-0.36,0.38-0.5c0.16-0.14,0.35-0.25,0.58-0.32c0.22-0.07,0.47-0.11,0.74-0.11c0.39,0,0.74,0.06,1.06,0.17
				s0.62,0.28,0.89,0.5l-0.6,0.87c-0.24-0.16-0.46-0.29-0.69-0.38c-0.22-0.09-0.45-0.14-0.67-0.14s-0.39,0.04-0.51,0.13
				c-0.11,0.09-0.17,0.2-0.17,0.33v0.02c0,0.08,0.02,0.16,0.05,0.22s0.09,0.12,0.18,0.17s0.2,0.1,0.35,0.14s0.33,0.1,0.56,0.16
				c0.27,0.07,0.5,0.15,0.71,0.24s0.38,0.19,0.53,0.32c0.14,0.12,0.25,0.27,0.32,0.43c0.07,0.17,0.11,0.36,0.11,0.59v0.01
				c0,0.26-0.05,0.49-0.14,0.69s-0.23,0.37-0.39,0.51s-0.37,0.24-0.6,0.31C73.99,29.41,73.73,29.45,73.44,29.45z"/>
			
			<linearGradient id="SVGID_00000061446846685669035700000007057461042538388622_" gradientUnits="userSpaceOnUse" x1="76.51" y1="26.7548" x2="81.34" y2="26.7548">
				<stop  offset="0" style="stop-color:#EC4747"/>
				<stop  offset="1" style="stop-color:#EA1D3A"/>
			</linearGradient>
			<path style="fill:url(#SVGID_00000061446846685669035700000007057461042538388622_);" d="M79.2,29.46
				c-0.38,0-0.74-0.07-1.07-0.21s-0.62-0.33-0.86-0.57s-0.43-0.53-0.56-0.86s-0.2-0.68-0.2-1.06v-0.01c0-0.38,0.07-0.73,0.2-1.05
				c0.14-0.33,0.32-0.62,0.56-0.86c0.24-0.25,0.53-0.44,0.86-0.58s0.71-0.21,1.11-0.21c0.25,0,0.47,0.02,0.67,0.06
				c0.2,0.04,0.39,0.1,0.55,0.17c0.17,0.07,0.32,0.16,0.46,0.25c0.14,0.1,0.27,0.21,0.39,0.33l-0.74,0.85
				c-0.21-0.18-0.41-0.33-0.63-0.43c-0.21-0.11-0.45-0.16-0.72-0.16c-0.22,0-0.42,0.04-0.61,0.13s-0.35,0.2-0.48,0.35
				c-0.13,0.15-0.24,0.32-0.31,0.52c-0.08,0.2-0.11,0.41-0.11,0.63v0.01c0,0.22,0.04,0.44,0.11,0.64s0.18,0.38,0.31,0.52
				c0.13,0.15,0.29,0.27,0.48,0.36s0.39,0.13,0.62,0.13c0.3,0,0.55-0.06,0.76-0.17s0.41-0.26,0.62-0.45l0.73,0.74
				c-0.13,0.15-0.27,0.28-0.42,0.39c-0.14,0.11-0.3,0.21-0.48,0.3c-0.17,0.08-0.36,0.14-0.57,0.19
				C79.69,29.44,79.46,29.46,79.2,29.46z"/>
			
			<linearGradient id="SVGID_00000177483303608627480350000012676328232986377120_" gradientUnits="userSpaceOnUse" x1="82.2" y1="26.7248" x2="87.77" y2="26.7248">
				<stop  offset="0" style="stop-color:#EC4747"/>
				<stop  offset="1" style="stop-color:#EA1D3A"/>
			</linearGradient>
			<path style="fill:url(#SVGID_00000177483303608627480350000012676328232986377120_);" d="M84.45,24.08h1.07l2.25,5.29h-1.21
				l-0.48-1.18h-2.22l-0.48,1.18H82.2L84.45,24.08z M85.67,27.17l-0.7-1.7l-0.7,1.7H85.67z"/>
			
			<linearGradient id="SVGID_00000102527975298493238320000004262695212840513195_" gradientUnits="userSpaceOnUse" x1="88.95" y1="26.7448" x2="93.49" y2="26.7448">
				<stop  offset="0" style="stop-color:#EC4747"/>
				<stop  offset="1" style="stop-color:#EA1D3A"/>
			</linearGradient>
			<path style="fill:url(#SVGID_00000102527975298493238320000004262695212840513195_);" d="M88.95,24.12h2.4
				c0.67,0,1.17,0.18,1.53,0.53c0.3,0.3,0.45,0.7,0.45,1.2v0.01c0,0.43-0.1,0.77-0.31,1.04c-0.21,0.27-0.48,0.46-0.81,0.59
				l1.28,1.88h-1.35l-1.12-1.68H91h-0.89v1.68h-1.16V24.12z M91.28,26.67c0.29,0,0.5-0.07,0.66-0.2s0.23-0.32,0.23-0.54v-0.01
				c0-0.25-0.08-0.44-0.24-0.56s-0.38-0.19-0.67-0.19h-1.15v1.51L91.28,26.67L91.28,26.67z"/>
			
			<linearGradient id="SVGID_00000112593465190140143100000003693303422712312462_" gradientUnits="userSpaceOnUse" x1="94.52" y1="26.7548" x2="99.53" y2="26.7548">
				<stop  offset="0" style="stop-color:#EC4747"/>
				<stop  offset="1" style="stop-color:#EA1D3A"/>
			</linearGradient>
			<path style="fill:url(#SVGID_00000112593465190140143100000003693303422712312462_);" d="M97.28,29.46
				c-0.41,0-0.78-0.07-1.12-0.2c-0.34-0.13-0.63-0.32-0.87-0.56c-0.24-0.24-0.43-0.53-0.57-0.86c-0.13-0.33-0.2-0.69-0.2-1.08v-0.01
				c0-0.38,0.07-0.73,0.21-1.05s0.33-0.62,0.57-0.86c0.25-0.25,0.54-0.44,0.87-0.58s0.7-0.21,1.1-0.21c0.23,0,0.45,0.02,0.64,0.05
				s0.37,0.08,0.54,0.14s0.32,0.13,0.47,0.22c0.14,0.09,0.28,0.19,0.42,0.31l-0.73,0.88c-0.1-0.08-0.2-0.16-0.3-0.23
				c-0.1-0.06-0.2-0.12-0.31-0.17s-0.22-0.08-0.35-0.1c-0.12-0.03-0.26-0.04-0.41-0.04c-0.21,0-0.41,0.04-0.59,0.13
				s-0.34,0.21-0.48,0.35s-0.25,0.32-0.32,0.52c-0.08,0.2-0.12,0.41-0.12,0.63v0.02c0,0.24,0.04,0.46,0.12,0.67
				c0.08,0.2,0.19,0.38,0.33,0.53c0.14,0.15,0.31,0.27,0.5,0.35s0.41,0.12,0.64,0.12c0.43,0,0.79-0.11,1.09-0.32v-0.76h-1.16v-1
				h2.28v2.28c-0.27,0.23-0.59,0.43-0.96,0.59C98.19,29.38,97.76,29.46,97.28,29.46z"/>
			
			<linearGradient id="SVGID_00000091707573934623750110000015716699368921431189_" gradientUnits="userSpaceOnUse" x1="100.56" y1="26.7248" x2="106.13" y2="26.7248">
				<stop  offset="0" style="stop-color:#EC4747"/>
				<stop  offset="1" style="stop-color:#EA1D3A"/>
			</linearGradient>
			<path style="fill:url(#SVGID_00000091707573934623750110000015716699368921431189_);" d="M102.81,24.08h1.07l2.25,5.29h-1.21
				l-0.48-1.18h-2.22l-0.48,1.18h-1.18L102.81,24.08z M104.02,27.17l-0.7-1.7l-0.7,1.7H104.02z"/>
			
			<linearGradient id="SVGID_00000057144777176318495380000014169957407431237764_" gradientUnits="userSpaceOnUse" x1="109.93" y1="26.7448" x2="114.76" y2="26.7448">
				<stop  offset="0" style="stop-color:#EC4747"/>
				<stop  offset="1" style="stop-color:#EA1D3A"/>
			</linearGradient>
			<path style="fill:url(#SVGID_00000057144777176318495380000014169957407431237764_);" d="M109.93,24.12h2.05
				c0.41,0,0.79,0.07,1.13,0.2c0.34,0.13,0.64,0.32,0.88,0.55c0.25,0.24,0.44,0.51,0.57,0.83c0.14,0.32,0.2,0.66,0.2,1.03v0.01
				c0,0.37-0.07,0.71-0.2,1.04c-0.13,0.32-0.33,0.6-0.57,0.83c-0.25,0.24-0.54,0.42-0.88,0.56c-0.34,0.13-0.72,0.2-1.13,0.2h-2.05
				V24.12z M111.98,28.33c0.23,0,0.45-0.04,0.64-0.11c0.2-0.08,0.36-0.18,0.5-0.32s0.25-0.3,0.32-0.5c0.08-0.19,0.12-0.4,0.12-0.64
				v-0.01c0-0.23-0.04-0.44-0.12-0.64c-0.08-0.19-0.18-0.36-0.32-0.5s-0.3-0.25-0.5-0.33c-0.19-0.08-0.41-0.12-0.64-0.12h-0.89v3.16
				h0.89V28.33z"/>
			
			<linearGradient id="SVGID_00000061471536321000626940000012149904273976161683_" gradientUnits="userSpaceOnUse" x1="116.17" y1="26.7498" x2="120.16" y2="26.7498">
				<stop  offset="0" style="stop-color:#EC4747"/>
				<stop  offset="1" style="stop-color:#EA1D3A"/>
			</linearGradient>
			<path style="fill:url(#SVGID_00000061471536321000626940000012149904273976161683_);" d="M116.17,24.12h3.95v1.03h-2.81v1.07
				h2.48v1.03h-2.48v1.1h2.85v1.03h-3.99V24.12z"/>
			
			<linearGradient id="SVGID_00000007427908116756209180000001982988493164021392_" gradientUnits="userSpaceOnUse" x1="124.2" y1="26.7498" x2="128.19" y2="26.7498">
				<stop  offset="0" style="stop-color:#EC4747"/>
				<stop  offset="1" style="stop-color:#EA1D3A"/>
			</linearGradient>
			<path style="fill:url(#SVGID_00000007427908116756209180000001982988493164021392_);" d="M124.2,24.12h3.95v1.03h-2.81v1.07h2.48
				v1.03h-2.48v1.1h2.85v1.03h-3.99C124.2,29.38,124.2,24.12,124.2,24.12z"/>
			
			<linearGradient id="SVGID_00000170985429711310524820000013251642467265287053_" gradientUnits="userSpaceOnUse" x1="129.2" y1="26.7448" x2="134.23" y2="26.7448">
				<stop  offset="0" style="stop-color:#EC4747"/>
				<stop  offset="1" style="stop-color:#EA1D3A"/>
			</linearGradient>
			<path style="fill:url(#SVGID_00000170985429711310524820000013251642467265287053_);" d="M131.03,26.7l-1.75-2.58h1.35l1.1,1.7
				l1.11-1.7h1.31l-1.75,2.57l1.83,2.68h-1.35l-1.18-1.8l-1.19,1.8h-1.31L131.03,26.7z"/>
			
			<linearGradient id="SVGID_00000020399924443955301100000008612745371209605049_" gradientUnits="userSpaceOnUse" x1="135.01" y1="25.8748" x2="140.58" y2="25.8748">
				<stop  offset="0" style="stop-color:#EC4747"/>
				<stop  offset="1" style="stop-color:#EA1D3A"/>
			</linearGradient>
			<path style="fill:url(#SVGID_00000020399924443955301100000008612745371209605049_);" d="M137.26,24.08h1.07l2.25,5.29h-1.21
				l-0.48-1.18h-2.22l-0.48,1.18h-1.18L137.26,24.08z M138.48,27.17l-0.7-1.7l-0.7,1.7H138.48z M138.16,22.38l0.98,0.43l-0.96,0.9
				h-0.87L138.16,22.38z"/>
			
			<linearGradient id="SVGID_00000084506011028053922760000012293094952602078080_" gradientUnits="userSpaceOnUse" x1="141.76" y1="26.7448" x2="147.02" y2="26.7448">
				<stop  offset="0" style="stop-color:#EC4747"/>
				<stop  offset="1" style="stop-color:#EA1D3A"/>
			</linearGradient>
			<path style="fill:url(#SVGID_00000084506011028053922760000012293094952602078080_);" d="M141.76,24.12h1.25l1.38,2.22l1.38-2.22
				h1.25v5.25h-1.14v-3.43l-1.48,2.24h-0.03l-1.46-2.22v3.41h-1.14v-5.25H141.76z"/>
			
			<linearGradient id="SVGID_00000026158198854443239730000005624347487040738972_" gradientUnits="userSpaceOnUse" x1="148.65" y1="26.7498" x2="152.64" y2="26.7498">
				<stop  offset="0" style="stop-color:#EC4747"/>
				<stop  offset="1" style="stop-color:#EA1D3A"/>
			</linearGradient>
			<path style="fill:url(#SVGID_00000026158198854443239730000005624347487040738972_);" d="M148.65,24.12h3.95v1.03h-2.81v1.07
				h2.48v1.03h-2.48v1.1h2.85v1.03h-3.99V24.12z"/>
			
			<linearGradient id="SVGID_00000152238821219354571590000007822356463052005050_" gradientUnits="userSpaceOnUse" x1="154.05" y1="26.7448" x2="158.72" y2="26.7448">
				<stop  offset="0" style="stop-color:#EC4747"/>
				<stop  offset="1" style="stop-color:#EA1D3A"/>
			</linearGradient>
			<path style="fill:url(#SVGID_00000152238821219354571590000007822356463052005050_);" d="M154.05,24.12h1.07l2.46,3.23v-3.23
				h1.14v5.25h-0.98l-2.54-3.34v3.34h-1.14v-5.25H154.05z"/>
			
			<linearGradient id="SVGID_00000106114885039724944700000015037166922955375767_" gradientUnits="userSpaceOnUse" x1="160.35" y1="26.7498" x2="164.34" y2="26.7498">
				<stop  offset="0" style="stop-color:#EC4747"/>
				<stop  offset="1" style="stop-color:#EA1D3A"/>
			</linearGradient>
			<path style="fill:url(#SVGID_00000106114885039724944700000015037166922955375767_);" d="M160.35,24.12h3.95v1.03h-2.81v1.07
				h2.48v1.03h-2.48v1.1h2.85v1.03h-3.99V24.12z"/>
			
			<linearGradient id="SVGID_00000140699462970657911750000003660564089756566944_" gradientUnits="userSpaceOnUse" x1="165.39" y1="26.7498" x2="169.55" y2="26.7498">
				<stop  offset="0" style="stop-color:#EC4747"/>
				<stop  offset="1" style="stop-color:#EA1D3A"/>
			</linearGradient>
			<path style="fill:url(#SVGID_00000140699462970657911750000003660564089756566944_);" d="M167.62,29.45
				c-0.4,0-0.79-0.07-1.18-0.21c-0.38-0.14-0.73-0.35-1.05-0.63l0.68-0.82c0.24,0.19,0.49,0.35,0.74,0.46
				c0.25,0.12,0.53,0.17,0.83,0.17c0.24,0,0.43-0.04,0.56-0.13c0.13-0.09,0.2-0.21,0.2-0.36v-0.01c0-0.08-0.01-0.14-0.04-0.2
				c-0.03-0.06-0.08-0.11-0.16-0.16s-0.19-0.1-0.32-0.15c-0.14-0.05-0.32-0.1-0.54-0.16c-0.27-0.07-0.51-0.14-0.72-0.22
				s-0.4-0.18-0.55-0.3c-0.15-0.12-0.27-0.26-0.35-0.44c-0.08-0.17-0.12-0.39-0.12-0.65v-0.01c0-0.24,0.04-0.46,0.13-0.65
				c0.09-0.19,0.21-0.36,0.38-0.5c0.16-0.14,0.35-0.25,0.58-0.32c0.22-0.07,0.47-0.11,0.74-0.11c0.39,0,0.74,0.06,1.06,0.17
				s0.62,0.28,0.89,0.5l-0.6,0.87c-0.24-0.16-0.46-0.29-0.69-0.38c-0.22-0.09-0.45-0.14-0.67-0.14s-0.39,0.04-0.51,0.13
				c-0.11,0.09-0.17,0.2-0.17,0.33v0.02c0,0.08,0.02,0.16,0.05,0.22s0.09,0.12,0.18,0.17s0.2,0.1,0.35,0.14s0.33,0.1,0.56,0.16
				c0.27,0.07,0.5,0.15,0.71,0.24s0.38,0.19,0.53,0.32c0.14,0.12,0.25,0.27,0.32,0.43c0.07,0.17,0.11,0.36,0.11,0.59v0.01
				c0,0.26-0.05,0.49-0.14,0.69s-0.23,0.37-0.39,0.51s-0.37,0.24-0.6,0.31C168.17,29.41,167.91,29.45,167.62,29.45z"/>
		</g>
	</g>
	<g>
		<path class="st18" d="M57.93,20.62c-0.85,0-1.69-0.15-2.52-0.44s-1.57-0.75-2.24-1.35l1.46-1.75c0.51,0.42,1.04,0.75,1.58,0.99
			c0.54,0.25,1.13,0.37,1.77,0.37c0.51,0,0.91-0.09,1.19-0.28s0.42-0.45,0.42-0.78v-0.03c0-0.16-0.03-0.3-0.09-0.42
			s-0.17-0.24-0.34-0.34c-0.17-0.11-0.4-0.21-0.69-0.32c-0.29-0.11-0.68-0.22-1.15-0.34c-0.57-0.14-1.08-0.29-1.54-0.46
			s-0.85-0.38-1.17-0.63s-0.57-0.56-0.75-0.94c-0.18-0.37-0.27-0.84-0.27-1.39v-0.03c0-0.51,0.1-0.97,0.29-1.39
			c0.19-0.41,0.46-0.77,0.8-1.07c0.35-0.3,0.76-0.53,1.24-0.69c0.48-0.16,1.01-0.24,1.58-0.24c0.82,0,1.58,0.12,2.27,0.37
			s1.32,0.6,1.9,1.06l-1.28,1.86c-0.5-0.34-0.99-0.61-1.47-0.81c-0.48-0.2-0.96-0.3-1.44-0.3s-0.84,0.09-1.08,0.28
			s-0.36,0.42-0.36,0.7v0.03c0,0.18,0.03,0.34,0.1,0.47s0.2,0.25,0.38,0.36s0.43,0.21,0.75,0.3c0.32,0.1,0.71,0.21,1.2,0.34
			c0.57,0.15,1.07,0.32,1.52,0.5c0.44,0.19,0.82,0.41,1.12,0.67s0.54,0.57,0.69,0.92s0.23,0.77,0.23,1.27v0.03
			c0,0.56-0.1,1.05-0.3,1.48s-0.48,0.8-0.84,1.09s-0.79,0.52-1.29,0.67C59.1,20.54,58.54,20.62,57.93,20.62z"/>
		<path class="st18" d="M65.1,9.25h2.47v11.22H65.1V9.25z"/>
		<path class="st18" d="M71.17,9.25h2.66l2.95,4.74l2.95-4.74h2.66v11.22h-2.44v-7.32l-3.16,4.79h-0.06l-3.12-4.74v7.27h-2.44
			C71.17,20.47,71.17,9.25,71.17,9.25z"/>
		<path class="st18" d="M90.55,20.64c-1.51,0-2.69-0.42-3.56-1.25s-1.3-2.08-1.3-3.73V9.25h2.47v6.34c0,0.92,0.21,1.61,0.64,2.08
			c0.43,0.46,1.02,0.7,1.78,0.7s1.35-0.22,1.78-0.67S93,16.58,93,15.68V9.25h2.47v6.33c0,0.85-0.12,1.6-0.34,2.23
			c-0.23,0.63-0.56,1.16-0.99,1.58s-0.95,0.74-1.55,0.95C91.98,20.53,91.3,20.64,90.55,20.64z"/>
		<path class="st18" d="M98.79,9.25h2.47v8.99h5.59v2.23h-8.06C98.79,20.47,98.79,9.25,98.79,9.25z"/>
		<path class="st18" d="M113.35,9.17h2.28l4.81,11.3h-2.58l-1.03-2.52h-4.74l-1.03,2.52h-2.52L113.35,9.17z M115.95,15.77
			l-1.49-3.64l-1.49,3.64H115.95z"/>
		<path class="st18" d="M128.22,20.65c-0.82,0-1.59-0.15-2.29-0.45c-0.71-0.3-1.31-0.71-1.83-1.23c-0.51-0.52-0.91-1.13-1.2-1.83
			c-0.29-0.71-0.43-1.46-0.43-2.26v-0.03c0-0.8,0.14-1.55,0.43-2.25s0.69-1.31,1.2-1.84c0.51-0.53,1.13-0.95,1.84-1.25
			s1.51-0.46,2.37-0.46c0.52,0,1,0.04,1.43,0.13c0.43,0.08,0.83,0.2,1.18,0.35s0.68,0.33,0.98,0.54s0.58,0.45,0.83,0.71l-1.57,1.81
			c-0.44-0.39-0.88-0.71-1.34-0.93c-0.45-0.22-0.96-0.34-1.53-0.34c-0.47,0-0.91,0.09-1.31,0.27c-0.4,0.18-0.74,0.43-1.03,0.75
			s-0.51,0.69-0.67,1.11c-0.16,0.42-0.24,0.87-0.24,1.35v0.03c0,0.48,0.08,0.93,0.24,1.36c0.16,0.43,0.38,0.8,0.67,1.12
			s0.62,0.57,1.03,0.76c0.4,0.19,0.84,0.28,1.32,0.28c0.64,0,1.18-0.12,1.63-0.35c0.44-0.23,0.88-0.55,1.32-0.96l1.57,1.59
			c-0.29,0.31-0.59,0.59-0.9,0.83c-0.31,0.25-0.65,0.46-1.02,0.63c-0.37,0.18-0.77,0.31-1.21,0.4
			C129.26,20.61,128.77,20.65,128.22,20.65z"/>
		<path class="st18" d="M135.59,9.25h5.13c1.42,0,2.51,0.38,3.27,1.14c0.64,0.64,0.96,1.5,0.96,2.56v0.03
			c0,0.91-0.22,1.65-0.67,2.22c-0.44,0.57-1.02,0.99-1.74,1.26l2.74,4.01h-2.88l-2.4-3.59h-0.03h-1.91v3.59h-2.47L135.59,9.25
			L135.59,9.25z M140.56,14.69c0.61,0,1.08-0.14,1.4-0.43c0.33-0.29,0.49-0.67,0.49-1.15v-0.03c0-0.53-0.17-0.93-0.51-1.2
			c-0.34-0.27-0.82-0.4-1.43-0.4h-2.45v3.22h2.5V14.69z"/>
		<path class="st18" d="M153.42,20.65c-0.87,0-1.66-0.15-2.39-0.46c-0.73-0.3-1.35-0.71-1.88-1.23s-0.94-1.13-1.23-1.83
			s-0.44-1.45-0.44-2.25v-0.03c0-0.8,0.15-1.55,0.45-2.25s0.71-1.31,1.24-1.84s1.16-0.95,1.89-1.25s1.53-0.46,2.4-0.46
			s1.66,0.15,2.39,0.46s1.35,0.72,1.88,1.23c0.53,0.52,0.94,1.13,1.23,1.83s0.44,1.45,0.44,2.25v0.03c0,0.8-0.15,1.55-0.45,2.25
			s-0.71,1.31-1.24,1.84s-1.16,0.95-1.89,1.25C155.09,20.5,154.29,20.65,153.42,20.65z M153.46,18.38c0.49,0,0.95-0.09,1.36-0.27
			c0.42-0.18,0.77-0.43,1.07-0.75s0.52-0.69,0.69-1.11c0.17-0.42,0.25-0.87,0.25-1.35v-0.03c0-0.48-0.08-0.93-0.25-1.36
			c-0.17-0.43-0.4-0.8-0.71-1.12c-0.3-0.32-0.66-0.57-1.08-0.76c-0.42-0.19-0.87-0.28-1.36-0.28c-0.5,0-0.96,0.09-1.37,0.27
			c-0.41,0.18-0.76,0.43-1.06,0.75s-0.52,0.69-0.69,1.11s-0.25,0.87-0.25,1.35v0.03c0,0.48,0.08,0.93,0.25,1.36
			c0.17,0.43,0.4,0.8,0.71,1.12s0.66,0.57,1.07,0.76C152.5,18.29,152.95,18.38,153.46,18.38z"/>
		<path class="st18" d="M166.4,20.62c-0.85,0-1.69-0.15-2.52-0.44s-1.57-0.75-2.24-1.35l1.46-1.75c0.51,0.42,1.04,0.75,1.58,0.99
			c0.54,0.25,1.13,0.37,1.77,0.37c0.51,0,0.91-0.09,1.19-0.28s0.42-0.45,0.42-0.78v-0.03c0-0.16-0.03-0.3-0.09-0.42
			s-0.17-0.24-0.34-0.34c-0.17-0.11-0.4-0.21-0.69-0.32c-0.29-0.11-0.68-0.22-1.15-0.34c-0.57-0.14-1.08-0.29-1.54-0.46
			c-0.46-0.17-0.85-0.38-1.17-0.63s-0.57-0.56-0.75-0.94c-0.18-0.37-0.27-0.84-0.27-1.39v-0.03c0-0.51,0.1-0.97,0.29-1.39
			c0.19-0.41,0.46-0.77,0.8-1.07c0.35-0.3,0.76-0.53,1.24-0.69c0.48-0.16,1.01-0.24,1.58-0.24c0.82,0,1.58,0.12,2.27,0.37
			s1.32,0.6,1.9,1.06l-1.28,1.86c-0.5-0.34-0.99-0.61-1.47-0.81c-0.48-0.2-0.96-0.3-1.44-0.3s-0.84,0.09-1.08,0.28
			s-0.36,0.42-0.36,0.7v0.03c0,0.18,0.03,0.34,0.1,0.47s0.2,0.25,0.38,0.36c0.18,0.11,0.43,0.21,0.75,0.3
			c0.32,0.1,0.71,0.21,1.2,0.34c0.57,0.15,1.07,0.32,1.52,0.5c0.44,0.19,0.82,0.41,1.12,0.67c0.3,0.26,0.54,0.57,0.69,0.92
			s0.23,0.77,0.23,1.27v0.03c0,0.56-0.1,1.05-0.3,1.48s-0.48,0.8-0.84,1.09s-0.79,0.52-1.29,0.67
			C167.57,20.54,167.01,20.62,166.4,20.62z"/>
	</g>
	<g>
		<g>
			
			<linearGradient id="SVGID_00000087406625791615013600000018433380320732668545_" gradientUnits="userSpaceOnUse" x1="2.5644" y1="24.0073" x2="45.7636" y2="24.0073" gradientTransform="matrix(1 0 0 -1 0 39.2912)">
				<stop  offset="0" style="stop-color:#EC4747"/>
				<stop  offset="1" style="stop-color:#EA1D3A"/>
			</linearGradient>
			<path class="cloud" d="M31.88,30.02
				c0.91-1.03,1.06-2.54,0.12-3.74c0.05-0.01,0.1-0.02,0.14-0.02c0.32,0,0.65,0,0.97,0c4.21-0.05,7.81-2.95,8.7-7.07
				c0.93-4.31-1.4-8.49-5.29-10.13c-1.24-0.52-2.54-0.75-3.88-0.69c-1.05,0.05-2.05,0.27-3.02,0.67c-0.53,0.22-1.05,0.22-1.57-0.03
				c-0.36-0.17-0.64-0.44-0.84-0.79c-0.33-0.57-0.74-1.1-1.21-1.56c-1.24-1.23-2.72-1.99-4.45-2.25c-4.06-0.62-7.85,1.97-8.85,5.85
				c-0.18,0.68-0.26,1.38-0.25,2.08c0,0.28-0.03,0.55-0.14,0.81c-0.26,0.6-0.7,0.97-1.33,1.13c-1.14,0.28-2.13,0.84-2.94,1.69
				c-0.96,1-1.51,2.19-1.66,3.57c-0.34,3.1,1.73,5.9,4.69,6.57c0.4,0.09,0.82,0.14,1.23,0.15c0.36,0.01,0.72,0,1.08,0
				c0.06,0,0.12,0,0.21,0c-0.45,0.57-0.67,1.19-0.65,1.89c0.02,0.7,0.27,1.31,0.74,1.84c-0.03,0.01-0.05,0.02-0.07,0.02
				c-0.66-0.01-1.32,0-1.98-0.04c-1.01-0.06-1.98-0.3-2.91-0.68c-2.97-1.21-5.14-3.74-5.89-6.86c-0.2-0.86-0.29-1.73-0.26-2.61
				c0.17-3.94,2.57-7.24,6.01-8.69c0.13-0.05,0.17-0.12,0.19-0.26c0.17-1.49,0.6-2.9,1.33-4.21c1.67-2.98,4.16-4.91,7.47-5.77
				c1.17-0.3,2.37-0.4,3.57-0.31c3.38,0.27,6.15,1.72,8.32,4.33C29.5,4.96,29.54,5,29.58,5.05C29.8,5,30.01,4.94,30.22,4.89
				c1.1-0.26,2.22-0.35,3.34-0.31c5.76,0.28,10.44,4.3,11.81,9.6c0.21,0.82,0.34,1.65,0.38,2.5c0.15,3.5-0.94,6.56-3.28,9.15
				c-1.87,2.08-4.19,3.38-6.93,3.94c-0.81,0.17-1.64,0.24-2.47,0.25c-0.34,0-0.67,0-1.01,0C32.01,30.02,31.96,30.02,31.88,30.02z"/>
			<path class="st18" d="M24.37,62.2c0-0.1,0-0.18,0-0.26c0-3.62,0-7.24,0-10.85c0-0.45,0.11-0.85,0.39-1.21
				c0.38-0.49,0.88-0.73,1.49-0.74c0.49-0.01,0.97,0,1.46,0c1.83,0,3.66,0,5.49,0c0.72,0,1.28,0.32,1.66,0.94
				c0.19,0.3,0.26,0.64,0.26,1c0,3.62,0,7.25,0,10.87c0,0.08,0,0.15,0,0.26c0.08,0,0.14,0,0.2,0c0.5,0,1.01,0,1.51,0
				c0.94,0.01,1.72,0.74,1.81,1.67c0.06,0.56-0.12,1.05-0.49,1.47c-0.78,0.89-1.57,1.79-2.35,2.68c-1.51,1.73-3.03,3.46-4.54,5.19
				c-0.22,0.25-0.46,0.47-0.77,0.61c-0.75,0.33-1.61,0.13-2.17-0.49c-0.45-0.5-0.89-1.01-1.33-1.52c-1.89-2.15-3.77-4.31-5.66-6.46
				c-0.35-0.4-0.53-0.85-0.51-1.38c0.04-0.95,0.85-1.75,1.8-1.77c0.5-0.01,1.01,0,1.51,0C24.22,62.2,24.28,62.2,24.37,62.2z
				 M26.24,51.03c0,0.63,0,1.25,0,1.87c0,0.62,0,1.25,0,1.87c0,0.62,0,1.24,0,1.85c0,0.62,0,1.25,0,1.87c0,0.62,0,1.24,0,1.85
				c0,0.62,0,1.25,0,1.87c0,0.62,0,1.23,0,1.86c-1.18,0-2.34,0-3.5,0c0.12,0.2,6.9,7.93,7.02,8c2.32-2.66,4.64-5.31,6.95-7.97
				c0,0,0-0.01,0-0.02c0-0.01-0.01-0.01-0.02-0.03c-1.15,0-2.3,0-3.47,0c0-4.35,0-8.69,0-13.03C30.9,51.03,28.59,51.03,26.24,51.03z
				"/>
			
				<linearGradient id="SVGID_00000055697504947566767090000008116119033227358910_" gradientUnits="userSpaceOnUse" x1="15.76" y1="13.7363" x2="29.7344" y2="13.7363" gradientTransform="matrix(1 0 0 -1 0 39.2912)">
				<stop  offset="0" style="stop-color:#EC4747"/>
				<stop  offset="1" style="stop-color:#EA1D3A"/>
			</linearGradient>
			<path class="arrow" d="M19.26,15.03c2.34,0,4.66,0,6.98,0
				c0,4.35,0,8.68,0,13.03c1.17,0,2.33,0,3.47,0c0.01,0.02,0.01,0.03,0.02,0.03c0,0.01,0.01,0.01,0,0.02
				c-2.32,2.66-4.64,5.32-6.95,7.97c-0.12-0.08-6.9-7.81-7.02-8c1.16,0,2.32,0,3.5,0c0-0.63,0-1.25,0-1.86c0-0.62,0-1.25,0-1.87
				s0-1.24,0-1.85c0-0.62,0-1.25,0-1.87s0-1.24,0-1.85c0-0.62,0-1.25,0-1.87C19.26,16.28,19.26,15.67,19.26,15.03z"/>
		</g>
	</g>
</g>
</svg>
