<?xml version="1.0" encoding="utf-8"?>
<!-- Generator: Adobe Illustrator 26.0.0, SVG Export Plug-In . SVG Version: 6.00 Build 0)  -->
<svg version="1.1" id="Capa_1" xmlns="http://www.w3.org/2000/svg" xmlns:xlink="http://www.w3.org/1999/xlink" x="0px" y="0px"
	 viewBox="0 0 346.3 346.3" style="enable-background:new 0 0 346.3 346.3;" xml:space="preserve">
<style type="text/css">
	.st0wass{fill-rule:evenodd;clip-rule:evenodd;fill:url(#SVGID_1_);}
	.st1wass{fill-rule:evenodd;clip-rule:evenodd;fill:#FFFFFF;}
</style>
<g>
	
		<linearGradient id="SVGID_1_" gradientUnits="userSpaceOnUse" x1="177.1501" y1="5343.1001" x2="177.1501" y2="5640.8003" gradientTransform="matrix(1 0 0 1 0 -5322.0005)">
		<stop  offset="0" style="stop-color:#00C13E"/>
		<stop  offset="1" style="stop-color:#008530"/>
	</linearGradient>
	<path class="st0wass" d="M177.2,21.1c-82.7,0-150,66.8-150,148.9c0,32.6,10.6,62.7,28.6,87.3L37,312.5l57.6-18.3
		c23.7,15.5,52,24.6,82.5,24.6c82.7,0,150-66.8,150-148.8C327.2,87.9,259.9,21.1,177.2,21.1L177.2,21.1z"/>
	<g>
		<path class="st1wass" d="M346.3,168.7c0,93.1-76.1,168.7-170,168.7c-29.8,0-57.8-7.6-82.2-21L0,346.3l30.7-90.5
			c-15.5-25.4-24.4-55.2-24.4-87.1C6.3,75.5,82.4,0,176.3,0S346.3,75.5,346.3,168.7L346.3,168.7z M176.3,26.9
			c-78.8,0-142.9,63.6-142.9,141.8c0,31,10.1,59.8,27.2,83.1l-17.8,52.7L97.7,287c22.6,14.8,49.6,23.4,78.6,23.4
			c78.8,0,142.9-63.6,142.9-141.8C319.2,90.5,255.1,26.9,176.3,26.9L176.3,26.9z M262.1,207.5c-1.1-1.7-3.8-2.8-8-4.8
			c-4.2-2.1-24.7-12.1-28.5-13.5s-6.6-2.1-9.4,2.1c-2.8,4.1-10.8,13.5-13.2,16.2c-2.4,2.8-4.9,3.1-9,1c-4.2-2.1-17.6-6.4-33.5-20.5
			c-12.4-11-20.7-24.5-23.2-28.6c-2.4-4.1-0.2-6.4,1.8-8.4c1.9-1.9,4.2-4.8,6.3-7.2s2.8-4.2,4.2-6.9c1.4-2.8,0.7-5.2-0.4-7.2
			c-1-2.1-9.4-22.4-12.8-30.7c-3.4-8.3-6.9-8-9.4-8c-2.4,0-6.9,0.7-6.9,0.7s-8.4,1-12.2,5.2c-3.8,4.1-14.6,14.1-14.6,34.5
			c0,20.3,14.9,40,17,42.8s28.8,45.9,71.2,62.4s42.4,11,50,10.3s24.7-10,28.1-19.7C263.2,217.5,263.2,209.2,262.1,207.5L262.1,207.5
			z"/>
	</g>
</g>
</svg>
