<svg width="19" height="18" viewBox="0 0 19 18" fill="none" xmlns="http://www.w3.org/2000/svg">
<path fill-rule="evenodd" clip-rule="evenodd" d="M0.339355 3C0.339355 1.34315 1.6825 0 3.33936 0H15.3394C16.9962 0 18.3394 1.34315 18.3394 3V10.999C18.3394 10.9997 18.3394 11.0003 18.3394 11.001V15C18.3394 16.6569 16.9962 18 15.3394 18H3.33936C1.6825 18 0.339355 16.6569 0.339355 15V13.0002C0.339355 13.0001 0.339355 12.9999 0.339355 12.9998V3ZM2.33936 13.4142V15C2.33936 15.5523 2.78707 16 3.33936 16H15.3394C15.8916 16 16.3394 15.5523 16.3394 15V11.4142L15.0465 10.1213C14.6559 9.7308 14.0228 9.7308 13.6322 10.1213L12.7536 11L14.0465 12.2929C14.437 12.6834 14.437 13.3166 14.0465 13.7071C13.6559 14.0976 13.0228 14.0976 12.6322 13.7071L10.6326 11.7075C10.6325 11.7074 10.6324 11.7072 10.6322 11.7071C10.6321 11.707 10.632 11.7068 10.6319 11.7067L8.04646 9.12132C7.65594 8.7308 7.02277 8.7308 6.63225 9.12132L2.33936 13.4142ZM11.3394 9.58579L9.46068 7.70711C8.2891 6.53553 6.38961 6.53553 5.21803 7.70711L2.33936 10.5858V3C2.33936 2.44772 2.78707 2 3.33936 2H15.3394C15.8916 2 16.3394 2.44772 16.3394 3V8.59225C15.1614 7.53687 13.35 7.57516 12.218 8.70711L11.3394 9.58579ZM10.3394 5C10.3394 4.44772 10.7871 4 11.3394 4H11.3494C11.9016 4 12.3494 4.44772 12.3494 5C12.3494 5.55228 11.9016 6 11.3494 6H11.3394C10.7871 6 10.3394 5.55228 10.3394 5Z" fill="#545F71"/>
</svg>
