<?xml version="1.0" encoding="utf-8"?>
<!-- Generator: Adobe Illustrator 26.0.0, SVG Export Plug-In . SVG Version: 6.00 Build 0)  -->
<svg version="1.1" id="Capa_1" xmlns="http://www.w3.org/2000/svg" xmlns:xlink="http://www.w3.org/1999/xlink" x="0px" y="0px"
	 viewBox="0 0 80.82 55.38" style="enable-background:new 0 0 80.82 55.38;" xml:space="preserve">
<style type="text/css">
	.isost0{fill:#FFFFFF;}
	.isost1{fill:#231F20;}
</style>
<g>
	<path class="isost0" d="M9.64,25.18l-4.3-4.3V7.96l4.3-4.3h18.73v4.3H9.64v12.91h18.73v4.3H9.64z"/>
	<g>
		<polygon class="isost0" points="75.49,40.73 67.38,40.73 67.38,42.88 67.38,42.88 67.38,42.88 70.73,46.23 67.38,49.58 67.38,49.58 
			67.38,49.58 67.38,51.73 75.49,51.73 75.49,49.58 70.42,49.58 73.77,46.23 70.42,42.88 75.49,42.88 		"/>
		<rect x="26.32" y="44.77" class="isost0" width="9.02" height="2.91"/>
		<rect x="5.47" y="30.6" class="isost0" width="70.02" height="2.91"/>
		<polygon class="isost0" points="16.47,44.77 12.43,44.77 12.43,40.73 9.52,40.73 9.52,44.77 5.47,44.77 5.47,47.68 9.52,47.68 
			9.52,51.73 12.43,51.73 12.43,47.68 16.47,47.68 		"/>
		<path class="isost0" d="M55.58,46.23l2.36-5.5l-1.09,0l0,0h-1.52l-1.08,2.52c-0.88-1.52-2.4-2.52-4.13-2.52
			c-2.72,0-4.92,2.46-4.92,5.5c0,3.04,2.2,5.5,4.92,5.5c1.74,0,3.26-1.01,4.13-2.52l1.08,2.53h1.52l0,0l1.09,0L55.58,46.23z
			 M50.13,49.26c-1.4,0-2.53-1.36-2.53-3.03s1.13-3.03,2.53-3.03c1.03,0,1.92,0.74,2.31,1.8v-0.01c0,0.01,0.22,0.52,0.53,1.24
			c-0.31,0.72-0.53,1.23-0.53,1.24v-0.01C52.04,48.52,51.16,49.26,50.13,49.26z"/>
	</g>
	<path class="isost1" d="M52.46,25.18V3.65h18.73l4.3,4.3v17.22h-4.3V7.96H56.76v17.22H52.46z"/>
	<path class="isost0" d="M33.79,25.18V3.65h18.73l4.3,4.3v17.22h-4.3V7.96H38.09v17.22H33.79z"/>
</g>
</svg>
