<?xml version="1.0" encoding="utf-8"?>
<!-- Generator: Adobe Illustrator 26.0.0, SVG Export Plug-In . SVG Version: 6.00 Build 0)  -->
<svg version="1.1" id="Capa_1" xmlns="http://www.w3.org/2000/svg" xmlns:xlink="http://www.w3.org/1999/xlink" x="0px" y="0px"
	 viewBox="0 0 346.27 346.27" style="enable-background:new 0 0 346.27 346.27;" xml:space="preserve">
<style type="text/css">
	.st0whatss{fill-rule:evenodd;clip-rule:evenodd;fill:url(#SVGID_1_);}
	.st1whatss{fill-rule:evenodd;clip-rule:evenodd;fill:#FFFFFF;}
</style>
<g>
	<linearGradient id="SVGID_1_" gradientUnits="userSpaceOnUse" x1="176.4558" y1="47.4449" x2="176.4558" y2="293.5541">
		<stop  offset="0" style="stop-color:#00C13E"/>
		<stop  offset="1" style="stop-color:#008530"/>
	</linearGradient>
	<path class="st0whatss" d="M176.46,47.44c-68.4,0-124.02,55.2-124.02,123.06c0,26.91,8.77,51.86,23.62,72.15l-15.49,45.69l47.65-15.14
		c19.58,12.85,43.03,20.34,68.24,20.34c68.37,0,124.01-55.2,124.01-123.05C300.47,102.64,244.83,47.44,176.46,47.44L176.46,47.44z"
		/>
	<g>
		<path class="st1whatss" d="M316.27,169.45c0,77-62.92,139.44-140.53,139.44c-24.65,0-47.8-6.29-67.93-17.35L30,316.27l25.36-74.81
			c-12.8-21.02-20.16-45.66-20.16-72C35.2,92.43,98.12,30,175.74,30C253.35,30,316.27,92.43,316.27,169.45L316.27,169.45z
			 M175.74,52.21c-65.17,0-118.16,52.59-118.16,117.24c0,25.64,8.35,49.4,22.5,68.74l-14.75,43.53l45.4-14.42
			c18.65,12.24,41,19.38,65.01,19.38c65.14,0,118.15-52.59,118.15-117.23C293.89,104.8,240.88,52.21,175.74,52.21L175.74,52.21z
			 M246.7,201.57c-0.87-1.43-3.17-2.28-6.6-3.99c-3.45-1.71-20.39-9.98-23.55-11.12c-3.15-1.14-5.47-1.71-7.75,1.71
			c-2.3,3.42-8.9,11.12-10.92,13.4c-2,2.29-4.01,2.56-7.45,0.85c-3.45-1.71-14.56-5.33-27.71-16.96
			c-10.23-9.07-17.15-20.25-19.17-23.67c-2-3.42-0.2-5.26,1.51-6.97c1.55-1.54,3.45-3.99,5.17-5.98c1.73-2,2.3-3.44,3.45-5.72
			c1.15-2.28,0.58-4.27-0.29-5.98c-0.85-1.71-7.75-18.53-10.62-25.38c-2.85-6.83-5.73-6.58-7.75-6.58c-2,0-5.72,0.6-5.72,0.6
			s-6.91,0.85-10.06,4.27c-3.15,3.42-12.05,11.69-12.05,28.5c0,16.82,12.33,33.08,14.06,35.35c1.73,2.29,23.82,37.93,58.85,51.61
			c35.02,13.68,35.02,9.12,41.34,8.54c6.31-0.56,20.38-8.26,23.25-16.25C247.56,209.83,247.56,202.99,246.7,201.57L246.7,201.57z
			 M246.7,201.57"/>
	</g>
</g>
</svg>
