<?xml version="1.0" encoding="UTF-8"?>
<svg id="Capa_2" data-name="Capa 2" xmlns="http://www.w3.org/2000/svg" viewBox="0 0 230.73 59.59">
  <defs>
    <style>
      .cls-1 {
        fill: #ff0101;
      }

      .cls-2 {
        fill: #e32933;
      }
    </style>
  </defs>
  <g id="Capa_1-2" data-name="Capa 1">
    <g>
      <g>
        <g>
          <path class="cls-1" d="M63.02,28.71h-2.79l-.37-3.38h-1.82l-.37,3.38h-2.68l2.08-14.65h3.86l2.08,14.65ZM58.98,17.42h-.09l-.61,5.7h1.34l-.64-5.7Z"/>
          <path class="cls-1" d="M69.05,21.63h.09v-7.57h2.61v14.65h-2.52l-2.24-8.01h-.09v8.01h-2.61v-14.65h2.74l2.02,7.57ZM69.29,10.75h1.65c.18,1.65-.53,2.76-1.67,2.76-.35,0-.66-.11-1.18-.53-.35-.29-.48-.35-.66-.35-.29,0-.44.24-.46.86h-1.67c-.18-1.67.53-2.76,1.69-2.76.35,0,.66.09,1.16.53.37.26.48.33.66.33.33,0,.42-.2.48-.83Z"/>
          <path class="cls-1" d="M77.28,13.93c2.65,0,4.01,2.48,4.01,7.46s-1.32,7.46-4.01,7.46-4.04-2.48-4.04-7.46,1.34-7.46,4.04-7.46ZM78.05,17.39c-.15-.68-.39-1.03-.77-1.03s-.64.35-.79,1.03c-.15.68-.22,2.02-.22,3.99s.07,3.31.22,3.99c.15.68.42,1.03.79,1.03s.61-.35.77-1.03c.15-.68.22-2.02.22-3.99s-.07-3.31-.22-3.99Z"/>
          <path class="cls-1" d="M88.6,27.77c-.68.72-1.56,1.07-2.63,1.07-2.35,0-3.77-1.8-3.58-4.54l2.5-.5c-.15,1.65.22,2.68,1.01,2.68.59,0,.9-.42.9-1.21,0-.37-.11-.77-.35-1.16-.22-.42-.7-1.01-1.47-1.78-.99-1.03-1.67-1.89-2-2.54-.33-.66-.48-1.34-.48-2.04,0-1.12.33-2.04,1.01-2.74.68-.72,1.56-1.07,2.65-1.07,2.22,0,3.47,1.56,3.38,4.19l-2.46.48c.09-1.56-.22-2.35-.9-2.35-.55,0-.88.46-.88,1.18,0,.33.11.66.31,1.01.2.35.66.9,1.38,1.62,1.05,1.12,1.76,2.02,2.11,2.74.35.7.53,1.43.53,2.17,0,1.14-.35,2.06-1.03,2.79Z"/>
        </g>
        <path class="cls-1" d="M50.39,38.04c-1.16-4.6-4.72-8.26-9.34-9.34-4.05-.95-7.56-.07-9.09-.07l1.37-5.77h14.98v-8.81h-28.86l8.14-8.46L21.42,0S9.55,11.81,5.83,15.97C1.39,20.93,0,25.33,0,29.49c0,8.68,7.2,15.26,16.01,15.26,3.55,0,6.32-.92,9.12-2.53,1.26-.73,2.5-1.55,4.15-2.8,1.9-1.43,3.17-2.59,5.71-2.53,3.78.09,5.65,2.71,5.65,5.89s-2.24,6.23-5.95,6.23c-2.48,0-4.71-1.68-5.56-4.29l-8.67,4.35c2.25,4.93,7.48,9.16,14.45,9.21,10.53.08,18.5-8.24,15.48-20.25ZM15.94,35.2c-3.41,0-5.83-2.61-5.83-6.02s2.42-6.02,5.83-6.02,5.89,2.67,5.89,6.02-2.36,6.02-5.89,6.02Z"/>
        <g>
          <path class="cls-1" d="M58.53,39.68h-1.04l-.24-1.78h-1.07l-.24,1.78h-1l1.08-6.87h1.43l1.07,6.87ZM56.74,34.06h-.04l-.4,3.01h.84l-.4-3.01Z"/>
          <path class="cls-1" d="M60.36,37.06h-.17v2.62h-1.07v-6.87h1.25c1.31,0,1.93.68,1.93,2.12s-.63,2.13-1.93,2.13ZM60.34,33.7h-.15v2.47h.15c.63,0,.9-.37.9-1.25s-.25-1.22-.9-1.22Z"/>
          <path class="cls-1" d="M64.58,32.74c1.16,0,1.75,1.15,1.75,3.5s-.59,3.5-1.75,3.5-1.76-1.15-1.76-3.5.58-3.5,1.76-3.5ZM65.08,34.23c-.09-.38-.26-.57-.49-.57s-.4.2-.5.58c-.09.38-.14,1.05-.14,2.01s.05,1.64.14,2.02c.1.38.27.57.5.57s.4-.19.49-.56c.09-.38.14-1.05.14-2.03s-.05-1.65-.14-2.02Z"/>
          <path class="cls-1" d="M69.39,39.68c-.09-.17-.16-.44-.21-.76l-.17-1.37c-.08-.52-.26-.71-.7-.71h-.16v2.84h-1.08v-6.87h1.4c1.28,0,1.89.64,1.89,1.94,0,.9-.42,1.5-1.08,1.67v.02c.44.11.73.49.81,1.11l.17,1.31c.04.38.13.65.26.82h-1.13ZM68.31,33.69h-.16v2.32h.16c.69,0,.96-.28.96-1.15s-.27-1.16-.96-1.16Z"/>
          <path class="cls-1" d="M72.95,33.71v5.97h-1.08v-5.97h-1.01v-.91h3.11v.91h-1.02Z"/>
          <path class="cls-1" d="M77.51,39.68h-1.04l-.24-1.78h-1.07l-.24,1.78h-1l1.08-6.87h1.43l1.07,6.87ZM75.72,34.06h-.04l-.4,3.01h.84l-.4-3.01Z"/>
          <path class="cls-1" d="M80.34,36.93h.04v-4.13h.97v6.87h-.93l-1.31-4.43h-.04v4.43h-.98v-6.87h1.08l1.16,4.13Z"/>
          <path class="cls-1" d="M82.19,39.68v-6.87h1.23c1.47,0,2.12,1.04,2.12,3.46s-.65,3.42-2.12,3.42h-1.23ZM83.26,33.69v5.1h.15c.38,0,.64-.16.78-.48.15-.33.23-1.01.23-2.05s-.07-1.74-.23-2.07c-.14-.34-.4-.5-.78-.5h-.15Z"/>
          <path class="cls-1" d="M87.9,32.74c1.16,0,1.75,1.15,1.75,3.5s-.59,3.5-1.75,3.5-1.76-1.15-1.76-3.5.58-3.5,1.76-3.5ZM88.39,34.23c-.09-.38-.26-.57-.49-.57s-.4.2-.5.58c-.09.38-.14,1.05-.14,2.01s.05,1.64.14,2.02c.1.38.27.57.5.57s.4-.19.49-.56c.09-.38.14-1.05.14-2.03s-.05-1.65-.14-2.02Z"/>
        </g>
        <g>
          <path class="cls-1" d="M58.53,48.55h-1.04l-.24-1.78h-1.07l-.24,1.78h-1l1.08-6.88h1.43l1.07,6.88ZM56.74,42.93h-.04l-.4,3.02h.84l-.4-3.02Z"/>
          <path class="cls-1" d="M61.12,48.55v-6.88h1.08v5.97h1.41v.91h-2.49Z"/>
          <path class="cls-1" d="M67.72,48.55h-1.04l-.24-1.78h-1.07l-.24,1.78h-1l1.08-6.88h1.43l1.07,6.88ZM65.93,42.93h-.04l-.4,3.02h.84l-.4-3.02Z"/>
          <path class="cls-1" d="M72.55,45.8h.04v-4.13h.97v6.88h-.93l-1.31-4.44h-.04v4.44h-.98v-6.88h1.08l1.16,4.13Z"/>
          <path class="cls-1" d="M76.73,46.58v-4.9h1.08v4.85c0,1.4-.54,2.09-1.64,2.09s-1.65-.69-1.65-2.09v-4.85h1.08v4.9c0,.86.16,1.15.57,1.15s.56-.26.56-1.15Z"/>
          <path class="cls-1" d="M79.87,47.65h1.5v.91h-2.58v-6.88h2.59v.91h-1.51v2.03h1.18v.9h-1.18v2.14Z"/>
          <path class="cls-1" d="M83.81,46.58h.04l.72-4.9h1.07l-1.27,6.88h-1.11l-1.27-6.88h1.1l.71,4.9Z"/>
          <path class="cls-1" d="M89.31,48.55h-1.04l-.24-1.78h-1.07l-.24,1.78h-1l1.08-6.88h1.43l1.07,6.88ZM87.52,42.93h-.04l-.4,3.02h.84l-.4-3.02Z"/>
        </g>
        <g>
          <path class="cls-1" d="M56.03,56.52h1.5v.91h-2.58v-6.87h2.59v.91h-1.51v2.03h1.18v.9h-1.18v2.14Z"/>
          <path class="cls-1" d="M58.56,57.43v-6.87h1.23c1.47,0,2.12,1.04,2.12,3.46s-.65,3.42-2.12,3.42h-1.23ZM59.63,51.44v5.1h.15c.38,0,.64-.16.78-.48.15-.33.23-1.01.23-2.05s-.07-1.74-.23-2.07c-.14-.34-.4-.5-.78-.5h-.15Z"/>
          <path class="cls-1" d="M65.11,55.45v-4.9h1.08v4.85c0,1.4-.54,2.09-1.64,2.09s-1.65-.69-1.65-2.09v-4.85h1.08v4.9c0,.86.16,1.15.57,1.15s.56-.26.56-1.15Z"/>
          <path class="cls-1" d="M67.19,53.98c0-2.35.56-3.49,1.71-3.49.95,0,1.45.73,1.45,2.08l-.99.2c.01-.96-.14-1.33-.48-1.33-.4,0-.58.76-.58,2.54s.17,2.56.58,2.56c.36,0,.5-.38.49-1.34l.99.19c0,1.36-.51,2.1-1.47,2.1-1.14,0-1.7-1.16-1.7-3.51Z"/>
          <path class="cls-1" d="M74.65,57.43h-1.04l-.24-1.78h-1.07l-.24,1.78h-1l1.08-6.87h1.43l1.07,6.87ZM72.86,51.81h-.04l-.4,3.01h.84l-.4-3.01Z"/>
          <path class="cls-1" d="M75.21,53.98c0-2.35.56-3.49,1.71-3.49.95,0,1.45.73,1.45,2.08l-.99.2c.01-.96-.14-1.33-.48-1.33-.4,0-.58.76-.58,2.54s.17,2.56.58,2.56c.36,0,.5-.38.49-1.34l.99.19c0,1.36-.51,2.1-1.47,2.1-1.14,0-1.7-1.16-1.7-3.51Z"/>
          <path class="cls-1" d="M79.35,57.43v-6.87h1.08v6.87h-1.08Z"/>
          <path class="cls-1" d="M83.23,50.49c1.16,0,1.75,1.15,1.75,3.5s-.59,3.5-1.75,3.5-1.76-1.15-1.76-3.5.58-3.5,1.76-3.5ZM83.72,51.97c-.09-.38-.26-.57-.49-.57s-.4.2-.5.58c-.09.38-.14,1.05-.14,2.01s.05,1.64.14,2.02c.1.38.27.57.5.57s.4-.19.49-.56c.09-.38.14-1.05.14-2.03s-.05-1.65-.14-2.02ZM84.38,48.99l-.86,1.23h-.71l.36-1.23h1.21Z"/>
          <path class="cls-1" d="M88.26,54.68h.04v-4.13h.97v6.87h-.93l-1.31-4.43h-.04v4.43h-.98v-6.87h1.08l1.16,4.13Z"/>
        </g>
      </g>
      <g>
        <g>
          <path class="cls-2" d="M145.16,5.68c0,.08,0,.16,0,.21s-.02.09-.06.12c-.03.02-.08.04-.14.05-.07,0-.15,0-.26,0-.12,0-.2,0-.26,0-.07,0-.11,0-.14-.02-.03,0-.05-.02-.06-.04,0-.02,0-.04,0-.07l-.03-.93h-1.62l-.53.91s-.04.06-.06.08c-.02.02-.05.04-.08.06s-.08.02-.14.02c-.06,0-.14,0-.23,0-.1,0-.18,0-.24,0s-.09-.02-.11-.05c-.02-.02,0-.07,0-.12.02-.05.06-.12.11-.2l2.47-4.12s.05-.07.07-.1.06-.04.1-.06c.04-.02.1-.02.16-.02s.16,0,.27,0c.13,0,.23,0,.31,0,.07,0,.13,0,.17.02.04.02.07.03.07.06s.02.07.02.11l.19,4.11ZM144.12,2.27h0l-1.16,1.98h1.22l-.06-1.98Z"/>
          <path class="cls-2" d="M149.44,5.33c-.02.06-.03.11-.05.16-.02.04-.03.07-.04.11-.02.03-.03.06-.05.07-.02.02-.04.05-.07.07s-.09.07-.17.11-.18.08-.29.12-.24.07-.37.1c-.14.02-.28.04-.43.04-.3,0-.54-.05-.76-.15s-.37-.25-.49-.44c-.12-.2-.17-.44-.18-.73,0-.29.04-.63.15-1.02.11-.4.26-.75.44-1.06s.39-.56.63-.78c.23-.21.49-.36.76-.48.27-.11.56-.16.86-.16.12,0,.23,0,.34.03s.2.05.28.08.16.07.22.12c.07.05.11.08.12.12s.03.06.04.08c0,.02,0,.05,0,.08,0,.03,0,.07-.02.12,0,.04-.02.1-.04.16-.02.07-.04.13-.06.18-.02.05-.04.09-.06.12-.02.03-.04.06-.06.07-.02.02-.04.02-.06.02-.03,0-.07-.02-.11-.07-.04-.04-.09-.09-.16-.14-.07-.05-.15-.1-.25-.14s-.23-.07-.39-.07c-.17,0-.34.04-.49.12-.16.07-.3.18-.43.32s-.25.31-.35.51c-.11.2-.19.42-.26.68-.07.27-.12.51-.12.71s.02.36.08.49.15.22.27.29c.12.07.26.1.44.1.16,0,.3-.02.42-.06.12-.04.23-.08.33-.13.09-.05.17-.09.24-.13.07-.04.11-.06.14-.06.02,0,.04,0,.05.02s.02.02.02.06c0,.02,0,.07-.02.12-.03.06-.05.12-.07.21Z"/>
          <path class="cls-2" d="M154.18,5.68c0,.08,0,.16,0,.21s-.02.09-.06.12c-.03.02-.08.04-.14.05-.07,0-.15,0-.26,0-.12,0-.2,0-.26,0-.06,0-.11,0-.14-.02-.03,0-.05-.02-.06-.04,0-.02,0-.04,0-.07l-.03-.93h-1.62l-.53.91s-.04.06-.06.08c-.02.02-.05.04-.08.06s-.08.02-.14.02c-.06,0-.14,0-.23,0-.1,0-.18,0-.24,0s-.09-.02-.11-.05c-.02-.02,0-.07,0-.12.02-.05.06-.12.11-.2l2.47-4.12s.05-.07.07-.1.06-.04.1-.06.1-.02.16-.02.16,0,.27,0c.13,0,.23,0,.31,0,.07,0,.13,0,.17.02.04.02.07.03.07.06s.02.07.02.11l.19,4.11ZM153.15,2.27h0l-1.16,1.98h1.22l-.06-1.98Z"/>
          <path class="cls-2" d="M159.61,3.64c-.12.43-.27.79-.46,1.1s-.4.55-.65.74c-.25.19-.52.33-.82.42-.3.09-.64.13-1.02.13h-1.03c-.07,0-.13-.02-.16-.07-.03-.05-.04-.12,0-.23l1.12-4.06c.03-.11.07-.18.14-.23.07-.05.13-.07.21-.07h1.1c.39,0,.69.05.94.15.24.1.43.24.55.43.13.19.21.43.22.71.02.29-.02.61-.12.98ZM158.7,3.67c.06-.22.09-.43.1-.62s-.02-.35-.09-.49-.17-.25-.31-.32-.35-.12-.62-.12h-.45l-.87,3.16h.45c.24,0,.45-.03.63-.1s.35-.16.49-.31c.15-.13.27-.31.39-.5.11-.2.2-.44.27-.7Z"/>
          <path class="cls-2" d="M163,5.66c-.02.07-.04.13-.06.17-.02.05-.04.08-.06.12-.02.02-.04.05-.06.07-.02.02-.04.02-.06.02h-2.16c-.07,0-.13-.02-.16-.07-.03-.05-.04-.12,0-.23l1.12-4.06c.03-.11.07-.18.14-.23.07-.05.13-.07.21-.07h2.15s.03,0,.05.02c0,0,.02.03.02.07,0,.03,0,.07,0,.12s-.02.11-.04.18c-.02.07-.04.12-.06.17-.02.05-.03.08-.06.12-.02.02-.04.05-.06.07-.02.02-.04.02-.06.02h-1.53l-.31,1.14h1.3s.03,0,.05.02c.02.02.02.03.02.06s0,.07,0,.12-.02.11-.04.17-.04.12-.06.17c-.02.05-.04.08-.06.11-.02.02-.04.05-.06.06-.02,0-.04.02-.06.02h-1.3l-.36,1.31h1.55s.04,0,.05.02c.02.02.02.03.02.07,0,.02,0,.07,0,.12-.02.05-.03.11-.05.17Z"/>
          <path class="cls-2" d="M169.41,5.9s-.02.05-.03.07c-.02.02-.04.03-.08.05-.03,0-.08.02-.14.02-.06,0-.12,0-.21,0s-.15,0-.2,0-.09-.02-.12-.02c-.02,0-.04-.02-.05-.05,0-.02,0-.04,0-.07l1.05-3.78h0l-2.29,3.78s-.04.06-.07.07-.06.04-.09.05c-.04,0-.08.02-.14.02-.06,0-.12,0-.2,0-.07,0-.14,0-.19,0s-.09-.02-.12-.02c-.03-.02-.05-.03-.07-.05-.02-.02-.02-.04-.02-.07l-.16-3.78h0l-1.05,3.78s-.02.05-.03.07c-.02.02-.04.03-.08.05-.03,0-.08.02-.13.02-.06,0-.12,0-.21,0s-.15,0-.2,0-.09-.02-.12-.02-.05-.02-.06-.05c0-.02,0-.04,0-.07l1.15-4.14c.03-.12.09-.21.16-.28.07-.07.16-.1.26-.1h.57c.1,0,.19,0,.26.02.07.02.12.05.16.09.04.04.07.1.09.16s.02.16.02.26l.16,2.77h0l1.73-2.76c.06-.1.12-.19.16-.26.05-.07.11-.12.16-.16s.12-.07.19-.09c.07-.02.14-.02.22-.02h.59c.06,0,.11,0,.15.02.04.02.07.04.08.07.02.03.02.07.03.12,0,.05,0,.1-.02.16l-1.13,4.13Z"/>
          <path class="cls-2" d="M171.91,5.9s-.02.05-.04.07c-.02.02-.05.03-.08.05-.03,0-.08.02-.14.02-.06,0-.13,0-.21,0s-.16,0-.21,0c-.06,0-.1-.02-.12-.02-.03,0-.05-.02-.06-.05,0-.02,0-.04,0-.07l1.22-4.39s.02-.05.04-.07c.02-.02.05-.03.08-.05.04,0,.08-.02.14-.02.06,0,.13,0,.21,0s.16,0,.21,0c.06,0,.1.02.12.02.03,0,.05.02.06.05,0,.02,0,.04,0,.07l-1.22,4.39Z"/>
          <path class="cls-2" d="M177.12,5.68c0,.08,0,.16,0,.21s-.02.09-.06.12c-.03.02-.07.04-.14.05-.07,0-.15,0-.26,0-.12,0-.2,0-.26,0-.07,0-.11,0-.14-.02-.03,0-.05-.02-.06-.04,0-.02,0-.04,0-.07l-.03-.93h-1.62l-.53.91s-.04.06-.06.08c-.02.02-.05.04-.08.06s-.08.02-.14.02c-.06,0-.14,0-.23,0-.1,0-.18,0-.24,0s-.09-.02-.11-.05c-.02-.02,0-.07,0-.12.02-.05.06-.12.11-.2l2.47-4.12s.05-.07.07-.1.06-.04.1-.06c.04-.02.1-.02.16-.02s.16,0,.27,0c.13,0,.23,0,.31,0,.07,0,.13,0,.17.02.04.02.07.03.07.06s.02.07.02.11l.19,4.11ZM176.09,2.27h0l-1.16,1.98h1.22l-.06-1.98Z"/>
        </g>
        <path class="cls-2" d="M194,2.49h-10.43c-.55,0-1.11.45-1.27,1l-.14.49c-.15.54.17.99.72.99h10.43c.55,0,1.11-.45,1.27-.99l.14-.49c.15-.55-.17-1-.72-1Z"/>
        <path class="cls-2" d="M136.89,2.49h-10.43c-.54,0-1.11.45-1.27,1l-.14.49c-.15.54.17.99.72.99h10.43c.54,0,1.11-.45,1.27-.99l.14-.49c.16-.55-.16-1-.72-1Z"/>
        <g>
          <polygon class="cls-2" points="164.29 23.43 166.45 23.43 166.33 19.96 164.29 23.43"/>
          <path class="cls-2" d="M180.98,18.28c-.09-.02-.21-.05-.35-.07s-.35-.02-.63-.02h-.63l-.78,2.81h.78c.31,0,.59-.04.83-.12.22-.07.42-.16.58-.29.16-.12.29-.26.4-.42.12-.17.21-.39.27-.61.1-.35.11-.64.03-.87-.07-.2-.23-.33-.51-.42Z"/>
          <polygon class="cls-2" points="156.1 48.24 158.27 48.24 158.15 44.75 156.1 48.24"/>
          <path class="cls-2" d="M186.04,34.76l6.89-24.83h-69.52l-6.89,24.83h19.86l-6.89,24.83h94.35l6.89-24.83h-44.69ZM149.31,25.86c.12.11.29.22.5.35.2.12.45.24.77.35.29.1.64.15,1.07.15.26,0,.5-.03.71-.1.2-.06.38-.14.53-.24.14-.09.25-.21.35-.35.11-.15.19-.33.24-.53.06-.2.06-.35,0-.49-.07-.17-.19-.32-.35-.46-.19-.16-.41-.31-.68-.45-.29-.16-.58-.31-.88-.49-.31-.18-.62-.39-.9-.62-.3-.25-.55-.54-.74-.88-.2-.35-.32-.76-.38-1.22-.05-.47,0-1.03.19-1.67.21-.73.52-1.39.94-1.96.42-.57.92-1.06,1.47-1.43.55-.38,1.15-.66,1.81-.85.96-.27,1.97-.35,2.9-.19.31.06.61.13.88.22.26.09.5.2.7.32.23.14.37.26.45.38.07.12.12.21.14.32.02.09.02.2.02.32,0,.11-.03.24-.07.39-.03.13-.07.3-.12.49-.06.22-.12.4-.17.56-.06.17-.12.32-.19.45-.11.2-.22.35-.37.46-.18.14-.4.22-.63.22-.19,0-.36-.07-.58-.23-.12-.09-.27-.19-.46-.3-.17-.11-.4-.2-.64-.29-.23-.07-.5-.12-.81-.12-.22,0-.42.02-.59.08-.16.05-.29.12-.4.19-.1.07-.18.16-.26.26-.08.12-.14.26-.18.4-.06.19-.05.35,0,.49.07.16.19.32.35.45.2.16.43.31.69.45.3.16.59.32.9.49.31.18.62.39.91.61.31.25.56.54.77.88.2.35.33.76.39,1.22.05.47,0,1.02-.18,1.64-.22.8-.57,1.52-1.02,2.13-.45.62-1,1.14-1.6,1.55s-1.26.73-1.96.93c-.68.2-1.39.31-2.11.31-.48,0-.92-.04-1.32-.12-.39-.08-.73-.19-1.01-.31-.3-.12-.53-.26-.72-.4-.2-.15-.34-.28-.42-.41-.11-.16-.16-.39-.14-.66.02-.21.07-.49.17-.86.07-.24.13-.44.19-.6.07-.19.14-.35.22-.48.12-.2.26-.35.43-.45.38-.27.78-.28,1.2.07ZM144.09,13.45l1.05-1.4c.08-.11.21-.16.33-.16h1.79c.17,0,.32.11.39.26s.02.34-.1.45l-1.48,1.4c-.07.07-.18.12-.29.12h-1.35c-.16,0-.31-.09-.37-.23-.07-.14-.06-.31.03-.44ZM136.04,19.17c-.4.3-.87.29-1.24-.1-.11-.11-.26-.24-.44-.38-.17-.13-.4-.26-.67-.36-.25-.1-.57-.15-.96-.15-.42,0-.81.09-1.18.26-.38.18-.73.44-1.06.78-.35.36-.66.81-.93,1.33-.29.54-.53,1.17-.72,1.86-.21.76-.32,1.42-.33,1.96,0,.52.07.95.22,1.28.15.31.36.54.65.68.29.16.66.23,1.09.23.4,0,.76-.05,1.06-.15.34-.11.63-.22.87-.35.26-.13.48-.25.65-.35.58-.35.97-.34,1.21-.13.12.1.17.25.18.45,0,.12,0,.28-.05.47-.03.17-.08.39-.16.66-.06.19-.11.35-.16.49-.06.15-.11.28-.16.4-.07.13-.14.26-.23.36-.08.11-.19.21-.33.33-.15.12-.35.26-.66.41-.28.15-.6.28-.97.41-.36.12-.78.24-1.22.32-.45.08-.92.13-1.41.13-.96,0-1.79-.16-2.47-.48-.7-.32-1.25-.81-1.62-1.45-.37-.63-.57-1.43-.6-2.36-.02-.92.12-1.98.46-3.18.34-1.22.8-2.33,1.38-3.28.59-.97,1.26-1.81,2.02-2.47.77-.68,1.62-1.2,2.52-1.55.9-.35,1.84-.53,2.8-.53.4,0,.77.03,1.11.11.34.07.65.16.93.27.29.12.54.25.75.4.23.16.38.31.47.45.09.13.14.25.17.35.02.12.03.24.02.39,0,.12-.03.26-.07.42-.03.15-.07.33-.13.54-.07.22-.12.43-.19.59-.07.2-.15.36-.24.49-.11.19-.23.32-.38.43ZM136.44,29.45c-.2-.25-.23-.6-.1-1.07l3.33-12c.13-.47.36-.82.7-1.07.31-.23.67-.35,1.03-.35h6.45c.18,0,.34.06.45.16.11.1.16.24.18.43,0,.13,0,.28-.02.46-.02.16-.07.36-.13.59-.06.21-.12.41-.19.57-.07.19-.15.34-.24.47-.12.17-.25.31-.39.4-.18.12-.38.19-.57.19h-4.06l-.63,2.27h3.35c.18,0,.35.06.46.17.1.1.16.23.18.4.02.12,0,.28-.02.47-.02.16-.07.35-.13.57-.07.23-.12.42-.19.58-.07.18-.15.34-.24.46-.12.18-.26.32-.43.41-.17.1-.35.16-.53.16h-3.35l-.78,2.8h4.1c.18,0,.35.06.46.17.1.1.16.24.18.42.02.13,0,.28-.02.47-.02.16-.07.35-.13.58-.07.23-.12.42-.19.58-.07.19-.15.34-.24.47-.12.18-.26.32-.41.42-.18.12-.37.17-.55.17h-6.49c-.39,0-.68-.12-.87-.35ZM144.45,54.21c-.17.17-.39.3-.64.38-.18.06-.4.09-.66.1-.21,0-.5.02-.84.02-.27,0-.5,0-.69,0-.2,0-.38-.02-.53-.03-.17-.02-.31-.05-.42-.09-.12-.05-.23-.11-.31-.19-.1-.09-.16-.21-.2-.35-.02-.09-.03-.2-.03-.32l-.46-12.23c0-.3,0-.53.03-.71.07-.44.35-.69.5-.8.22-.16.49-.25.82-.28.22-.02.53-.02.9-.02.33,0,.58,0,.76.02.22.02.4.05.52.11.25.11.34.29.37.42.02.1.04.21.04.35l.16,8.87,5.01-8.79c.08-.16.16-.3.26-.41.15-.18.35-.33.59-.42.17-.07.38-.12.63-.13.2-.02.46-.02.79-.02s.59,0,.78.03c.31.04.52.16.62.36.07.14.12.39-.04.76-.07.18-.2.4-.36.68l-7.26,12.25c-.09.16-.2.31-.33.45ZM162.36,53.58c-.06.4-.27.65-.45.79-.21.17-.49.27-.82.31-.21.02-.49.03-.83.03s-.63,0-.82-.02c-.24-.02-.42-.04-.55-.09-.2-.07-.33-.18-.4-.34-.05-.11-.07-.23-.07-.39l-.08-2.37h-4.05l-1.34,2.31c-.07.13-.17.27-.27.39-.15.16-.35.29-.57.37-.16.06-.36.1-.61.12-.2.02-.45.02-.75.02-.34,0-.59,0-.78-.03-.31-.04-.52-.16-.63-.35-.07-.14-.13-.39.02-.76.07-.18.19-.41.36-.69l7.4-12.25c.11-.18.21-.32.34-.45.16-.17.38-.3.63-.37.18-.06.4-.09.66-.11.21,0,.5-.02.86-.02.4,0,.73,0,.96.02.28,0,.49.04.65.1.23.07.39.21.46.38.06.13.09.29.09.49l.61,12.23c0,.28,0,.51-.02.69ZM161.13,28.97c-.07.13-.17.27-.27.39-.15.16-.35.29-.57.37-.16.06-.36.1-.6.12-.2.02-.45.02-.74.02-.33,0-.59,0-.78-.04-.31-.04-.52-.16-.62-.35-.07-.14-.13-.38.02-.76.07-.18.19-.41.36-.69l7.37-12.21c.11-.17.21-.32.34-.44.16-.17.38-.3.63-.37.18-.06.4-.09.66-.1.21,0,.5-.02.85-.02.4,0,.73,0,.96.02.27.02.49.04.65.1.23.07.38.2.46.38.06.13.09.29.09.49l.61,12.19c0,.3,0,.52-.02.7-.06.4-.27.65-.45.78-.21.17-.49.27-.82.31-.21.02-.48.03-.83.03s-.63,0-.82-.02c-.24-.02-.41-.04-.55-.09-.2-.07-.33-.18-.4-.34-.05-.11-.07-.23-.07-.39l-.09-2.37h-4.03l-1.34,2.29ZM173.61,52.31c-.02.17-.07.36-.14.6-.07.23-.13.43-.2.6-.07.19-.15.35-.23.48-.12.19-.26.34-.41.45-.19.13-.39.2-.59.2h-5.94c-.36,0-.65-.12-.83-.35-.2-.25-.23-.61-.1-1.08l3.48-12.54c.05-.19.16-.37.32-.52.15-.14.34-.26.56-.32.15-.05.33-.08.55-.12.21-.02.44-.03.72-.03s.52,0,.7.03c.21.02.36.07.49.12.18.07.31.18.38.32.07.16.08.33.03.52l-2.93,10.56h3.52c.19,0,.35.06.47.17.11.11.16.25.18.43,0,.14,0,.3-.03.49ZM184.43,52.31c-.02.17-.07.36-.14.6-.07.23-.13.43-.2.6-.07.19-.15.35-.23.48-.12.19-.26.34-.41.45-.19.13-.39.2-.59.2h-5.94c-.36,0-.65-.12-.83-.35-.2-.25-.23-.61-.1-1.08l3.48-12.54c.05-.19.16-.37.32-.52.15-.14.34-.26.56-.32.15-.05.33-.08.55-.12.21-.02.44-.03.72-.03s.51,0,.7.03c.21.02.36.07.49.12.18.07.31.18.38.32.07.16.08.33.03.52l-2.93,10.56h3.52c.19,0,.35.06.47.17.1.11.16.25.18.43,0,.14,0,.3-.03.49ZM185.36,19.28c-.14.51-.34.98-.58,1.41-.25.44-.54.83-.89,1.18-.35.35-.73.65-1.17.91-.12.07-.24.13-.36.2.1.13.19.28.26.45.11.22.19.48.26.77.07.27.12.59.16.93l.34,2.7c.02.3.04.51.04.65,0,.17-.02.31-.05.43-.04.16-.12.31-.22.44-.14.18-.35.32-.61.4-.16.05-.36.09-.62.11-.21.02-.49.02-.83.02-.3,0-.53,0-.71-.02-.22-.02-.39-.06-.52-.12-.18-.08-.3-.2-.36-.35-.04-.11-.07-.22-.07-.35l-.31-3.04c-.04-.32-.09-.62-.15-.87-.05-.22-.12-.41-.21-.55-.07-.12-.17-.21-.3-.27-.12-.06-.29-.09-.49-.09h-.26l-1.3,4.7c-.05.19-.16.37-.32.52-.15.14-.34.25-.56.32-.15.05-.33.08-.54.12-.2.02-.43.04-.72.04s-.51,0-.69-.04c-.21-.02-.36-.07-.49-.12-.19-.07-.31-.19-.38-.34-.07-.15-.07-.32-.02-.5l3.46-12.5c.13-.47.36-.82.7-1.07.31-.23.67-.35,1.03-.35h3.35c.35,0,.63,0,.87.02.22.02.43.03.61.06.56.09,1.04.24,1.44.45.42.22.75.51.99.87.24.36.38.79.42,1.28.03.47-.02,1.02-.2,1.62ZM196.09,45.3c.18,0,.35.06.46.17.1.1.16.24.18.4.02.12,0,.28-.02.47-.02.16-.07.35-.13.57-.07.23-.12.42-.19.58-.07.19-.16.34-.24.46-.12.18-.27.32-.43.42-.17.1-.35.16-.53.16h-3.36l-.78,2.8h4.11c.18,0,.35.07.46.17.1.1.16.24.18.42.02.13,0,.28-.02.47-.02.16-.07.35-.13.59-.07.23-.12.42-.19.59-.07.19-.15.34-.24.47-.12.18-.26.32-.41.42-.18.12-.37.17-.55.17h-6.51c-.36,0-.65-.12-.83-.35-.2-.25-.23-.61-.1-1.08l3.34-12.04c.13-.47.36-.83.7-1.08.31-.23.68-.35,1.03-.35h6.46c.18,0,.34.06.45.16.11.1.16.24.18.43.02.13,0,.28-.02.47-.02.16-.07.36-.13.59-.06.21-.12.41-.19.57-.07.19-.16.34-.24.47-.12.17-.25.31-.39.4-.18.12-.38.19-.57.19h-4.07l-.63,2.28h3.34ZM207.54,40.64l-2.66,9.61c-.18.66-.41,1.27-.68,1.81-.29.58-.64,1.08-1.07,1.49-.44.43-.96.76-1.53.98-.55.21-1.2.32-1.9.32-.23,0-.45-.02-.67-.06-.21-.03-.4-.08-.58-.14-.17-.06-.32-.12-.45-.19-.17-.09-.27-.18-.34-.29-.04-.07-.08-.16-.1-.25-.02-.09-.03-.2-.02-.32,0-.12.02-.25.06-.4.03-.13.07-.29.12-.49.07-.26.14-.47.2-.64.07-.2.13-.36.2-.49.11-.21.24-.36.4-.48.32-.23.73-.28,1.05-.06.06.04.12.08.21.12.07.04.15.07.25.12.13.05.4.06.56,0,.02,0,.06-.02.11-.07s.12-.15.21-.34c.09-.18.18-.43.26-.74l2.63-9.49c.06-.2.17-.38.34-.53.14-.13.32-.23.53-.31.16-.05.35-.09.57-.12.2-.02.44-.03.71-.03s.5,0,.68.03c.21.02.36.06.49.11.19.07.31.17.39.31.07.16.09.34.04.54ZM222.38,47.02c-.33,1.2-.78,2.28-1.32,3.22-.55.97-1.23,1.81-1.99,2.5-.78.69-1.65,1.23-2.61,1.59-.94.36-1.97.54-3.07.54s-1.98-.16-2.7-.45c-.75-.31-1.32-.8-1.7-1.44-.38-.63-.57-1.44-.57-2.41,0-.93.17-2.05.52-3.31.32-1.16.76-2.23,1.3-3.17.55-.96,1.22-1.79,1.98-2.47.78-.69,1.65-1.22,2.61-1.59.94-.36,1.98-.54,3.08-.54,1.05,0,1.94.15,2.66.45.75.31,1.33.79,1.71,1.43.38.63.58,1.43.59,2.39,0,.92-.16,2.01-.5,3.26Z"/>
          <path class="cls-2" d="M218.13,43.16c-.29-.18-.72-.28-1.26-.28s-1.02.11-1.42.31c-.42.21-.78.49-1.1.86-.34.38-.63.82-.87,1.34-.26.54-.47,1.13-.63,1.74-.2.72-.33,1.37-.39,1.94-.05.54-.02.99.1,1.36.11.34.3.59.59.77.3.18.73.27,1.28.27s1.02-.11,1.43-.31c.41-.21.78-.49,1.1-.86.34-.39.63-.84.87-1.36.26-.55.48-1.15.65-1.77.19-.69.31-1.33.37-1.89.05-.53.02-.97-.11-1.34-.12-.34-.31-.59-.61-.78Z"/>
        </g>
      </g>
    </g>
  </g>
</svg>