<?xml version="1.0" encoding="utf-8"?>
<!-- Generator: Adobe Illustrator 26.0.0, SVG Export Plug-In . SVG Version: 6.00 Build 0)  -->
<svg version="1.1" id="Capa_1" xmlns="http://www.w3.org/2000/svg" xmlns:xlink="http://www.w3.org/1999/xlink" x="0px" y="0px"
	 viewBox="0 0 291.33 106" style="enable-background:new 0 0 291.33 106;" xml:space="preserve">
<style type="text/css">
	.st0{fill:#CB2624;}
	.st1{fill:#0050A1;}
	.st2{fill:#FFFFFF;}
	.st3{fill:#01295F;}
	.st4{fill:none;stroke:#D62E54;stroke-miterlimit:10;}
</style>
<g>
	<g>
		<g>
			<g>
				<path class="st0" d="M108.37,54.25c0.66,0.81,0.99,1.8,0.99,2.96c0,1.88-0.67,3.33-2.02,4.36c-1.34,1.03-3.23,1.55-5.67,1.55
					h-7.85V42.59h7.27c2.41,0,4.28,0.47,5.59,1.42c1.31,0.95,1.97,2.28,1.97,4c0,2.1-1.03,3.53-3.1,4.29v0.17
					C106.77,52.85,107.71,53.44,108.37,54.25z M104.28,48.29c0-1.7-1.14-2.55-3.41-2.55h-2.9v5.3h2.9
					C103.15,51.04,104.28,50.12,104.28,48.29z M104.01,59.17c0.61-0.53,0.91-1.28,0.91-2.24c0-0.92-0.32-1.62-0.95-2.1
					c-0.64-0.48-1.57-0.71-2.81-0.71h-3.18v5.86h3.48C102.55,59.97,103.4,59.7,104.01,59.17z"/>
				<path class="st0" d="M119.52,60.22c0.75,0,1.51-0.09,2.28-0.26c0.76-0.17,1.61-0.45,2.53-0.84l1.05,2.7
					c-2.3,1.07-4.43,1.59-6.38,1.58c-2.39,0-4.28-0.7-5.64-2.09c-1.37-1.4-2.05-3.33-2.05-5.81c0-2.47,0.67-4.4,2.01-5.78
					c1.34-1.38,3.22-2.07,5.63-2.07c4.54,0,6.8,2.57,6.8,7.71v0.99h-10.21C115.75,58.93,117.08,60.22,119.52,60.22z M118.97,50.66
					c-0.96,0-1.72,0.26-2.27,0.79c-0.55,0.52-0.91,1.32-1.08,2.38h6.14C121.63,51.72,120.7,50.66,118.97,50.66z"/>
				<path class="st0" d="M136.66,47.71c0.37,0,0.68,0.02,0.94,0.06s0.59,0.12,1,0.23l-0.49,3.79c-0.81-0.29-1.53-0.43-2.15-0.42
					c-0.68,0-1.25,0.12-1.72,0.36s-0.87,0.62-1.19,1.14v10.25h-4.36V47.95h3.45l0.52,2.11C133.61,48.49,134.94,47.71,136.66,47.71z"
					/>
				<path class="st0" d="M146.4,63.35c-3.34,0-5.01-1.59-5.01-4.78v-7.58h-2.5v-3.04h2.79l0.83-4.34h3.2v4.34h4.14v3.04h-4.14v6.97
					c0,0.77,0.14,1.32,0.43,1.65s0.78,0.49,1.48,0.49c0.59,0,1.23-0.12,1.91-0.35l0.64,2.79C148.85,63.08,147.6,63.35,146.4,63.35z"
					/>
				<path class="st0" d="M165.12,49.64c1.33,1.36,1.99,3.32,1.99,5.86c0,2.55-0.66,4.51-1.99,5.88c-1.33,1.38-3.24,2.07-5.74,2.07
					c-2.47,0-4.38-0.69-5.71-2.06c-1.34-1.37-2.01-3.34-2.01-5.89s0.66-4.5,1.99-5.86s3.24-2.04,5.73-2.04
					C161.87,47.59,163.79,48.27,165.12,49.64z M156.02,55.5c0,3.11,1.12,4.67,3.35,4.67c2.24,0,3.37-1.56,3.37-4.67
					c0-3.11-1.12-4.66-3.37-4.65C157.14,50.84,156.02,52.39,156.02,55.5z"/>
				<path class="st0" d="M170.18,41.34h4.34v21.78h-4.34V41.34z"/>
				<path class="st0" d="M184.42,63.35c-3.34,0-5.01-1.59-5.01-4.78v-7.58h-2.5v-3.04h2.79l0.83-4.34h3.2v4.34h4.14v3.04h-4.14v6.97
					c0,0.77,0.14,1.32,0.43,1.65s0.78,0.49,1.48,0.49c0.59,0,1.23-0.12,1.91-0.35l0.64,2.79C186.87,63.08,185.62,63.35,184.42,63.35
					z"/>
				<path class="st0" d="M212.13,54.25c0.66,0.81,0.99,1.8,0.99,2.96c0,1.88-0.67,3.33-2.02,4.36c-1.34,1.03-3.23,1.55-5.66,1.55
					h-7.85V42.59h7.27c2.41,0,4.28,0.47,5.59,1.42c1.31,0.95,1.97,2.28,1.97,4c0,2.1-1.03,3.53-3.1,4.29v0.17
					C210.53,52.85,211.47,53.44,212.13,54.25z M208.04,48.29c0-1.7-1.14-2.55-3.41-2.55h-2.9v5.3h2.9
					C206.9,51.04,208.04,50.12,208.04,48.29z M207.77,59.17c0.61-0.53,0.91-1.28,0.91-2.24c0-0.92-0.32-1.62-0.95-2.1
					c-0.64-0.48-1.57-0.71-2.81-0.71h-3.18v5.86h3.48C206.31,59.97,207.16,59.7,207.77,59.17z"/>
				<path class="st0" d="M224.15,47.71c0.37,0,0.68,0.02,0.94,0.06s0.59,0.12,1,0.23l-0.49,3.79c-0.81-0.29-1.53-0.43-2.15-0.42
					c-0.68,0-1.25,0.12-1.72,0.36s-0.87,0.62-1.19,1.14v10.25h-4.36V47.95h3.45l0.52,2.11C221.1,48.49,222.43,47.71,224.15,47.71z"
					/>
				<path class="st0" d="M235.08,60.22c0.75,0,1.51-0.09,2.28-0.26c0.76-0.17,1.61-0.45,2.53-0.84l1.05,2.7
					c-2.3,1.07-4.43,1.59-6.38,1.58c-2.39,0-4.28-0.7-5.64-2.09c-1.37-1.4-2.05-3.33-2.05-5.81c0-2.47,0.67-4.4,2.01-5.78
					c1.34-1.38,3.22-2.07,5.63-2.07c4.54,0,6.8,2.57,6.8,7.71v0.99H231.1C231.32,58.93,232.65,60.22,235.08,60.22z M234.53,50.66
					c-0.96,0-1.72,0.26-2.27,0.79c-0.55,0.52-0.91,1.32-1.08,2.38h6.14C237.19,51.72,236.27,50.66,234.53,50.66z"/>
				<path class="st0" d="M255.38,48.78l-0.96,2.87c-1.03-0.54-2.02-0.81-2.98-0.81c-1.25,0-2.22,0.41-2.91,1.22
					c-0.68,0.81-1.03,1.96-1.03,3.44c0,1.47,0.35,2.61,1.05,3.41c0.7,0.8,1.71,1.2,3.03,1.2c1.08,0,2.15-0.23,3.18-0.69l0.69,2.96
					c-0.7,0.31-1.45,0.55-2.26,0.72c-0.81,0.17-1.58,0.26-2.32,0.26c-2.51,0-4.43-0.67-5.76-2.02c-1.33-1.35-1.99-3.29-1.99-5.83
					c0-2.47,0.68-4.39,2.05-5.75s3.3-2.04,5.8-2.04C252.53,47.71,253.99,48.07,255.38,48.78z"/>
				<path class="st0" d="M264.66,48.24c0.85-0.36,1.78-0.54,2.79-0.54c1.58,0,2.81,0.46,3.66,1.38c0.86,0.92,1.29,2.24,1.29,3.95
					v10.08h-4.34v-9.84c0-0.89-0.17-1.53-0.52-1.92c-0.35-0.4-0.91-0.59-1.68-0.59c-0.7,0-1.35,0.16-1.95,0.47
					c-0.6,0.32-1.09,0.74-1.46,1.28v10.61h-4.36V41.29h4.36v8.51C263.07,49.12,263.81,48.6,264.66,48.24z"/>
				<path class="st0" d="M281.9,63.35c-3.34,0-5.01-1.59-5.01-4.78v-7.58h-2.5v-3.04h2.79l0.83-4.34h3.2v4.34h4.14v3.04h-4.14v6.97
					c0,0.77,0.14,1.32,0.43,1.65s0.78,0.49,1.48,0.49c0.59,0,1.23-0.12,1.91-0.35l0.64,2.79C284.35,63.08,283.1,63.35,281.9,63.35z"
					/>
			</g>
			<g>
				<path class="st0" d="M102.85,18.37c0.72,0.2,1.4,0.49,2.04,0.87l-0.81,1.55c-0.62-0.33-1.21-0.57-1.76-0.71s-1.1-0.22-1.66-0.22
					c-1.53,0-2.71,0.46-3.54,1.39c-0.83,0.93-1.25,2.25-1.25,3.97c0,1.74,0.41,3.07,1.23,4.01s1.99,1.41,3.5,1.41
					c1.2,0,2.43-0.28,3.68-0.83l0.71,1.63c-0.66,0.3-1.39,0.55-2.18,0.72c-0.79,0.18-1.56,0.27-2.29,0.27
					c-2.17,0-3.83-0.62-4.97-1.86c-1.14-1.24-1.72-3.02-1.72-5.35c0-1.48,0.27-2.76,0.81-3.83s1.32-1.9,2.35-2.47
					c1.02-0.57,2.24-0.85,3.67-0.85C101.4,18.08,102.12,18.18,102.85,18.37z"/>
				<path class="st0" d="M114.91,23.28c0.87,0.93,1.3,2.23,1.3,3.89c0,1.67-0.43,2.97-1.3,3.89s-2.08,1.39-3.65,1.39
					s-2.8-0.46-3.66-1.39c-0.87-0.93-1.3-2.22-1.3-3.89s0.43-2.97,1.3-3.89c0.87-0.93,2.09-1.39,3.66-1.39
					C112.82,21.89,114.04,22.36,114.91,23.28z M109.01,24.47c-0.51,0.62-0.77,1.52-0.77,2.71c0,1.18,0.26,2.08,0.77,2.7
					s1.26,0.93,2.24,0.93c0.97,0,1.72-0.31,2.23-0.93c0.52-0.62,0.77-1.52,0.77-2.7s-0.26-2.08-0.77-2.7
					c-0.52-0.62-1.26-0.94-2.23-0.94C110.27,23.54,109.53,23.85,109.01,24.47z"/>
				<path class="st0" d="M118.77,17.4h1.91v14.9h-1.91V17.4z"/>
				<path class="st0" d="M126.06,29.97c0.53,0.56,1.27,0.84,2.23,0.84c0.53,0,1.04-0.05,1.53-0.16c0.49-0.11,1.05-0.3,1.68-0.56
					l0.61,1.39c-0.72,0.34-1.4,0.59-2.02,0.75c-0.63,0.16-1.26,0.24-1.9,0.24c-1.57,0-2.8-0.46-3.66-1.39
					c-0.87-0.93-1.3-2.22-1.3-3.89s0.43-2.96,1.28-3.89c0.85-0.92,2.06-1.38,3.62-1.38c1.46,0,2.55,0.43,3.27,1.29
					c0.72,0.86,1.08,2.17,1.08,3.91v0.42h-7.3C125.24,28.59,125.53,29.4,126.06,29.97z M129.82,24.17c-0.41-0.4-0.97-0.61-1.68-0.61
					c-1.59,0-2.54,0.8-2.85,2.41h5.22C130.46,25.17,130.23,24.57,129.82,24.17z"/>
				<path class="st0" d="M140.68,22.2c0.43,0.13,0.8,0.3,1.13,0.53l0.23-0.64h1.58v10.5c0,1.36-0.45,2.44-1.34,3.22
					c-0.89,0.79-2.11,1.18-3.65,1.18c-0.77,0-1.52-0.09-2.25-0.28c-0.72-0.18-1.36-0.44-1.92-0.77l0.71-1.49
					c0.49,0.26,1.06,0.48,1.72,0.64c0.65,0.16,1.27,0.25,1.86,0.25c0.95,0,1.68-0.24,2.19-0.7c0.52-0.47,0.77-1.14,0.77-2.01v-1.47
					c-0.83,0.87-1.82,1.31-2.99,1.31c-1.46,0-2.59-0.44-3.39-1.33c-0.8-0.89-1.2-2.14-1.2-3.78c0-1.69,0.45-3.01,1.36-3.94
					s2.19-1.4,3.86-1.4C139.81,22.01,140.25,22.07,140.68,22.2z M136.98,24.57c-0.6,0.68-0.9,1.6-0.9,2.78
					c0,1.1,0.24,1.95,0.72,2.55c0.48,0.6,1.16,0.9,2.04,0.9c0.68,0,1.27-0.18,1.78-0.54s0.87-0.86,1.09-1.5v-4.61
					c-0.31-0.19-0.67-0.33-1.07-0.44c-0.4-0.1-0.8-0.16-1.19-0.16C138.41,23.56,137.58,23.9,136.98,24.57z"/>
				<path class="st0" d="M146.97,18.31h1.91v1.91h-1.91V18.31z M146.97,22.09h1.91V32.3h-1.91V22.09z"/>
				<path class="st0" d="M160.03,23.28c0.87,0.93,1.3,2.23,1.3,3.89c0,1.67-0.43,2.97-1.3,3.89s-2.08,1.39-3.65,1.39
					s-2.8-0.46-3.66-1.39c-0.87-0.93-1.3-2.22-1.3-3.89s0.43-2.97,1.3-3.89c0.87-0.93,2.09-1.39,3.66-1.39
					C157.95,21.89,159.16,22.36,160.03,23.28z M154.14,24.47c-0.51,0.62-0.77,1.52-0.77,2.71c0,1.18,0.26,2.08,0.77,2.7
					s1.26,0.93,2.24,0.93c0.97,0,1.72-0.31,2.23-0.93c0.52-0.62,0.77-1.52,0.77-2.7s-0.26-2.08-0.77-2.7
					c-0.52-0.62-1.26-0.94-2.23-0.94C155.4,23.54,154.65,23.85,154.14,24.47z"/>
			</g>
			<g>
				<path class="st1" d="M93.83,73.75h1.46l1.8,5.22c0.47,1.36,0.85,2.52,1.15,3.48c0.27-0.86,0.65-2.02,1.16-3.48l1.8-5.22h1.46
					l-3.49,10.21h-1.84L93.83,73.75z"/>
				<path class="st1" d="M104.03,73.8h1.35v1.39h-1.35V73.8z M104.03,76.54h1.35v7.41h-1.35V76.54z"/>
				<path class="st1" d="M116.43,82.26c0.38,0.41,0.9,0.61,1.58,0.61c0.38,0,0.74-0.04,1.09-0.12c0.35-0.08,0.75-0.22,1.19-0.41
					l0.43,1.01c-0.51,0.25-0.99,0.43-1.44,0.54c-0.45,0.12-0.89,0.17-1.34,0.17c-1.12,0-1.98-0.34-2.6-1.01
					c-0.61-0.67-0.92-1.61-0.92-2.82s0.3-2.15,0.91-2.82s1.46-1,2.57-1c1.04,0,1.81,0.31,2.32,0.94c0.51,0.62,0.76,1.57,0.76,2.84
					v0.3h-5.18C115.85,81.26,116.06,81.85,116.43,82.26z M119.1,78.05c-0.29-0.29-0.69-0.44-1.19-0.44c-1.13,0-1.8,0.58-2.02,1.75
					h3.7C119.55,78.78,119.39,78.35,119.1,78.05z"/>
				<path class="st1" d="M124.06,82.51v1.44h-1.44v-1.44H124.06z"/>
				<path class="st1" d="M135.72,74.52c0.6,0.51,0.9,1.26,0.9,2.23c0,0.96-0.31,1.71-0.92,2.23c-0.61,0.52-1.47,0.78-2.59,0.78
					h-1.63v4.2h-1.39V73.75h3.01C134.25,73.75,135.12,74,135.72,74.52z M135.18,76.75c0-0.6-0.17-1.04-0.5-1.33
					c-0.34-0.29-0.85-0.44-1.56-0.44h-1.63v3.56h1.63C134.49,78.53,135.18,77.94,135.18,76.75z"/>
				<path class="st1" d="M138.21,73.8h1.35v1.39h-1.35V73.8z M138.21,76.54h1.35v7.41h-1.35V76.54z"/>
				<path class="st1" d="M143.37,82.26c0.38,0.41,0.9,0.61,1.58,0.61c0.38,0,0.74-0.04,1.09-0.12c0.35-0.08,0.75-0.22,1.19-0.41
					l0.43,1.01c-0.51,0.25-0.99,0.43-1.44,0.54c-0.45,0.12-0.89,0.17-1.34,0.17c-1.12,0-1.98-0.34-2.6-1.01
					c-0.61-0.67-0.92-1.61-0.92-2.82s0.3-2.15,0.91-2.82s1.46-1,2.57-1c1.04,0,1.81,0.31,2.32,0.94c0.51,0.62,0.76,1.57,0.76,2.84
					v0.3h-5.17C142.79,81.26,142.99,81.85,143.37,82.26z M146.03,78.05c-0.29-0.29-0.69-0.44-1.19-0.44c-1.13,0-1.8,0.58-2.02,1.75
					h3.7C146.48,78.78,146.32,78.35,146.03,78.05z"/>
				<path class="st1" d="M152.08,76.7c0.43-0.19,0.91-0.29,1.44-0.29c0.79,0,1.39,0.23,1.81,0.68c0.42,0.46,0.63,1.12,0.63,1.99
					v4.87h-1.36v-4.77c0-0.55-0.11-0.95-0.34-1.2c-0.23-0.25-0.59-0.37-1.08-0.37c-0.44,0-0.85,0.1-1.24,0.3
					c-0.39,0.2-0.69,0.47-0.93,0.82v5.23h-1.35v-7.41h1.1l0.15,1.04C151.26,77.19,151.65,76.9,152.08,76.7z"/>
				<path class="st1" d="M162.49,76.89l-0.36,1.13c-0.7-0.28-1.29-0.42-1.75-0.42c-0.42,0-0.75,0.08-1,0.24
					c-0.25,0.16-0.37,0.38-0.37,0.67c0,0.27,0.11,0.47,0.32,0.61c0.22,0.14,0.54,0.28,0.97,0.41c0.51,0.16,0.92,0.32,1.22,0.45
					c0.3,0.14,0.57,0.36,0.79,0.66c0.23,0.3,0.34,0.71,0.34,1.21c0,0.68-0.25,1.22-0.74,1.63c-0.49,0.4-1.15,0.61-1.99,0.61
					c-0.87,0-1.71-0.19-2.53-0.56l0.42-1.17c0.46,0.19,0.85,0.33,1.16,0.41s0.62,0.12,0.93,0.12c0.44,0,0.78-0.09,1.02-0.26
					c0.24-0.17,0.36-0.42,0.36-0.75c0-0.21-0.07-0.39-0.2-0.52s-0.3-0.25-0.5-0.32c-0.2-0.08-0.48-0.18-0.85-0.29
					c-0.44-0.15-0.8-0.29-1.09-0.43c-0.28-0.14-0.53-0.36-0.72-0.65c-0.2-0.29-0.3-0.67-0.3-1.14c0-0.64,0.25-1.15,0.74-1.53
					c0.5-0.38,1.16-0.57,1.98-0.57C160.99,76.41,161.69,76.57,162.49,76.89z"/>
				<path class="st1" d="M169.02,77.16c0.5,0.49,0.75,1.18,0.75,2.08v4.72h-1.04l-0.2-0.87c-0.72,0.67-1.53,1.01-2.44,1.01
					c-0.74,0-1.33-0.2-1.77-0.6s-0.65-0.93-0.65-1.61c0-0.78,0.32-1.39,0.96-1.82c0.64-0.44,1.53-0.65,2.69-0.65h1.09v-0.2
					c-0.04-1.06-0.58-1.58-1.63-1.58c-0.32,0-0.68,0.05-1.08,0.15s-0.8,0.23-1.2,0.39l-0.37-1.1c0.43-0.2,0.89-0.36,1.37-0.47
					s0.94-0.17,1.38-0.17C167.81,76.43,168.52,76.67,169.02,77.16z M165.65,80.82c-0.42,0.25-0.63,0.59-0.63,1.03
					c0,0.34,0.11,0.6,0.35,0.78c0.23,0.18,0.55,0.27,0.96,0.27c0.39,0,0.78-0.08,1.15-0.25c0.38-0.17,0.68-0.39,0.92-0.67v-1.53
					h-1.01C166.65,80.45,166.07,80.57,165.65,80.82z"/>
				<path class="st1" d="M173.3,82.51v1.44h-1.44v-1.44H173.3z"/>
				<path class="st1" d="M185.12,74.97h-2.98v8.98h-1.39v-8.98h-3.16v-1.22h7.53L185.12,74.97L185.12,74.97z"/>
				<path class="st1" d="M188.18,76.71c0.35-0.2,0.73-0.3,1.14-0.3c0.28,0,0.6,0.05,0.96,0.16l-0.25,1.33
					c-0.47-0.09-0.79-0.14-0.95-0.15c-0.41,0-0.75,0.08-1.02,0.23c-0.27,0.16-0.5,0.41-0.69,0.75v5.22h-1.35v-7.41h1.08l0.17,1.04
					C187.53,77.2,187.83,76.91,188.18,76.71z"/>
				<path class="st1" d="M196.14,77.16c0.5,0.49,0.75,1.18,0.75,2.08v4.72h-1.04l-0.2-0.87c-0.72,0.67-1.53,1.01-2.44,1.01
					c-0.74,0-1.33-0.2-1.77-0.6s-0.65-0.93-0.65-1.61c0-0.78,0.32-1.39,0.96-1.82c0.64-0.44,1.53-0.65,2.69-0.65h1.09v-0.2
					c-0.04-1.06-0.58-1.58-1.63-1.58c-0.32,0-0.68,0.05-1.08,0.15s-0.8,0.23-1.2,0.39l-0.37-1.1c0.43-0.2,0.89-0.36,1.37-0.47
					s0.94-0.17,1.38-0.17C194.93,76.43,195.64,76.67,196.14,77.16z M192.77,80.82c-0.42,0.25-0.63,0.59-0.63,1.03
					c0,0.34,0.11,0.6,0.35,0.78c0.23,0.18,0.55,0.27,0.96,0.27c0.39,0,0.78-0.08,1.15-0.25c0.38-0.17,0.68-0.39,0.92-0.67v-1.53
					h-1.01C193.77,80.45,193.19,80.57,192.77,80.82z"/>
				<path class="st1" d="M201.49,76.7c0.43-0.19,0.91-0.29,1.44-0.29c0.79,0,1.39,0.23,1.81,0.68c0.42,0.46,0.63,1.12,0.63,1.99
					v4.87h-1.36v-4.77c0-0.55-0.11-0.95-0.34-1.2c-0.23-0.25-0.59-0.37-1.08-0.37c-0.44,0-0.85,0.1-1.24,0.3
					c-0.39,0.2-0.69,0.47-0.93,0.82v5.23h-1.35v-7.41h1.1l0.15,1.04C200.67,77.19,201.07,76.9,201.49,76.7z"/>
				<path class="st1" d="M211.91,76.89l-0.36,1.13c-0.7-0.28-1.29-0.42-1.75-0.42c-0.42,0-0.75,0.08-1,0.24
					c-0.25,0.16-0.37,0.38-0.37,0.67c0,0.27,0.11,0.47,0.32,0.61c0.22,0.14,0.54,0.28,0.97,0.41c0.51,0.16,0.92,0.32,1.22,0.45
					c0.3,0.14,0.57,0.36,0.79,0.66c0.23,0.3,0.34,0.71,0.34,1.21c0,0.68-0.24,1.22-0.74,1.63c-0.49,0.4-1.15,0.61-1.99,0.61
					c-0.87,0-1.71-0.19-2.53-0.56l0.42-1.17c0.46,0.19,0.85,0.33,1.16,0.41s0.62,0.12,0.93,0.12c0.44,0,0.78-0.09,1.02-0.26
					c0.24-0.17,0.36-0.42,0.36-0.75c0-0.21-0.07-0.39-0.2-0.52c-0.13-0.14-0.3-0.25-0.5-0.32c-0.2-0.08-0.48-0.18-0.85-0.29
					c-0.44-0.15-0.8-0.29-1.09-0.43c-0.28-0.14-0.53-0.36-0.72-0.65c-0.2-0.29-0.3-0.67-0.3-1.14c0-0.64,0.25-1.15,0.74-1.53
					c0.5-0.38,1.16-0.57,1.98-0.57C210.41,76.41,211.11,76.57,211.91,76.89z"/>
				<path class="st1" d="M224.16,77.41c0.61,0.67,0.92,1.62,0.92,2.83s-0.31,2.15-0.92,2.82s-1.48,1.01-2.59,1.01
					c-1.12,0-1.98-0.34-2.6-1.01c-0.61-0.67-0.92-1.61-0.92-2.82s0.31-2.15,0.92-2.83c0.61-0.67,1.48-1.01,2.6-1.01
					C222.69,76.4,223.55,76.74,224.16,77.41z M219.98,78.27c-0.36,0.45-0.55,1.11-0.55,1.97c0,0.85,0.18,1.51,0.55,1.96
					c0.36,0.45,0.89,0.67,1.59,0.67c0.69,0,1.22-0.22,1.58-0.67c0.37-0.45,0.55-1.1,0.55-1.96c0-0.85-0.18-1.51-0.55-1.96
					s-0.89-0.68-1.58-0.68C220.88,77.6,220.35,77.82,219.98,78.27z"/>
				<path class="st1" d="M229.05,76.71c0.35-0.2,0.73-0.3,1.14-0.3c0.28,0,0.6,0.05,0.96,0.16l-0.25,1.33
					c-0.47-0.09-0.79-0.14-0.95-0.15c-0.41,0-0.75,0.08-1.02,0.23c-0.27,0.16-0.5,0.41-0.69,0.75v5.22h-1.35v-7.41h1.08l0.17,1.04
					C228.4,77.2,228.7,76.91,229.05,76.71z"/>
				<path class="st1" d="M236.08,76.41c1.13,0,1.89,0.44,2.28,1.31c0.67-0.87,1.53-1.31,2.58-1.31c0.83,0,1.45,0.23,1.88,0.68
					s0.64,1.11,0.64,1.99v4.87h-1.36v-4.77c0-0.55-0.11-0.95-0.34-1.2c-0.22-0.25-0.59-0.37-1.08-0.37c-0.44,0-0.84,0.1-1.21,0.29
					s-0.66,0.47-0.89,0.82c0,0.02,0,0.06,0.01,0.13s0.01,0.16,0.01,0.28v4.81h-1.36v-4.77c0-0.55-0.11-0.95-0.34-1.2
					s-0.59-0.37-1.09-0.37c-0.42,0-0.82,0.1-1.19,0.3c-0.37,0.2-0.67,0.46-0.9,0.8v5.24h-1.35v-7.41h1.1l0.15,1.03
					C234.28,76.8,235.1,76.41,236.08,76.41z"/>
				<path class="st1" d="M250.3,77.16c0.5,0.49,0.75,1.18,0.75,2.08v4.72h-1.04l-0.2-0.87c-0.72,0.67-1.53,1.01-2.44,1.01
					c-0.74,0-1.33-0.2-1.77-0.6c-0.44-0.4-0.65-0.93-0.65-1.61c0-0.78,0.32-1.39,0.96-1.82c0.64-0.44,1.53-0.65,2.69-0.65h1.09v-0.2
					c-0.04-1.06-0.58-1.58-1.63-1.58c-0.32,0-0.68,0.05-1.08,0.15c-0.4,0.1-0.8,0.23-1.2,0.39l-0.37-1.1
					c0.43-0.2,0.89-0.36,1.37-0.47s0.94-0.17,1.38-0.17C249.09,76.43,249.8,76.67,250.3,77.16z M246.93,80.82
					c-0.42,0.25-0.63,0.59-0.63,1.03c0,0.34,0.11,0.6,0.35,0.78c0.23,0.18,0.55,0.27,0.96,0.27c0.4,0,0.78-0.08,1.15-0.25
					c0.38-0.17,0.68-0.39,0.92-0.67v-1.53h-1.01C247.93,80.45,247.35,80.57,246.93,80.82z"/>
				<path class="st1" d="M254.58,82.48v1.44h-1.44v-1.44H254.58z"/>
				<path class="st1" d="M106.7,76.54h1.43l1.42,3.95c0.07,0.21,0.16,0.46,0.24,0.74c0.09,0.28,0.15,0.49,0.2,0.63
					c0-0.02,0.08,0.22,0.23,0.73l0.23-0.73c0.24-0.75,0.39-1.21,0.44-1.37l1.42-3.95h1.37l-2.64,7.41h-1.7L106.7,76.54z"/>
				<path class="st1" d="M214.12,75.55c0-0.79,0.21-1.4,0.62-1.83s1-0.65,1.75-0.65c0.29,0,0.57,0.03,0.83,0.08
					c0.27,0.06,0.6,0.16,0.98,0.32l-0.49,1.06c-0.5-0.16-0.91-0.25-1.22-0.25c-0.36,0-0.63,0.1-0.82,0.31s-0.28,0.49-0.28,0.86v1.09
					h2.1v1.17h-2.1v5.77c0,0.5-0.04,0.95-0.11,1.37c-0.07,0.42-0.19,0.85-0.36,1.31h-0.89v-8.45h-1.3v-1.17h1.3v-0.99H214.12z"/>
			</g>
		</g>
		<g>
			<g>
				<path class="st2" d="M39.34,104.8c0,0-10.67-5.21-18.67-13.07C16.25,87.39,5.66,77.87,5.66,61.3V1.2h67.6v59.78
					c0,6.7-1.64,13.3-5.06,19.3c-2.9,4.71-6.74,8.95-11.34,13.21C49.11,100.64,39.34,104.8,39.34,104.8z M8.12,3.69v57.58
					c0,10.94,5.4,21.24,16.04,30c6.31,5.19,12.71,9.68,15.22,10.74c2.51-1.18,8.95-4.46,15.31-9.86
					c10.68-9.09,16.09-19.59,16.09-31.22V3.69H8.12z"/>
				<path class="st1" d="M39.39,102.09l-0.03-0.01c-2.59-1.1-9-5.62-15.24-10.75c-5.28-4.34-9.33-9.12-12.03-14.2
					c-2.68-5.04-4.04-10.37-4.04-15.85V3.62h62.81v57.31c0,11.65-5.42,22.17-16.12,31.27c-6.37,5.42-12.84,8.71-15.32,9.88
					L39.39,102.09z"/>
			</g>
			<path class="st3" d="M47.09,24.58l23.78,15.87c0,0,0.02,14.44,0,20.15c0,0.24,0,0.47,0,0.67c-0.01,0.98-0.05,1.58-0.05,1.61
				c-0.43,13.58-10.08,23.45-10.08,23.45L43.63,63.35l-1.67-3.1l9.27-3.65l-7.02-1.71l-1.92-3.3l0.11-0.05l7.42-6L47.09,24.58z"/>
			<g>
				<polygon class="st2" points="50.76,60.26 27.81,60.26 26.45,54.44 52.12,54.44 				"/>
				<g>
					<g>
						<path class="st2" d="M42.27,51.59c0.16-0.08,3.28-2.96,4.31-5.02c0.68-1.35,0.77-3.28,0.77-4.84c0-3.98-1.33-7.01-5.02-8.98
							c0.45,1.13,0.51,2.3,0.51,3.55c0,2.36-0.3,4.41-1.77,6.21c-2.17,2.66-5.57,2.97-7.96-0.42c0,0-0.21,2.7,0.88,4.76
							c1.05,1.97,2.2,3.68,4.32,4.83c-0.56-0.05-1.62-0.04-2.16-0.16c-6.43-1.43-10.91-7.24-10.91-14.49c0-2.8,1.24-5.17,2.5-7.41
							c0.47-0.85,1.93-2.15,2.55-2.88c0.26,2.06,1.2,4.01,2.64,5.68c2.77-2.21,6.16-8.8,2.8-16.25c2.97,0.97,18.1,10,17.88,21.25
							C53.48,44.91,48.94,50.13,42.27,51.59z"/>
					</g>
					<g>
						<polygon class="st2" points="30.16,9.69 30.61,8.12 31.57,9.43 33.19,9.38 32.25,10.71 32.79,12.25 31.25,11.75 29.97,12.76 
							29.96,11.12 28.62,10.2 						"/>
					</g>
					<g>
						<path class="st2" d="M23.22,16.77c0.24-0.08,0.48-0.17,0.72-0.27c0.08-0.41,0.2-0.81,0.37-1.2c0.38,0.1,0.75,0.24,1.11,0.41
							c0.45-0.29,0.86-0.63,1.24-0.99c0.03,0.53-0.1,1.06-0.36,1.5c0.5,0.35,0.96,0.77,1.35,1.25c-0.78-0.19-1.59-0.25-2.41-0.19
							c-0.47,0.57-0.86,1.2-1.15,1.88c-0.17-0.54-0.24-1.09-0.24-1.63l0,0c-0.51-0.04-1-0.23-1.41-0.54
							C22.69,16.93,22.96,16.86,23.22,16.77z"/>
					</g>
					<g>
						<path class="st2" d="M20.76,34.13c-0.67-1.54-0.93-3.17-0.84-4.73c-0.86-0.03-1.74,0.05-2.6,0.26c0.8-1.18,1.86-2.2,3.13-2.97
							c0.42-1.25,1.08-2.42,1.94-3.43c-0.04,0.82,0.02,1.63,0.18,2.45c0.93-0.31,1.89-0.47,2.83-0.5c-0.91,0.62-1.7,1.36-2.35,2.2
							c-0.53,0.67-0.97,1.41-1.31,2.19c-0.65,1.49-0.96,3.14-0.86,4.79C20.84,34.32,20.8,34.23,20.76,34.13z"/>
					</g>
				</g>
				<g>
					<path class="st2" d="M39.15,63.03l-0.83,2.77H31.5c0,0,0.57-2.79,3.61-2.77S39.15,63.03,39.15,63.03z"/>
					<path class="st2" d="M37.89,67.18l-1.06,3.46h-4.74c0,0-1.7,0.05-1.7-1.85c0-1.55,1.6-1.6,1.85-1.6h0.1h5.55V67.18z"/>
					<path class="st2" d="M43.93,67.07v10.28c0,0,1.26-0.79,2.1-1.84c0.71-0.88,1.99-2.8,2.09-4.91c0.1-2.27,0.03-7.59,0.03-7.59
						h-2.84h-1.23c0,0-0.37,0-0.45,0c-1.21,0.09-2.17,0.41-2.54,1.46c-0.24,0.69-1.48,4.58-1.48,4.58s-0.53,1.62,0.71,1.7
						c1.25,0.08,1.99,0.01,1.99,0.01L43.93,67.07z"/>
					<path class="st2" d="M41.28,76.18v2.26c0,0-1.26,0.42-2.78,0.22c-3.94-0.51-5.44-2.48-5.44-2.48H41.28z"/>
					<path class="st2" d="M41.28,72.02v2.77h-8.99c0,0-0.97-0.1-0.97-1.46c0-1.27,1.06-1.31,1.06-1.31H41.28z"/>
				</g>
			</g>
			<path class="st4" d="M36.58,71.45"/>
			<path class="st4" d="M39.28,62.66"/>
			<g>
				<path class="st2" d="M33.86,81.55c0.42,0.11,0.8,0.26,1.14,0.46l-0.52,1.21c-0.32-0.15-0.61-0.26-0.88-0.33s-0.54-0.1-0.81-0.1
					c-0.77,0-1.35,0.23-1.74,0.7c-0.4,0.47-0.6,1.14-0.6,2.03c0,0.9,0.2,1.59,0.6,2.05c0.4,0.46,0.98,0.7,1.74,0.7
					c0.59,0,1.21-0.14,1.85-0.41l0.42,1.28c-0.83,0.37-1.67,0.56-2.5,0.56c-1.26,0-2.22-0.36-2.89-1.07c-0.67-0.72-1-1.74-1-3.08
					c0-0.86,0.16-1.61,0.47-2.23c0.31-0.63,0.76-1.11,1.34-1.44c0.59-0.33,1.29-0.5,2.1-0.5C33.02,81.38,33.44,81.44,33.86,81.55z"
					/>
				<path class="st2" d="M42.93,86.11c0.26,0.32,0.39,0.71,0.39,1.17c0,0.74-0.26,1.32-0.79,1.73c-0.53,0.41-1.27,0.61-2.22,0.61
					h-3.08v-8.13h2.85c0.95,0,1.68,0.19,2.19,0.56c0.51,0.38,0.77,0.9,0.77,1.58c0,0.83-0.4,1.4-1.21,1.7v0.07
					C42.3,85.55,42.67,85.78,42.93,86.11z M41.33,83.74c0-0.67-0.45-1.01-1.34-1.01h-1.14v2.1h1.14
					C40.88,84.83,41.33,84.47,41.33,83.74z M41.22,88.05c0.24-0.21,0.36-0.51,0.36-0.89c0-0.37-0.12-0.64-0.37-0.83
					s-0.62-0.28-1.1-0.28h-1.25v2.32h1.36C40.65,88.37,40.98,88.26,41.22,88.05z"/>
				<path class="st2" d="M51.16,86.11c0.26,0.32,0.39,0.71,0.39,1.17c0,0.74-0.26,1.32-0.79,1.73c-0.53,0.41-1.27,0.61-2.22,0.61
					h-3.08v-8.13h2.85c0.95,0,1.68,0.19,2.19,0.56c0.51,0.38,0.77,0.9,0.77,1.58c0,0.83-0.4,1.4-1.21,1.7v0.07
					C50.54,85.55,50.9,85.78,51.16,86.11z M49.56,83.74c0-0.67-0.45-1.01-1.34-1.01h-1.14v2.1h1.14
					C49.11,84.83,49.56,84.47,49.56,83.74z M49.45,88.05c0.24-0.21,0.36-0.51,0.36-0.89c0-0.37-0.12-0.64-0.37-0.83
					s-0.62-0.28-1.1-0.28h-1.25v2.32h1.36C48.88,88.37,49.21,88.26,49.45,88.05z"/>
			</g>
		</g>
	</g>
</g>
</svg>
