<?xml version="1.0" encoding="utf-8"?>
<!-- Generator: Adobe Illustrator 26.0.0, SVG Export Plug-In . SVG Version: 6.00 Build 0)  -->
<svg version="1.1" id="Capa_1" xmlns="http://www.w3.org/2000/svg" xmlns:xlink="http://www.w3.org/1999/xlink" x="0px" y="0px"
	 viewBox="0 0 233.38 71.64" style="enable-background:new 0 0 233.38 71.64;" xml:space="preserve">
<style type="text/css">
	.logost0{fill:none;}
	.logost1{enable-background:new    ;}
	.logost2{fill:#231F20;}
	.logost3{fill:url(#SVGID_1_);}
	.logost4{fill:url(#SVGID_00000156590049700529788080000008139265774318244778_);}
	.logost5{fill:url(#SVGID_00000114775186250322592850000003623801676114690987_);}
</style>
<g>
	<g>
		<rect x="8.67" y="39.88" class="logost0" width="109.96" height="29.1"/>
		<g class="logost1">
			<path class="logost2" d="M25.06,45.44c-0.38,0-0.74-0.07-1.07-0.21s-0.62-0.33-0.85-0.57c-0.24-0.24-0.43-0.53-0.56-0.86
				c-0.14-0.33-0.2-0.68-0.2-1.06v-0.01c0-0.38,0.07-0.73,0.2-1.05c0.13-0.33,0.32-0.62,0.56-0.86c0.24-0.25,0.53-0.44,0.86-0.58
				s0.71-0.21,1.11-0.21c0.25,0,0.47,0.02,0.67,0.06s0.39,0.1,0.55,0.17c0.17,0.07,0.32,0.16,0.46,0.25
				c0.14,0.1,0.27,0.21,0.39,0.33l-0.73,0.85c-0.21-0.18-0.41-0.33-0.63-0.43c-0.21-0.11-0.45-0.16-0.72-0.16
				c-0.22,0-0.42,0.04-0.61,0.13s-0.35,0.2-0.48,0.35c-0.14,0.15-0.24,0.32-0.32,0.52c-0.07,0.2-0.11,0.41-0.11,0.63v0.01
				c0,0.22,0.04,0.44,0.11,0.64c0.08,0.2,0.18,0.38,0.31,0.52c0.13,0.15,0.29,0.27,0.48,0.36c0.19,0.09,0.39,0.13,0.62,0.13
				c0.3,0,0.55-0.06,0.76-0.17c0.21-0.11,0.41-0.26,0.62-0.45l0.74,0.74c-0.14,0.15-0.28,0.28-0.42,0.39
				c-0.15,0.11-0.3,0.21-0.48,0.3c-0.17,0.08-0.36,0.14-0.57,0.19C25.54,45.42,25.31,45.44,25.06,45.44z"/>
			<path class="logost2" d="M30.68,45.44c-0.41,0-0.78-0.07-1.12-0.21s-0.63-0.33-0.88-0.58s-0.44-0.53-0.58-0.86
				c-0.14-0.33-0.21-0.68-0.21-1.05v-0.01c0-0.38,0.07-0.73,0.21-1.05s0.33-0.62,0.58-0.86c0.25-0.25,0.54-0.44,0.88-0.58
				s0.72-0.21,1.12-0.21c0.41,0,0.78,0.07,1.12,0.21s0.63,0.33,0.88,0.58s0.44,0.53,0.58,0.86c0.14,0.33,0.21,0.68,0.21,1.05v0.01
				c0,0.38-0.07,0.73-0.21,1.05c-0.14,0.33-0.33,0.62-0.58,0.86c-0.25,0.25-0.54,0.44-0.88,0.58
				C31.46,45.37,31.09,45.44,30.68,45.44z M30.7,44.38c0.23,0,0.44-0.04,0.64-0.13s0.36-0.2,0.5-0.35c0.14-0.15,0.25-0.32,0.32-0.52
				c0.08-0.2,0.12-0.41,0.12-0.63v-0.01c0-0.22-0.04-0.44-0.12-0.64s-0.19-0.38-0.33-0.52c-0.14-0.15-0.31-0.27-0.51-0.36
				c-0.19-0.09-0.41-0.13-0.64-0.13c-0.24,0-0.45,0.04-0.64,0.13s-0.36,0.2-0.49,0.35c-0.14,0.15-0.25,0.32-0.32,0.52
				c-0.08,0.2-0.12,0.41-0.12,0.63v0.01c0,0.22,0.04,0.44,0.12,0.64s0.19,0.38,0.33,0.52c0.14,0.15,0.31,0.27,0.5,0.36
				C30.25,44.33,30.46,44.38,30.7,44.38z"/>
			<path class="logost2" d="M34.51,40.1h1.06l2.46,3.23V40.1h1.14v5.25h-0.98l-2.54-3.34v3.34h-1.14V40.1z"/>
			<path class="logost2" d="M42.89,45.44c-0.38,0-0.74-0.07-1.07-0.21s-0.62-0.33-0.85-0.57c-0.24-0.24-0.43-0.53-0.56-0.86
				c-0.14-0.33-0.2-0.68-0.2-1.06v-0.01c0-0.38,0.07-0.73,0.2-1.05c0.13-0.33,0.32-0.62,0.56-0.86c0.24-0.25,0.53-0.44,0.86-0.58
				s0.71-0.21,1.11-0.21c0.25,0,0.47,0.02,0.67,0.06s0.39,0.1,0.55,0.17c0.17,0.07,0.32,0.16,0.46,0.25
				c0.14,0.1,0.27,0.21,0.39,0.33l-0.73,0.85c-0.21-0.18-0.41-0.33-0.63-0.43c-0.21-0.11-0.45-0.16-0.72-0.16
				c-0.22,0-0.42,0.04-0.61,0.13s-0.35,0.2-0.48,0.35c-0.14,0.15-0.24,0.32-0.32,0.52c-0.07,0.2-0.11,0.41-0.11,0.63v0.01
				c0,0.22,0.04,0.44,0.11,0.64c0.08,0.2,0.18,0.38,0.31,0.52c0.13,0.15,0.29,0.27,0.48,0.36c0.19,0.09,0.39,0.13,0.62,0.13
				c0.3,0,0.55-0.06,0.76-0.17c0.21-0.11,0.41-0.26,0.62-0.45l0.74,0.74c-0.14,0.15-0.28,0.28-0.42,0.39
				c-0.15,0.11-0.3,0.21-0.48,0.3c-0.17,0.08-0.36,0.14-0.57,0.19C43.38,45.42,43.15,45.44,42.89,45.44z"/>
			<path class="logost2" d="M48.16,45.43c-0.7,0-1.26-0.19-1.67-0.58c-0.4-0.39-0.61-0.97-0.61-1.75v-3h1.16v2.97
				c0,0.43,0.1,0.75,0.3,0.97s0.48,0.33,0.83,0.33s0.63-0.11,0.83-0.32c0.2-0.21,0.3-0.52,0.3-0.94V40.1h1.16v2.96
				c0,0.4-0.05,0.75-0.16,1.04c-0.11,0.29-0.26,0.54-0.46,0.74c-0.2,0.2-0.44,0.34-0.73,0.44S48.51,45.43,48.16,45.43z"/>
			<path class="logost2" d="M51.64,40.1h2.4c0.67,0,1.18,0.18,1.53,0.53c0.3,0.3,0.45,0.7,0.45,1.2v0.01c0,0.43-0.1,0.77-0.31,1.04
				s-0.48,0.46-0.81,0.59l1.28,1.88h-1.35l-1.12-1.68h-0.01h-0.89v1.68h-1.16V40.1z M53.96,42.65c0.29,0,0.5-0.07,0.66-0.2
				c0.15-0.13,0.23-0.32,0.23-0.54V41.9c0-0.25-0.08-0.44-0.24-0.56c-0.16-0.12-0.38-0.19-0.67-0.19h-1.15v1.51H53.96z"/>
			<path class="logost2" d="M58.93,45.43c-0.4,0-0.79-0.07-1.18-0.21c-0.39-0.14-0.74-0.35-1.05-0.63l0.68-0.82
				c0.24,0.19,0.49,0.35,0.74,0.46s0.53,0.17,0.83,0.17c0.24,0,0.43-0.04,0.56-0.13c0.13-0.09,0.2-0.21,0.2-0.36V43.9
				c0-0.08-0.01-0.14-0.04-0.2c-0.03-0.06-0.08-0.11-0.16-0.16c-0.08-0.05-0.19-0.1-0.32-0.15c-0.14-0.05-0.32-0.1-0.54-0.16
				c-0.27-0.07-0.51-0.14-0.72-0.22c-0.22-0.08-0.4-0.18-0.55-0.3c-0.15-0.12-0.27-0.26-0.35-0.44c-0.08-0.17-0.12-0.39-0.12-0.65
				v-0.01c0-0.24,0.04-0.46,0.13-0.65c0.09-0.19,0.21-0.36,0.38-0.5c0.16-0.14,0.35-0.25,0.58-0.32c0.22-0.07,0.47-0.11,0.74-0.11
				c0.38,0,0.74,0.06,1.06,0.17c0.32,0.12,0.62,0.28,0.89,0.5l-0.6,0.87c-0.24-0.16-0.47-0.29-0.69-0.38
				c-0.23-0.09-0.45-0.14-0.68-0.14s-0.39,0.04-0.51,0.13c-0.11,0.09-0.17,0.2-0.17,0.33v0.02c0,0.08,0.02,0.16,0.05,0.22
				s0.09,0.12,0.18,0.17c0.08,0.05,0.2,0.1,0.35,0.14s0.33,0.1,0.56,0.16c0.27,0.07,0.5,0.15,0.71,0.24
				c0.21,0.09,0.38,0.19,0.53,0.32c0.14,0.12,0.25,0.27,0.32,0.43s0.11,0.36,0.11,0.59v0.01c0,0.26-0.05,0.49-0.14,0.69
				c-0.09,0.2-0.23,0.37-0.39,0.51s-0.37,0.24-0.6,0.31C59.48,45.39,59.22,45.43,58.93,45.43z"/>
			<path class="logost2" d="M64.41,45.44c-0.41,0-0.78-0.07-1.12-0.21s-0.63-0.33-0.88-0.58s-0.44-0.53-0.58-0.86
				c-0.14-0.33-0.21-0.68-0.21-1.05v-0.01c0-0.38,0.07-0.73,0.21-1.05s0.33-0.62,0.58-0.86c0.25-0.25,0.54-0.44,0.88-0.58
				s0.72-0.21,1.12-0.21c0.41,0,0.78,0.07,1.12,0.21s0.63,0.33,0.88,0.58s0.44,0.53,0.58,0.86c0.14,0.33,0.21,0.68,0.21,1.05v0.01
				c0,0.38-0.07,0.73-0.21,1.05c-0.14,0.33-0.33,0.62-0.58,0.86c-0.25,0.25-0.54,0.44-0.88,0.58
				C65.19,45.37,64.81,45.44,64.41,45.44z M64.42,44.38c0.23,0,0.44-0.04,0.64-0.13s0.36-0.2,0.5-0.35
				c0.14-0.15,0.25-0.32,0.32-0.52c0.08-0.2,0.12-0.41,0.12-0.63v-0.01c0-0.22-0.04-0.44-0.12-0.64s-0.19-0.38-0.33-0.52
				c-0.14-0.15-0.31-0.27-0.51-0.36c-0.19-0.09-0.41-0.13-0.64-0.13c-0.24,0-0.45,0.04-0.64,0.13s-0.36,0.2-0.49,0.35
				c-0.14,0.15-0.25,0.32-0.32,0.52c-0.08,0.2-0.12,0.41-0.12,0.63v0.01c0,0.22,0.04,0.44,0.12,0.64s0.19,0.38,0.33,0.52
				c0.14,0.15,0.31,0.27,0.5,0.36C63.97,44.33,64.19,44.38,64.42,44.38z"/>
			<path class="logost2" d="M70.48,40.1h1.06l2.46,3.23V40.1h1.14v5.25h-0.98l-2.54-3.34v3.34h-1.14V40.1z"/>
			<path class="logost2" d="M78.21,40.07h1.06l2.25,5.29h-1.21l-0.48-1.18h-2.22l-0.48,1.18h-1.18L78.21,40.07z M79.42,43.16l-0.7-1.7
				l-0.7,1.7H79.42z"/>
			<path class="logost2" d="M84.79,45.44c-0.38,0-0.74-0.07-1.07-0.21s-0.62-0.33-0.85-0.57c-0.24-0.24-0.43-0.53-0.56-0.86
				c-0.14-0.33-0.2-0.68-0.2-1.06v-0.01c0-0.38,0.07-0.73,0.2-1.05c0.13-0.33,0.32-0.62,0.56-0.86c0.24-0.25,0.53-0.44,0.86-0.58
				s0.71-0.21,1.11-0.21c0.25,0,0.47,0.02,0.67,0.06s0.39,0.1,0.55,0.17c0.17,0.07,0.32,0.16,0.46,0.25
				c0.14,0.1,0.27,0.21,0.39,0.33l-0.73,0.85c-0.21-0.18-0.41-0.33-0.63-0.43c-0.21-0.11-0.45-0.16-0.72-0.16
				c-0.22,0-0.42,0.04-0.61,0.13s-0.35,0.2-0.48,0.35c-0.14,0.15-0.24,0.32-0.32,0.52c-0.07,0.2-0.11,0.41-0.11,0.63v0.01
				c0,0.22,0.04,0.44,0.11,0.64c0.08,0.2,0.18,0.38,0.31,0.52c0.13,0.15,0.29,0.27,0.48,0.36c0.19,0.09,0.39,0.13,0.62,0.13
				c0.3,0,0.55-0.06,0.76-0.17c0.21-0.11,0.41-0.26,0.62-0.45l0.74,0.74c-0.14,0.15-0.28,0.28-0.42,0.39
				c-0.15,0.11-0.3,0.21-0.48,0.3c-0.17,0.08-0.36,0.14-0.57,0.19C85.28,45.42,85.05,45.44,84.79,45.44z"/>
			<path class="logost2" d="M87.92,40.1h1.15v5.25h-1.15V40.1z"/>
			<path class="logost2" d="M92.94,45.44c-0.41,0-0.78-0.07-1.12-0.21s-0.63-0.33-0.88-0.58s-0.44-0.53-0.58-0.86
				c-0.14-0.33-0.21-0.68-0.21-1.05v-0.01c0-0.38,0.07-0.73,0.21-1.05s0.33-0.62,0.58-0.86c0.25-0.25,0.54-0.44,0.88-0.58
				s0.72-0.21,1.12-0.21c0.41,0,0.78,0.07,1.12,0.21s0.63,0.33,0.88,0.58s0.44,0.53,0.58,0.86c0.14,0.33,0.21,0.68,0.21,1.05v0.01
				c0,0.38-0.07,0.73-0.21,1.05c-0.14,0.33-0.33,0.62-0.58,0.86c-0.25,0.25-0.54,0.44-0.88,0.58
				C93.72,45.37,93.34,45.44,92.94,45.44z M92.95,44.38c0.23,0,0.44-0.04,0.64-0.13s0.36-0.2,0.5-0.35
				c0.14-0.15,0.25-0.32,0.32-0.52c0.08-0.2,0.12-0.41,0.12-0.63v-0.01c0-0.22-0.04-0.44-0.12-0.64s-0.19-0.38-0.33-0.52
				c-0.14-0.15-0.31-0.27-0.51-0.36c-0.19-0.09-0.41-0.13-0.64-0.13c-0.24,0-0.45,0.04-0.64,0.13s-0.36,0.2-0.49,0.35
				c-0.14,0.15-0.25,0.32-0.32,0.52c-0.08,0.2-0.12,0.41-0.12,0.63v0.01c0,0.22,0.04,0.44,0.12,0.64s0.19,0.38,0.33,0.52
				c0.14,0.15,0.31,0.27,0.5,0.36C92.5,44.33,92.72,44.38,92.95,44.38z"/>
			<path class="logost2" d="M96.76,40.1h1.06l2.46,3.23V40.1h1.14v5.25h-0.98l-2.54-3.34v3.34h-1.14V40.1z"/>
			<path class="logost2" d="M104.49,40.07h1.06l2.25,5.29h-1.21l-0.48-1.18h-2.22l-0.48,1.18h-1.18L104.49,40.07z M105.7,43.16l-0.7-1.7
				l-0.7,1.7H105.7z"/>
			<path class="logost2" d="M108.61,40.1h1.16v4.21h2.62v1.04h-3.77V40.1z"/>
		</g>
		<g class="logost1">
			<path class="logost2" d="M48.02,53.1h2.05c0.41,0,0.79,0.07,1.13,0.2c0.34,0.13,0.64,0.32,0.89,0.55s0.44,0.51,0.57,0.83
				c0.13,0.32,0.2,0.66,0.2,1.03v0.01c0,0.37-0.07,0.71-0.2,1.04c-0.14,0.32-0.33,0.6-0.57,0.83c-0.25,0.24-0.54,0.42-0.89,0.56
				c-0.34,0.13-0.72,0.2-1.13,0.2h-2.05V53.1z M50.06,57.31c0.23,0,0.45-0.04,0.64-0.11c0.2-0.08,0.36-0.18,0.5-0.32
				c0.14-0.14,0.25-0.3,0.32-0.5c0.08-0.19,0.12-0.4,0.12-0.64v-0.01c0-0.23-0.04-0.44-0.12-0.64c-0.08-0.19-0.19-0.36-0.32-0.5
				c-0.14-0.14-0.3-0.25-0.5-0.33c-0.19-0.08-0.41-0.12-0.64-0.12h-0.89v3.16H50.06z"/>
			<path class="logost2" d="M53.88,53.1h3.95v1.03h-2.81v1.07h2.48v1.03h-2.48v1.1h2.85v1.03h-3.99V53.1z"/>
			<path class="logost2" d="M61.16,53.1h1.25l1.38,2.22l1.38-2.22h1.25v5.25h-1.14v-3.43l-1.48,2.24h-0.03l-1.46-2.22v3.41h-1.14V53.1z"
				/>
			<path class="logost2" d="M69.47,53.07h1.06l2.25,5.29h-1.21l-0.48-1.18h-2.22l-0.48,1.18h-1.18L69.47,53.07z M70.68,56.16l-0.7-1.7
				l-0.7,1.7H70.68z"/>
			<path class="logost2" d="M74.81,54.17h-1.6V53.1h4.35v1.07h-1.6v4.18h-1.15V54.17z"/>
			<path class="logost2" d="M78.45,53.1h3.95v1.03h-2.81v1.07h2.48v1.03h-2.48v1.1h2.85v1.03h-3.99V53.1z"/>
			<path class="logost2" d="M83.48,53.1h1.25l1.38,2.22l1.38-2.22h1.25v5.25h-1.14v-3.43l-1.48,2.24h-0.03l-1.46-2.22v3.41h-1.14V53.1z"
				/>
			<path class="logost2" d="M91.79,53.07h1.06l2.25,5.29h-1.21l-0.48-1.18h-2.22l-0.48,1.18h-1.18L91.79,53.07z M93,56.16l-0.7-1.7
				l-0.7,1.7H93z M92.69,51.36l0.98,0.43l-0.96,0.9h-0.87L92.69,51.36z"/>
			<path class="logost2" d="M97.13,54.17h-1.6V53.1h4.35v1.07h-1.6v4.18h-1.15V54.17z"/>
			<path class="logost2" d="M100.82,53.1h1.15v5.25h-1.15V53.1z"/>
			<path class="logost2" d="M105.75,58.44c-0.38,0-0.74-0.07-1.07-0.21s-0.62-0.33-0.85-0.57c-0.24-0.24-0.43-0.53-0.56-0.86
				c-0.14-0.33-0.2-0.68-0.2-1.06v-0.01c0-0.38,0.07-0.73,0.2-1.05c0.13-0.33,0.32-0.62,0.56-0.86c0.24-0.25,0.53-0.44,0.86-0.58
				s0.71-0.21,1.11-0.21c0.25,0,0.47,0.02,0.67,0.06s0.39,0.1,0.55,0.17c0.17,0.07,0.32,0.16,0.46,0.25
				c0.14,0.1,0.27,0.21,0.39,0.33l-0.73,0.85c-0.21-0.18-0.41-0.33-0.63-0.43c-0.21-0.11-0.45-0.16-0.72-0.16
				c-0.22,0-0.42,0.04-0.61,0.13s-0.35,0.2-0.48,0.35c-0.14,0.15-0.24,0.32-0.32,0.52c-0.07,0.2-0.11,0.41-0.11,0.63v0.01
				c0,0.22,0.04,0.44,0.11,0.64c0.08,0.2,0.18,0.38,0.31,0.52c0.13,0.15,0.29,0.27,0.48,0.36c0.19,0.09,0.39,0.13,0.62,0.13
				c0.3,0,0.55-0.06,0.76-0.17c0.21-0.11,0.41-0.26,0.62-0.45l0.74,0.74c-0.14,0.15-0.28,0.28-0.42,0.39
				c-0.15,0.11-0.3,0.21-0.48,0.3c-0.17,0.08-0.36,0.14-0.57,0.19C106.23,58.42,106.01,58.44,105.75,58.44z"/>
			<path class="logost2" d="M110.63,53.07h1.06l2.25,5.29h-1.21l-0.48-1.18h-2.22l-0.48,1.18h-1.18L110.63,53.07z M111.84,56.16
				l-0.7-1.7l-0.7,1.7H111.84z"/>
		</g>
	</g>
	<path class="logost2" d="M13.29,30.38l-4.62-4.62V11.9l4.62-4.62h20.1v4.62h-20.1v13.86h20.1v4.62C33.39,30.38,13.29,30.38,13.29,30.38
		z"/>
	<path class="logost2" d="M43.24,30.38l-4.62-4.62V11.9l4.62-4.62h15.48l4.62,4.62v13.86l-4.62,4.62
		C58.72,30.38,43.24,30.38,43.24,30.38z M58.72,25.76V11.9H43.24v13.86C43.24,25.76,58.72,25.76,58.72,25.76z"/>
	<path class="logost2" d="M68.57,30.38V7.28h20.1l4.62,4.62v18.48h-4.62V11.9H73.19v18.48H68.57z"/>
	<path class="logost2" d="M103.14,30.38l-4.62-4.62v-4.62l4.62-4.62h15.48V11.9h-15.86V7.28h15.86l4.62,4.62v18.48H103.14z
		 M118.62,25.76v-4.62h-15.48v4.62C103.14,25.76,118.62,25.76,118.62,25.76z"/>
	
		<linearGradient id="SVGID_1_" gradientUnits="userSpaceOnUse" x1="121.0351" y1="82.2718" x2="246.1389" y2="25.5841" gradientTransform="matrix(1 0 0 -1 0 73.2912)">
		<stop  offset="0" style="stop-color:#EC4747"/>
		<stop  offset="1" style="stop-color:#EA1D3A"/>
	</linearGradient>
	<path class="logost3" d="M174.67,30.38l-4.62-4.62v-4.62l4.62-4.62h15.48V11.9h-15.86V7.28h15.86l4.62,4.62v18.48H174.67z
		 M190.15,25.76v-4.62h-15.48v4.62C174.67,25.76,190.15,25.76,190.15,25.76z"/>
	
		<linearGradient id="SVGID_00000067943176720899527200000010705803202778884028_" gradientUnits="userSpaceOnUse" x1="114.5492" y1="67.958" x2="239.653" y2="11.2703" gradientTransform="matrix(1 0 0 -1 0 73.2912)">
		<stop  offset="0" style="stop-color:#EC4747"/>
		<stop  offset="1" style="stop-color:#EA1D3A"/>
	</linearGradient>
	<path style="fill:url(#SVGID_00000067943176720899527200000010705803202778884028_);" d="M128.48,30.38V7.28h31.71l4.62,4.62v18.48
		h-4.62V11.9h-11.24v18.48h-4.62V11.9H133.1v18.48H128.48z"/>
	
		<linearGradient id="SVGID_00000041980874520365306490000009046647543763386261_" gradientUnits="userSpaceOnUse" x1="126.5305" y1="94.3995" x2="251.6343" y2="37.7119" gradientTransform="matrix(1 0 0 -1 0 73.2912)">
		<stop  offset="0" style="stop-color:#EC4747"/>
		<stop  offset="1" style="stop-color:#EA1D3A"/>
	</linearGradient>
	<path style="fill:url(#SVGID_00000041980874520365306490000009046647543763386261_);" d="M209.24,30.38l-4.62-4.62V11.9H200V7.28
		h4.62V2.66h4.62v4.62h10.86v4.62h-10.86v13.86h15.48v4.62C224.72,30.38,209.24,30.38,209.24,30.38z"/>
	<rect x="128.48" y="40.11" class="logost2" width="96.24" height="3.82"/>
	<g>
		<polygon class="logost2" points="224.72,53.68 213.57,53.68 213.57,56.63 213.57,56.63 213.57,56.63 218.18,61.23 213.57,65.84 
			213.57,65.84 213.57,65.84 213.57,68.79 224.72,68.79 224.72,65.84 217.75,65.84 222.35,61.23 217.75,56.63 224.72,56.63 		"/>
		<rect x="157.14" y="59.23" class="logost2" width="12.4" height="4"/>
		<polygon class="logost2" points="143.59,59.23 138.04,59.23 138.04,53.68 134.03,53.68 134.03,59.23 128.48,59.23 128.48,63.24 
			134.03,63.24 134.03,68.79 138.04,68.79 138.04,63.24 143.59,63.24 		"/>
		<path class="logost2" d="M197.35,61.23l3.25-7.55h-1.5l0,0h-2.09l-1.49,3.47c-1.2-2.09-3.3-3.47-5.68-3.47
			c-3.73,0-6.76,3.38-6.76,7.55s3.03,7.55,6.76,7.55c2.38,0,4.48-1.38,5.68-3.47l1.49,3.47h2.09v-0.01h1.5L197.35,61.23z
			 M189.86,65.4c-1.92,0-3.48-1.87-3.48-4.17s1.56-4.17,3.48-4.17c1.42,0,2.63,1.02,3.18,2.48v-0.01c0.01,0.01,0.31,0.71,0.73,1.7
			c-0.42,0.99-0.72,1.69-0.73,1.7v-0.01C192.49,64.38,191.27,65.4,189.86,65.4z"/>
	</g>
</g>
</svg>
