<svg xmlns="http://www.w3.org/2000/svg" viewBox="0 0 346.27 346.27" style="enable-background:new 0 0 346.27 346.27" xml:space="preserve"><linearGradient id="a" gradientUnits="userSpaceOnUse" x1="176.456" y1="47.445" x2="176.456" y2="293.554"><stop offset="0" style="stop-color:#00c13e"/><stop offset="1" style="stop-color:#008530"/></linearGradient><path d="M176.46 47.44c-68.4 0-124.02 55.2-124.02 123.06 0 26.91 8.77 51.86 23.62 72.15l-15.49 45.69 47.65-15.14c19.58 12.85 43.03 20.34 68.24 20.34 68.37 0 124.01-55.2 124.01-123.05S244.83 47.44 176.46 47.44z" style="fill-rule:evenodd;clip-rule:evenodd;fill:url(#a)"/><path d="M316.27 169.45c0 77-62.92 139.44-140.53 139.44-24.65 0-47.8-6.29-67.93-17.35L30 316.27l25.36-74.81c-12.8-21.02-20.16-45.66-20.16-72C35.2 92.43 98.12 30 175.74 30c77.61 0 140.53 62.43 140.53 139.45zM175.74 52.21c-65.17 0-118.16 52.59-118.16 117.24 0 25.64 8.35 49.4 22.5 68.74l-14.75 43.53 45.4-14.42c18.65 12.24 41 19.38 65.01 19.38 65.14 0 118.15-52.59 118.15-117.23 0-64.65-53.01-117.24-118.15-117.24zm70.96 149.36c-.87-1.43-3.17-2.28-6.6-3.99-3.45-1.71-20.39-9.98-23.55-11.12-3.15-1.14-5.47-1.71-7.75 1.71-2.3 3.42-8.9 11.12-10.92 13.4-2 2.29-4.01 2.56-7.45.85-3.45-1.71-14.56-5.33-27.71-16.96-10.23-9.07-17.15-20.25-19.17-23.67-2-3.42-.2-5.26 1.51-6.97 1.55-1.54 3.45-3.99 5.17-5.98 1.73-2 2.3-3.44 3.45-5.72 1.15-2.28.58-4.27-.29-5.98-.85-1.71-7.75-18.53-10.62-25.38-2.85-6.83-5.73-6.58-7.75-6.58-2 0-5.72.6-5.72.6s-6.91.85-10.06 4.27c-3.15 3.42-12.05 11.69-12.05 28.5 0 16.82 12.33 33.08 14.06 35.35 1.73 2.29 23.82 37.93 58.85 51.61 35.02 13.68 35.02 9.12 41.34 8.54 6.31-.56 20.38-8.26 23.25-16.25 2.87-7.97 2.87-14.81 2.01-16.23zm0 0" style="fill-rule:evenodd;clip-rule:evenodd;fill:#fff"/></svg>