<?xml version="1.0" encoding="utf-8"?>
<!-- Generator: Adobe Illustrator 26.0.0, SVG Export Plug-In . SVG Version: 6.00 Build 0)  -->
<svg version="1.1" id="Capa_1" xmlns="http://www.w3.org/2000/svg" xmlns:xlink="http://www.w3.org/1999/xlink" x="0px" y="0px"
	 viewBox="0 0 127.7 106" style="enable-background:new 0 0 127.7 106;" xml:space="preserve">
<style type="text/css">
	.st0{fill:#595854;}
	.st1{fill:#FFFFFF;}
	.st2{fill:#FFC300;}
	.st3{fill:#FF0000;}
	.st4{fill:#F7D264;}
</style>
<g>
	<g>
		<path class="st0" d="M47.2,9.2l0-3.2l-1.6,2.6h-0.8L43.2,6v3.2h-1.6V3.1h1.4l2.2,3.5l2.1-3.5h1.4l0,6.1H47.2z"/>
		<path class="st0" d="M55.2,8h-2.6l-0.5,1.2h-1.8L53,3.1h1.7l2.7,6.1h-1.8L55.2,8z M54.2,1.3h1.7l-1.6,1.3H53L54.2,1.3z M54.7,6.7
			l-0.8-2l-0.8,2H54.7z"/>
		<path class="st0" d="M59.7,9.1c-0.5-0.1-0.8-0.3-1.1-0.5l0.6-1.3c0.3,0.2,0.6,0.3,1,0.4C60.5,7.9,60.8,8,61.2,8c0.7,0,1-0.2,1-0.5
			c0-0.2-0.1-0.3-0.3-0.4C61.7,7,61.4,6.9,61,6.8c-0.5-0.1-0.8-0.2-1.2-0.3C59.5,6.4,59.3,6.2,59,6c-0.2-0.3-0.3-0.6-0.3-1
			c0-0.4,0.1-0.7,0.3-1c0.2-0.3,0.5-0.5,0.9-0.7C60.3,3,60.8,3,61.4,3c0.4,0,0.8,0,1.2,0.1c0.4,0.1,0.7,0.2,1,0.4l-0.5,1.3
			c-0.6-0.3-1.1-0.5-1.7-0.5c-0.3,0-0.6,0.1-0.8,0.2c-0.2,0.1-0.2,0.2-0.2,0.4c0,0.2,0.1,0.3,0.3,0.4c0.2,0.1,0.5,0.2,0.9,0.3
			c0.5,0.1,0.9,0.2,1.2,0.3c0.3,0.1,0.6,0.3,0.8,0.5c0.2,0.2,0.3,0.6,0.3,1c0,0.4-0.1,0.7-0.3,1c-0.2,0.3-0.5,0.5-0.9,0.7
			c-0.4,0.2-0.9,0.3-1.5,0.3C60.7,9.3,60.2,9.3,59.7,9.1z"/>
		<path class="st0" d="M69.4,3.1h2.9c0.7,0,1.3,0.1,1.8,0.4c0.5,0.3,0.9,0.6,1.2,1.1c0.3,0.5,0.4,1,0.4,1.6c0,0.6-0.1,1.2-0.4,1.6
			c-0.3,0.5-0.7,0.8-1.2,1.1c-0.5,0.3-1.1,0.4-1.8,0.4h-2.9V3.1z M72.2,7.8c0.5,0,0.9-0.1,1.3-0.4C73.8,7.1,74,6.7,74,6.1
			c0-0.5-0.2-0.9-0.5-1.2c-0.3-0.3-0.7-0.4-1.3-0.4h-1.1v3.4H72.2z"/>
		<path class="st0" d="M82.6,7.9v1.3h-4.9V3.1h4.8v1.3h-3.1v1h2.7v1.3h-2.7v1.1H82.6z"/>
	</g>
	<g>
		<path class="st1" d="M84.5,85.9c-0.7-0.3,1.5-0.7,3.3,1c0.4,0.4,0.7,0.8,1.1,1.3c-0.1-0.3-0.2-0.5-0.4-0.7c-0.8-1.2-0.4-1.6,0.2-1
			c-0.3-0.4,0.8-0.8,0.9-0.6c0.3-1.1,1.8-1,1.1,0.3c-0.1,0.1-0.1,0.2-0.2,0.3c0.6-0.6,3.2-1.7,1.5-0.4c-0.7,0.5-1.2,1.2-1.6,1.9
			c0.4-0.4,0.7-0.8,1.1-1.2c1.4-1.4,4-1.3,3.2-0.9h0.4h0.4c5.4,0,10.9,0,16.3,0h13.4c0.5,0,0.5,0,0.5,0.5c0,0.4,0,0.8,0,1.2
			c0,0.3-0.1,0.4-0.4,0.4c-1.9,0-3.7,0-5.6,0h-8.7H94.8h-0.9c-0.1,1.3-0.7,2.4-1.7,3.2c-0.9,0.7-2,1-3.1,0.9c-1.9-0.1-4-1.5-4.2-4.2
			h-0.7H69.3c-5.2,0-10.3,0-15.5,0c-0.5,0-0.5,0-0.5-0.5c0-0.4,0-0.8,0-1.3c0-0.3,0.1-0.4,0.4-0.4c0.1,0,0.2,0,0.2,0h30.3H84.5z
			 M89.1,90c-0.7-1.8-1.9-3.1-3.7-3.8C85.3,88,87.2,90.1,89.1,90 M93.3,86.2c-1.7,0.7-3,2.3-3.5,3.7C91.5,89.9,93.4,88.2,93.3,86.2"
			/>
		<path class="st1" d="M89.1,90c-1.9,0.1-3.8-2-3.7-3.8C87.2,86.9,88.4,88.2,89.1,90"/>
		<path class="st1" d="M93.3,86.2c0,2-1.8,3.7-3.5,3.7C90.3,88.5,91.7,87,93.3,86.2"/>
		<path class="st1" d="M68.5,87.5L68.5,87.5L68.5,87.5z"/>
		<path class="st1" d="M2.7,65.6c0.4-5,1.1-8.7,2.3-11.3c1.2-2.5,3.2-5.9,6.2-10.2L31.2,16h12.6L23,44.9c-2.9,4.1-5,7-6,8.7
			c-1.1,1.7-2,3.6-2.6,5.8c-0.7,2.1-1,4.6-1,7.4c0,4.2,1.6,8,4.8,11.4c3.2,3.4,7.2,5.1,12,5.1c4.8,0,8.9-1.7,12.3-5.1
			c3.4-3.4,5.1-7.5,5-12.4c-0.1-4.2-1-7.6-2.7-10.4c-1.8-2.8-4.2-4.8-7.4-6.2c-3.2-1.4-6.9-2-11.2-1.9l6.1-8.6
			c5.5,0.1,10.2,1.4,14.1,3.9c3.9,2.5,6.7,5.8,8.6,9.8c1.8,4,2.8,8.3,3,13c0,4.5-1.1,8.7-3.3,12.8c-2.2,4.1-5.4,7.5-9.6,10.2
			c-4.2,2.7-9.2,4.1-14.9,4.1c-7.5,0.2-14-2.3-19.3-7.6C5.4,79.7,2.7,73.2,2.7,65.6"/>
		<path class="st2" d="M84.5,85.9c-0.7-0.3-1.5-0.5-2.2-0.5c-2.4,0-4.8,0-7.2,0c-4.2,0-8.4,0-12.5,0.1c-2.4,0-4.7,0-7.1,0.1
			c-0.5,0-0.5,0-0.5-0.5c0-0.6,0-0.6,0.6-0.6c8.6,0,17.3,0,25.9,0c2.4,0,4.5,0.7,6.2,2.4c0.4,0.4,0.7,0.8,1.1,1.3
			c-0.1-0.3-0.2-0.5-0.4-0.7c-0.8-1.2-2-2-3.3-2.5c-1.3-0.5-2.7-0.8-4.1-0.8c-5.2-0.1-10.5-0.1-15.7-0.2c-2.9,0-5.8-0.1-8.7-0.1
			c-0.3,0-0.4-0.1-0.4-0.4c0-0.6-0.1-0.6,0.6-0.6c8.3,0.1,16.6,0.2,24.9,0.3c1.9,0,3.7,0.6,5.2,1.7c0.6,0.5,1.1,1.1,1.7,1.6
			c-0.3-0.4-0.6-0.8-0.9-1.2c-1.2-1.3-2.7-1.9-4.4-2.3c-1.9-0.4-3.8-0.3-5.7-0.3c-4.8-0.1-9.5-0.2-14.3-0.3c-1.9,0-3.7-0.1-5.6-0.1
			c-0.3,0-0.4-0.1-0.4-0.4c0-0.8-0.1-0.7,0.7-0.7c6.9,0.2,13.8,0.3,20.7,0.5c1.4,0,2.7,0.1,4.1,0.3c1.6,0.2,3.1,0.7,4.4,1.7
			c0,0,0.1,0,0.2,0c-0.6-0.6-1.2-1.1-2-1.4c-1.2-0.5-2.4-0.8-3.7-0.8c-3,0.1-5.9,0-8.9-0.3c-4.3-0.4-8.5-0.9-12.7-2.1
			c-0.5-0.2-1.1-0.4-1.6-0.5c-0.2-0.1-0.3-0.2-0.2-0.4c0.3-0.9,0.3-0.9,1.1-0.5c2.2,1,4.4,1.5,6.7,1.8c5.3,0.9,10.6,1.1,16,1.1
			c1.9,0,3.6,0.5,5.1,1.7c1,0.8,1.6,1.9,2,3.1c0,0.1,0.1,0.3,0.2,0.5c0.3-1.1,0.7-2,1.4-2.8c1.1-1.3,2.6-2.1,4.3-2.3
			c1.8-0.3,3.7-0.4,5.6-0.7c4.3-0.6,8.4-1.6,12.4-3.4c1.6-0.7,3.1-1.5,4.4-2.6c0.1-0.1,0.2-0.1,0.3-0.1c0,0.1,0.1,0.2,0.1,0.4
			c0.1,0.5-0.1,0.9-0.6,1.3c-1.8,1.3-3.8,2.3-5.9,3.1c-3.1,1.2-6.3,1.9-9.5,2.3c-1.8,0.2-3.7,0.4-5.6,0.6c-1.6,0.2-3.1,0.7-4.4,1.8
			c-0.1,0.1-0.2,0.2-0.3,0.3c0.7-0.3,1.3-0.7,2-1c1.4-0.6,2.8-0.8,4.3-0.9l13.8-0.3c3.1-0.1,6.3-0.1,9.4-0.2c0.3,0,0.4,0.1,0.4,0.4
			c0,0.7,0.1,0.6-0.6,0.6c-7.4,0.2-14.9,0.3-22.3,0.5c-1.6,0-3.2,0.2-4.8,0.8c-1.4,0.6-2.5,1.4-3.3,2.7c-0.1,0.1-0.1,0.2-0.2,0.3
			c0.6-0.6,1.2-1.2,1.8-1.7c1.5-1.1,3.1-1.6,5-1.7c5.6-0.1,11.3-0.1,16.9-0.2c2.7,0,5.5-0.1,8.2-0.1c0.2,0,0.5,0,0.5,0.1
			c0.1,0.3,0,0.6,0,0.8c0,0-0.2,0.1-0.3,0.1c-1.8,0-3.6,0-5.4,0.1C110.5,84,104,84,97.4,84.2c-2,0-4,0.6-5.7,1.9
			c-0.7,0.5-1.2,1.2-1.6,1.9c0.4-0.4,0.7-0.8,1.1-1.2c1.4-1.4,3.2-2.1,5.2-2.3c1.5-0.1,3-0.1,4.5-0.1c7.5,0,15,0,22.5,0
			c0.2,0,0.4,0.1,0.4,0.1c0.1,0.3,0.1,0.6,0,0.8c0,0-0.2,0.1-0.4,0.1c-2,0-4,0-6.1,0c-6.8,0-13.6-0.1-20.5-0.1
			c-0.9,0-1.8,0.1-2.6,0.5c-3.5,1.3-3.5,4.3-4.9,4.3C87.9,90.2,88.7,88,84.5,85.9 M90.4,84.4C90.5,84.4,90.5,84.4,90.4,84.4
			c1.2-1.8,2.9-2.8,5-3.1c1.1-0.2,2.3-0.2,3.4-0.3c2.4-0.2,4.8-0.6,7.2-1.1c2.4-0.5,4.8-1.3,7-2.3c1.5-0.7,2.9-1.5,4.2-2.5
			c0.2-0.2,0.3-0.3,0.2-0.6c-0.1,0.1-0.1,0.1-0.2,0.1c-1.1,0.9-2.4,1.6-3.7,2.2c-2.3,1.1-4.7,1.8-7.1,2.4c-3.4,0.8-6.7,1.4-10.2,1.7
			c-1.2,0.1-2.4,0.4-3.5,1C91.8,82.5,90.9,83.3,90.4,84.4 M86.8,85.3C86.9,85.3,86.9,85.3,86.8,85.3c0-0.1-0.1-0.2-0.1-0.2
			c-1.5-1.1-3.2-1.6-5.1-1.7c-3-0.1-6-0.1-8.9-0.1c-3,0-5.9-0.1-8.9-0.1c-1.7,0-3.4,0-5.1-0.1c-0.6,0-1.2,0-1.9,0
			c-0.1,0-0.2,0.1-0.2,0.1c0.1,0,0.1,0.1,0.2,0.1c0.3,0,0.6,0,0.9,0c2.5,0,4.9,0,7.4,0.1c2.5,0,4.9,0.1,7.4,0.1c2.9,0,5.8,0,8.7,0.1
			c1.8,0,3.5,0.5,5.1,1.2C86.4,85.1,86.6,85.2,86.8,85.3 M92.2,85.1c0,0,0,0.1,0.1,0.1c0,0,0,0,0.1,0c1.8-1,3.7-1.4,5.7-1.5
			c1.6,0,3.2,0,4.7-0.1c1.6,0,3.3,0,4.9-0.1c2.3,0,4.6-0.1,6.9-0.1c2.4,0,4.7-0.1,7.1-0.1c0.2,0,0.3,0,0.5,0c0.1,0,0.2-0.1,0.3-0.1
			c-0.1,0-0.2-0.1-0.3-0.1c-0.8,0-1.7,0-2.5,0c-2,0-4.1,0-6.1,0.1c-1.8,0-3.7,0-5.5,0.1c-3.4,0-6.8,0.1-10.2,0.1
			c-1.4,0-2.8,0.3-4.1,0.9C93.1,84.6,92.7,84.9,92.2,85.1 M88.6,84.5c0-0.1,0-0.1-0.1-0.2c-0.7-1.4-1.9-2.3-3.3-2.9
			c-1.1-0.4-2.2-0.5-3.4-0.5c-4.8,0-9.6-0.2-14.4-0.9c-2.1-0.3-4.1-0.7-6.1-1.3c-0.8-0.3-1.6-0.6-2.4-0.9c0,0.1-0.1,0.1-0.1,0.2
			c0,0.1,0,0.2-0.1,0.3c1.8,0.6,3.7,1.1,5.6,1.5c2.8,0.5,5.6,0.9,8.4,1.1c3,0.2,6.1,0.4,9.1,0.3c1,0,2,0.1,2.9,0.5
			C86.3,82.1,87.6,83,88.6,84.5 M90.4,85.6c0.2-0.3,0.5-0.6,0.7-0.8c1.5-1.5,3.4-2.1,5.5-2.4c1.2-0.1,2.4-0.1,3.6-0.2
			c5.5-0.1,11-0.2,16.5-0.3c1.4,0,2.8,0,4.1-0.1c0.1,0,0.1,0,0.2,0c0,0,0.1-0.1,0.1-0.1c0-0.1-0.1-0.1-0.1-0.1c-0.1,0-0.2,0-0.3,0
			c-2.7,0.1-5.4,0.1-8.1,0.2c-4.5,0.1-8.9,0.2-13.4,0.3c-1.9,0-3.8,0.1-5.6,0.9C92.3,83.5,91.2,84.3,90.4,85.6 M88.5,85.5
			c-0.8-1.3-1.9-2-3.2-2.6c-1.6-0.7-3.4-0.9-5.1-0.9c-4.5-0.1-9-0.2-13.5-0.3c-2.7-0.1-5.4-0.1-8.1-0.2c-0.2,0-0.5,0-0.7,0
			c-0.1,0.3,0.1,0.3,0.3,0.3c1.7,0,3.4,0.1,5.2,0.1c3.7,0.1,7.3,0.2,11,0.2c2.1,0,4.2,0.1,6.3,0.1c1.3,0,2.5,0.2,3.7,0.5
			C86,83.3,87.4,84.1,88.5,85.5"/>
		<path class="st2" d="M90.4,84.4c0.5-1.1,1.3-1.9,2.4-2.5c1.1-0.6,2.2-0.9,3.5-1c3.4-0.3,6.8-0.9,10.2-1.7c2.4-0.6,4.8-1.4,7.1-2.4
			c1.3-0.6,2.6-1.3,3.7-2.2c0.1,0,0.1-0.1,0.2-0.1c0.1,0.3,0,0.4-0.2,0.6c-1.3,1-2.7,1.8-4.2,2.5c-2.3,1-4.6,1.8-7,2.3
			c-2.4,0.5-4.8,0.9-7.2,1.1c-1.1,0.1-2.3,0.1-3.4,0.3C93.4,81.6,91.7,82.6,90.4,84.4C90.5,84.4,90.5,84.4,90.4,84.4"/>
		<path class="st1" d="M86.8,85.3c-0.2-0.1-0.4-0.2-0.6-0.4c-1.6-0.8-3.3-1.2-5.1-1.2c-2.9,0-5.8-0.1-8.7-0.1
			c-2.5,0-4.9-0.1-7.4-0.1c-2.5,0-4.9,0-7.4-0.1c-0.3,0-0.6,0-0.9,0c-0.1,0-0.1-0.1-0.2-0.1c0.1,0,0.2-0.1,0.2-0.1
			c0.6,0,1.2,0,1.9,0c1.7,0,3.4,0,5.1,0.1c3,0,5.9,0.1,8.9,0.1c3,0,6,0,8.9,0.1c1.8,0,3.6,0.6,5.1,1.7
			C86.8,85.2,86.8,85.2,86.8,85.3C86.9,85.3,86.9,85.3,86.8,85.3"/>
		<path class="st2" d="M92.2,85.1c0.5-0.3,0.9-0.5,1.4-0.8c1.3-0.6,2.6-0.9,4.1-0.9c3.4,0,6.8-0.1,10.2-0.1c1.8,0,3.7,0,5.6-0.1
			c2,0,4.1,0,6.1-0.1c0.8,0,1.7,0,2.5,0c0.1,0,0.2,0.1,0.3,0.1c-0.1,0-0.2,0.1-0.3,0.1c-0.2,0-0.3,0-0.5,0c-2.4,0-4.7,0.1-7.1,0.1
			c-2.3,0-4.6,0.1-6.9,0.1c-1.6,0-3.3,0-4.9,0.1c-1.6,0-3.2,0-4.7,0.1c-2,0-3.9,0.5-5.7,1.5c0,0,0,0-0.1,0
			C92.2,85.2,92.2,85.2,92.2,85.1"/>
		<path class="st1" d="M88.6,84.5c-0.9-1.4-2.2-2.3-3.8-2.9c-0.9-0.3-1.9-0.5-2.9-0.5c-3,0.1-6.1-0.1-9.1-0.3
			c-2.8-0.2-5.7-0.6-8.4-1.1c-1.9-0.4-3.7-0.8-5.6-1.5c0-0.1,0-0.2,0.1-0.3c0-0.1,0.1-0.1,0.1-0.2c0.8,0.3,1.6,0.6,2.4,0.9
			c2,0.6,4,1,6.1,1.3c4.8,0.7,9.6,0.9,14.4,0.9c1.2,0,2.3,0.1,3.4,0.5c1.5,0.6,2.6,1.5,3.3,2.9C88.5,84.4,88.6,84.4,88.6,84.5"/>
		<path class="st2" d="M90.4,85.6c0.8-1.3,2-2.1,3.3-2.7c1.8-0.8,3.7-0.8,5.6-0.9c4.5-0.1,8.9-0.2,13.4-0.3c2.7-0.1,5.4-0.1,8.1-0.2
			c0.1,0,0.2,0,0.3,0c0,0,0.1,0.1,0.1,0.1c0,0-0.1,0.1-0.1,0.1c-0.1,0-0.1,0-0.2,0c-1.4,0-2.8,0-4.1,0.1c-5.5,0.1-11,0.2-16.5,0.3
			c-1.2,0-2.4,0-3.6,0.2c-2.1,0.2-4,0.9-5.5,2.4C90.9,85,90.6,85.3,90.4,85.6"/>
		<path class="st1" d="M88.5,85.5c-1.1-1.4-2.5-2.2-4.2-2.7c-1.2-0.4-2.5-0.5-3.7-0.5c-2.1,0-4.2-0.1-6.3-0.1
			c-3.7-0.1-7.3-0.2-11-0.2c-1.7,0-3.4-0.1-5.2-0.1c-0.2,0-0.4,0-0.3-0.3c0.2,0,0.5,0,0.7,0c2.7,0.1,5.4,0.1,8.1,0.2
			c4.5,0.1,9,0.2,13.5,0.3c1.8,0,3.5,0.2,5.1,0.9C86.6,83.5,87.7,84.3,88.5,85.5"/>
		<path class="st1" d="M58.7,57.4c-0.8-16.2,12.1-30.1,28.9-31c15.3-0.8,28.6,9.6,31.4,23.8c0-0.3,0-0.6,0-0.8
			c-0.9-17.6-16.4-31.1-34.6-30.2c-18.2,0.9-32.2,16-31.3,33.6c0.6,11.7,7.7,21.7,17.7,26.7C63.8,74.3,59.2,66.4,58.7,57.4"/>
		<g>
			<path class="st3" d="M84.5,85.9c-0.7-0.3,1.5-0.7,3.3,1c0.4,0.4,0.7,0.8,1.1,1.3c-0.1-0.3-0.2-0.5-0.4-0.7
				c-0.8-1.2-0.4-1.6,0.2-1c-0.3-0.4,0.8-0.8,0.9-0.6c0.3-1.1,1.8-1,1.1,0.3c-0.1,0.1-0.1,0.2-0.2,0.3c0.6-0.6,3.2-1.7,1.5-0.4
				c-0.7,0.5-1.2,1.2-1.6,1.9c0.4-0.4,0.7-0.8,1.1-1.2c1.4-1.4,4-1.3,3.2-0.9h0.4h0.4c5.4,0,10.9,0,16.3,0h13.4c0.5,0,0.5,0,0.5,0.5
				c0,0.4,0,0.8,0,1.2c0,0.3-0.1,0.4-0.4,0.4c-1.9,0-3.7,0-5.6,0h-8.7H94.8h-0.9c-0.1,1.3-0.7,2.4-1.7,3.2c-0.9,0.7-2,1-3.1,0.9
				c-1.9-0.1-4-1.5-4.2-4.2h-0.7H69.3c-5.2,0-10.3,0-15.5,0c-0.5,0-0.5,0-0.5-0.5c0-0.4,0-0.8,0-1.3c0-0.3,0.1-0.4,0.4-0.4
				c0.1,0,0.2,0,0.2,0h30.3H84.5z M89.1,90c-0.7-1.8-1.9-3.1-3.7-3.8C85.3,88,87.2,90.1,89.1,90 M93.3,86.2c-1.7,0.7-3,2.3-3.5,3.7
				C91.5,89.9,93.4,88.2,93.3,86.2"/>
		</g>
		<path class="st4" d="M89.1,90c-1.9,0.1-3.8-2-3.7-3.8C87.2,86.9,88.4,88.2,89.1,90"/>
		<path class="st4" d="M93.3,86.2c0,2-1.8,3.7-3.5,3.7C90.3,88.5,91.7,87,93.3,86.2"/>
		<path class="st1" d="M68.5,87.5L68.5,87.5L68.5,87.5z"/>
		<path class="st3" d="M2.7,65.6c0.4-5,1.1-8.7,2.3-11.3c1.2-2.5,3.2-5.9,6.2-10.2L31.2,16h12.6L23,44.9c-2.9,4.1-5,7-6,8.7
			c-1.1,1.7-2,3.6-2.6,5.8c-0.7,2.1-1,4.6-1,7.4c0,4.2,1.6,8,4.8,11.4c3.2,3.4,7.2,5.1,12,5.1c4.8,0,8.9-1.7,12.3-5.1
			c3.4-3.4,5.1-7.5,5-12.4c-0.1-4.2-1-7.6-2.7-10.4c-1.8-2.8-4.2-4.8-7.4-6.2c-3.2-1.4-6.9-2-11.2-1.9l6.1-8.6
			c5.5,0.1,10.2,1.4,14.1,3.9c3.9,2.5,6.7,5.8,8.6,9.8c1.8,4,2.8,8.3,3,13c0,4.5-1.1,8.7-3.3,12.8c-2.2,4.1-5.4,7.5-9.6,10.2
			c-4.2,2.7-9.2,4.1-14.9,4.1c-7.5,0.2-14-2.3-19.3-7.6C5.4,79.7,2.7,73.2,2.7,65.6"/>
		<path class="st2" d="M84.5,85.9c-0.7-0.3-1.5-0.5-2.2-0.5c-2.4,0-4.8,0-7.2,0c-4.2,0-8.4,0-12.5,0.1c-2.4,0-4.7,0-7.1,0.1
			c-0.5,0-0.5,0-0.5-0.5c0-0.6,0-0.6,0.6-0.6c8.6,0,17.3,0,25.9,0c2.4,0,4.5,0.7,6.2,2.4c0.4,0.4,0.7,0.8,1.1,1.3
			c-0.1-0.3-0.2-0.5-0.4-0.7c-0.8-1.2-2-2-3.3-2.5c-1.3-0.5-2.7-0.8-4.1-0.8c-5.2-0.1-10.5-0.1-15.7-0.2c-2.9,0-5.8-0.1-8.7-0.1
			c-0.3,0-0.4-0.1-0.4-0.4c0-0.6-0.1-0.6,0.6-0.6c8.3,0.1,16.6,0.2,24.9,0.3c1.9,0,3.7,0.6,5.2,1.7c0.6,0.5,1.1,1.1,1.7,1.6
			c-0.3-0.4-0.6-0.8-0.9-1.2c-1.2-1.3-2.7-1.9-4.4-2.3c-1.9-0.4-3.8-0.3-5.7-0.3c-4.8-0.1-9.5-0.2-14.3-0.3c-1.9,0-3.7-0.1-5.6-0.1
			c-0.3,0-0.4-0.1-0.4-0.4c0-0.8-0.1-0.7,0.7-0.7c6.9,0.2,13.8,0.3,20.7,0.5c1.4,0,2.7,0.1,4.1,0.3c1.6,0.2,3.1,0.7,4.4,1.7
			c0,0,0.1,0,0.2,0c-0.6-0.6-1.2-1.1-2-1.4c-1.2-0.5-2.4-0.8-3.7-0.8c-3,0.1-5.9,0-8.9-0.3c-4.3-0.4-8.5-0.9-12.7-2.1
			c-0.5-0.2-1.1-0.4-1.6-0.5c-0.2-0.1-0.3-0.2-0.2-0.4c0.3-0.9,0.3-0.9,1.1-0.5c2.2,1,4.4,1.5,6.7,1.8c5.3,0.9,10.6,1.1,16,1.1
			c1.9,0,3.6,0.5,5.1,1.7c1,0.8,1.6,1.9,2,3.1c0,0.1,0.1,0.3,0.2,0.5c0.3-1.1,0.7-2,1.4-2.8c1.1-1.3,2.6-2.1,4.3-2.3
			c1.8-0.3,3.7-0.4,5.6-0.7c4.3-0.6,8.4-1.6,12.4-3.4c1.6-0.7,3.1-1.5,4.4-2.6c0.1-0.1,0.2-0.1,0.3-0.1c0,0.1,0.1,0.2,0.1,0.4
			c0.1,0.5-0.1,0.9-0.6,1.3c-1.8,1.3-3.8,2.3-5.9,3.1c-3.1,1.2-6.3,1.9-9.5,2.3c-1.8,0.2-3.7,0.4-5.6,0.6c-1.6,0.2-3.1,0.7-4.4,1.8
			c-0.1,0.1-0.2,0.2-0.3,0.3c0.7-0.3,1.3-0.7,2-1c1.4-0.6,2.8-0.8,4.3-0.9l13.8-0.3c3.1-0.1,6.3-0.1,9.4-0.2c0.3,0,0.4,0.1,0.4,0.4
			c0,0.7,0.1,0.6-0.6,0.6c-7.4,0.2-14.9,0.3-22.3,0.5c-1.6,0-3.2,0.2-4.8,0.8c-1.4,0.6-2.5,1.4-3.3,2.7c-0.1,0.1-0.1,0.2-0.2,0.3
			c0.6-0.6,1.2-1.2,1.8-1.7c1.5-1.1,3.1-1.6,5-1.7c5.6-0.1,11.3-0.1,16.9-0.2c2.7,0,5.5-0.1,8.2-0.1c0.2,0,0.5,0,0.5,0.1
			c0.1,0.3,0,0.6,0,0.8c0,0-0.2,0.1-0.3,0.1c-1.8,0-3.6,0-5.4,0.1C110.5,84,104,84,97.4,84.2c-2,0-4,0.6-5.7,1.9
			c-0.7,0.5-1.2,1.2-1.6,1.9c0.4-0.4,0.7-0.8,1.1-1.2c1.4-1.4,3.2-2.1,5.2-2.3c1.5-0.1,3-0.1,4.5-0.1c7.5,0,15,0,22.5,0
			c0.2,0,0.4,0.1,0.4,0.1c0.1,0.3,0.1,0.6,0,0.8c0,0-0.2,0.1-0.4,0.1c-2,0-4,0-6.1,0c-6.8,0-13.6-0.1-20.5-0.1
			c-0.9,0-1.8,0.1-2.6,0.5c-3.5,1.3-3.5,4.3-4.9,4.3C87.9,90.2,88.7,88,84.5,85.9 M90.4,84.4C90.5,84.4,90.5,84.4,90.4,84.4
			c1.2-1.8,2.9-2.8,5-3.1c1.1-0.2,2.3-0.2,3.4-0.3c2.4-0.2,4.8-0.6,7.2-1.1c2.4-0.5,4.8-1.3,7-2.3c1.5-0.7,2.9-1.5,4.2-2.5
			c0.2-0.2,0.3-0.3,0.2-0.6c-0.1,0.1-0.1,0.1-0.2,0.1c-1.1,0.9-2.4,1.6-3.7,2.2c-2.3,1.1-4.7,1.8-7.1,2.4c-3.4,0.8-6.7,1.4-10.2,1.7
			c-1.2,0.1-2.4,0.4-3.5,1C91.8,82.5,90.9,83.3,90.4,84.4 M86.8,85.3C86.9,85.3,86.9,85.3,86.8,85.3c0-0.1-0.1-0.2-0.1-0.2
			c-1.5-1.1-3.2-1.6-5.1-1.7c-3-0.1-6-0.1-8.9-0.1c-3,0-5.9-0.1-8.9-0.1c-1.7,0-3.4,0-5.1-0.1c-0.6,0-1.2,0-1.9,0
			c-0.1,0-0.2,0.1-0.2,0.1c0.1,0,0.1,0.1,0.2,0.1c0.3,0,0.6,0,0.9,0c2.5,0,4.9,0,7.4,0.1c2.5,0,4.9,0.1,7.4,0.1c2.9,0,5.8,0,8.7,0.1
			c1.8,0,3.5,0.5,5.1,1.2C86.4,85.1,86.6,85.2,86.8,85.3 M92.2,85.1c0,0,0,0.1,0.1,0.1c0,0,0,0,0.1,0c1.8-1,3.7-1.4,5.7-1.5
			c1.6,0,3.2,0,4.7-0.1c1.6,0,3.3,0,4.9-0.1c2.3,0,4.6-0.1,6.9-0.1c2.4,0,4.7-0.1,7.1-0.1c0.2,0,0.3,0,0.5,0c0.1,0,0.2-0.1,0.3-0.1
			c-0.1,0-0.2-0.1-0.3-0.1c-0.8,0-1.7,0-2.5,0c-2,0-4.1,0-6.1,0.1c-1.8,0-3.7,0-5.5,0.1c-3.4,0-6.8,0.1-10.2,0.1
			c-1.4,0-2.8,0.3-4.1,0.9C93.1,84.6,92.7,84.9,92.2,85.1 M88.6,84.5c0-0.1,0-0.1-0.1-0.2c-0.7-1.4-1.9-2.3-3.3-2.9
			c-1.1-0.4-2.2-0.5-3.4-0.5c-4.8,0-9.6-0.2-14.4-0.9c-2.1-0.3-4.1-0.7-6.1-1.3c-0.8-0.3-1.6-0.6-2.4-0.9c0,0.1-0.1,0.1-0.1,0.2
			c0,0.1,0,0.2-0.1,0.3c1.8,0.6,3.7,1.1,5.6,1.5c2.8,0.5,5.6,0.9,8.4,1.1c3,0.2,6.1,0.4,9.1,0.3c1,0,2,0.1,2.9,0.5
			C86.3,82.1,87.6,83,88.6,84.5 M90.4,85.6c0.2-0.3,0.5-0.6,0.7-0.8c1.5-1.5,3.4-2.1,5.5-2.4c1.2-0.1,2.4-0.1,3.6-0.2
			c5.5-0.1,11-0.2,16.5-0.3c1.4,0,2.8,0,4.1-0.1c0.1,0,0.1,0,0.2,0c0,0,0.1-0.1,0.1-0.1c0-0.1-0.1-0.1-0.1-0.1c-0.1,0-0.2,0-0.3,0
			c-2.7,0.1-5.4,0.1-8.1,0.2c-4.5,0.1-8.9,0.2-13.4,0.3c-1.9,0-3.8,0.1-5.6,0.9C92.3,83.5,91.2,84.3,90.4,85.6 M88.5,85.5
			c-0.8-1.3-1.9-2-3.2-2.6c-1.6-0.7-3.4-0.9-5.1-0.9c-4.5-0.1-9-0.2-13.5-0.3c-2.7-0.1-5.4-0.1-8.1-0.2c-0.2,0-0.5,0-0.7,0
			c-0.1,0.3,0.1,0.3,0.3,0.3c1.7,0,3.4,0.1,5.2,0.1c3.7,0.1,7.3,0.2,11,0.2c2.1,0,4.2,0.1,6.3,0.1c1.3,0,2.5,0.2,3.7,0.5
			C86,83.3,87.4,84.1,88.5,85.5"/>
		<path class="st2" d="M90.4,84.4c0.5-1.1,1.3-1.9,2.4-2.5c1.1-0.6,2.2-0.9,3.5-1c3.4-0.3,6.8-0.9,10.2-1.7c2.4-0.6,4.8-1.4,7.1-2.4
			c1.3-0.6,2.6-1.3,3.7-2.2c0.1,0,0.1-0.1,0.2-0.1c0.1,0.3,0,0.4-0.2,0.6c-1.3,1-2.7,1.8-4.2,2.5c-2.3,1-4.6,1.8-7,2.3
			c-2.4,0.5-4.8,0.9-7.2,1.1c-1.1,0.1-2.3,0.1-3.4,0.3C93.4,81.6,91.7,82.6,90.4,84.4C90.5,84.4,90.5,84.4,90.4,84.4"/>
		<path class="st4" d="M86.8,85.3c-0.2-0.1-0.4-0.2-0.6-0.4c-1.6-0.8-3.3-1.2-5.1-1.2c-2.9,0-5.8-0.1-8.7-0.1
			c-2.5,0-4.9-0.1-7.4-0.1c-2.5,0-4.9,0-7.4-0.1c-0.3,0-0.6,0-0.9,0c-0.1,0-0.1-0.1-0.2-0.1c0.1,0,0.2-0.1,0.2-0.1
			c0.6,0,1.2,0,1.9,0c1.7,0,3.4,0,5.1,0.1c3,0,5.9,0.1,8.9,0.1c3,0,6,0,8.9,0.1c1.8,0,3.6,0.6,5.1,1.7
			C86.8,85.2,86.8,85.2,86.8,85.3C86.9,85.3,86.9,85.3,86.8,85.3"/>
		<path class="st2" d="M92.2,85.1c0.5-0.3,0.9-0.5,1.4-0.8c1.3-0.6,2.6-0.9,4.1-0.9c3.4,0,6.8-0.1,10.2-0.1c1.8,0,3.7,0,5.6-0.1
			c2,0,4.1,0,6.1-0.1c0.8,0,1.7,0,2.5,0c0.1,0,0.2,0.1,0.3,0.1c-0.1,0-0.2,0.1-0.3,0.1c-0.2,0-0.3,0-0.5,0c-2.4,0-4.7,0.1-7.1,0.1
			c-2.3,0-4.6,0.1-6.9,0.1c-1.6,0-3.3,0-4.9,0.1c-1.6,0-3.2,0-4.7,0.1c-2,0-3.9,0.5-5.7,1.5c0,0,0,0-0.1,0
			C92.2,85.2,92.2,85.2,92.2,85.1"/>
		<path class="st4" d="M88.6,84.5c-0.9-1.4-2.2-2.3-3.8-2.9c-0.9-0.3-1.9-0.5-2.9-0.5c-3,0.1-6.1-0.1-9.1-0.3
			c-2.8-0.2-5.7-0.6-8.4-1.1c-1.9-0.4-3.7-0.8-5.6-1.5c0-0.1,0-0.2,0.1-0.3c0-0.1,0.1-0.1,0.1-0.2c0.8,0.3,1.6,0.6,2.4,0.9
			c2,0.6,4,1,6.1,1.3c4.8,0.7,9.6,0.9,14.4,0.9c1.2,0,2.3,0.1,3.4,0.5c1.5,0.6,2.6,1.5,3.3,2.9C88.5,84.4,88.6,84.4,88.6,84.5"/>
		<path class="st2" d="M90.4,85.6c0.8-1.3,2-2.1,3.3-2.7c1.8-0.8,3.7-0.8,5.6-0.9c4.5-0.1,8.9-0.2,13.4-0.3c2.7-0.1,5.4-0.1,8.1-0.2
			c0.1,0,0.2,0,0.3,0c0,0,0.1,0.1,0.1,0.1c0,0-0.1,0.1-0.1,0.1c-0.1,0-0.1,0-0.2,0c-1.4,0-2.8,0-4.1,0.1c-5.5,0.1-11,0.2-16.5,0.3
			c-1.2,0-2.4,0-3.6,0.2c-2.1,0.2-4,0.9-5.5,2.4C90.9,85,90.6,85.3,90.4,85.6"/>
		<path class="st4" d="M88.5,85.5c-1.1-1.4-2.5-2.2-4.2-2.7c-1.2-0.4-2.5-0.5-3.7-0.5c-2.1,0-4.2-0.1-6.3-0.1
			c-3.7-0.1-7.3-0.2-11-0.2c-1.7,0-3.4-0.1-5.2-0.1c-0.2,0-0.4,0-0.3-0.3c0.2,0,0.5,0,0.7,0c2.7,0.1,5.4,0.1,8.1,0.2
			c4.5,0.1,9,0.2,13.5,0.3c1.8,0,3.5,0.2,5.1,0.9C86.6,83.5,87.7,84.3,88.5,85.5"/>
		<path class="st2" d="M58.7,57.4c-0.8-16.2,12.1-30.1,28.9-31c15.3-0.8,28.6,9.6,31.4,23.8c0-0.3,0-0.6,0-0.8
			c-0.9-17.6-16.4-31.1-34.6-30.2c-18.2,0.9-32.2,16-31.3,33.6c0.6,11.7,7.7,21.7,17.7,26.7C63.8,74.3,59.2,66.4,58.7,57.4"/>
		<path class="st3" d="M57.4,54.6c0-17.1,13.8-30.9,30.9-30.9c15.6,0,28.5,11.6,30.6,26.6c0-0.3,0-0.6,0-0.9
			c0-18.5-15-33.5-33.5-33.5c-18.5,0-33.5,15-33.5,33.5c0,12.3,6.7,23.1,16.6,29C61.7,72.7,57.4,64.2,57.4,54.6"/>
		<path class="st3" d="M77.5,58.7c-1.1,0.4-2.2,0.9-3.4,1.3c-1.3,3.2-3.2,8.8-7,9.7c-0.4,0.1-1.7,0.3-1.7-0.3c0-0.3,0.3-0.5,0.5-0.5
			l1.2-0.1c3.6-0.9,7.8-14.2,9-17.5c0.4-1,0.5-1.8,0.5-2.7c0-0.7,1.6-1.6,2.1-1.7c0.4-0.1,0.5,0.3,0.5,0.6c0,0.2-0.2,1.6-0.2,5.4
			c0,1.4,0,2.7,0.2,4.1c0.8-0.3,1.5-0.7,2.3-0.8c0.2-0.1,0.4,0,0.4,0.2c0,0.4-0.3,0.6-0.6,0.8c-0.6,0.4-1.4,0.6-2,0.8
			c0.1,1.1,0.8,5.3,2.2,5c1.6-0.4,3.6-3.7,3.6-3.7c0.1-0.2,0.3-0.5,0.5-0.5c0.2,0,0.4,0,0.4,0.2c0,0.2-0.1,0.4-0.2,0.6
			c-0.8,1.6-2.7,4.4-4.5,4.8C78.7,65.1,77.8,60.9,77.5,58.7 M77.1,54.9c0-0.6,0-1.2-0.1-1.7c0,0,0-0.1-0.1-0.1
			c-0.1,0-0.7,1.8-0.8,2.1c-0.4,1.3-0.9,2.5-1.4,3.8c0.9-0.4,1.8-0.7,2.7-1C77.2,56.9,77.1,55.9,77.1,54.9"/>
		<path class="st3" d="M77.5,58.7c-1.1,0.4-2.2,0.9-3.4,1.3c-1.3,3.2-3.2,8.8-7,9.7c-0.4,0.1-1.7,0.3-1.7-0.3c0-0.3,0.3-0.5,0.5-0.5
			l1.2-0.1c3.6-0.9,7.8-14.2,9-17.5c0.4-1,0.5-1.8,0.5-2.7c0-0.7,1.6-1.6,2.1-1.7c0.4-0.1,0.5,0.3,0.5,0.6c0,0.2-0.2,1.6-0.2,5.4
			c0,1.4,0,2.7,0.2,4.1c0.8-0.3,1.5-0.7,2.3-0.8c0.2-0.1,0.4,0,0.4,0.2c0,0.4-0.3,0.6-0.6,0.8c-0.6,0.4-1.4,0.6-2,0.8
			c0.1,1.1,0.8,5.3,2.2,5c1.6-0.4,3.6-3.7,3.6-3.7c0.1-0.2,0.3-0.5,0.5-0.5c0.2,0,0.4,0,0.4,0.2c0,0.2-0.1,0.4-0.2,0.6
			c-0.8,1.6-2.7,4.4-4.5,4.8C78.7,65.1,77.8,60.9,77.5,58.7 M77.1,54.9c0-0.6,0-1.2-0.1-1.7c0,0,0-0.1-0.1-0.1
			c-0.1,0-0.7,1.8-0.8,2.1c-0.4,1.3-0.9,2.5-1.4,3.8c0.9-0.4,1.8-0.7,2.7-1C77.2,56.9,77.1,55.9,77.1,54.9"/>
		<path class="st3" d="M85,63.4c0-2.3,0.6-5,1.1-7.4c0.1-0.8,0.3-1.5,0.4-2.3c0.1-0.6,0.8-1.3,1.4-1.5c0.5-0.1,0.7,0.1,0.7,0.6
			c0,0.8-0.3,1.8-0.6,2.7c-0.3,1-0.5,1.9-0.6,2.9c0,0,2.9-4.9,4.1-5.2c0.9-0.2,0.9,1.4,0.9,2.1v3.3c0,0.5,0,1.4,0.8,1.2
			c1.2-0.3,2.7-2.9,3.3-4c0.1-0.2,0.3-0.6,0.6-0.7c0.2-0.1,0.4,0.2,0.4,0.4c0,0.1-0.1,0.4-0.2,0.5c-0.7,1.6-2.8,4.7-4.5,5.1
			c-1.5,0.4-1.7-1.2-1.7-2.3v-0.4l0.1-2.7c0-0.1,0-0.5-0.2-0.4c-0.2,0-0.4,0.4-0.5,0.5c-0.8,0.9-1.5,2.2-2,3.3
			c-0.7,1.3-1.2,2.6-1.8,3.9c-0.2,0.4-0.5,0.9-1,1C85.2,64,85,63.7,85,63.4 M89.2,49.7c-0.8,0.2-1.4,0.7-1.4,1.2
			c0,0.2-0.1,0.4-0.3,0.4c-0.3,0.1-0.3-0.1-0.3-0.3c0-1.1,1.2-2.2,2.1-2.4c1.4-0.3,1.4,0.9,2.6,0.6c0.5-0.1,1.1-0.5,1.1-0.9
			c0-0.2,0.1-0.4,0.4-0.4c0.2-0.1,0.3,0.1,0.3,0.3c0,1.2-0.8,2-1.7,2.2C90.1,50.8,90.1,49.5,89.2,49.7"/>
		<path class="st3" d="M85,63.4c0-2.3,0.6-5,1.1-7.4c0.1-0.8,0.3-1.5,0.4-2.3c0.1-0.6,0.8-1.3,1.4-1.5c0.5-0.1,0.7,0.1,0.7,0.6
			c0,0.8-0.3,1.8-0.6,2.7c-0.3,1-0.5,1.9-0.6,2.9c0,0,2.9-4.9,4.1-5.2c0.9-0.2,0.9,1.4,0.9,2.1v3.3c0,0.5,0,1.4,0.8,1.2
			c1.2-0.3,2.7-2.9,3.3-4c0.1-0.2,0.3-0.6,0.6-0.7c0.2-0.1,0.4,0.2,0.4,0.4c0,0.1-0.1,0.4-0.2,0.5c-0.7,1.6-2.8,4.7-4.5,5.1
			c-1.5,0.4-1.7-1.2-1.7-2.3v-0.4l0.1-2.7c0-0.1,0-0.5-0.2-0.4c-0.2,0-0.4,0.4-0.5,0.5c-0.8,0.9-1.5,2.2-2,3.3
			c-0.7,1.3-1.2,2.6-1.8,3.9c-0.2,0.4-0.5,0.9-1,1C85.2,64,85,63.7,85,63.4 M89.2,49.7c-0.8,0.2-1.4,0.7-1.4,1.2
			c0,0.2-0.1,0.4-0.3,0.4c-0.3,0.1-0.3-0.1-0.3-0.3c0-1.1,1.2-2.2,2.1-2.4c1.4-0.3,1.4,0.9,2.6,0.6c0.5-0.1,1.1-0.5,1.1-0.9
			c0-0.2,0.1-0.4,0.4-0.4c0.2-0.1,0.3,0.1,0.3,0.3c0,1.2-0.8,2-1.7,2.2C90.1,50.8,90.1,49.5,89.2,49.7"/>
		<path class="st3" d="M100.6,50.4c1.7-0.4,2.2,1.3,2.2,2.7c0,2.1-0.7,4.5-2.5,6.2c-0.5,0.5-1.2,0.9-1.8,1.1
			c-1.7,0.4-2.3-1.2-2.3-2.6C96.2,55.4,97.8,51.1,100.6,50.4 M97.9,57.4c0,0.8,0.2,1.9,1.2,1.6c0.4-0.1,0.8-0.4,1.1-0.7
			c1.2-1.2,1.7-3.1,1.7-4.5c0-0.8-0.2-2.1-1.2-1.8C98.8,52.4,97.9,56,97.9,57.4"/>
		<path class="st3" d="M100.6,50.4c1.7-0.4,2.2,1.3,2.2,2.7c0,2.1-0.7,4.5-2.5,6.2c-0.5,0.5-1.2,0.9-1.8,1.1
			c-1.7,0.4-2.3-1.2-2.3-2.6C96.2,55.4,97.8,51.1,100.6,50.4 M97.9,57.4c0,0.8,0.2,1.9,1.2,1.6c0.4-0.1,0.8-0.4,1.1-0.7
			c1.2-1.2,1.7-3.1,1.7-4.5c0-0.8-0.2-2.1-1.2-1.8C98.8,52.4,97.9,56,97.9,57.4"/>
		<path class="st3" d="M110.3,54.9c0,0.6-0.2,1.3-0.5,1.9c1.1-0.3,3.3-3.2,3.9-4.3c0.1-0.2,0.4-0.6,0.6-0.7c0.3-0.1,0.4,0.1,0.4,0.4
			c0,0.2-0.1,0.4-0.2,0.5c-1.8,3.2-3.8,5.3-7.2,6.2c-0.9,0.2-2.1,0.4-2.8-0.1c-0.1-0.1-0.3-0.2-0.3-0.5c0-0.2,0.2-0.4,0.4-0.4
			c0.2,0,0.5,0.1,0.4,0.1c0.5,0.3,1.1,0.2,1.7,0c1.2-0.3,1.9-1.3,1.9-2.5c0-1.4-0.9-3.2-1.6-4.2c-0.4,1.4-1.4,3.5-2.3,4.7
			c-0.1,0.2-0.4,0.5-0.6,0.5c-0.2,0-0.3-0.1-0.3-0.2c0-0.2,0.1-0.5,0.3-0.7c1.1-1.6,1.9-3.3,2.4-5.1c-0.1-0.4-0.2-0.8-0.2-1.2
			c0-0.9,0.6-2.9,1.7-3.2c0.6-0.1,0.8,0.6,0.8,1.1c0,0.8-0.3,1.7-0.5,2.5C108.8,51.4,110.3,52.9,110.3,54.9"/>
		<path class="st3" d="M110.3,54.9c0,0.6-0.2,1.3-0.5,1.9c1.1-0.3,3.3-3.2,3.9-4.3c0.1-0.2,0.4-0.6,0.6-0.7c0.3-0.1,0.4,0.1,0.4,0.4
			c0,0.2-0.1,0.4-0.2,0.5c-1.8,3.2-3.8,5.3-7.2,6.2c-0.9,0.2-2.1,0.4-2.8-0.1c-0.1-0.1-0.3-0.2-0.3-0.5c0-0.2,0.2-0.4,0.4-0.4
			c0.2,0,0.5,0.1,0.4,0.1c0.5,0.3,1.1,0.2,1.7,0c1.2-0.3,1.9-1.3,1.9-2.5c0-1.4-0.9-3.2-1.6-4.2c-0.4,1.4-1.4,3.5-2.3,4.7
			c-0.1,0.2-0.4,0.5-0.6,0.5c-0.2,0-0.3-0.1-0.3-0.2c0-0.2,0.1-0.5,0.3-0.7c1.1-1.6,1.9-3.3,2.4-5.1c-0.1-0.4-0.2-0.8-0.2-1.2
			c0-0.9,0.6-2.9,1.7-3.2c0.6-0.1,0.8,0.6,0.8,1.1c0,0.8-0.3,1.7-0.5,2.5C108.8,51.4,110.3,52.9,110.3,54.9"/>
	</g>
	<g>
		<path class="st0" d="M6.1,103.3L5.6,102H3.6l-0.6,1.3H2.2l2.4-5.1l2.4,5.1H6.1z M3.9,101.3h1.4l-0.5-1.1c0-0.1-0.1-0.2-0.1-0.2
			c0-0.1-0.1-0.2-0.1-0.3c0,0.1-0.1,0.2-0.1,0.3c0,0.1-0.1,0.2-0.1,0.3L3.9,101.3z"/>
		<path class="st0" d="M8,104.7v-4.7h0.7v0.5c0.1-0.2,0.2-0.4,0.4-0.5c0.2-0.1,0.4-0.2,0.7-0.2c0.4,0,0.8,0.2,1,0.5
			c0.3,0.3,0.4,0.7,0.4,1.2c0,0.5-0.1,1-0.4,1.3c-0.3,0.3-0.6,0.5-1.1,0.5c-0.2,0-0.4,0-0.6-0.1c-0.2-0.1-0.3-0.2-0.5-0.4v1.9H8z
			 M8.7,101.7c0,0.3,0.1,0.6,0.2,0.8c0.2,0.2,0.4,0.3,0.6,0.3c0.3,0,0.5-0.1,0.6-0.3c0.2-0.2,0.2-0.4,0.2-0.8c0-0.3-0.1-0.6-0.2-0.8
			c-0.2-0.2-0.4-0.3-0.6-0.3c-0.3,0-0.5,0.1-0.6,0.3C8.8,101.1,8.7,101.3,8.7,101.7z"/>
		<path class="st0" d="M12.5,101.7c0-0.2,0-0.5,0.1-0.7c0.1-0.2,0.2-0.4,0.4-0.5c0.2-0.2,0.3-0.3,0.6-0.4c0.2-0.1,0.4-0.1,0.7-0.1
			c0.2,0,0.5,0,0.7,0.1c0.2,0.1,0.4,0.2,0.6,0.4c0.2,0.2,0.3,0.3,0.4,0.6c0.1,0.2,0.1,0.4,0.1,0.6c0,0.2,0,0.5-0.1,0.7
			c-0.1,0.2-0.2,0.4-0.4,0.5c-0.2,0.2-0.4,0.3-0.6,0.4c-0.2,0.1-0.4,0.1-0.7,0.1c-0.2,0-0.4,0-0.7-0.1c-0.2-0.1-0.4-0.2-0.6-0.4
			c-0.2-0.2-0.3-0.3-0.4-0.6S12.5,101.9,12.5,101.7z M15.2,101.7c0-0.3-0.1-0.5-0.3-0.7c-0.2-0.2-0.4-0.3-0.7-0.3
			c-0.3,0-0.5,0.1-0.7,0.3c-0.2,0.2-0.3,0.5-0.3,0.7c0,0.3,0.1,0.5,0.3,0.7c0.2,0.2,0.4,0.3,0.7,0.3c0.3,0,0.5-0.1,0.7-0.3
			C15.1,102.2,15.2,102,15.2,101.7z"/>
		<path class="st0" d="M18.1,100.6c0.1-0.2,0.2-0.4,0.3-0.5c0.1-0.1,0.3-0.2,0.5-0.2c0.1,0,0.2,0,0.3,0c0.1,0,0.2,0.1,0.3,0.1
			l-0.3,0.6c-0.1,0-0.1-0.1-0.2-0.1c-0.1,0-0.2,0-0.2,0c-0.2,0-0.4,0.1-0.5,0.3c-0.1,0.2-0.2,0.5-0.2,1v1.4h-0.7v-3.2h0.7V100.6z"/>
		<path class="st0" d="M20.8,103.3v-2.5h-0.6v-0.6h0.6v-1.2h0.7v1.2h0.6v0.6h-0.6v2.5H20.8z"/>
		<path class="st0" d="M26.3,103.3h-0.7v-0.4c-0.1,0.2-0.3,0.3-0.5,0.4c-0.2,0.1-0.4,0.1-0.6,0.1c-0.4,0-0.8-0.2-1.1-0.5
			c-0.3-0.3-0.4-0.7-0.4-1.3c0-0.5,0.1-0.9,0.4-1.2c0.3-0.3,0.6-0.5,1-0.5c0.3,0,0.5,0.1,0.7,0.2c0.2,0.1,0.3,0.3,0.4,0.5v-0.5h0.7
			V103.3z M25.6,101.7c0-0.3-0.1-0.6-0.2-0.8c-0.2-0.2-0.4-0.3-0.6-0.3c-0.3,0-0.5,0.1-0.6,0.3s-0.2,0.4-0.2,0.8
			c0,0.3,0.1,0.6,0.2,0.8s0.4,0.3,0.6,0.3c0.3,0,0.5-0.1,0.6-0.3C25.6,102.2,25.6,102,25.6,101.7z"/>
		<path class="st0" d="M28,103.3v-3.2h0.7v0.5c0.1-0.2,0.3-0.4,0.5-0.5c0.2-0.1,0.4-0.2,0.7-0.2c0.2,0,0.4,0,0.6,0.1
			c0.2,0.1,0.3,0.2,0.4,0.3c0.1,0.1,0.1,0.2,0.1,0.3c0,0.1,0,0.3,0,0.6v1.9h-0.7v-1.6c0-0.4-0.1-0.7-0.2-0.8
			c-0.1-0.1-0.3-0.2-0.5-0.2c-0.2,0-0.3,0-0.5,0.1c-0.1,0.1-0.2,0.2-0.3,0.3c-0.1,0.1-0.1,0.2-0.1,0.3c0,0.1,0,0.3,0,0.6v1.4H28z"/>
		<path class="st0" d="M35,98.1h0.7v5.2H35v-0.4c-0.1,0.2-0.3,0.3-0.5,0.4c-0.2,0.1-0.4,0.1-0.6,0.1c-0.4,0-0.8-0.2-1.1-0.5
			c-0.3-0.3-0.4-0.7-0.4-1.3c0-0.5,0.1-0.9,0.4-1.2c0.3-0.3,0.6-0.5,1-0.5c0.3,0,0.5,0.1,0.7,0.2c0.2,0.1,0.3,0.3,0.4,0.5V98.1z
			 M35,101.7c0-0.3-0.1-0.6-0.2-0.8c-0.2-0.2-0.4-0.3-0.6-0.3c-0.3,0-0.5,0.1-0.6,0.3s-0.2,0.4-0.2,0.8c0,0.3,0.1,0.6,0.2,0.8
			s0.4,0.3,0.6,0.3c0.3,0,0.5-0.1,0.6-0.3C34.9,102.3,35,102,35,101.7z"/>
		<path class="st0" d="M37.2,101.7c0-0.2,0-0.5,0.1-0.7c0.1-0.2,0.2-0.4,0.4-0.5c0.2-0.2,0.3-0.3,0.6-0.4c0.2-0.1,0.4-0.1,0.7-0.1
			c0.2,0,0.5,0,0.7,0.1c0.2,0.1,0.4,0.2,0.6,0.4c0.2,0.2,0.3,0.3,0.4,0.6c0.1,0.2,0.1,0.4,0.1,0.6c0,0.2,0,0.5-0.1,0.7
			c-0.1,0.2-0.2,0.4-0.4,0.5c-0.2,0.2-0.4,0.3-0.6,0.4s-0.4,0.1-0.7,0.1c-0.2,0-0.4,0-0.7-0.1c-0.2-0.1-0.4-0.2-0.6-0.4
			c-0.2-0.2-0.3-0.3-0.4-0.6S37.2,101.9,37.2,101.7z M39.9,101.7c0-0.3-0.1-0.5-0.3-0.7c-0.2-0.2-0.4-0.3-0.7-0.3
			c-0.3,0-0.5,0.1-0.7,0.3c-0.2,0.2-0.3,0.5-0.3,0.7c0,0.3,0.1,0.5,0.3,0.7c0.2,0.2,0.4,0.3,0.7,0.3c0.3,0,0.5-0.1,0.7-0.3
			C39.8,102.2,39.9,102,39.9,101.7z"/>
		<path class="st0" d="M47.8,103.3h-0.7v-0.4c-0.1,0.2-0.3,0.3-0.5,0.4c-0.2,0.1-0.4,0.1-0.6,0.1c-0.4,0-0.8-0.2-1.1-0.5
			c-0.3-0.3-0.4-0.7-0.4-1.3c0-0.5,0.1-0.9,0.4-1.2c0.3-0.3,0.6-0.5,1-0.5c0.3,0,0.5,0.1,0.7,0.2c0.2,0.1,0.3,0.3,0.4,0.5v-0.5h0.7
			V103.3z M47.1,101.7c0-0.3-0.1-0.6-0.2-0.8c-0.2-0.2-0.4-0.3-0.6-0.3c-0.3,0-0.5,0.1-0.6,0.3s-0.2,0.4-0.2,0.8
			c0,0.3,0.1,0.6,0.2,0.8s0.4,0.3,0.6,0.3c0.3,0,0.5-0.1,0.6-0.3C47,102.2,47.1,102,47.1,101.7z"/>
		<path class="st0" d="M52.3,103.3v-5.2H53v5.2H52.3z"/>
		<path class="st0" d="M57.7,103.3H57v-0.4c-0.1,0.2-0.3,0.3-0.5,0.4c-0.2,0.1-0.4,0.1-0.6,0.1c-0.4,0-0.8-0.2-1.1-0.5
			c-0.3-0.3-0.4-0.7-0.4-1.3c0-0.5,0.1-0.9,0.4-1.2c0.3-0.3,0.6-0.5,1-0.5c0.3,0,0.5,0.1,0.7,0.2c0.2,0.1,0.3,0.3,0.4,0.5v-0.5h0.7
			V103.3z M57,101.7c0-0.3-0.1-0.6-0.2-0.8c-0.2-0.2-0.4-0.3-0.6-0.3c-0.3,0-0.5,0.1-0.6,0.3s-0.2,0.4-0.2,0.8
			c0,0.3,0.1,0.6,0.2,0.8c0.2,0.2,0.4,0.3,0.6,0.3c0.3,0,0.5-0.1,0.6-0.3C56.9,102.2,57,102,57,101.7z"/>
		<path class="st0" d="M62.2,103.3v-5.1l3.1,3c0.1,0.1,0.2,0.2,0.3,0.3c0.1,0.1,0.2,0.2,0.3,0.3v-3.4h0.7v5.1l-3.2-3
			c-0.1-0.1-0.2-0.2-0.2-0.3c-0.1-0.1-0.2-0.2-0.2-0.3v3.4H62.2z"/>
		<path class="st0" d="M69,100.1v1.8c0,0.3,0.1,0.5,0.2,0.7c0.1,0.1,0.3,0.2,0.6,0.2s0.5-0.1,0.6-0.2c0.1-0.1,0.2-0.4,0.2-0.7v-1.8
			h0.7v1.6c0,0.6-0.1,1-0.4,1.3c-0.2,0.3-0.6,0.4-1.2,0.4c-0.5,0-0.9-0.1-1.2-0.4c-0.2-0.3-0.4-0.7-0.4-1.3v-1.6H69z"/>
		<path class="st0" d="M76.1,101.8h-2.5c0,0.3,0.1,0.5,0.3,0.7c0.2,0.2,0.4,0.2,0.6,0.2c0.2,0,0.4,0,0.6-0.1
			c0.2-0.1,0.3-0.3,0.4-0.5l0.6,0.3c-0.2,0.3-0.4,0.6-0.7,0.7c-0.3,0.2-0.6,0.2-0.9,0.2c-0.5,0-0.9-0.2-1.2-0.5
			c-0.3-0.3-0.5-0.7-0.5-1.2c0-0.5,0.2-0.9,0.5-1.2c0.3-0.3,0.7-0.5,1.2-0.5c0.5,0,0.9,0.1,1.2,0.4c0.3,0.3,0.4,0.7,0.4,1.2V101.8z
			 M75.3,101.3c0-0.2-0.1-0.4-0.3-0.5c-0.1-0.1-0.3-0.2-0.6-0.2c-0.2,0-0.4,0.1-0.6,0.2c-0.1,0.1-0.2,0.3-0.3,0.5H75.3z"/>
		<path class="st0" d="M78.6,103.4l-1.7-3.4h0.8l0.7,1.6c0,0,0,0.1,0.1,0.2c0,0.1,0.1,0.2,0.1,0.4c0-0.1,0-0.2,0.1-0.3
			c0-0.1,0.1-0.2,0.1-0.3l0.7-1.6h0.8L78.6,103.4z"/>
		<path class="st0" d="M84.4,103.3h-0.7v-0.4c-0.1,0.2-0.3,0.3-0.5,0.4c-0.2,0.1-0.4,0.1-0.6,0.1c-0.4,0-0.8-0.2-1.1-0.5
			c-0.3-0.3-0.4-0.7-0.4-1.3c0-0.5,0.1-0.9,0.4-1.2c0.3-0.3,0.6-0.5,1-0.5c0.3,0,0.5,0.1,0.7,0.2c0.2,0.1,0.3,0.3,0.4,0.5v-0.5h0.7
			V103.3z M83.7,101.7c0-0.3-0.1-0.6-0.2-0.8c-0.2-0.2-0.4-0.3-0.6-0.3c-0.3,0-0.5,0.1-0.6,0.3c-0.2,0.2-0.2,0.4-0.2,0.8
			c0,0.3,0.1,0.6,0.2,0.8c0.2,0.2,0.4,0.3,0.6,0.3c0.3,0,0.5-0.1,0.6-0.3C83.6,102.2,83.7,102,83.7,101.7z"/>
		<path class="st0" d="M88.9,103.3v-4.9h2.7V99h-1.9v1.2h1.9v0.7h-1.9v1.6h1.9v0.7H88.9z"/>
		<path class="st0" d="M95.4,98.1h0.7v5.2h-0.7v-0.4c-0.1,0.2-0.3,0.3-0.5,0.4c-0.2,0.1-0.4,0.1-0.6,0.1c-0.4,0-0.8-0.2-1.1-0.5
			c-0.3-0.3-0.4-0.7-0.4-1.3c0-0.5,0.1-0.9,0.4-1.2c0.3-0.3,0.6-0.5,1-0.5c0.3,0,0.5,0.1,0.7,0.2c0.2,0.1,0.3,0.3,0.4,0.5V98.1z
			 M95.4,101.7c0-0.3-0.1-0.6-0.2-0.8c-0.2-0.2-0.4-0.3-0.6-0.3c-0.3,0-0.5,0.1-0.6,0.3c-0.2,0.2-0.2,0.4-0.2,0.8
			c0,0.3,0.1,0.6,0.2,0.8c0.2,0.2,0.4,0.3,0.6,0.3c0.3,0,0.5-0.1,0.6-0.3C95.4,102.3,95.4,102,95.4,101.7z"/>
		<path class="st0" d="M98.5,100.1v1.8c0,0.3,0.1,0.5,0.2,0.7c0.1,0.1,0.3,0.2,0.6,0.2c0.3,0,0.5-0.1,0.6-0.2
			c0.1-0.1,0.2-0.4,0.2-0.7v-1.8h0.7v1.6c0,0.6-0.1,1-0.4,1.3c-0.2,0.3-0.6,0.4-1.2,0.4c-0.5,0-0.9-0.1-1.2-0.4
			c-0.2-0.3-0.4-0.7-0.4-1.3v-1.6H98.5z"/>
		<path class="st0" d="M104.9,101c-0.1-0.1-0.2-0.2-0.4-0.3c-0.1-0.1-0.3-0.1-0.5-0.1c-0.3,0-0.5,0.1-0.7,0.3
			c-0.2,0.2-0.3,0.4-0.3,0.8c0,0.3,0.1,0.6,0.3,0.8s0.4,0.3,0.7,0.3c0.2,0,0.3,0,0.5-0.1c0.1-0.1,0.3-0.2,0.4-0.3v0.8
			c-0.1,0.1-0.3,0.1-0.4,0.2c-0.2,0-0.3,0.1-0.5,0.1c-0.5,0-0.9-0.2-1.2-0.5c-0.3-0.3-0.5-0.7-0.5-1.2c0-0.5,0.2-0.9,0.5-1.2
			c0.3-0.3,0.7-0.5,1.3-0.5c0.2,0,0.3,0,0.5,0c0.1,0,0.3,0.1,0.4,0.1V101z"/>
		<path class="st0" d="M109.3,103.3h-0.7v-0.4c-0.1,0.2-0.3,0.3-0.5,0.4c-0.2,0.1-0.4,0.1-0.6,0.1c-0.4,0-0.8-0.2-1.1-0.5
			c-0.3-0.3-0.4-0.7-0.4-1.3c0-0.5,0.1-0.9,0.4-1.2c0.3-0.3,0.6-0.5,1-0.5c0.3,0,0.5,0.1,0.7,0.2c0.2,0.1,0.3,0.3,0.4,0.5v-0.5h0.7
			V103.3z M108.6,101.7c0-0.3-0.1-0.6-0.2-0.8c-0.2-0.2-0.4-0.3-0.6-0.3c-0.3,0-0.5,0.1-0.6,0.3c-0.2,0.2-0.2,0.4-0.2,0.8
			c0,0.3,0.1,0.6,0.2,0.8c0.2,0.2,0.4,0.3,0.6,0.3c0.3,0,0.5-0.1,0.6-0.3C108.5,102.2,108.6,102,108.6,101.7z"/>
		<path class="st0" d="M113.4,101c-0.1-0.1-0.2-0.2-0.4-0.3c-0.1-0.1-0.3-0.1-0.5-0.1c-0.3,0-0.5,0.1-0.7,0.3
			c-0.2,0.2-0.3,0.4-0.3,0.8c0,0.3,0.1,0.6,0.3,0.8s0.4,0.3,0.7,0.3c0.2,0,0.3,0,0.5-0.1c0.1-0.1,0.3-0.2,0.4-0.3v0.8
			c-0.1,0.1-0.3,0.1-0.4,0.2c-0.2,0-0.3,0.1-0.5,0.1c-0.5,0-0.9-0.2-1.2-0.5c-0.3-0.3-0.5-0.7-0.5-1.2c0-0.5,0.2-0.9,0.5-1.2
			c0.3-0.3,0.7-0.5,1.3-0.5c0.2,0,0.3,0,0.5,0c0.1,0,0.3,0.1,0.4,0.1V101z"/>
		<path class="st0" d="M114.7,98.7c0-0.1,0-0.2,0.1-0.3s0.2-0.1,0.3-0.1c0.1,0,0.2,0,0.3,0.1c0.1,0.1,0.1,0.2,0.1,0.3
			c0,0.1,0,0.2-0.1,0.3c-0.1,0.1-0.2,0.1-0.3,0.1c-0.1,0-0.2,0-0.3-0.1C114.8,99,114.7,98.8,114.7,98.7z M114.8,103.3v-3.2h0.7v3.2
			H114.8z"/>
		<path class="st0" d="M117,101.7c0-0.2,0-0.5,0.1-0.7c0.1-0.2,0.2-0.4,0.4-0.5c0.2-0.2,0.3-0.3,0.6-0.4c0.2-0.1,0.4-0.1,0.7-0.1
			c0.2,0,0.5,0,0.7,0.1c0.2,0.1,0.4,0.2,0.6,0.4c0.2,0.2,0.3,0.3,0.4,0.6c0.1,0.2,0.1,0.4,0.1,0.6c0,0.2,0,0.5-0.1,0.7
			c-0.1,0.2-0.2,0.4-0.4,0.5c-0.2,0.2-0.4,0.3-0.6,0.4c-0.2,0.1-0.4,0.1-0.7,0.1c-0.2,0-0.4,0-0.7-0.1c-0.2-0.1-0.4-0.2-0.6-0.4
			c-0.2-0.2-0.3-0.3-0.4-0.6C117.1,102.1,117,101.9,117,101.7z M119.7,101.7c0-0.3-0.1-0.5-0.3-0.7c-0.2-0.2-0.4-0.3-0.7-0.3
			c-0.3,0-0.5,0.1-0.7,0.3c-0.2,0.2-0.3,0.5-0.3,0.7c0,0.3,0.1,0.5,0.3,0.7c0.2,0.2,0.4,0.3,0.7,0.3s0.5-0.1,0.7-0.3
			C119.7,102.2,119.7,102,119.7,101.7z M118.3,99.6l0.6-0.9h0.8l-1,0.9H118.3z"/>
		<path class="st0" d="M122,103.3v-3.2h0.7v0.5c0.1-0.2,0.3-0.4,0.5-0.5c0.2-0.1,0.4-0.2,0.7-0.2c0.2,0,0.4,0,0.6,0.1
			c0.2,0.1,0.3,0.2,0.4,0.3c0.1,0.1,0.1,0.2,0.1,0.3c0,0.1,0,0.3,0,0.6v1.9h-0.7v-1.6c0-0.4-0.1-0.7-0.2-0.8
			c-0.1-0.1-0.3-0.2-0.5-0.2c-0.2,0-0.3,0-0.5,0.1c-0.1,0.1-0.2,0.2-0.3,0.3c-0.1,0.1-0.1,0.2-0.1,0.3c0,0.1,0,0.3,0,0.6v1.4H122z"
			/>
	</g>
</g>
</svg>
