<?xml version="1.0" encoding="utf-8"?>
<!-- Generator: Adobe Illustrator 26.0.0, SVG Export Plug-In . SVG Version: 6.00 Build 0)  -->
<svg version="1.1" id="Capa_1" xmlns="http://www.w3.org/2000/svg" xmlns:xlink="http://www.w3.org/1999/xlink" x="0px" y="0px"
	 viewBox="0 0 202 106" style="enable-background:new 0 0 202 106;" xml:space="preserve">
<style type="text/css">
	.st0{fill:#F32735;}
</style>
<g>
	<g>
		<g>
			<path class="st0" d="M52.5,10.8c0,0.15,0,0.26-0.01,0.35s-0.05,0.15-0.1,0.19c-0.05,0.04-0.13,0.07-0.24,0.08
				s-0.26,0.02-0.44,0.02c-0.19,0-0.34,0-0.45-0.01c-0.11-0.01-0.19-0.02-0.24-0.04c-0.05-0.02-0.08-0.04-0.1-0.08
				c-0.01-0.03-0.02-0.08-0.02-0.13l-0.05-1.59h-2.76l-0.89,1.55c-0.03,0.06-0.06,0.1-0.1,0.14c-0.03,0.04-0.08,0.07-0.14,0.09
				c-0.06,0.02-0.14,0.04-0.24,0.05c-0.1,0.01-0.24,0.01-0.4,0.01c-0.17,0-0.31-0.01-0.4-0.02s-0.16-0.04-0.18-0.09
				s-0.02-0.11,0.02-0.2c0.04-0.08,0.09-0.2,0.18-0.34l4.21-7.03c0.04-0.07,0.08-0.12,0.13-0.17c0.04-0.04,0.1-0.08,0.17-0.1
				s0.17-0.04,0.29-0.04c0.12-0.01,0.28-0.01,0.47-0.01c0.22,0,0.4,0,0.53,0.01c0.13,0.01,0.23,0.02,0.3,0.04
				c0.07,0.02,0.11,0.06,0.13,0.1c0.02,0.05,0.03,0.11,0.03,0.18L52.5,10.8z M50.74,4.99L50.74,4.99l-1.98,3.37h2.08L50.74,4.99z"/>
			<path class="st0" d="M59.79,10.2c-0.03,0.1-0.06,0.19-0.08,0.26c-0.02,0.07-0.05,0.13-0.08,0.18c-0.02,0.05-0.05,0.09-0.08,0.13
				s-0.07,0.08-0.13,0.13c-0.05,0.05-0.15,0.11-0.29,0.18c-0.14,0.07-0.3,0.14-0.5,0.21s-0.4,0.12-0.64,0.17
				c-0.23,0.04-0.48,0.07-0.74,0.07c-0.5,0-0.93-0.08-1.29-0.25s-0.63-0.42-0.82-0.75s-0.29-0.75-0.31-1.25
				c-0.01-0.5,0.07-1.08,0.26-1.74c0.19-0.67,0.43-1.27,0.75-1.79c0.31-0.52,0.67-0.96,1.06-1.32c0.4-0.35,0.83-0.62,1.3-0.81
				c0.47-0.18,0.95-0.28,1.46-0.28c0.2,0,0.4,0.02,0.57,0.06c0.18,0.04,0.34,0.08,0.48,0.14c0.15,0.06,0.27,0.13,0.38,0.21
				s0.18,0.14,0.21,0.2c0.03,0.05,0.06,0.1,0.07,0.14s0.01,0.08,0.01,0.14c-0.01,0.06-0.01,0.12-0.03,0.2s-0.04,0.17-0.07,0.29
				s-0.07,0.23-0.1,0.31c-0.03,0.09-0.06,0.16-0.1,0.21c-0.03,0.05-0.07,0.09-0.1,0.12c-0.03,0.02-0.07,0.04-0.1,0.04
				c-0.06,0-0.12-0.04-0.19-0.11s-0.16-0.15-0.27-0.24c-0.11-0.09-0.26-0.17-0.43-0.24C59.82,4.74,59.6,4.7,59.34,4.7
				c-0.29,0-0.57,0.06-0.83,0.19S58,5.2,57.77,5.44c-0.23,0.24-0.43,0.53-0.61,0.87c-0.18,0.34-0.32,0.72-0.44,1.15
				c-0.13,0.47-0.2,0.87-0.2,1.21c-0.01,0.34,0.04,0.62,0.15,0.84c0.1,0.22,0.26,0.38,0.46,0.49s0.45,0.16,0.74,0.16
				c0.27,0,0.5-0.03,0.71-0.1c0.21-0.07,0.4-0.14,0.56-0.22s0.29-0.15,0.4-0.22c0.11-0.06,0.19-0.1,0.23-0.1s0.07,0.01,0.08,0.03
				c0.02,0.02,0.03,0.05,0.03,0.1s-0.01,0.12-0.02,0.21C59.86,9.93,59.83,10.05,59.79,10.2z"/>
			<path class="st0" d="M67.87,10.8c0,0.15,0,0.26-0.01,0.35s-0.04,0.15-0.1,0.19c-0.05,0.04-0.13,0.07-0.24,0.08
				s-0.26,0.02-0.44,0.02c-0.19,0-0.34,0-0.45-0.01c-0.1-0.01-0.18-0.02-0.24-0.04c-0.05-0.02-0.08-0.04-0.1-0.08
				c-0.01-0.03-0.02-0.08-0.02-0.13l-0.05-1.59h-2.76l-0.89,1.55c-0.03,0.06-0.06,0.1-0.1,0.14s-0.08,0.07-0.15,0.09
				c-0.06,0.02-0.14,0.04-0.25,0.05c-0.1,0.01-0.24,0.01-0.4,0.01c-0.17,0-0.31-0.01-0.4-0.02s-0.16-0.04-0.18-0.09
				c-0.03-0.05-0.02-0.11,0.02-0.2c0.03-0.08,0.09-0.2,0.18-0.34l4.21-7.03c0.04-0.07,0.08-0.12,0.13-0.17
				c0.04-0.04,0.1-0.08,0.17-0.1s0.17-0.04,0.29-0.04c0.12-0.01,0.27-0.01,0.47-0.01c0.22,0,0.4,0,0.53,0.01
				c0.13,0.01,0.23,0.02,0.3,0.04s0.11,0.06,0.13,0.1c0.02,0.05,0.03,0.11,0.03,0.18L67.87,10.8z M66.11,4.99L66.11,4.99l-1.98,3.37
				h2.08L66.11,4.99z"/>
			<path class="st0" d="M77.12,7.32c-0.2,0.73-0.46,1.35-0.78,1.86c-0.32,0.52-0.69,0.94-1.11,1.26c-0.42,0.33-0.89,0.57-1.4,0.72
				c-0.51,0.15-1.09,0.23-1.74,0.23h-1.75c-0.13,0-0.22-0.04-0.28-0.12c-0.06-0.08-0.07-0.21-0.02-0.39l1.91-6.91
				c0.05-0.18,0.13-0.31,0.24-0.39s0.22-0.12,0.35-0.12h1.88c0.65,0,1.19,0.08,1.6,0.25s0.73,0.41,0.95,0.73
				c0.22,0.32,0.35,0.73,0.38,1.2C77.37,6.14,77.29,6.69,77.12,7.32z M75.56,7.38c0.1-0.38,0.16-0.72,0.17-1.05
				c0.01-0.32-0.05-0.6-0.16-0.84c-0.11-0.24-0.29-0.42-0.54-0.55c-0.24-0.13-0.6-0.2-1.05-0.2h-0.76l-1.49,5.39h0.78
				c0.41,0,0.77-0.06,1.08-0.17s0.59-0.29,0.84-0.52c0.25-0.23,0.47-0.52,0.66-0.86C75.28,8.23,75.44,7.83,75.56,7.38z"/>
			<path class="st0" d="M82.9,10.77c-0.03,0.12-0.07,0.22-0.1,0.3c-0.03,0.08-0.06,0.14-0.1,0.19c-0.03,0.05-0.07,0.08-0.1,0.11
				c-0.04,0.02-0.07,0.03-0.1,0.03h-3.69c-0.12,0-0.22-0.04-0.28-0.12c-0.06-0.08-0.07-0.21-0.02-0.39l1.91-6.91
				c0.05-0.18,0.13-0.31,0.24-0.39s0.22-0.12,0.35-0.12h3.66c0.03,0,0.06,0.01,0.08,0.03s0.03,0.06,0.04,0.11
				c0,0.05,0,0.12-0.01,0.2c-0.01,0.08-0.04,0.18-0.07,0.3c-0.03,0.11-0.06,0.21-0.1,0.29c-0.03,0.08-0.06,0.14-0.1,0.19
				c-0.03,0.05-0.06,0.08-0.1,0.11c-0.03,0.02-0.07,0.03-0.1,0.03h-2.62l-0.54,1.93h2.22c0.03,0,0.06,0.01,0.09,0.03
				c0.02,0.02,0.04,0.06,0.04,0.1c0,0.05,0,0.11-0.01,0.19s-0.04,0.18-0.07,0.29c-0.03,0.12-0.06,0.22-0.09,0.29
				c-0.03,0.08-0.06,0.14-0.09,0.19s-0.07,0.08-0.1,0.1c-0.03,0.02-0.07,0.03-0.1,0.03h-2.22l-0.62,2.23h2.64
				c0.03,0,0.06,0.01,0.08,0.03c0.02,0.02,0.04,0.06,0.04,0.11c0.01,0.05,0,0.11-0.01,0.19C82.96,10.55,82.93,10.65,82.9,10.77z"/>
			<path class="st0" d="M93.81,11.18c-0.01,0.04-0.03,0.08-0.06,0.11c-0.03,0.03-0.08,0.06-0.14,0.08
				c-0.06,0.02-0.14,0.04-0.23,0.05c-0.09,0.01-0.21,0.02-0.35,0.02c-0.14,0-0.25-0.01-0.34-0.02s-0.16-0.03-0.2-0.05
				c-0.05-0.02-0.08-0.05-0.09-0.08s-0.02-0.07,0-0.11l1.79-6.44h-0.01l-3.91,6.44c-0.03,0.05-0.07,0.1-0.11,0.13
				s-0.1,0.06-0.16,0.08c-0.06,0.02-0.14,0.03-0.24,0.04c-0.09,0.01-0.2,0.01-0.33,0.01s-0.24,0-0.32-0.02
				c-0.09-0.01-0.16-0.03-0.21-0.05c-0.05-0.02-0.09-0.05-0.12-0.08c-0.03-0.03-0.04-0.07-0.04-0.12l-0.27-6.44h-0.01l-1.79,6.44
				c-0.01,0.04-0.03,0.08-0.06,0.11c-0.03,0.03-0.08,0.06-0.14,0.08c-0.06,0.02-0.14,0.04-0.23,0.05c-0.09,0.01-0.21,0.02-0.35,0.02
				c-0.13,0-0.25-0.01-0.33-0.02c-0.09-0.01-0.16-0.03-0.2-0.05c-0.05-0.02-0.08-0.05-0.09-0.08s-0.01-0.07,0-0.11l1.96-7.06
				c0.06-0.21,0.15-0.37,0.29-0.48c0.13-0.11,0.28-0.16,0.45-0.16h0.98c0.17,0,0.32,0.02,0.43,0.05c0.12,0.03,0.21,0.08,0.28,0.15
				s0.12,0.17,0.15,0.28c0.03,0.12,0.04,0.26,0.04,0.43l0.28,4.72h0.02l2.95-4.71c0.1-0.17,0.19-0.32,0.28-0.44s0.19-0.21,0.28-0.29
				c0.1-0.07,0.2-0.13,0.32-0.16c0.11-0.03,0.24-0.05,0.38-0.05h1c0.1,0,0.19,0.01,0.25,0.04c0.07,0.03,0.11,0.07,0.15,0.13
				c0.03,0.05,0.05,0.12,0.05,0.2c0,0.08-0.01,0.17-0.04,0.27L93.81,11.18z"/>
			<path class="st0" d="M98.07,11.18c-0.01,0.04-0.03,0.08-0.07,0.11c-0.03,0.03-0.08,0.06-0.14,0.08
				c-0.06,0.02-0.14,0.04-0.24,0.05s-0.22,0.02-0.37,0.02c-0.14,0-0.26-0.01-0.35-0.02c-0.09-0.01-0.17-0.03-0.22-0.05
				s-0.08-0.05-0.1-0.08c-0.02-0.03-0.02-0.07-0.01-0.11l2.07-7.48c0.01-0.04,0.03-0.08,0.07-0.11c0.03-0.03,0.08-0.06,0.15-0.08
				c0.06-0.02,0.15-0.04,0.24-0.05c0.1-0.01,0.22-0.02,0.36-0.02c0.15,0,0.27,0.01,0.36,0.02c0.09,0.01,0.16,0.03,0.21,0.05
				c0.05,0.02,0.09,0.05,0.1,0.08c0.01,0.03,0.02,0.07,0.01,0.11L98.07,11.18z"/>
			<path class="st0" d="M106.95,10.8c0,0.15,0,0.26-0.01,0.35s-0.05,0.15-0.1,0.19s-0.13,0.07-0.24,0.08s-0.26,0.02-0.44,0.02
				c-0.19,0-0.34,0-0.45-0.01s-0.19-0.02-0.24-0.04c-0.05-0.02-0.08-0.04-0.1-0.08c-0.01-0.03-0.02-0.08-0.02-0.13l-0.05-1.59h-2.76
				l-0.89,1.55c-0.03,0.06-0.06,0.1-0.1,0.14c-0.03,0.04-0.08,0.07-0.14,0.09s-0.14,0.04-0.25,0.05c-0.1,0.01-0.24,0.01-0.4,0.01
				c-0.17,0-0.31-0.01-0.4-0.02s-0.16-0.04-0.18-0.09c-0.03-0.05-0.02-0.11,0.01-0.2c0.03-0.08,0.09-0.2,0.18-0.34l4.21-7.03
				c0.04-0.07,0.08-0.12,0.13-0.17c0.04-0.04,0.1-0.08,0.17-0.1s0.17-0.04,0.29-0.04c0.12-0.01,0.27-0.01,0.47-0.01
				c0.22,0,0.4,0,0.53,0.01c0.13,0.01,0.23,0.02,0.3,0.04s0.11,0.06,0.13,0.1c0.02,0.05,0.03,0.11,0.03,0.18L106.95,10.8z
				 M105.19,4.99L105.19,4.99l-1.98,3.37h2.08L105.19,4.99z"/>
		</g>
		<path class="st0" d="M135.73,5.37h-17.77c-0.94,0-1.9,0.76-2.16,1.69l-0.24,0.85c-0.26,0.93,0.29,1.69,1.22,1.69h17.77
			c0.94,0,1.9-0.76,2.16-1.69l0.24-0.85C137.21,6.13,136.66,5.37,135.73,5.37z"/>
		<path class="st0" d="M38.42,5.37H20.65c-0.93,0-1.9,0.76-2.16,1.69l-0.24,0.85c-0.26,0.93,0.29,1.69,1.22,1.69h17.77
			c0.93,0,1.9-0.76,2.16-1.69l0.23-0.85C39.9,6.13,39.36,5.37,38.42,5.37z"/>
		<g>
			<polygon class="st0" points="85.09,41.05 88.78,41.05 88.58,35.13 			"/>
			<path class="st0" d="M113.54,32.26c-0.15-0.04-0.36-0.08-0.6-0.12c-0.24-0.03-0.6-0.05-1.07-0.05h-1.07l-1.33,4.8h1.34
				c0.53,0,1-0.06,1.41-0.19c0.38-0.12,0.71-0.28,0.99-0.49c0.27-0.2,0.49-0.43,0.68-0.72c0.2-0.3,0.36-0.65,0.47-1.05
				c0.17-0.6,0.18-1.09,0.05-1.47C114.3,32.65,114.02,32.41,113.54,32.26z"/>
			<polygon class="st0" points="71.14,83.31 74.84,83.31 74.64,77.37 			"/>
			<path class="st0" d="M122.15,60.35l11.73-42.31H15.42L3.69,60.35h33.85l-11.73,42.31h160.77l11.73-42.31
				C198.31,60.35,122.15,60.35,122.15,60.35z M59.57,45.17c0.21,0.18,0.5,0.38,0.85,0.61c0.34,0.21,0.78,0.41,1.3,0.59
				c0.49,0.17,1.1,0.25,1.83,0.25c0.44,0,0.85-0.05,1.21-0.16c0.34-0.1,0.64-0.24,0.89-0.41c0.23-0.16,0.43-0.35,0.6-0.6
				c0.18-0.26,0.32-0.56,0.41-0.89c0.09-0.34,0.09-0.61-0.01-0.83c-0.12-0.29-0.33-0.55-0.61-0.79c-0.32-0.26-0.7-0.52-1.15-0.76
				c-0.49-0.26-0.99-0.54-1.5-0.83c-0.54-0.31-1.06-0.66-1.53-1.05c-0.51-0.42-0.94-0.92-1.27-1.5c-0.34-0.59-0.55-1.29-0.64-2.09
				s0.02-1.76,0.32-2.85c0.35-1.25,0.88-2.38,1.6-3.35s1.56-1.79,2.5-2.44c0.94-0.64,1.97-1.13,3.08-1.44
				c1.63-0.46,3.36-0.59,4.95-0.32c0.54,0.09,1.04,0.22,1.5,0.38c0.45,0.16,0.86,0.34,1.2,0.55c0.4,0.24,0.64,0.44,0.77,0.65
				c0.13,0.19,0.21,0.37,0.24,0.54c0.03,0.16,0.04,0.33,0.02,0.55c-0.01,0.18-0.05,0.4-0.11,0.66c-0.05,0.22-0.12,0.5-0.21,0.84
				c-0.1,0.37-0.2,0.69-0.29,0.95c-0.1,0.3-0.21,0.55-0.32,0.76c-0.18,0.33-0.38,0.59-0.64,0.78c-0.31,0.24-0.69,0.38-1.06,0.38
				c-0.32,0-0.62-0.12-0.99-0.4c-0.21-0.15-0.47-0.33-0.79-0.51c-0.3-0.18-0.67-0.34-1.1-0.49c-0.39-0.13-0.85-0.2-1.38-0.2
				c-0.38,0-0.72,0.05-1,0.14c-0.26,0.08-0.49,0.19-0.68,0.33c-0.17,0.13-0.31,0.27-0.43,0.45c-0.14,0.21-0.24,0.43-0.3,0.67
				c-0.09,0.33-0.09,0.6,0,0.82c0.12,0.28,0.32,0.54,0.61,0.77c0.33,0.27,0.73,0.53,1.18,0.76c0.5,0.26,1.01,0.54,1.53,0.84
				c0.54,0.31,1.06,0.66,1.54,1.04c0.52,0.42,0.96,0.92,1.3,1.5c0.34,0.59,0.56,1.29,0.66,2.08c0.09,0.8-0.01,1.74-0.3,2.79
				c-0.38,1.36-0.96,2.58-1.74,3.63c-0.78,1.05-1.7,1.94-2.73,2.65c-1.02,0.7-2.15,1.23-3.35,1.58c-1.17,0.34-2.38,0.52-3.59,0.52
				c-0.82,0-1.57-0.07-2.25-0.22c-0.66-0.14-1.24-0.32-1.73-0.52c-0.5-0.21-0.9-0.43-1.23-0.67c-0.34-0.25-0.58-0.48-0.72-0.7
				c-0.19-0.28-0.27-0.66-0.24-1.12c0.02-0.36,0.12-0.84,0.29-1.47c0.11-0.41,0.22-0.74,0.32-1.03c0.12-0.32,0.24-0.59,0.38-0.82
				c0.2-0.33,0.45-0.6,0.73-0.78C58.18,44.59,58.87,44.57,59.57,45.17z M50.69,24.04l1.78-2.38c0.13-0.18,0.34-0.29,0.57-0.29h3.05
				c0.29,0,0.55,0.18,0.66,0.45s0.04,0.58-0.17,0.78l-2.52,2.38c-0.13,0.12-0.31,0.19-0.49,0.19h-2.31c-0.27,0-0.51-0.15-0.63-0.39
				C50.5,24.54,50.52,24.26,50.69,24.04z M36.97,33.77c-0.69,0.5-1.47,0.49-2.1-0.17c-0.18-0.19-0.43-0.4-0.74-0.64
				c-0.29-0.22-0.67-0.43-1.13-0.62c-0.42-0.17-0.97-0.26-1.65-0.26c-0.72,0-1.37,0.15-2,0.45c-0.65,0.31-1.24,0.75-1.81,1.34
				c-0.59,0.61-1.12,1.38-1.59,2.27c-0.49,0.93-0.9,1.99-1.23,3.17c-0.36,1.29-0.55,2.42-0.56,3.35c-0.01,0.89,0.12,1.62,0.38,2.17
				c0.26,0.53,0.62,0.92,1.1,1.17c0.5,0.26,1.12,0.39,1.85,0.39c0.68,0,1.29-0.08,1.82-0.25c0.57-0.18,1.07-0.37,1.48-0.58
				c0.45-0.22,0.82-0.43,1.11-0.6c0.98-0.59,1.66-0.57,2.06-0.22c0.2,0.17,0.3,0.43,0.31,0.77c0.01,0.21-0.02,0.47-0.08,0.8
				c-0.06,0.29-0.15,0.66-0.27,1.12c-0.09,0.33-0.18,0.61-0.26,0.84c-0.09,0.26-0.18,0.48-0.28,0.67c-0.11,0.23-0.24,0.43-0.39,0.61
				c-0.14,0.18-0.33,0.36-0.56,0.56c-0.25,0.21-0.61,0.44-1.13,0.71c-0.47,0.25-1.03,0.48-1.65,0.7s-1.32,0.4-2.08,0.54
				c-0.76,0.15-1.57,0.22-2.4,0.22c-1.62,0-3.04-0.27-4.22-0.81c-1.19-0.55-2.12-1.38-2.77-2.48c-0.63-1.08-0.98-2.43-1.02-4.02
				c-0.05-1.55,0.22-3.38,0.78-5.42c0.58-2.08,1.36-3.96,2.34-5.59c0.99-1.66,2.15-3.07,3.44-4.21c1.31-1.16,2.75-2.05,4.3-2.64
				c1.53-0.59,3.13-0.89,4.77-0.89c0.67,0,1.31,0.06,1.9,0.18c0.58,0.12,1.11,0.27,1.59,0.47c0.49,0.19,0.91,0.43,1.27,0.68
				c0.39,0.28,0.65,0.52,0.8,0.75c0.15,0.22,0.24,0.43,0.29,0.61c0.05,0.19,0.06,0.41,0.04,0.66c-0.02,0.21-0.05,0.44-0.11,0.71
				c-0.05,0.25-0.13,0.56-0.23,0.92c-0.11,0.39-0.21,0.72-0.32,1.01c-0.12,0.34-0.26,0.61-0.4,0.84
				C37.43,33.37,37.22,33.6,36.97,33.77z M37.64,51.31c-0.34-0.42-0.39-1.03-0.17-1.83l5.67-20.45c0.22-0.8,0.62-1.41,1.19-1.83
				c0.54-0.4,1.14-0.6,1.75-0.6h10.99c0.31,0,0.58,0.1,0.77,0.28c0.18,0.17,0.28,0.41,0.31,0.73c0.02,0.22,0.01,0.48-0.04,0.79
				c-0.04,0.27-0.12,0.61-0.23,1.01c-0.1,0.37-0.21,0.7-0.32,0.97c-0.13,0.32-0.26,0.58-0.41,0.8c-0.19,0.29-0.42,0.52-0.66,0.69
				c-0.31,0.21-0.64,0.32-0.97,0.32H48.6l-1.07,3.87h5.71c0.31,0,0.58,0.1,0.78,0.3c0.17,0.17,0.27,0.4,0.31,0.69
				c0.03,0.22,0.02,0.48-0.03,0.8c-0.04,0.28-0.12,0.6-0.22,0.97c-0.11,0.39-0.21,0.71-0.32,0.98c-0.13,0.31-0.26,0.57-0.41,0.79
				c-0.21,0.31-0.46,0.54-0.73,0.71c-0.29,0.17-0.6,0.26-0.9,0.26h-5.71l-1.32,4.76h6.99c0.31,0,0.58,0.1,0.78,0.3
				c0.17,0.17,0.28,0.41,0.31,0.71c0.03,0.22,0.01,0.48-0.03,0.8c-0.04,0.28-0.12,0.6-0.23,0.99c-0.11,0.39-0.21,0.71-0.32,0.99
				c-0.13,0.32-0.26,0.58-0.41,0.8c-0.2,0.3-0.44,0.54-0.7,0.71c-0.3,0.2-0.63,0.3-0.95,0.3H39.07
				C38.45,51.91,37.96,51.7,37.64,51.31z M51.3,93.48c-0.29,0.29-0.66,0.51-1.1,0.64c-0.31,0.09-0.68,0.15-1.13,0.17
				c-0.37,0.02-0.85,0.03-1.44,0.03c-0.46,0-0.86,0-1.18-0.01c-0.34,0-0.65-0.02-0.9-0.05c-0.29-0.03-0.53-0.08-0.72-0.16
				c-0.21-0.08-0.39-0.19-0.53-0.32c-0.17-0.16-0.28-0.36-0.33-0.59c-0.03-0.16-0.05-0.34-0.05-0.55L43.14,71.8
				c-0.02-0.5,0-0.9,0.05-1.21c0.12-0.74,0.59-1.17,0.85-1.36c0.37-0.27,0.83-0.43,1.4-0.47c0.38-0.03,0.9-0.05,1.53-0.05
				c0.56,0,0.98,0.01,1.3,0.04c0.38,0.03,0.67,0.09,0.89,0.19c0.43,0.18,0.58,0.49,0.63,0.72c0.04,0.17,0.07,0.37,0.07,0.6
				l0.28,15.12l8.53-14.98c0.14-0.28,0.29-0.51,0.45-0.71c0.25-0.31,0.6-0.56,0.99-0.71c0.3-0.12,0.65-0.19,1.08-0.22
				c0.34-0.03,0.78-0.04,1.35-0.04c0.57,0,1,0.02,1.32,0.06c0.53,0.07,0.88,0.28,1.06,0.62c0.12,0.24,0.2,0.66-0.08,1.3
				c-0.13,0.31-0.33,0.69-0.62,1.16L51.85,92.73C51.71,93,51.52,93.26,51.3,93.48z M81.8,92.41c-0.1,0.69-0.47,1.11-0.77,1.34
				c-0.37,0.29-0.83,0.46-1.39,0.51c-0.36,0.03-0.82,0.05-1.42,0.05s-1.07-0.01-1.4-0.03c-0.41-0.02-0.71-0.07-0.94-0.15
				c-0.34-0.12-0.56-0.31-0.68-0.58c-0.08-0.18-0.12-0.4-0.12-0.66l-0.15-4.05h-6.89l-2.29,3.94c-0.13,0.23-0.29,0.46-0.47,0.66
				c-0.26,0.28-0.59,0.5-0.97,0.64c-0.28,0.1-0.62,0.17-1.03,0.2c-0.34,0.03-0.76,0.04-1.28,0.04c-0.57,0-1.01-0.02-1.33-0.06
				c-0.53-0.07-0.89-0.27-1.06-0.6c-0.13-0.24-0.22-0.65,0.04-1.3c0.13-0.31,0.33-0.7,0.62-1.18l12.6-20.88
				c0.18-0.3,0.37-0.55,0.58-0.75c0.29-0.29,0.65-0.5,1.08-0.63c0.31-0.1,0.68-0.15,1.13-0.18c0.37-0.02,0.85-0.03,1.46-0.03
				c0.69,0,1.24,0.01,1.64,0.03c0.47,0.02,0.84,0.08,1.11,0.17c0.39,0.13,0.65,0.35,0.79,0.65c0.1,0.22,0.15,0.49,0.16,0.83
				l1.03,20.84C81.86,91.71,81.84,92.1,81.8,92.41z M79.71,50.49c-0.13,0.23-0.29,0.46-0.47,0.66c-0.26,0.28-0.59,0.49-0.97,0.63
				c-0.28,0.1-0.62,0.17-1.03,0.2c-0.34,0.03-0.75,0.04-1.27,0.04c-0.57,0-1-0.02-1.32-0.06c-0.52-0.07-0.88-0.27-1.06-0.6
				c-0.13-0.24-0.22-0.65,0.04-1.29c0.13-0.31,0.33-0.7,0.62-1.17l12.56-20.81c0.18-0.3,0.37-0.55,0.57-0.75
				c0.29-0.29,0.65-0.5,1.07-0.63c0.31-0.1,0.68-0.15,1.13-0.18c0.37-0.02,0.85-0.03,1.45-0.03c0.69,0,1.23,0.01,1.64,0.03
				c0.47,0.02,0.83,0.07,1.11,0.17c0.39,0.13,0.65,0.34,0.79,0.65c0.1,0.22,0.15,0.49,0.16,0.82l1.04,20.77
				c0.02,0.5,0,0.89-0.04,1.2c-0.1,0.68-0.47,1.1-0.76,1.34c-0.37,0.29-0.82,0.46-1.39,0.51c-0.36,0.03-0.82,0.05-1.41,0.05
				c-0.6,0-1.07-0.01-1.4-0.03c-0.41-0.02-0.71-0.07-0.94-0.15c-0.34-0.12-0.56-0.31-0.68-0.58c-0.08-0.18-0.12-0.4-0.12-0.66
				l-0.15-4.04h-6.87L79.71,50.49z M100.98,90.25c-0.05,0.29-0.12,0.62-0.24,1.03c-0.11,0.4-0.22,0.73-0.33,1.02
				c-0.13,0.32-0.26,0.59-0.4,0.82c-0.21,0.33-0.43,0.57-0.7,0.76c-0.32,0.22-0.67,0.34-1.01,0.34H88.19
				c-0.61,0-1.11-0.21-1.42-0.61c-0.34-0.42-0.4-1.04-0.17-1.83l5.93-21.37c0.09-0.32,0.28-0.63,0.55-0.89
				c0.26-0.25,0.58-0.43,0.95-0.55c0.26-0.08,0.57-0.15,0.94-0.19c0.35-0.04,0.75-0.06,1.22-0.06c0.49,0,0.88,0.02,1.2,0.06
				c0.35,0.05,0.62,0.11,0.83,0.19c0.31,0.12,0.53,0.31,0.65,0.55c0.13,0.26,0.14,0.57,0.05,0.89l-4.99,18h6c0.33,0,0.6,0.1,0.8,0.3
				c0.18,0.18,0.28,0.42,0.31,0.73C101.05,89.66,101.04,89.93,100.98,90.25z M119.42,90.25c-0.05,0.29-0.12,0.62-0.23,1.03
				c-0.11,0.4-0.22,0.73-0.33,1.02c-0.13,0.32-0.26,0.59-0.4,0.82c-0.2,0.33-0.43,0.57-0.7,0.76c-0.32,0.22-0.67,0.34-1.01,0.34
				h-10.11c-0.61,0-1.1-0.21-1.42-0.61c-0.34-0.42-0.39-1.04-0.17-1.83l5.93-21.37c0.09-0.32,0.28-0.63,0.54-0.89
				c0.26-0.25,0.58-0.43,0.96-0.55c0.26-0.08,0.57-0.15,0.94-0.19c0.35-0.04,0.75-0.06,1.22-0.06c0.49,0,0.88,0.02,1.2,0.06
				c0.35,0.05,0.61,0.11,0.83,0.19c0.31,0.12,0.53,0.31,0.65,0.55c0.13,0.26,0.14,0.57,0.06,0.89l-4.99,18h6c0.32,0,0.6,0.1,0.8,0.3
				c0.17,0.18,0.28,0.42,0.31,0.73C119.49,89.66,119.47,89.93,119.42,90.25z M121.01,33.96c-0.24,0.87-0.57,1.68-0.98,2.4
				c-0.42,0.74-0.93,1.42-1.52,2.01s-1.26,1.11-1.99,1.54c-0.2,0.12-0.41,0.23-0.62,0.33c0.17,0.23,0.32,0.48,0.45,0.76
				c0.18,0.38,0.33,0.82,0.44,1.31c0.11,0.47,0.2,1,0.26,1.58l0.57,4.61c0.05,0.51,0.07,0.87,0.07,1.11c0,0.3-0.03,0.53-0.09,0.74
				c-0.08,0.28-0.2,0.53-0.37,0.75c-0.24,0.31-0.59,0.55-1.04,0.69c-0.28,0.09-0.62,0.15-1.05,0.18c-0.36,0.03-0.83,0.04-1.42,0.04
				c-0.51,0-0.9-0.01-1.21-0.04c-0.38-0.03-0.67-0.1-0.89-0.2c-0.3-0.14-0.51-0.34-0.61-0.61c-0.07-0.18-0.11-0.38-0.11-0.61
				l-0.52-5.19c-0.07-0.55-0.15-1.06-0.25-1.49c-0.08-0.38-0.2-0.7-0.35-0.94c-0.13-0.21-0.3-0.36-0.51-0.47s-0.5-0.16-0.84-0.16
				h-0.46l-2.22,8.01c-0.09,0.32-0.28,0.63-0.55,0.88c-0.25,0.24-0.57,0.43-0.95,0.55c-0.26,0.08-0.56,0.15-0.93,0.19
				c-0.33,0.04-0.74,0.06-1.23,0.06c-0.48,0-0.86-0.02-1.18-0.06c-0.34-0.04-0.62-0.11-0.83-0.19c-0.32-0.13-0.54-0.32-0.65-0.58
				c-0.11-0.25-0.12-0.54-0.03-0.85l5.91-21.3c0.22-0.8,0.62-1.41,1.19-1.83c0.54-0.4,1.14-0.6,1.75-0.6h5.7
				c0.59,0,1.09,0.01,1.48,0.04c0.39,0.03,0.73,0.06,1.04,0.1c0.96,0.15,1.78,0.41,2.46,0.77c0.71,0.38,1.28,0.88,1.68,1.49
				c0.41,0.62,0.65,1.35,0.72,2.18C121.4,31.99,121.29,32.93,121.01,33.96z M139.29,78.31c0.31,0,0.58,0.1,0.78,0.3
				c0.17,0.17,0.27,0.4,0.31,0.69c0.03,0.22,0.02,0.48-0.03,0.8c-0.04,0.28-0.12,0.6-0.22,0.97c-0.11,0.39-0.21,0.71-0.32,0.98
				c-0.13,0.32-0.26,0.58-0.41,0.79c-0.21,0.31-0.46,0.54-0.74,0.71c-0.29,0.17-0.6,0.27-0.9,0.27h-5.73l-1.32,4.77h7
				c0.31,0,0.59,0.11,0.78,0.3c0.17,0.17,0.28,0.41,0.31,0.71c0.03,0.22,0.01,0.48-0.04,0.8c-0.04,0.28-0.12,0.6-0.23,0.99
				s-0.21,0.71-0.33,0.99c-0.13,0.32-0.26,0.58-0.41,0.8c-0.2,0.31-0.44,0.55-0.71,0.72c-0.31,0.2-0.63,0.3-0.95,0.3h-11.09
				c-0.61,0-1.1-0.21-1.42-0.61c-0.34-0.42-0.39-1.04-0.17-1.83l5.69-20.52c0.22-0.8,0.62-1.42,1.19-1.84
				c0.54-0.4,1.15-0.61,1.76-0.61h11.02c0.31,0,0.58,0.1,0.77,0.28c0.18,0.17,0.28,0.41,0.31,0.73c0.02,0.22,0.01,0.48-0.04,0.8
				c-0.04,0.28-0.12,0.62-0.23,1.01c-0.1,0.37-0.21,0.7-0.32,0.97c-0.13,0.32-0.26,0.58-0.41,0.8c-0.2,0.29-0.42,0.53-0.67,0.69
				c-0.31,0.21-0.65,0.32-0.97,0.32h-6.94l-1.08,3.89h5.76V78.31z M158.79,70.36l-4.54,16.37c-0.31,1.13-0.7,2.17-1.16,3.08
				c-0.49,0.98-1.1,1.83-1.82,2.54c-0.75,0.73-1.63,1.29-2.61,1.67c-0.95,0.37-2.03,0.55-3.23,0.55c-0.39,0-0.78-0.03-1.14-0.09
				s-0.69-0.14-0.98-0.24c-0.3-0.1-0.55-0.21-0.77-0.32c-0.29-0.16-0.47-0.31-0.58-0.5c-0.08-0.13-0.13-0.27-0.17-0.42
				s-0.06-0.33-0.05-0.55c0.01-0.2,0.04-0.42,0.1-0.69c0.05-0.22,0.12-0.5,0.21-0.83c0.12-0.43,0.23-0.8,0.33-1.1
				c0.12-0.34,0.23-0.62,0.34-0.83c0.18-0.35,0.41-0.62,0.68-0.82c0.55-0.4,1.24-0.47,1.78-0.1c0.1,0.07,0.22,0.14,0.35,0.22
				c0.12,0.07,0.26,0.13,0.43,0.2c0.22,0.09,0.68,0.09,0.96-0.01c0.04-0.01,0.1-0.04,0.18-0.13c0.08-0.08,0.21-0.25,0.37-0.57
				c0.15-0.31,0.3-0.74,0.45-1.26l4.48-16.17c0.09-0.34,0.29-0.65,0.57-0.9c0.24-0.22,0.55-0.39,0.91-0.52
				c0.27-0.09,0.59-0.15,0.97-0.19c0.34-0.03,0.75-0.05,1.2-0.05c0.46,0,0.85,0.02,1.16,0.05c0.35,0.04,0.62,0.1,0.85,0.18
				c0.32,0.12,0.53,0.29,0.66,0.52C158.86,69.71,158.89,70.03,158.79,70.36z M184.07,81.24c-0.56,2.03-1.32,3.88-2.24,5.5
				c-0.95,1.66-2.09,3.09-3.39,4.25c-1.32,1.18-2.81,2.1-4.44,2.72c-1.61,0.61-3.36,0.92-5.23,0.92c-1.82,0-3.37-0.26-4.61-0.78
				c-1.27-0.53-2.25-1.36-2.9-2.46c-0.64-1.08-0.97-2.46-0.97-4.1c-0.01-1.59,0.29-3.49,0.89-5.63c0.55-1.99,1.3-3.8,2.22-5.4
				c0.94-1.64,2.08-3.05,3.38-4.22c1.31-1.17,2.81-2.09,4.44-2.71c1.61-0.62,3.37-0.93,5.25-0.93c1.78,0,3.31,0.26,4.54,0.77
				c1.28,0.53,2.26,1.35,2.91,2.45c0.64,1.08,0.98,2.45,1.01,4.07C184.95,77.25,184.66,79.12,184.07,81.24z"/>
			<path class="st0" d="M176.84,74.66c-0.5-0.32-1.22-0.48-2.14-0.48c-0.92,0-1.74,0.18-2.42,0.53c-0.72,0.37-1.33,0.85-1.88,1.46
				c-0.57,0.64-1.07,1.41-1.48,2.28c-0.43,0.93-0.8,1.93-1.09,2.97c-0.34,1.23-0.56,2.34-0.66,3.3c-0.09,0.91-0.04,1.69,0.16,2.32
				c0.18,0.58,0.51,1.01,1.01,1.31c0.5,0.31,1.23,0.46,2.17,0.46c0.93,0,1.74-0.18,2.42-0.52c0.71-0.36,1.32-0.84,1.87-1.46
				c0.58-0.65,1.08-1.43,1.49-2.32c0.44-0.94,0.81-1.96,1.1-3.02c0.33-1.18,0.54-2.26,0.63-3.21c0.09-0.89,0.03-1.66-0.18-2.29
				C177.67,75.41,177.34,74.98,176.84,74.66z"/>
		</g>
	</g>
</g>
</svg>
