<svg xmlns="http://www.w3.org/2000/svg" width="256" height="256" xml:space="preserve"><g style="stroke:none;stroke-width:0;stroke-dasharray:none;stroke-linecap:butt;stroke-linejoin:miter;stroke-miterlimit:10;fill:none;fill-rule:nonzero;opacity:1"><path d="M45 90C20.147 90 0 69.853 0 45S20.147 0 45 0s45 20.147 45 45-20.147 45-45 45z" style="stroke:none;stroke-width:1;stroke-dasharray:none;stroke-linecap:butt;stroke-linejoin:miter;stroke-miterlimit:10;fill:#000;fill-rule:nonzero;opacity:1" transform="matrix(2.81 0 0 2.81 1.407 1.407)"/><path d="M10.788 10.677v-.511a3.987 3.987 0 0 0-.535-.039 3.966 3.966 0 0 0-2.275 7.22 3.954 3.954 0 0 1-1.066-2.703 3.975 3.975 0 0 1 3.876-3.967" style="stroke:none;stroke-width:1;stroke-dasharray:none;stroke-linecap:butt;stroke-linejoin:miter;stroke-miterlimit:10;fill:#00f2ea;fill-rule:nonzero;opacity:1" transform="translate(-4.057 -4.057) scale(10.93)"/><path d="M10.882 16.457c.977 0 1.773-.777 1.81-1.745l.003-8.643h1.579a2.962 2.962 0 0 1-.051-.547h-2.157l-.004 8.643a1.814 1.814 0 0 1-1.809 1.745c-.293 0-.582-.071-.841-.208.34.474.887.755 1.47.755m6.341-7.454v-.48a2.975 2.975 0 0 1-1.634-.486c.426.49 1 .829 1.634.966" style="stroke:none;stroke-width:1;stroke-dasharray:none;stroke-linecap:butt;stroke-linejoin:miter;stroke-miterlimit:10;fill:#00f2ea;fill-rule:nonzero;opacity:1" transform="translate(-4.057 -4.057) scale(10.93)"/><path d="M15.59 8.037a2.99 2.99 0 0 1-.738-1.967h-.578a3.004 3.004 0 0 0 1.316 1.967m-5.337 4.247a1.815 1.815 0 0 0-1.813 1.813c.001.674.375 1.292.972 1.605a1.8 1.8 0 0 1-.343-1.057 1.815 1.815 0 0 1 1.813-1.813c.187 0 .366.031.535.084v-2.202a3.987 3.987 0 0 0-.535-.039l-.094.002v1.691a1.796 1.796 0 0 0-.535-.084" style="stroke:none;stroke-width:1;stroke-dasharray:none;stroke-linecap:butt;stroke-linejoin:miter;stroke-miterlimit:10;fill:#ff004f;fill-rule:nonzero;opacity:1" transform="translate(-4.057 -4.057) scale(10.93)"/><path d="M17.223 9.003v1.676a5.13 5.13 0 0 1-3-.965v4.383c0 2.189-1.78 3.97-3.969 3.97-.846 0-1.63-.267-2.275-.72a3.958 3.958 0 0 0 2.903 1.267 3.974 3.974 0 0 0 3.97-3.969v-4.383a5.128 5.128 0 0 0 3 .965V9.07a3.03 3.03 0 0 1-.629-.067" style="stroke:none;stroke-width:1;stroke-dasharray:none;stroke-linecap:butt;stroke-linejoin:miter;stroke-miterlimit:10;fill:#ff004f;fill-rule:nonzero;opacity:1" transform="translate(-4.057 -4.057) scale(10.93)"/><path d="M14.223 14.097V9.714a5.128 5.128 0 0 0 3 .965V9.003a3.005 3.005 0 0 1-1.634-.966 3.006 3.006 0 0 1-1.315-1.967h-1.579l-.003 8.643a1.81 1.81 0 0 1-3.279.989 1.815 1.815 0 0 1-.972-1.605 1.815 1.815 0 0 1 1.813-1.813c.186 0 .366.031.535.084v-1.691a3.973 3.973 0 0 0-3.876 3.968c0 1.043.405 1.993 1.066 2.703.666.469 1.461.72 2.275.719a3.974 3.974 0 0 0 3.969-3.97" style="stroke:none;stroke-width:1;stroke-dasharray:none;stroke-linecap:butt;stroke-linejoin:miter;stroke-miterlimit:10;fill:#fff;fill-rule:nonzero;opacity:1" transform="translate(-4.057 -4.057) scale(10.93)"/></g></svg>