<?xml version="1.0" encoding="utf-8"?>
<!-- Generator: Adobe Illustrator 26.0.0, SVG Export Plug-In . SVG Version: 6.00 Build 0)  -->
<svg version="1.1" id="Capa_1" xmlns="http://www.w3.org/2000/svg" xmlns:xlink="http://www.w3.org/1999/xlink" x="0px" y="0px"
	 viewBox="0 0 208.44 106" style="enable-background:new 0 0 208.44 106;" xml:space="preserve">
<style type="text/css">
	.st0{fill:#00A0DF;}
</style>
<g>
	<g>
		<polygon class="st0" points="34.75,64.1 40.3,64.1 39.99,55.18 		"/>
		<path class="st0" d="M79.42,51.51c-0.93-0.5-2.34-0.75-4.18-0.75h-1.98L67.4,72h2.08c1.64,0,3.09-0.22,4.29-0.66
			c1.16-0.42,2.18-1.04,3.11-1.89c0.95-0.87,1.81-1.99,2.54-3.32c0.77-1.4,1.43-3.08,1.95-4.99c0.43-1.55,0.66-3.01,0.69-4.33
			c0.03-1.25-0.18-2.34-0.62-3.24C81.01,52.68,80.35,52.01,79.42,51.51z"/>
		<path class="st0" d="M20.45,32.58L4.56,90.11h181.41l15.89-57.53H20.45z M50.69,77.77c-0.15,1.03-0.7,1.66-1.15,2.02
			c-0.55,0.44-1.24,0.69-2.08,0.77c-0.54,0.05-1.23,0.07-2.12,0.07c-0.9,0-1.6-0.02-2.1-0.04c-0.62-0.04-1.06-0.11-1.4-0.23
			c-0.5-0.18-0.84-0.47-1.01-0.87c-0.12-0.28-0.18-0.6-0.18-0.99l-0.22-6.08H30.12l-3.42,5.91c-0.19,0.35-0.43,0.69-0.7,0.99
			c-0.39,0.42-0.88,0.74-1.46,0.95c-0.43,0.16-0.93,0.25-1.55,0.3c-0.51,0.04-1.13,0.06-1.91,0.06c-0.85,0-1.51-0.03-1.99-0.09
			c-0.79-0.1-1.32-0.4-1.59-0.91c-0.19-0.35-0.34-0.98,0.06-1.95c0.19-0.47,0.5-1.05,0.93-1.77l18.84-31.36
			c0.27-0.45,0.55-0.82,0.86-1.13c0.43-0.44,0.97-0.76,1.61-0.95c0.47-0.14,1.02-0.23,1.69-0.26c0.55-0.03,1.28-0.04,2.18-0.04
			c1.03,0,1.85,0.01,2.45,0.04c0.7,0.03,1.25,0.11,1.66,0.25c0.58,0.19,0.98,0.52,1.18,0.97c0.15,0.33,0.23,0.74,0.24,1.24
			l1.55,31.29C50.78,76.72,50.76,77.31,50.69,77.77z M91.2,60.88c-0.93,3.38-2.17,6.33-3.68,8.77c-1.55,2.5-3.38,4.58-5.45,6.18
			c-2.07,1.6-4.41,2.8-6.93,3.55c-2.45,0.73-5.24,1.09-8.3,1.09h-7.88c-0.91,0-1.65-0.32-2.13-0.91c-0.5-0.63-0.59-1.56-0.26-2.75
			L65.07,46c0.33-1.2,0.93-2.13,1.78-2.76c0.81-0.59,1.72-0.91,2.63-0.91h8.47c3.09,0,5.66,0.4,7.64,1.19
			c2.02,0.81,3.61,2.03,4.71,3.62s1.74,3.57,1.89,5.88C92.35,55.3,92.01,57.94,91.2,60.88z M123.73,72.18
			c-1.18,1.9-2.63,3.53-4.29,4.86c-1.67,1.33-3.57,2.35-5.65,3.04c-2.03,0.67-4.27,1.01-6.63,1.01c-2.22,0-4.17-0.31-5.79-0.91
			c-1.68-0.62-3-1.59-3.94-2.86c-0.93-1.27-1.48-2.87-1.64-4.74c-0.15-1.83,0.11-3.97,0.78-6.38l5.93-21.49
			c0.13-0.46,0.39-0.91,0.76-1.29c0.39-0.4,0.89-0.69,1.49-0.88c0.39-0.12,0.84-0.22,1.39-0.28c0.51-0.06,1.12-0.1,1.84-0.1
			c0.71,0,1.29,0.03,1.76,0.09c0.52,0.07,0.92,0.16,1.24,0.29c0.47,0.18,0.79,0.46,0.97,0.83c0.19,0.39,0.22,0.85,0.08,1.34
			l-5.76,20.87c-0.35,1.26-0.51,2.34-0.47,3.23c0.03,0.83,0.21,1.52,0.53,2.04c0.32,0.52,0.75,0.89,1.33,1.15
			c1.2,0.54,3.12,0.53,4.58-0.01c0.71-0.26,1.33-0.64,1.91-1.14c0.6-0.52,1.14-1.18,1.61-1.97c0.5-0.83,0.9-1.8,1.2-2.89l5.88-21.27
			c0.13-0.46,0.39-0.91,0.76-1.29c0.38-0.39,0.87-0.68,1.46-0.88c0.39-0.13,0.85-0.22,1.41-0.29c0.52-0.06,1.11-0.09,1.82-0.09
			s1.28,0.03,1.75,0.1c0.5,0.07,0.91,0.16,1.22,0.29c0.48,0.19,0.81,0.49,0.98,0.87c0.16,0.38,0.18,0.83,0.05,1.29l-5.85,21.19
			C125.8,68.22,124.89,70.33,123.73,72.18z M161.29,78.21c-0.35,0.51-0.77,0.94-1.23,1.3c-0.49,0.37-1.02,0.64-1.58,0.8
			c-0.49,0.14-0.98,0.21-1.45,0.21h-2.86c-0.74,0-1.36-0.08-1.88-0.25c-0.59-0.19-1.08-0.52-1.48-1.01
			c-0.35-0.43-0.63-0.98-0.85-1.68c-0.19-0.61-0.39-1.4-0.56-2.35l-3.62-16.4c-0.07,0.25-0.14,0.49-0.2,0.74l-5.11,18.49
			c-0.12,0.44-0.37,0.88-0.7,1.24c-0.35,0.38-0.81,0.69-1.35,0.9c-0.4,0.15-0.85,0.26-1.4,0.33c-0.47,0.07-1.04,0.1-1.73,0.1
			c-0.67,0-1.21-0.03-1.65-0.1c-0.51-0.07-0.9-0.19-1.21-0.34c-0.43-0.22-0.71-0.54-0.83-0.94c-0.11-0.36-0.11-0.76,0.01-1.19
			l8.77-31.76c0.35-1.26,1.01-2.25,1.97-2.95c0.91-0.66,1.93-1.01,2.96-1.01h3.6c0.78,0,1.41,0.07,1.94,0.23
			c0.58,0.17,1.07,0.45,1.46,0.84c0.37,0.37,0.67,0.87,0.89,1.48c0.19,0.53,0.36,1.19,0.49,1.96l2.85,12.87
			c0.16,0.8,0.32,1.57,0.47,2.32c0.03,0.13,0.05,0.27,0.08,0.4c0.1-0.36,0.19-0.71,0.29-1.06l4.58-16.58
			c0.13-0.46,0.39-0.91,0.76-1.29c0.35-0.35,0.79-0.64,1.31-0.85c0.43-0.17,0.91-0.29,1.47-0.35c0.46-0.05,1.02-0.08,1.69-0.08
			c0.64,0,1.16,0.02,1.6,0.08c0.55,0.07,0.96,0.19,1.28,0.38c0.39,0.24,0.65,0.55,0.77,0.93c0.11,0.36,0.11,0.76-0.01,1.19
			l-8.77,31.76C161.89,77.16,161.63,77.71,161.29,78.21z M179.74,78.09c-0.13,0.48-0.42,0.94-0.82,1.33
			c-0.38,0.37-0.86,0.65-1.43,0.83c-0.39,0.13-0.85,0.22-1.39,0.29c-0.5,0.06-1.1,0.09-1.84,0.09c-0.72,0-1.3-0.03-1.77-0.09
			c-0.52-0.07-0.93-0.16-1.25-0.29c-0.46-0.18-0.79-0.46-0.97-0.83c-0.19-0.38-0.22-0.85-0.08-1.33l9.22-33.37
			c0.13-0.48,0.41-0.94,0.81-1.33c0.39-0.37,0.87-0.65,1.46-0.83c0.39-0.12,0.85-0.22,1.39-0.28c0.51-0.06,1.1-0.09,1.82-0.09
			c0.73,0,1.31,0.03,1.79,0.09c0.52,0.07,0.92,0.16,1.24,0.29c0.46,0.19,0.79,0.46,0.97,0.83c0.19,0.39,0.21,0.85,0.08,1.33
			L179.74,78.09z"/>
	</g>
	<g>
		<path class="st0" d="M86.12,24.33c0.01,0.17,0,0.3-0.01,0.4S86.06,24.9,86,24.95s-0.15,0.08-0.27,0.09
			c-0.12,0.01-0.29,0.02-0.5,0.02c-0.22,0-0.39,0-0.51-0.01s-0.21-0.02-0.27-0.04s-0.09-0.05-0.11-0.09s-0.02-0.09-0.02-0.15
			l-0.06-1.8h-3.11l-1.01,1.76c-0.04,0.06-0.07,0.12-0.11,0.16c-0.04,0.04-0.09,0.08-0.16,0.1c-0.07,0.03-0.16,0.04-0.28,0.05
			c-0.12,0.01-0.27,0.01-0.45,0.01c-0.2,0-0.35-0.01-0.45-0.02c-0.11-0.01-0.17-0.05-0.2-0.1c-0.03-0.05-0.02-0.13,0.02-0.23
			c0.04-0.1,0.11-0.23,0.2-0.39l4.75-7.96c0.05-0.08,0.09-0.14,0.14-0.19c0.05-0.05,0.11-0.09,0.19-0.11
			c0.08-0.03,0.19-0.04,0.32-0.05c0.13-0.01,0.31-0.01,0.53-0.01c0.25,0,0.45,0,0.6,0.01c0.15,0.01,0.26,0.02,0.34,0.05
			s0.13,0.06,0.15,0.11c0.02,0.05,0.03,0.12,0.04,0.21L86.12,24.33z M84.14,17.75L84.14,17.75l-2.23,3.82h2.35L84.14,17.75z"/>
		<path class="st0" d="M94.35,23.65c-0.03,0.12-0.06,0.21-0.09,0.29c-0.03,0.08-0.06,0.15-0.09,0.21s-0.06,0.11-0.09,0.15
			c-0.03,0.04-0.08,0.09-0.14,0.14s-0.17,0.12-0.33,0.2s-0.34,0.16-0.56,0.24s-0.45,0.14-0.72,0.19c-0.26,0.05-0.54,0.08-0.83,0.08
			c-0.57,0-1.05-0.09-1.46-0.28c-0.4-0.19-0.71-0.47-0.93-0.85c-0.22-0.38-0.33-0.85-0.35-1.41c-0.01-0.56,0.08-1.22,0.29-1.97
			c0.21-0.76,0.49-1.44,0.84-2.03c0.35-0.59,0.75-1.09,1.2-1.49s0.94-0.71,1.47-0.92c0.53-0.21,1.08-0.31,1.64-0.31
			c0.23,0,0.45,0.02,0.65,0.06s0.38,0.1,0.55,0.16c0.16,0.07,0.3,0.14,0.43,0.23c0.12,0.09,0.2,0.16,0.24,0.23
			c0.04,0.06,0.07,0.11,0.08,0.16c0.01,0.04,0.01,0.09,0.01,0.16c-0.01,0.06-0.02,0.14-0.03,0.23c-0.02,0.09-0.04,0.2-0.08,0.33
			c-0.04,0.14-0.08,0.26-0.11,0.35c-0.04,0.1-0.07,0.18-0.11,0.24s-0.08,0.1-0.11,0.13c-0.04,0.03-0.08,0.04-0.11,0.04
			c-0.06,0-0.13-0.04-0.21-0.12s-0.18-0.17-0.31-0.27s-0.29-0.19-0.48-0.27s-0.44-0.12-0.74-0.12c-0.33,0-0.64,0.07-0.94,0.22
			S92.35,18,92.1,18.27c-0.26,0.27-0.48,0.6-0.68,0.98s-0.37,0.82-0.5,1.3c-0.15,0.53-0.22,0.98-0.23,1.37
			c-0.01,0.39,0.05,0.7,0.17,0.95s0.29,0.44,0.52,0.56c0.23,0.12,0.51,0.18,0.84,0.18c0.3,0,0.57-0.04,0.81-0.11
			c0.24-0.08,0.45-0.16,0.63-0.25c0.18-0.09,0.33-0.18,0.45-0.25s0.21-0.11,0.26-0.11c0.04,0,0.07,0.01,0.09,0.03
			c0.02,0.02,0.03,0.06,0.03,0.11c0,0.06-0.01,0.13-0.03,0.23C94.43,23.35,94.4,23.49,94.35,23.65z"/>
		<path class="st0" d="M103.45,24.33c0.01,0.17,0,0.3-0.01,0.4s-0.05,0.17-0.11,0.22s-0.15,0.08-0.27,0.09
			c-0.12,0.01-0.29,0.02-0.5,0.02c-0.22,0-0.39,0-0.51-0.01s-0.21-0.02-0.27-0.04s-0.09-0.05-0.11-0.09s-0.02-0.09-0.02-0.15
			l-0.06-1.8h-3.11l-1.01,1.76c-0.04,0.06-0.07,0.12-0.11,0.16c-0.04,0.04-0.09,0.08-0.16,0.1c-0.07,0.03-0.16,0.04-0.28,0.05
			c-0.12,0.01-0.27,0.01-0.45,0.01c-0.2,0-0.35-0.01-0.45-0.02c-0.11-0.01-0.17-0.05-0.2-0.1c-0.03-0.05-0.02-0.13,0.02-0.23
			c0.04-0.1,0.11-0.23,0.2-0.39l4.75-7.96c0.05-0.08,0.09-0.14,0.14-0.19c0.05-0.05,0.11-0.09,0.19-0.11
			c0.08-0.03,0.19-0.04,0.32-0.05c0.13-0.01,0.31-0.01,0.53-0.01c0.25,0,0.45,0,0.6,0.01c0.15,0.01,0.26,0.02,0.34,0.05
			s0.13,0.06,0.15,0.11c0.02,0.05,0.03,0.12,0.04,0.21L103.45,24.33z M101.47,17.75L101.47,17.75l-2.23,3.82h2.35L101.47,17.75z"/>
		<path class="st0" d="M113.89,20.39c-0.23,0.82-0.52,1.53-0.88,2.11s-0.78,1.06-1.25,1.43s-1,0.64-1.58,0.82
			c-0.58,0.17-1.24,0.26-1.97,0.26h-1.98c-0.14,0-0.25-0.05-0.32-0.14s-0.08-0.24-0.02-0.44l2.16-7.82c0.06-0.2,0.14-0.35,0.27-0.44
			c0.12-0.09,0.25-0.14,0.39-0.14h2.12c0.74,0,1.34,0.09,1.8,0.28s0.82,0.46,1.07,0.83s0.39,0.82,0.43,1.36
			C114.17,19.05,114.08,19.68,113.89,20.39z M112.13,20.45c0.12-0.43,0.18-0.82,0.19-1.19c0.01-0.37-0.05-0.68-0.18-0.95
			c-0.13-0.27-0.33-0.48-0.61-0.63s-0.67-0.23-1.19-0.23h-0.85l-1.69,6.1h0.88c0.46,0,0.87-0.06,1.22-0.19
			c0.35-0.13,0.67-0.32,0.95-0.59c0.28-0.26,0.53-0.59,0.74-0.97C111.81,21.43,111.99,20.97,112.13,20.45z"/>
		<path class="st0" d="M120.4,24.3c-0.04,0.13-0.07,0.25-0.11,0.34s-0.07,0.16-0.11,0.22s-0.07,0.1-0.11,0.12
			c-0.04,0.03-0.08,0.04-0.12,0.04h-4.16c-0.14,0-0.25-0.05-0.32-0.14s-0.08-0.24-0.02-0.44l2.16-7.82c0.06-0.2,0.14-0.35,0.27-0.44
			c0.12-0.09,0.25-0.14,0.39-0.14h4.13c0.04,0,0.07,0.01,0.09,0.03c0.02,0.02,0.04,0.06,0.04,0.12c0.01,0.06,0,0.13-0.01,0.22
			s-0.04,0.2-0.08,0.34c-0.04,0.13-0.07,0.24-0.11,0.33s-0.07,0.16-0.11,0.22s-0.07,0.1-0.11,0.12c-0.04,0.03-0.07,0.04-0.11,0.04
			h-2.96l-0.61,2.19h2.5c0.04,0,0.07,0.01,0.1,0.04c0.02,0.03,0.04,0.06,0.05,0.12c0.01,0.05,0,0.12-0.01,0.22
			c-0.01,0.09-0.04,0.2-0.07,0.33c-0.04,0.13-0.07,0.25-0.11,0.33s-0.07,0.16-0.11,0.21s-0.07,0.09-0.11,0.11s-0.08,0.03-0.12,0.03
			h-2.5l-0.7,2.53h2.98c0.04,0,0.07,0.01,0.1,0.04c0.02,0.03,0.04,0.07,0.05,0.12c0.01,0.06,0,0.13-0.01,0.22
			C120.46,24.05,120.43,24.16,120.4,24.3z"/>
		<path class="st0" d="M132.71,24.76c-0.01,0.05-0.04,0.09-0.07,0.12c-0.03,0.04-0.08,0.07-0.15,0.09
			c-0.07,0.02-0.16,0.04-0.26,0.06c-0.11,0.01-0.24,0.02-0.4,0.02c-0.15,0-0.28-0.01-0.38-0.02s-0.17-0.03-0.23-0.06
			c-0.05-0.02-0.09-0.05-0.1-0.09c-0.02-0.04-0.02-0.08,0-0.12l2.02-7.3h-0.01l-4.41,7.3c-0.03,0.06-0.08,0.11-0.12,0.15
			c-0.05,0.04-0.11,0.07-0.18,0.09c-0.07,0.02-0.16,0.04-0.27,0.05c-0.1,0.01-0.23,0.01-0.37,0.01c-0.15,0-0.27-0.01-0.37-0.02
			c-0.1-0.01-0.18-0.03-0.24-0.06c-0.06-0.03-0.1-0.06-0.13-0.09c-0.03-0.04-0.04-0.08-0.04-0.13l-0.3-7.3h-0.01l-2.02,7.3
			c-0.01,0.05-0.04,0.09-0.07,0.12c-0.03,0.04-0.09,0.07-0.16,0.09s-0.16,0.04-0.26,0.06c-0.1,0.01-0.24,0.02-0.39,0.02
			s-0.28-0.01-0.38-0.02s-0.18-0.03-0.23-0.06c-0.06-0.02-0.09-0.05-0.1-0.09c-0.01-0.04-0.01-0.08,0-0.12l2.21-8
			c0.07-0.24,0.17-0.42,0.32-0.54c0.15-0.12,0.32-0.19,0.51-0.19h1.1c0.2,0,0.36,0.02,0.49,0.05c0.13,0.03,0.24,0.09,0.32,0.17
			s0.14,0.19,0.17,0.32s0.05,0.29,0.04,0.49l0.31,5.35h0.03l3.33-5.33c0.11-0.19,0.22-0.36,0.32-0.49s0.21-0.24,0.32-0.33
			c0.11-0.08,0.23-0.14,0.36-0.18c0.13-0.03,0.27-0.05,0.43-0.05h1.13c0.12,0,0.21,0.02,0.28,0.05c0.07,0.03,0.13,0.08,0.17,0.14
			s0.06,0.14,0.06,0.23s-0.01,0.19-0.04,0.31L132.71,24.76z"/>
		<path class="st0" d="M137.5,24.76c-0.01,0.05-0.04,0.09-0.08,0.12c-0.04,0.04-0.09,0.07-0.16,0.09s-0.16,0.04-0.27,0.06
			c-0.11,0.01-0.25,0.02-0.42,0.02c-0.16,0-0.3-0.01-0.4-0.02c-0.1-0.01-0.19-0.03-0.24-0.06c-0.06-0.02-0.1-0.05-0.11-0.09
			c-0.02-0.04-0.02-0.08-0.01-0.12l2.34-8.48c0.01-0.05,0.04-0.09,0.08-0.12c0.04-0.04,0.09-0.07,0.17-0.09
			c0.07-0.02,0.16-0.04,0.27-0.06c0.11-0.01,0.25-0.02,0.41-0.02c0.17,0,0.3,0.01,0.4,0.02c0.1,0.01,0.18,0.03,0.24,0.06
			c0.06,0.02,0.1,0.05,0.11,0.09c0.02,0.04,0.02,0.08,0.01,0.12L137.5,24.76z"/>
		<path class="st0" d="M147.52,24.33c0.01,0.17,0,0.3-0.01,0.4s-0.05,0.17-0.11,0.22s-0.15,0.08-0.27,0.09
			c-0.12,0.01-0.29,0.02-0.5,0.02c-0.22,0-0.39,0-0.51-0.01s-0.21-0.02-0.27-0.04s-0.09-0.05-0.11-0.09s-0.02-0.09-0.02-0.15
			l-0.06-1.8h-3.11l-1.01,1.76c-0.04,0.06-0.07,0.12-0.11,0.16c-0.04,0.04-0.09,0.08-0.16,0.1c-0.07,0.03-0.16,0.04-0.28,0.05
			c-0.12,0.01-0.27,0.01-0.45,0.01c-0.2,0-0.35-0.01-0.45-0.02c-0.11-0.01-0.17-0.05-0.2-0.1c-0.03-0.05-0.02-0.13,0.02-0.23
			c0.04-0.1,0.11-0.23,0.2-0.39l4.75-7.96c0.05-0.08,0.09-0.14,0.14-0.19c0.05-0.05,0.11-0.09,0.19-0.11
			c0.08-0.03,0.19-0.04,0.32-0.05c0.13-0.01,0.31-0.01,0.53-0.01c0.25,0,0.45,0,0.6,0.01c0.15,0.01,0.26,0.02,0.34,0.05
			s0.13,0.06,0.15,0.11c0.02,0.05,0.03,0.12,0.04,0.21L147.52,24.33z M145.54,17.75L145.54,17.75l-2.23,3.82h2.35L145.54,17.75z"/>
	</g>
	<path class="st0" d="M71.36,21.07c-0.29,1.06-1.39,1.92-2.44,1.92H25c-1.05,0-1.67-0.86-1.38-1.92l0.26-0.96
		c0.29-1.06,1.38-1.92,2.44-1.92h43.92c1.06,0,1.67,0.86,1.38,1.92L71.36,21.07z"/>
	<path class="st0" d="M205.03,21.07c-0.29,1.06-1.38,1.92-2.44,1.92h-43.92c-1.05,0-1.67-0.86-1.38-1.92l0.27-0.96
		c0.29-1.06,1.38-1.92,2.44-1.92h43.92c1.06,0,1.67,0.86,1.38,1.92L205.03,21.07z"/>
</g>
</svg>
