<?xml version="1.0" encoding="utf-8"?>
<!-- Generator: Adobe Illustrator 26.0.0, SVG Export Plug-In . SVG Version: 6.00 Build 0)  -->
<svg version="1.1" id="Capa_1" xmlns="http://www.w3.org/2000/svg" xmlns:xlink="http://www.w3.org/1999/xlink" x="0px" y="0px"
	 viewBox="0 0 345.91 106" style="enable-background:new 0 0 345.91 106;" xml:space="preserve">
<style type="text/css">
	.st0{fill:#20366D;}
</style>
<g>
	<path class="st0" d="M35.14,44.76c-0.72,0-1.42,0.1-2.08,0.27V22.59c0.66-0.04,1.32-0.07,1.99-0.07c1.42,0,2.82,0.1,4.19,0.29
		L35.14,44.76z M39.01,45.69l11.15-19.17c-1.68-0.96-3.46-1.77-5.33-2.4L37.1,44.98C37.77,45.15,38.41,45.38,39.01,45.69z
		 M40.65,46.8l14.18-16.99c1.5,1.28,2.88,2.71,4.11,4.25l-16.9,14.27C41.64,47.77,41.17,47.25,40.65,46.8z M64.29,44.34
		c-0.57-1.93-1.33-3.79-2.26-5.54L42.97,50.05c0.25,0.63,0.43,1.3,0.52,1.99L64.29,44.34z M65.54,53.01c0,0.97-0.05,1.94-0.14,2.88
		H43.1c0.21-0.6,0.35-1.23,0.42-1.88l21.88-3.96C65.49,51.03,65.54,52.02,65.54,53.01z M30.73,79.67c0.51-0.77,0.68-1.51,0.68-2.25
		c0-0.69-0.14-1.37-0.28-2.02c-0.13-0.65-0.26-1.26-0.26-1.86c0-1.23,0.58-2.06,1.03-2.75l0.56-1.1c0.36-0.79-1.04-2.06-1.5-2.79
		c0,0-0.2-0.26-0.2-0.56c0-0.44,0.43-0.75,0.43-0.75c1.04-0.86,2.2-1.58,2.1-1.84c0.01-1.02-1.12-3.54-1.03-3.61
		c0,0,0.1,0.36,0-0.01s0.03-0.71,0.69-0.85c0.66-0.14,1.74-0.37,2.63-0.55c0.64-0.13,1.49-0.61,1.62-1.32c0,0,0.24-0.58-1.39-3.29
		c-0.63-1.28-2.02-3.18-3.35-5.02c-1.54-2.1-2.6-3.44-3.2-4.95c-0.6-1.51,0.05-3.99,0.72-5.18c0.31-0.51,0.53-0.89,0.53-1.83
		c-0.4-4.22-1.68-11.45-2.39-13.81C14.63,26.47,4.57,38.57,4.57,53.03c0,14.04,9.49,25.86,22.4,29.4
		C28.13,82.06,29.96,80.8,30.73,79.67z M41.08,59.11c-1.51,1.5-3.58,2.42-5.86,2.43c0.12,0.5,0.34,1.24,0.78,2.29l0.12,0.59
		c0,1.1-1.17,2.12-2.14,2.81c0.57,0.82,1.31,2.08,1.31,3.11c0,0.86-0.45,1.5-0.85,2.08c-0.39,0.55-0.71,1.05-0.71,1.74
		c0,0.42,0.1,0.95,0.22,1.49c0.14,0.72,0.31,1.52,0.31,2.38c0,1-0.22,2.07-0.98,3.18c-0.53,0.78-1.73,1.57-2.78,1.94
		c1.49,0.22,3.02,0.34,4.57,0.34c14.75,0,27.05-10.47,29.88-24.39H41.08V59.11z"/>
	<g>
		<g>
			<path class="st0" d="M113.12,68c0,1.28-0.27,2.42-0.81,3.44c-0.54,1.02-1.59,1.75-3.15,2.19c-0.8,0.24-1.76,0.42-2.87,0.54
				c-1.12,0.12-2.22,0.21-3.3,0.27c-1.08,0.06-2.09,0.1-3.03,0.12c-0.94,0.02-1.63,0.03-2.07,0.03c-3.55,0-6.6-0.27-9.14-0.81
				s-4.62-1.49-6.26-2.85s-2.85-3.17-3.63-5.42s-1.17-5.1-1.17-8.54V33.13c0-0.84,0.46-1.26,1.38-1.26h8.51
				c0.68,0,1.09,0.09,1.23,0.27c0.14,0.18,0.21,0.51,0.21,0.99v24.93c0,2.36,0.56,4.06,1.67,5.09c1.12,1.04,3.06,1.56,5.81,1.56
				c0.2,0,0.54,0,1.02,0s0.99-0.02,1.53-0.06s1.07-0.06,1.59-0.09c0.52-0.02,0.94-0.07,1.26-0.15V33.13c0-0.84,0.46-1.26,1.38-1.26
				h8.45c0.68,0,1.09,0.09,1.23,0.27c0.14,0.18,0.21,0.51,0.21,0.99L113.12,68z"/>
			<path class="st0" d="M138.85,64.35c2.04,0,3.77-0.24,5.21-0.72c1.44-0.48,2.79-0.96,4.07-1.44c0.6-0.24,1.03-0.32,1.29-0.24
				c0.26,0.08,0.53,0.46,0.81,1.14l2.58,5.39c0.28,0.6,0.4,1.06,0.36,1.38s-0.28,0.6-0.72,0.84c-2.4,1.44-4.79,2.42-7.19,2.96
				c-2.4,0.54-4.89,0.81-7.49,0.81c-3.56,0-6.56-0.55-9.02-1.65c-2.46-1.1-4.46-2.61-5.99-4.52c-1.54-1.92-2.66-4.19-3.35-6.83
				c-0.7-2.64-1.05-5.51-1.05-8.62c0-3.24,0.48-6.17,1.44-8.81c0.96-2.63,2.31-4.9,4.04-6.8c1.74-1.9,3.82-3.37,6.26-4.4
				c2.44-1.04,5.13-1.56,8.09-1.56c2.32,0,4.48,0.19,6.5,0.57c2.02,0.38,3.9,1.07,5.66,2.07c0.32,0.2,0.57,0.36,0.75,0.48
				s0.28,0.27,0.3,0.45s0,0.4-0.06,0.66s-0.17,0.59-0.33,0.99l-2.1,4.91c-0.28,0.76-0.55,1.21-0.81,1.35s-0.75,0.09-1.47-0.15
				c-0.8-0.24-1.52-0.45-2.16-0.63s-1.27-0.33-1.89-0.45s-1.24-0.2-1.86-0.24s-1.29-0.06-2.01-0.06c-2.48,0-4.49,0.99-6.05,2.96
				c-1.56,1.98-2.34,4.87-2.34,8.66c0,3.75,0.65,6.61,1.95,8.56C133.58,63.37,135.77,64.35,138.85,64.35z"/>
			<path class="st0" d="M193.4,73.54c-0.14,0.18-0.55,0.27-1.23,0.27h-8.51c-0.92,0-1.38-0.42-1.38-1.26V56.74h-13.3v15.82
				c0,0.48-0.07,0.81-0.21,0.99s-0.55,0.27-1.23,0.27h-8.51c-0.92,0-1.38-0.42-1.38-1.26V33.13c0-0.84,0.46-1.26,1.38-1.26h8.51
				c0.68,0,1.09,0.09,1.23,0.27c0.14,0.18,0.21,0.51,0.21,0.99v14.14h13.3V33.13c0-0.84,0.46-1.26,1.38-1.26h8.51
				c0.68,0,1.09,0.09,1.23,0.27c0.13,0.18,0.21,0.51,0.21,0.99v39.43C193.61,73.03,193.53,73.36,193.4,73.54z"/>
		</g>
		<g>
			<g>
				<path class="st0" d="M214.36,39.28c0,0.31-0.07,0.56-0.21,0.77c-0.14,0.2-0.39,0.34-0.75,0.41c-0.15,0.03-0.32,0.06-0.49,0.07
					s-0.35,0.03-0.52,0.04c-0.17,0.01-0.33,0.02-0.49,0.02c-0.15,0-0.29,0-0.41,0c-0.68,0-1.26-0.06-1.74-0.19
					c-0.48-0.12-0.87-0.33-1.17-0.62c-0.3-0.29-0.52-0.68-0.66-1.16c-0.14-0.49-0.21-1.09-0.21-1.81l-0.01-4.59
					c0-0.11,0.02-0.17,0.07-0.21c0.05-0.03,0.12-0.05,0.21-0.05h0.95c0.11,0,0.19,0.01,0.22,0.04c0.04,0.03,0.05,0.1,0.05,0.21v4.62
					c0,0.41,0.03,0.77,0.09,1.08c0.06,0.31,0.17,0.56,0.34,0.76c0.17,0.2,0.39,0.35,0.69,0.45c0.29,0.1,0.68,0.15,1.16,0.15
					c0.12,0,0.31-0.01,0.58-0.02c0.26-0.01,0.54-0.05,0.82-0.1V32.2c0-0.11,0.02-0.17,0.07-0.21c0.04-0.03,0.12-0.05,0.21-0.05h0.94
					c0.11,0,0.18,0.01,0.21,0.04c0.02,0.03,0.04,0.1,0.04,0.21v7.09H214.36z"/>
				<path class="st0" d="M218,34.18v6.02c0,0.11-0.02,0.19-0.05,0.21c-0.04,0.03-0.11,0.04-0.23,0.04h-0.9
					c-0.09,0-0.16-0.02-0.21-0.05c-0.05-0.03-0.07-0.1-0.07-0.21v-7.5c0-0.26,0.05-0.45,0.15-0.56c0.1-0.12,0.28-0.18,0.55-0.18
					h0.42c0.21,0,0.36,0.04,0.46,0.12c0.1,0.08,0.21,0.21,0.34,0.42l2.41,4.01l1.03,1.75h0.05v-6.04c0-0.11,0.02-0.17,0.06-0.21
					c0.04-0.03,0.11-0.05,0.22-0.05h0.9c0.1,0,0.18,0.02,0.22,0.05c0.04,0.03,0.06,0.1,0.06,0.21v7.52c0,0.23-0.05,0.41-0.15,0.54
					s-0.28,0.19-0.56,0.19h-0.42c-0.11,0-0.19-0.01-0.27-0.02c-0.07-0.02-0.14-0.04-0.19-0.08c-0.06-0.04-0.11-0.09-0.16-0.17
					c-0.05-0.07-0.11-0.15-0.18-0.25l-2.42-4.02l-1.02-1.73L218,34.18L218,34.18z"/>
				<path class="st0" d="M227.17,40.42c-0.04,0.03-0.12,0.04-0.23,0.04h-0.92c-0.1,0-0.17-0.02-0.21-0.05
					c-0.05-0.03-0.07-0.1-0.07-0.21v-7.98c0-0.11,0.02-0.17,0.07-0.21c0.04-0.03,0.11-0.05,0.21-0.05h0.92
					c0.11,0,0.19,0.01,0.23,0.04s0.06,0.1,0.06,0.21v7.98C227.23,40.32,227.21,40.39,227.17,40.42z"/>
				<path class="st0" d="M232.54,38.88h0.07l0.56-1.9l1.59-4.85c0.03-0.08,0.06-0.13,0.1-0.14c0.04-0.02,0.11-0.02,0.19-0.02h1.15
					c0.06,0,0.1,0.02,0.11,0.05c0.01,0.04,0.01,0.08-0.01,0.13l-2.68,7.76c-0.07,0.22-0.16,0.36-0.26,0.44
					c-0.1,0.07-0.25,0.11-0.44,0.12h-0.65c-0.21,0-0.37-0.04-0.48-0.1c-0.11-0.07-0.21-0.22-0.3-0.45l-2.67-7.76
					c-0.02-0.05-0.02-0.09,0-0.13s0.06-0.05,0.12-0.05h1.16c0.09,0,0.15,0.01,0.19,0.04c0.04,0.03,0.06,0.08,0.08,0.14l1.55,4.81
					L232.54,38.88z"/>
				<path class="st0" d="M243.6,40.38c-0.03,0.05-0.1,0.08-0.21,0.08h-3.45c-0.43,0-0.78-0.06-1.05-0.18
					c-0.28-0.12-0.5-0.28-0.66-0.49c-0.16-0.2-0.28-0.43-0.35-0.69c-0.06-0.26-0.1-0.53-0.1-0.81v-4.15c0-0.28,0.04-0.55,0.11-0.82
					c0.08-0.26,0.2-0.5,0.38-0.7c0.17-0.2,0.4-0.36,0.67-0.49c0.28-0.12,0.61-0.18,1-0.18h3.38c0.1,0,0.17,0.02,0.2,0.07
					c0.03,0.04,0.04,0.11,0.04,0.21v0.76c0,0.11-0.01,0.18-0.04,0.21c-0.03,0.04-0.1,0.05-0.2,0.05h-3.23
					c-0.31,0-0.52,0.07-0.65,0.21s-0.19,0.34-0.19,0.59v1.27h3.66c0.11,0,0.17,0.02,0.2,0.06c0.03,0.04,0.04,0.12,0.04,0.23v0.67
					c0,0.1-0.01,0.17-0.04,0.21s-0.09,0.07-0.2,0.07h-3.66v1.76c0,0.26,0.07,0.45,0.2,0.59s0.35,0.2,0.64,0.2h3.3
					c0.11,0,0.18,0.02,0.21,0.06c0.03,0.04,0.04,0.12,0.04,0.23v0.76C243.65,40.27,243.63,40.34,243.6,40.38z"/>
				<path class="st0" d="M251.99,40.2c0.01,0.06,0.01,0.11-0.01,0.17c-0.02,0.06-0.07,0.09-0.15,0.09h-1.08
					c-0.06,0-0.13-0.01-0.19-0.03c-0.06-0.02-0.11-0.08-0.14-0.16l-0.58-2.24c-0.12-0.43-0.3-0.72-0.52-0.87
					c-0.23-0.15-0.55-0.23-0.98-0.23h-1.43v3.28c0,0.11-0.02,0.19-0.06,0.21c-0.04,0.03-0.11,0.04-0.22,0.04h-0.95
					c-0.09,0-0.16-0.02-0.21-0.05c-0.05-0.03-0.07-0.1-0.07-0.21v-7.57c0-0.23,0.05-0.41,0.14-0.52c0.1-0.11,0.27-0.17,0.53-0.17
					h2.86c0.4,0,0.77,0.06,1.1,0.18s0.61,0.28,0.85,0.5s0.42,0.48,0.54,0.78c0.13,0.3,0.19,0.63,0.19,0.99
					c0,0.48-0.11,0.89-0.35,1.24c-0.23,0.35-0.53,0.6-0.9,0.76v0.05c0.28,0.12,0.49,0.29,0.63,0.5s0.25,0.46,0.33,0.75L251.99,40.2z
					 M250.11,34.47c0-0.12-0.02-0.25-0.05-0.39c-0.04-0.14-0.1-0.26-0.2-0.39c-0.1-0.12-0.23-0.22-0.4-0.3
					c-0.17-0.08-0.39-0.12-0.67-0.12h-1.88v2.4h1.79c0.49,0,0.85-0.12,1.07-0.35C250,35.1,250.11,34.81,250.11,34.47z"/>
				<path class="st0" d="M253.44,34.14c0-0.34,0.06-0.65,0.17-0.93s0.28-0.53,0.51-0.73c0.23-0.21,0.51-0.37,0.85-0.48
					s0.74-0.17,1.21-0.17c0.22,0,0.45,0.01,0.68,0.04c0.23,0.03,0.47,0.06,0.7,0.1s0.46,0.09,0.68,0.16
					c0.22,0.06,0.42,0.14,0.61,0.22c0.06,0.04,0.1,0.08,0.12,0.11s0.01,0.09-0.02,0.17l-0.29,0.82c-0.03,0.09-0.06,0.14-0.09,0.14
					c-0.03,0.01-0.08,0.01-0.14-0.01c-0.4-0.14-0.8-0.24-1.19-0.31c-0.39-0.07-0.75-0.1-1.08-0.1c-0.42,0-0.73,0.09-0.91,0.26
					c-0.19,0.17-0.28,0.38-0.28,0.61c0,0.15,0.03,0.28,0.1,0.39c0.07,0.12,0.18,0.23,0.33,0.34c0.16,0.11,0.35,0.22,0.58,0.33
					c0.23,0.11,0.51,0.23,0.84,0.36c0.35,0.15,0.68,0.29,0.99,0.44c0.31,0.15,0.59,0.33,0.84,0.53c0.24,0.2,0.43,0.44,0.58,0.71
					c0.14,0.27,0.21,0.6,0.21,0.99c0,0.42-0.08,0.79-0.24,1.1c-0.16,0.31-0.37,0.57-0.64,0.77s-0.59,0.36-0.96,0.46
					s-0.77,0.15-1.2,0.15c-0.51,0-1.04-0.05-1.6-0.15c-0.56-0.1-1.07-0.27-1.55-0.53c-0.11-0.05-0.14-0.14-0.07-0.29l0.36-0.82
					c0.06-0.12,0.15-0.16,0.27-0.11c0.39,0.16,0.79,0.3,1.21,0.41c0.42,0.11,0.82,0.16,1.21,0.16c0.61,0,1.05-0.11,1.3-0.32
					c0.26-0.21,0.38-0.47,0.38-0.79c0-0.17-0.03-0.32-0.09-0.45c-0.07-0.13-0.17-0.25-0.3-0.36c-0.14-0.11-0.31-0.21-0.52-0.31
					c-0.21-0.1-0.46-0.21-0.75-0.32c-0.44-0.17-0.83-0.34-1.18-0.51c-0.35-0.17-0.64-0.36-0.87-0.55c-0.24-0.19-0.41-0.42-0.54-0.67
					C253.51,34.74,253.44,34.46,253.44,34.14z"/>
				<path class="st0" d="M262.65,40.42c-0.04,0.03-0.12,0.04-0.23,0.04h-0.92c-0.1,0-0.17-0.02-0.21-0.05
					c-0.04-0.03-0.07-0.1-0.07-0.21v-7.98c0-0.11,0.02-0.17,0.07-0.21c0.04-0.03,0.11-0.05,0.21-0.05h0.92
					c0.11,0,0.19,0.01,0.23,0.04s0.06,0.1,0.06,0.21v7.98C262.71,40.32,262.69,40.39,262.65,40.42z"/>
				<path class="st0" d="M265.7,40.46c-0.26,0-0.44-0.05-0.53-0.16c-0.1-0.11-0.15-0.28-0.15-0.53v-7.12c0-0.23,0.05-0.41,0.15-0.52
					s0.27-0.17,0.53-0.17l2.24-0.01c0.65,0,1.22,0.11,1.71,0.32s0.88,0.5,1.2,0.87s0.55,0.81,0.7,1.33
					c0.15,0.51,0.23,1.08,0.23,1.69c0,0.6-0.07,1.17-0.2,1.7c-0.14,0.52-0.36,0.98-0.66,1.36s-0.68,0.69-1.16,0.91
					c-0.47,0.22-1.04,0.33-1.7,0.33C268.06,40.46,265.7,40.46,265.7,40.46z M270.26,36.17c0-0.41-0.04-0.79-0.12-1.14
					s-0.21-0.66-0.39-0.92c-0.19-0.26-0.44-0.47-0.75-0.62c-0.31-0.15-0.71-0.22-1.18-0.22h-1.31v5.86h1.35
					c0.47,0,0.85-0.08,1.16-0.23c0.31-0.15,0.55-0.35,0.73-0.62c0.18-0.26,0.31-0.57,0.39-0.93
					C270.22,36.99,270.26,36.6,270.26,36.17z"/>
				<path class="st0" d="M278.22,38.6h-3.08l-0.53,1.65c-0.02,0.07-0.06,0.13-0.1,0.16c-0.05,0.03-0.11,0.05-0.21,0.05h-1.12
					c-0.09,0-0.15-0.03-0.17-0.08c-0.02-0.05-0.02-0.11,0-0.18l2.62-7.67c0.04-0.12,0.08-0.22,0.12-0.29s0.09-0.13,0.15-0.17
					c0.06-0.04,0.13-0.07,0.21-0.09s0.18-0.03,0.29-0.03h0.52c0.25,0,0.43,0.04,0.53,0.12c0.1,0.07,0.2,0.23,0.28,0.46l2.63,7.67
					c0.02,0.06,0.03,0.12,0.01,0.18c-0.02,0.05-0.07,0.08-0.16,0.08h-1.12c-0.09,0-0.16-0.01-0.21-0.03
					c-0.05-0.02-0.1-0.08-0.13-0.16L278.22,38.6z M275.51,37.34h2.33l-0.63-2.04l-0.51-1.72h-0.06l-0.5,1.69L275.51,37.34z"/>
				<path class="st0" d="M282.52,40.46c-0.26,0-0.44-0.05-0.53-0.16c-0.1-0.11-0.14-0.28-0.14-0.53v-7.12
					c0-0.23,0.05-0.41,0.14-0.52c0.1-0.11,0.27-0.17,0.53-0.17l2.24-0.01c0.65,0,1.22,0.11,1.71,0.32c0.48,0.21,0.88,0.5,1.2,0.87
					c0.31,0.37,0.55,0.81,0.7,1.33c0.15,0.51,0.23,1.08,0.23,1.69c0,0.6-0.07,1.17-0.21,1.7c-0.14,0.52-0.36,0.98-0.66,1.36
					s-0.68,0.69-1.16,0.91c-0.47,0.22-1.04,0.33-1.7,0.33C284.87,40.46,282.52,40.46,282.52,40.46z M287.07,36.17
					c0-0.41-0.04-0.79-0.11-1.14c-0.08-0.35-0.21-0.66-0.39-0.92c-0.19-0.26-0.44-0.47-0.75-0.62c-0.31-0.15-0.71-0.22-1.18-0.22
					h-1.31v5.86h1.35c0.47,0,0.85-0.08,1.16-0.23c0.31-0.15,0.55-0.35,0.73-0.62c0.18-0.26,0.31-0.57,0.39-0.93
					C287.04,36.99,287.07,36.6,287.07,36.17z"/>
				<path class="st0" d="M294.98,40.46c-0.26,0-0.44-0.05-0.53-0.16c-0.1-0.11-0.14-0.28-0.14-0.53v-7.12
					c0-0.23,0.05-0.41,0.14-0.52c0.1-0.11,0.28-0.17,0.53-0.17l2.24-0.01c0.65,0,1.22,0.11,1.71,0.32s0.89,0.5,1.2,0.87
					c0.32,0.37,0.55,0.81,0.7,1.33c0.15,0.51,0.23,1.08,0.23,1.69c0,0.6-0.07,1.17-0.21,1.7c-0.14,0.52-0.36,0.98-0.66,1.36
					s-0.69,0.69-1.16,0.91c-0.47,0.22-1.04,0.33-1.7,0.33C297.33,40.46,294.98,40.46,294.98,40.46z M299.54,36.17
					c0-0.41-0.04-0.79-0.12-1.14s-0.21-0.66-0.4-0.92c-0.19-0.26-0.43-0.47-0.75-0.62c-0.31-0.15-0.71-0.22-1.17-0.22h-1.31v5.86
					h1.35c0.47,0,0.86-0.08,1.16-0.23c0.31-0.15,0.55-0.35,0.73-0.62c0.18-0.26,0.31-0.57,0.39-0.93
					C299.5,36.99,299.54,36.6,299.54,36.17z"/>
				<path class="st0" d="M308.82,40.38c-0.03,0.05-0.1,0.08-0.21,0.08h-3.45c-0.43,0-0.78-0.06-1.06-0.18
					c-0.27-0.12-0.49-0.28-0.66-0.49c-0.16-0.2-0.28-0.43-0.34-0.69c-0.06-0.26-0.1-0.53-0.1-0.81v-4.15c0-0.28,0.04-0.55,0.11-0.82
					c0.08-0.26,0.2-0.5,0.38-0.7c0.17-0.2,0.4-0.36,0.67-0.49c0.27-0.12,0.6-0.18,0.99-0.18h3.38c0.1,0,0.17,0.02,0.2,0.07
					c0.03,0.04,0.04,0.11,0.04,0.21v0.76c0,0.11-0.01,0.18-0.04,0.21c-0.03,0.04-0.1,0.05-0.2,0.05h-3.23
					c-0.31,0-0.52,0.07-0.65,0.21c-0.12,0.14-0.19,0.34-0.19,0.59v1.27h3.66c0.1,0,0.17,0.02,0.2,0.06
					c0.03,0.04,0.04,0.12,0.04,0.23v0.67c0,0.1-0.02,0.17-0.04,0.21c-0.03,0.04-0.1,0.07-0.2,0.07h-3.66v1.76
					c0,0.26,0.07,0.45,0.2,0.59c0.14,0.14,0.35,0.2,0.64,0.2h3.3c0.11,0,0.18,0.02,0.21,0.06c0.03,0.04,0.04,0.12,0.04,0.23v0.76
					C308.87,40.27,308.86,40.34,308.82,40.38z"/>
				<path class="st0" d="M213.64,54.46c0.58,0,1.08-0.07,1.49-0.21s0.8-0.27,1.17-0.41c0.17-0.07,0.29-0.09,0.37-0.07
					c0.07,0.02,0.15,0.13,0.23,0.33l0.74,1.55c0.08,0.17,0.11,0.3,0.1,0.39s-0.08,0.17-0.21,0.24c-0.69,0.41-1.38,0.69-2.06,0.85
					c-0.69,0.16-1.4,0.23-2.15,0.23c-1.02,0-1.88-0.16-2.59-0.47c-0.71-0.32-1.28-0.75-1.72-1.3s-0.76-1.2-0.96-1.96
					c-0.2-0.75-0.3-1.58-0.3-2.47c0-0.93,0.14-1.77,0.41-2.53s0.66-1.41,1.16-1.95s1.1-0.96,1.8-1.26c0.7-0.3,1.47-0.45,2.32-0.45
					c0.67,0,1.28,0.05,1.86,0.17c0.58,0.11,1.12,0.31,1.62,0.59c0.09,0.06,0.16,0.1,0.21,0.14c0.05,0.04,0.08,0.08,0.09,0.13
					s0,0.12-0.02,0.19s-0.05,0.17-0.09,0.28l-0.6,1.41c-0.08,0.22-0.16,0.35-0.23,0.39c-0.08,0.04-0.21,0.02-0.42-0.04
					c-0.23-0.07-0.44-0.13-0.62-0.18s-0.36-0.09-0.54-0.13c-0.18-0.03-0.36-0.06-0.53-0.07s-0.37-0.02-0.57-0.02
					c-0.71,0-1.29,0.28-1.73,0.85c-0.45,0.57-0.67,1.4-0.67,2.48c0,1.08,0.19,1.9,0.56,2.46C212.13,54.18,212.76,54.46,213.64,54.46
					z"/>
				<path class="st0" d="M223.59,57.1c-0.04,0.05-0.16,0.08-0.35,0.08h-2.44c-0.26,0-0.4-0.12-0.4-0.36V45.51
					c0-0.24,0.13-0.36,0.4-0.36h2.44c0.19,0,0.31,0.03,0.35,0.08c0.04,0.05,0.06,0.14,0.06,0.28v11.3
					C223.65,56.95,223.63,57.04,223.59,57.1z"/>
				<path class="st0" d="M235.64,57.17h-5.31c-0.69,0-1.25-0.1-1.68-0.29c-0.43-0.19-0.77-0.45-1.01-0.76
					c-0.25-0.31-0.41-0.67-0.51-1.06c-0.09-0.39-0.14-0.77-0.14-1.15v-5.5c0-0.41,0.06-0.81,0.17-1.21c0.11-0.4,0.3-0.74,0.56-1.05
					c0.26-0.31,0.6-0.55,1.02-0.73s0.94-0.28,1.54-0.28h5.07c0.14,0,0.23,0.02,0.27,0.06s0.06,0.16,0.06,0.35v1.94
					c0,0.15-0.02,0.25-0.07,0.3c-0.05,0.05-0.13,0.08-0.26,0.08h-4.09c-0.23,0-0.41,0.03-0.55,0.09s-0.24,0.14-0.31,0.23
					c-0.07,0.09-0.11,0.19-0.14,0.31c-0.02,0.12-0.04,0.23-0.04,0.35v0.72h4.6c0.14,0,0.22,0.02,0.27,0.06
					c0.04,0.05,0.06,0.17,0.06,0.36v1.79c0,0.26-0.11,0.4-0.33,0.4h-4.6v1.29c0,0.22,0.03,0.39,0.08,0.52
					c0.05,0.12,0.12,0.22,0.21,0.28c0.09,0.06,0.2,0.1,0.33,0.12s0.26,0.03,0.41,0.03h4.36c0.14,0,0.22,0.02,0.27,0.06
					c0.04,0.04,0.06,0.16,0.06,0.35v1.94C235.96,57.04,235.86,57.17,235.64,57.17z"/>
				<path class="st0" d="M241.62,50.66v6.15c0,0.14-0.02,0.23-0.06,0.29c-0.04,0.05-0.16,0.08-0.35,0.08h-2.44
					c-0.26,0-0.39-0.12-0.39-0.36V46.51c0-0.54,0.09-0.9,0.27-1.08s0.51-0.28,0.99-0.28h0.89c0.17,0,0.32,0.01,0.45,0.03
					s0.24,0.05,0.35,0.1s0.21,0.13,0.32,0.23c0.1,0.1,0.22,0.24,0.34,0.41l2.46,3.68l1.34,2.1h0.12v-6.19
					c0-0.14,0.02-0.23,0.06-0.28s0.16-0.08,0.35-0.08h2.44c0.26,0,0.4,0.12,0.4,0.36v10.31c0,0.39-0.08,0.71-0.24,0.97
					c-0.16,0.26-0.5,0.39-1.01,0.39h-0.89c-0.16,0-0.31-0.01-0.44-0.03c-0.13-0.02-0.25-0.05-0.36-0.1s-0.22-0.13-0.33-0.23
					s-0.22-0.24-0.33-0.41l-2.42-3.61l-1.37-2.13h-0.15V50.66z"/>
				<path class="st0" d="M257.76,54.46c0.58,0,1.08-0.07,1.49-0.21s0.8-0.28,1.17-0.41c0.17-0.07,0.29-0.09,0.37-0.07
					c0.07,0.02,0.15,0.13,0.23,0.33l0.74,1.55c0.08,0.17,0.11,0.3,0.1,0.39s-0.08,0.17-0.21,0.24c-0.69,0.41-1.37,0.69-2.06,0.85
					c-0.69,0.16-1.4,0.23-2.15,0.23c-1.02,0-1.88-0.16-2.59-0.47c-0.7-0.32-1.28-0.75-1.72-1.3s-0.76-1.2-0.96-1.96
					c-0.2-0.75-0.3-1.58-0.3-2.47c0-0.93,0.14-1.77,0.41-2.53s0.66-1.41,1.16-1.95s1.1-0.96,1.8-1.26c0.7-0.3,1.47-0.45,2.32-0.45
					c0.66,0,1.29,0.05,1.87,0.17c0.58,0.11,1.12,0.31,1.62,0.59c0.09,0.06,0.16,0.1,0.22,0.14c0.05,0.04,0.08,0.08,0.08,0.13
					c0.01,0.05,0,0.12-0.01,0.19c-0.02,0.07-0.05,0.17-0.09,0.28l-0.6,1.41c-0.08,0.22-0.16,0.35-0.23,0.39s-0.21,0.02-0.42-0.04
					c-0.23-0.07-0.44-0.13-0.62-0.18s-0.36-0.1-0.54-0.13c-0.18-0.03-0.35-0.06-0.53-0.07s-0.37-0.02-0.58-0.02
					c-0.71,0-1.29,0.28-1.74,0.85c-0.45,0.57-0.67,1.4-0.67,2.48c0,1.08,0.19,1.9,0.56,2.46C256.25,54.18,256.88,54.46,257.76,54.46
					z"/>
				<path class="st0" d="M267.71,57.1c-0.04,0.05-0.16,0.08-0.35,0.08h-2.44c-0.27,0-0.39-0.12-0.39-0.36V45.51
					c0-0.24,0.13-0.36,0.39-0.36h2.44c0.2,0,0.31,0.03,0.35,0.08c0.04,0.05,0.06,0.14,0.06,0.28v11.3
					C267.77,56.95,267.75,57.04,267.71,57.1z"/>
				<path class="st0" d="M277.29,54.82h-3.38l-0.57,1.98c-0.05,0.12-0.1,0.22-0.17,0.28c-0.06,0.06-0.19,0.09-0.39,0.09h-2.52
					c-0.11,0-0.19-0.03-0.21-0.09c-0.03-0.06-0.03-0.14-0.01-0.23l3.38-10.63c0.15-0.46,0.33-0.75,0.55-0.88
					c0.22-0.13,0.52-0.2,0.91-0.2h1.39c0.21,0,0.39,0.01,0.54,0.03s0.29,0.06,0.41,0.13s0.23,0.18,0.33,0.32s0.19,0.34,0.27,0.59
					l3.38,10.65c0.02,0.06,0.03,0.13,0.01,0.21c-0.02,0.08-0.09,0.12-0.23,0.12h-2.59c-0.14,0-0.25-0.02-0.34-0.05
					c-0.09-0.04-0.15-0.12-0.19-0.24L277.29,54.82z M274.62,52.28h1.96l-0.33-1.34l-0.55-2.47h-0.14L274.98,51L274.62,52.28z"/>
				<path class="st0" d="M283,48.69c0-0.49,0.08-0.96,0.25-1.42c0.16-0.45,0.42-0.85,0.77-1.19s0.8-0.62,1.35-0.82
					c0.55-0.2,1.2-0.3,1.96-0.3c0.7,0,1.4,0.06,2.12,0.2c0.72,0.13,1.32,0.33,1.81,0.59c0.19,0.09,0.3,0.18,0.31,0.26
					c0.01,0.08-0.03,0.24-0.12,0.48l-0.46,1.42c-0.08,0.22-0.16,0.34-0.23,0.38c-0.08,0.04-0.21,0.02-0.41-0.03
					c-0.49-0.14-1-0.24-1.52-0.32c-0.52-0.08-1-0.11-1.45-0.11c-0.4,0-0.67,0.06-0.8,0.17c-0.13,0.12-0.2,0.25-0.2,0.41
					c0,0.07,0.02,0.14,0.04,0.22c0.03,0.08,0.08,0.15,0.17,0.24c0.09,0.08,0.21,0.17,0.38,0.26s0.39,0.19,0.68,0.29
					c0.69,0.26,1.31,0.52,1.86,0.78c0.55,0.26,1.01,0.55,1.39,0.87s0.67,0.69,0.88,1.11c0.21,0.42,0.31,0.91,0.31,1.47
					c0,1.24-0.41,2.17-1.22,2.78c-0.81,0.62-1.96,0.93-3.45,0.93c-0.78,0-1.59-0.08-2.45-0.24c-0.85-0.16-1.62-0.45-2.31-0.88
					c-0.11-0.07-0.18-0.15-0.2-0.23c-0.02-0.08,0.01-0.21,0.08-0.39l0.67-1.63c0.08-0.19,0.16-0.3,0.24-0.32s0.2,0,0.38,0.07
					c0.17,0.07,0.39,0.15,0.66,0.22c0.27,0.08,0.56,0.15,0.87,0.22c0.31,0.07,0.63,0.13,0.97,0.17c0.34,0.04,0.67,0.07,0.99,0.07
					c0.27,0,0.49-0.03,0.65-0.08c0.16-0.05,0.29-0.11,0.38-0.19c0.09-0.07,0.15-0.16,0.18-0.25s0.04-0.17,0.04-0.24
					c0-0.09-0.01-0.18-0.03-0.28c-0.02-0.09-0.08-0.18-0.16-0.26c-0.08-0.09-0.22-0.18-0.4-0.28s-0.43-0.2-0.74-0.32
					c-0.6-0.22-1.15-0.45-1.67-0.68s-0.96-0.5-1.34-0.8s-0.68-0.64-0.89-1.02C283.11,49.65,283,49.2,283,48.69z"/>
				<path class="st0" d="M218.35,73.81c-0.04,0.05-0.16,0.08-0.35,0.08h-2.44c-0.26,0-0.4-0.12-0.4-0.36V69h-3.81v4.53
					c0,0.14-0.02,0.23-0.06,0.28c-0.04,0.05-0.16,0.08-0.35,0.08h-2.44c-0.26,0-0.39-0.12-0.39-0.36v-11.3
					c0-0.24,0.13-0.36,0.39-0.36h2.44c0.2,0,0.31,0.03,0.35,0.08c0.04,0.05,0.06,0.15,0.06,0.28v4.05h3.81v-4.05
					c0-0.24,0.13-0.36,0.4-0.36H218c0.19,0,0.31,0.03,0.35,0.08c0.04,0.05,0.06,0.15,0.06,0.28v11.3
					C218.41,73.66,218.39,73.75,218.35,73.81z"/>
				<path class="st0" d="M231.65,72.22c0,0.37-0.08,0.7-0.23,0.99s-0.46,0.5-0.9,0.63c-0.23,0.07-0.51,0.12-0.83,0.15
					c-0.32,0.04-0.64,0.06-0.95,0.08c-0.31,0.01-0.6,0.03-0.87,0.03c-0.27,0.01-0.47,0.01-0.59,0.01c-1.02,0-1.89-0.08-2.62-0.23
					s-1.33-0.42-1.79-0.82c-0.47-0.39-0.82-0.91-1.04-1.55c-0.22-0.65-0.34-1.46-0.34-2.45v-6.84c0-0.24,0.13-0.36,0.4-0.36h2.44
					c0.19,0,0.31,0.03,0.35,0.08c0.04,0.05,0.06,0.15,0.06,0.28v7.14c0,0.68,0.16,1.16,0.48,1.46c0.32,0.3,0.88,0.45,1.67,0.45
					c0.06,0,0.15,0,0.29,0s0.28-0.01,0.44-0.02c0.15-0.01,0.31-0.02,0.46-0.02c0.15-0.01,0.27-0.02,0.36-0.04v-8.97
					c0-0.24,0.13-0.36,0.4-0.36h2.42c0.19,0,0.31,0.03,0.35,0.08c0.04,0.05,0.06,0.15,0.06,0.28L231.65,72.22z"/>
				<path class="st0" d="M244.74,67.86h-0.1l-0.88,1.96l-0.89,1.91c-0.13,0.29-0.26,0.48-0.39,0.59c-0.13,0.11-0.32,0.16-0.58,0.16
					h-1.15c-0.29,0-0.48-0.06-0.59-0.16c-0.11-0.11-0.23-0.31-0.37-0.59l-0.77-1.55l-0.99-2.11h-0.11v5.49
					c0,0.16-0.03,0.26-0.09,0.29c-0.06,0.03-0.15,0.04-0.29,0.04h-2.39c-0.13,0-0.22-0.02-0.29-0.04c-0.07-0.03-0.1-0.12-0.1-0.29
					V63.22c0-0.54,0.1-0.9,0.29-1.08c0.19-0.18,0.51-0.28,0.94-0.28h1.32c0.37,0,0.63,0.07,0.79,0.2s0.31,0.35,0.46,0.64l1.38,2.85
					l1.34,2.82h0.07l1.34-2.78l1.38-2.84c0.15-0.3,0.31-0.52,0.5-0.67c0.18-0.15,0.49-0.22,0.93-0.22h1.07
					c0.18,0,0.35,0.01,0.5,0.04c0.15,0.03,0.28,0.09,0.38,0.17c0.11,0.09,0.19,0.21,0.25,0.38c0.06,0.17,0.09,0.38,0.09,0.65v10.46
					c0,0.16-0.03,0.26-0.09,0.29c-0.06,0.03-0.16,0.04-0.31,0.04h-2.27c-0.13,0-0.22-0.02-0.28-0.04c-0.06-0.03-0.1-0.12-0.1-0.29
					L244.74,67.86L244.74,67.86z"/>
				<path class="st0" d="M257.04,71.53h-3.38l-0.57,1.97c-0.04,0.13-0.1,0.22-0.16,0.29c-0.06,0.06-0.19,0.09-0.39,0.09h-2.52
					c-0.12,0-0.19-0.03-0.22-0.09s-0.03-0.14-0.01-0.24l3.38-10.63c0.15-0.46,0.33-0.75,0.55-0.89c0.22-0.13,0.52-0.2,0.91-0.2h1.39
					c0.21,0,0.39,0.01,0.54,0.03s0.29,0.06,0.41,0.13s0.23,0.17,0.33,0.32c0.1,0.14,0.19,0.34,0.27,0.59l3.38,10.65
					c0.02,0.06,0.03,0.13,0.01,0.21s-0.09,0.12-0.23,0.12h-2.59c-0.14,0-0.25-0.02-0.34-0.05c-0.09-0.04-0.15-0.11-0.19-0.24
					L257.04,71.53z M254.38,68.99h1.96l-0.33-1.34l-0.55-2.47h-0.14l-0.58,2.52L254.38,68.99z"/>
				<path class="st0" d="M266.21,67.37v6.15c0,0.14-0.02,0.23-0.06,0.28c-0.04,0.05-0.16,0.08-0.35,0.08h-2.44
					c-0.26,0-0.4-0.12-0.4-0.36v-10.3c0-0.54,0.09-0.9,0.27-1.08s0.51-0.28,0.99-0.28h0.89c0.17,0,0.32,0.01,0.45,0.03
					s0.24,0.05,0.35,0.1s0.21,0.13,0.32,0.23c0.1,0.1,0.22,0.24,0.34,0.41l2.46,3.67l1.34,2.1h0.12V62.2c0-0.14,0.02-0.23,0.06-0.28
					s0.15-0.08,0.35-0.08h2.44c0.26,0,0.39,0.12,0.39,0.36v10.31c0,0.39-0.08,0.72-0.24,0.97c-0.16,0.26-0.5,0.39-1.01,0.39h-0.89
					c-0.16,0-0.31-0.01-0.44-0.02c-0.13-0.02-0.25-0.05-0.36-0.11c-0.11-0.05-0.22-0.13-0.33-0.23c-0.11-0.11-0.22-0.24-0.34-0.41
					l-2.42-3.61l-1.37-2.13C266.33,67.36,266.21,67.36,266.21,67.37z"/>
				<path class="st0" d="M280.27,73.81c-0.04,0.05-0.16,0.08-0.35,0.08h-2.44c-0.27,0-0.4-0.12-0.4-0.36v-11.3
					c0-0.24,0.13-0.36,0.4-0.36h2.44c0.19,0,0.31,0.03,0.35,0.08c0.04,0.05,0.06,0.15,0.06,0.28v11.3
					C280.33,73.66,280.31,73.75,280.27,73.81z"/>
				<path class="st0" d="M284.79,73.88c-0.47,0-0.77-0.09-0.91-0.27s-0.21-0.47-0.21-0.87v-9.76c0-0.38,0.07-0.66,0.21-0.85
					s0.44-0.28,0.91-0.28h3.25c1.09,0,1.99,0.18,2.71,0.52c0.71,0.35,1.28,0.8,1.7,1.36c0.42,0.56,0.71,1.2,0.89,1.91
					c0.17,0.71,0.26,1.43,0.26,2.16c0,0.71-0.07,1.42-0.22,2.15c-0.14,0.72-0.41,1.37-0.81,1.95c-0.39,0.58-0.94,1.05-1.63,1.42
					c-0.69,0.37-1.59,0.55-2.69,0.55L284.79,73.88L284.79,73.88z M290.27,67.79c0-0.46-0.04-0.88-0.11-1.26
					c-0.07-0.38-0.21-0.72-0.41-1c-0.2-0.28-0.47-0.5-0.81-0.65c-0.34-0.16-0.78-0.23-1.31-0.23h-0.7v6.42h0.75
					c0.52,0,0.96-0.08,1.29-0.24c0.34-0.16,0.6-0.39,0.8-0.68c0.19-0.29,0.33-0.64,0.4-1.04C290.23,68.71,290.27,68.27,290.27,67.79
					z"/>
				<path class="st0" d="M302.5,71.53h-3.38l-0.57,1.97c-0.05,0.13-0.1,0.22-0.17,0.29c-0.06,0.06-0.19,0.09-0.38,0.09h-2.53
					c-0.11,0-0.19-0.03-0.21-0.09c-0.03-0.06-0.03-0.14-0.01-0.24l3.38-10.63c0.15-0.46,0.33-0.75,0.55-0.89
					c0.22-0.13,0.52-0.2,0.91-0.2h1.39c0.21,0,0.39,0.01,0.54,0.03s0.29,0.06,0.41,0.13s0.23,0.17,0.33,0.32
					c0.1,0.14,0.19,0.34,0.27,0.59l3.38,10.65c0.02,0.06,0.03,0.13,0.01,0.21c-0.01,0.08-0.09,0.12-0.23,0.12h-2.59
					c-0.14,0-0.25-0.02-0.34-0.05c-0.09-0.04-0.15-0.11-0.19-0.24L302.5,71.53z M299.84,68.99h1.96l-0.33-1.34l-0.55-2.47h-0.14
					l-0.58,2.52L299.84,68.99z"/>
				<path class="st0" d="M309.54,73.88c-0.47,0-0.77-0.09-0.91-0.27s-0.21-0.47-0.21-0.87v-9.76c0-0.38,0.07-0.66,0.21-0.85
					s0.44-0.28,0.91-0.28h3.24c1.09,0,1.99,0.18,2.71,0.52c0.72,0.35,1.28,0.8,1.7,1.36c0.42,0.56,0.72,1.2,0.89,1.91
					s0.26,1.43,0.26,2.16c0,0.71-0.07,1.42-0.22,2.15c-0.14,0.72-0.41,1.37-0.81,1.95c-0.39,0.58-0.94,1.05-1.63,1.42
					c-0.69,0.37-1.59,0.55-2.69,0.55L309.54,73.88L309.54,73.88z M315.02,67.79c0-0.46-0.04-0.88-0.11-1.26
					c-0.08-0.38-0.21-0.72-0.41-1c-0.2-0.28-0.47-0.5-0.81-0.65c-0.34-0.16-0.78-0.23-1.32-0.23h-0.7v6.42h0.75
					c0.52,0,0.95-0.08,1.29-0.24c0.34-0.16,0.6-0.39,0.79-0.68c0.19-0.29,0.33-0.64,0.4-1.04
					C314.98,68.71,315.02,68.27,315.02,67.79z"/>
				<path class="st0" d="M329.72,73.88h-5.31c-0.68,0-1.24-0.1-1.67-0.29s-0.77-0.45-1.01-0.76c-0.25-0.31-0.41-0.67-0.51-1.06
					c-0.09-0.39-0.14-0.77-0.14-1.15v-5.5c0-0.41,0.05-0.82,0.17-1.21c0.11-0.39,0.3-0.74,0.56-1.05c0.25-0.3,0.6-0.55,1.02-0.73
					s0.94-0.28,1.55-0.28h5.07c0.14,0,0.23,0.02,0.27,0.06s0.06,0.15,0.06,0.35v1.94c0,0.15-0.02,0.25-0.07,0.3
					c-0.04,0.05-0.13,0.08-0.26,0.08h-4.09c-0.23,0-0.41,0.03-0.55,0.09s-0.24,0.14-0.31,0.23c-0.07,0.09-0.11,0.19-0.14,0.31
					c-0.02,0.12-0.03,0.23-0.03,0.35v0.72h4.6c0.14,0,0.23,0.02,0.27,0.07s0.06,0.16,0.06,0.36v1.79c0,0.26-0.11,0.39-0.33,0.39
					h-4.6v1.29c0,0.22,0.03,0.39,0.08,0.52c0.05,0.12,0.12,0.22,0.21,0.28s0.2,0.1,0.33,0.12c0.13,0.02,0.26,0.02,0.41,0.02h4.36
					c0.14,0,0.23,0.02,0.27,0.06s0.06,0.16,0.06,0.35v1.94C330.04,73.75,329.94,73.88,329.72,73.88z"/>
				<path class="st0" d="M332.24,65.4c0-0.49,0.08-0.96,0.25-1.42c0.17-0.45,0.43-0.85,0.77-1.19c0.35-0.34,0.8-0.62,1.35-0.82
					c0.55-0.2,1.2-0.3,1.96-0.3c0.7,0,1.41,0.07,2.12,0.2c0.72,0.13,1.32,0.33,1.81,0.59c0.2,0.09,0.3,0.18,0.31,0.26
					c0.01,0.08-0.03,0.24-0.12,0.48l-0.46,1.43c-0.08,0.22-0.16,0.34-0.23,0.38c-0.07,0.03-0.21,0.02-0.41-0.03
					c-0.49-0.14-1-0.24-1.52-0.32c-0.52-0.07-1-0.11-1.45-0.11c-0.4,0-0.67,0.06-0.8,0.17s-0.2,0.25-0.2,0.41
					c0,0.07,0.01,0.14,0.04,0.22c0.03,0.07,0.09,0.15,0.17,0.24c0.09,0.09,0.21,0.18,0.38,0.27c0.16,0.09,0.39,0.19,0.68,0.29
					c0.69,0.26,1.3,0.53,1.86,0.78c0.55,0.26,1.01,0.55,1.39,0.87s0.67,0.69,0.88,1.11s0.31,0.91,0.31,1.47
					c0,1.24-0.41,2.16-1.22,2.78c-0.81,0.62-1.96,0.93-3.45,0.93c-0.78,0-1.59-0.08-2.45-0.24c-0.85-0.16-1.62-0.45-2.31-0.88
					c-0.11-0.07-0.18-0.15-0.2-0.23c-0.02-0.09,0.01-0.22,0.08-0.39l0.67-1.63c0.08-0.19,0.16-0.3,0.24-0.33
					c0.08-0.02,0.21,0,0.38,0.07s0.39,0.14,0.66,0.22s0.56,0.15,0.87,0.22c0.31,0.07,0.63,0.12,0.97,0.17
					c0.34,0.05,0.67,0.07,0.99,0.07c0.27,0,0.49-0.02,0.65-0.08c0.16-0.05,0.29-0.11,0.38-0.19c0.09-0.07,0.15-0.16,0.18-0.25
					s0.04-0.17,0.04-0.24c0-0.09-0.01-0.18-0.03-0.27s-0.08-0.18-0.16-0.27c-0.09-0.08-0.22-0.18-0.4-0.27
					c-0.18-0.1-0.43-0.2-0.74-0.32c-0.6-0.22-1.15-0.44-1.67-0.68c-0.52-0.23-0.96-0.5-1.34-0.8s-0.68-0.64-0.9-1.02
					C332.35,66.36,332.24,65.91,332.24,65.4z"/>
			</g>
			<g>
				<path class="st0" d="M303.76,49.95l0.93-2.35l0.93-2.14c0.06-0.12,0.12-0.22,0.2-0.28c0.08-0.06,0.19-0.1,0.36-0.1h2.81
					c0.22,0,0.33,0.05,0.34,0.13c0,0.09-0.01,0.17-0.06,0.25l-3.85,7.5v3.82c0,0.14-0.02,0.24-0.06,0.3
					c-0.04,0.06-0.16,0.09-0.35,0.09h-2.45c-0.26,0-0.4-0.13-0.4-0.4v-3.76l-3.97-7.53c-0.05-0.08-0.05-0.17-0.02-0.26
					c0.04-0.09,0.14-0.14,0.33-0.14h2.68c0.23,0,0.38,0.04,0.45,0.1c0.07,0.07,0.14,0.19,0.21,0.35l0.91,2.11l0.92,2.31
					C303.67,49.95,303.76,49.95,303.76,49.95z"/>
			</g>
		</g>
	</g>
</g>
</svg>
