<?xml version="1.0" encoding="utf-8"?>
<!-- Generator: Adobe Illustrator 26.0.0, SVG Export Plug-In . SVG Version: 6.00 Build 0)  -->
<svg version="1.1" id="Capa_1" xmlns="http://www.w3.org/2000/svg" xmlns:xlink="http://www.w3.org/1999/xlink" x="0px" y="0px"
	 viewBox="0 0 334 106" style="enable-background:new 0 0 334 106;" xml:space="preserve">
<style type="text/css">
	.st0{fill:#DE0B1B;}
	.st1{fill:#005BA4;}
	.st2{fill:url(#SVGID_1_);}
	.st3{filter:url(#Adobe_OpacityMaskFilter);}
	.st4{fill:url(#SVGID_00000114041869751504938800000015488037128878531480_);}
	
		.st5{mask:url(#SVGID_00000116927393545967378170000000436942287429303689_);fill:url(#SVGID_00000183936549343871632160000007913595381734962354_);}
	.st6{filter:url(#Adobe_OpacityMaskFilter_00000007414915013296905570000010025233193822935172_);}
	.st7{fill:url(#SVGID_00000173159065460317111540000000662470239013449389_);}
	
		.st8{mask:url(#SVGID_00000024706305141256240520000017489637053613607352_);fill:url(#SVGID_00000090986649056791949740000008897058739543240101_);}
	.st9{filter:url(#Adobe_OpacityMaskFilter_00000119800650620306776050000016259121527203175301_);}
	.st10{fill:url(#SVGID_00000103243339460348586570000014909310644603204287_);}
	
		.st11{mask:url(#SVGID_00000070804857024487518480000004447027353793348764_);fill:url(#SVGID_00000176032331505196474690000009741731293505099178_);}
	.st12{fill-rule:evenodd;clip-rule:evenodd;fill:url(#SVGID_00000165235896936735344690000008660180819867082369_);}
	.st13{fill-rule:evenodd;clip-rule:evenodd;fill:url(#SVGID_00000008838714302415398750000006658355399771921058_);}
	.st14{fill-rule:evenodd;clip-rule:evenodd;fill:url(#SVGID_00000134241294764665195220000010976072636875746973_);}
	.st15{fill-rule:evenodd;clip-rule:evenodd;fill:url(#SVGID_00000101063424547930380680000011735838582533605786_);}
	.st16{fill-rule:evenodd;clip-rule:evenodd;fill:url(#SVGID_00000008151289250904903420000017435763915411466647_);}
</style>
<g>
	<g>
		<g>
			<path class="st0" d="M153.24,42.19c0-0.59-0.2-1.08-0.63-1.52c-0.44-0.44-0.96-0.67-1.6-0.69c-0.5,0.03-1.01,0.28-1.45,0.73
				c-0.45,0.44-0.67,0.94-0.67,1.53l0.01,6.06h-0.02v5.85c-0.02,0.78-0.11,1.53-0.43,2.23c-0.46,1.04-0.96,1.96-1.74,2.75
				c-0.79,0.78-1.59,1.41-2.65,1.86c-1.05,0.46-2.08,0.67-3.24,0.67c-1.15,0-2.11-0.22-3.16-0.67c-1.06-0.46-1.87-1.09-2.65-1.86
				c-0.79-0.79-1.29-1.72-1.74-2.75c-0.47-1.04-0.59-2.19-0.59-3.39V42.24c0-0.59-0.22-1.09-0.67-1.53
				c-0.44-0.45-0.95-0.7-1.46-0.73c-0.64,0.03-1.16,0.26-1.59,0.69c-0.43,0.44-0.64,0.93-0.64,1.52v11.24c0,1.7,0.26,3.35,0.97,4.9
				s1.55,2.92,2.72,4.07c1.18,1.15,2.45,2.06,4.02,2.72c1.4,0.59,2.76,0.89,4.29,0.89c0.15,0,0.15,0,0.29-0.01
				c0.23,0.01,0.65,0.01,0.8,0.01c1.53,0,2.88-0.31,4.29-0.89c1.16-0.5,2.23-1.12,3.18-1.89v0.46h0.01c0,0.04-0.01,0.09-0.01,0.13
				c0,1.21,0.98,2.19,2.19,2.19s2.19-0.98,2.19-2.19c0-0.04-0.01-0.09-0.02-0.13h0.02v-15.4h-0.01v-6.09H153.24z"/>
			<path class="st0" d="M184.72,42.51c-0.82-0.79-1.8-1.42-2.88-1.88c-1.08-0.45-2.2-0.68-3.37-0.68c-2.02,0-4.15,0.89-6.34,2.63
				l-0.36,0.33l-0.41-0.35c-1.05-0.93-2.11-1.6-3.16-2c-1.05-0.41-2.08-0.61-3.11-0.61c-1.24,0-2.41,0.24-3.49,0.71
				c-1.09,0.48-2.01,1.12-2.8,1.92c-0.79,0.81-1.42,1.76-1.89,2.83c-0.46,1.06-0.7,2.17-0.7,3.33v15.31
				c-0.05,0.55,0.13,0.99,0.56,1.36c0.49,0.42,1.01,0.62,1.61,0.62c0.5,0,0.96-0.19,1.36-0.57c0.41-0.38,0.63-0.79,0.73-1.25V48.93
				c0.04-1.36,0.52-2.49,1.43-3.34c0.91-0.86,1.97-1.3,3.19-1.3c1.14,0,2.15,0.42,3.08,1.25c0.94,0.84,1.43,1.97,1.47,3.35v15.24
				c0,0.5,0.2,0.92,0.62,1.29c0.45,0.39,0.93,0.58,1.49,0.58c0.61,0,1.09-0.21,1.52-0.63c0.42-0.44,0.63-0.93,0.63-1.52V48.9
				c0-1.5,0.49-2.66,1.46-3.46c0.94-0.76,1.98-1.15,3.11-1.15c1.34,0,2.43,0.46,3.31,1.37c0.86,0.9,1.3,1.99,1.3,3.24v14.96
				c0,0.59,0.2,1.09,0.63,1.52c0.42,0.43,0.91,0.63,1.49,0.63c0.59,0,1.1-0.2,1.57-0.62c0.44-0.37,0.65-0.79,0.65-1.25V48.74
				c0-1.22-0.24-2.37-0.71-3.44C186.21,44.24,185.54,43.28,184.72,42.51z"/>
			<path class="st0" d="M213.11,44.18l-0.43-0.41c-1.33-1.26-2.81-2.22-4.4-2.87c-1.6-0.63-3.25-0.96-4.93-0.96
				c-1,0-2.21,0.17-3.61,0.49c-1.36,0.32-2.74,0.95-4.1,1.88l-0.95,0.65v-9.48c0-0.29-0.06-0.55-0.18-0.82
				c-0.12-0.28-0.29-0.54-0.49-0.77c-0.19-0.22-0.4-0.37-0.66-0.49c-0.2-0.09-0.38-0.13-0.57-0.13c-0.05,0-0.08,0-0.2,0.01h-0.35
				c-0.43,0-0.84,0.2-1.25,0.6c-0.45,0.42-0.67,0.86-0.67,1.33l-0.02,19.76c0,1.74,0.36,3.42,1.07,4.98
				c0.71,1.58,1.71,2.97,2.93,4.14c1.21,1.18,2.63,2.13,4.18,2.84c1.55,0.69,3.2,1.04,4.9,1.04c1.75,0,3.43-0.34,5-1.02
				s2.97-1.62,4.14-2.8s2.12-2.57,2.82-4.15c0.7-1.56,1.05-3.26,1.05-5.04c0-1.94-0.32-3.65-0.93-5.11
				C214.94,46.57,214.14,45.33,213.11,44.18z M211.43,56.35c-0.47,1.04-1.1,1.96-1.88,2.73c-0.78,0.78-1.71,1.42-2.78,1.88
				c-1.06,0.46-2.2,0.7-3.37,0.7s-2.29-0.24-3.33-0.7c-1.04-0.45-1.97-1.09-2.77-1.87c-0.81-0.78-1.45-1.71-1.91-2.74
				c-0.46-1.05-0.69-2.2-0.69-3.4c0-1.09,0.23-2.18,0.69-3.23c0.46-1.04,1.11-1.98,1.9-2.79c0.8-0.82,1.73-1.48,2.77-1.96
				c1.05-0.49,2.18-0.73,3.35-0.73c1.17,0,2.31,0.24,3.37,0.7c1.06,0.46,2,1.09,2.78,1.87c0.79,0.78,1.41,1.72,1.88,2.78
				c0.46,1.06,0.7,2.2,0.7,3.36C212.13,54.15,211.89,55.31,211.43,56.35z"/>
			<path class="st0" d="M234.37,42.11c-0.1-0.53-0.36-1-0.79-1.46c-0.41-0.44-0.88-0.68-1.39-0.71c-1.75,0.07-3.44,0.45-4.99,1.1
				c-1.56,0.67-2.95,1.58-4.12,2.69c-1.18,1.13-2.13,2.46-2.83,3.95c-0.69,1.5-1.06,3.13-1.09,4.87l0.01,11.47
				c0.09,0.61,0.34,1.11,0.75,1.54c0.39,0.4,0.85,0.6,1.39,0.6c0.59,0,1.07-0.18,1.46-0.56c0.41-0.38,0.64-0.82,0.75-1.32V52.96
				c0-1.25,0.24-2.4,0.69-3.46c0.46-1.03,1.09-1.95,1.87-2.74c0.79-0.78,1.71-1.4,2.76-1.84c1.04-0.45,2.15-0.67,3.3-0.67
				c0.6-0.03,1.09-0.26,1.51-0.69C234.05,43.14,234.29,42.67,234.37,42.11z"/>
			<path class="st0" d="M277.66,42.14c-0.11-0.53-0.36-1-0.79-1.45c-0.41-0.44-0.88-0.68-1.39-0.7c-1.75,0.07-3.44,0.43-5,1.1
				c-1.56,0.66-2.95,1.57-4.12,2.69c-1.17,1.12-2.12,2.45-2.82,3.95c-0.69,1.5-1.06,3.13-1.1,4.87v11.45
				c0.1,0.61,0.36,1.11,0.76,1.54c0.39,0.4,0.85,0.6,1.39,0.6c0.6,0,1.07-0.18,1.47-0.56c0.4-0.39,0.65-0.82,0.74-1.32V52.99
				c0-1.24,0.24-2.4,0.7-3.45c0.46-1.04,1.09-1.96,1.87-2.75c0.79-0.77,1.71-1.4,2.75-1.84c1.04-0.44,2.15-0.67,3.3-0.67
				c0.59-0.04,1.09-0.26,1.51-0.68C277.34,43.17,277.59,42.69,277.66,42.14z"/>
			<path class="st0" d="M299.33,44.28c-1.01-1.15-2.25-2.13-3.66-2.87c-1.41-0.75-2.94-1.22-4.54-1.4
				c-0.27-0.03-0.51-0.05-0.71-0.05h-0.78c-2.68,0-5.1,0.73-7.21,2.15c-2.11,1.43-3.7,3.33-4.74,5.65
				c-0.36,0.82-0.64,1.68-0.83,2.54s-0.29,1.76-0.29,2.68c0,0.91,0.1,1.83,0.29,2.71c0.2,0.87,0.48,1.71,0.83,2.49
				c1.04,2.29,2.63,4.18,4.74,5.63c2.1,1.44,4.52,2.18,7.2,2.18c1.02,0,2-0.09,2.85-0.25c0.49-0.15,0.95-0.3,1.39-0.45
				c0.42-0.14,0.84-0.31,1.22-0.47c0.22-0.11,0.57-0.3,1.06-0.55c0.5-0.27,0.86-0.45,1.07-0.54l0.77-0.38l0.06,0.91
				c0.02,0.4,0.13,0.7,0.29,0.9c0.19,0.24,0.41,0.43,0.64,0.56s0.46,0.21,0.7,0.23c0.29,0.04,0.56,0.05,0.81,0.05
				c0.55,0,1.04-0.22,1.49-0.64c0.44-0.43,0.66-0.92,0.66-1.5V52.99c0-1.64-0.29-3.22-0.88-4.7
				C301.16,46.79,300.35,45.46,299.33,44.28z M297.59,56.43c-0.47,1.04-1.09,1.96-1.87,2.75c-0.79,0.79-1.73,1.41-2.79,1.84
				c-1.06,0.44-2.19,0.67-3.36,0.67c-1.09,0-2.17-0.23-3.2-0.7c-1.01-0.46-1.94-1.08-2.75-1.86c-0.82-0.79-1.48-1.71-1.96-2.75
				c-0.49-1.05-0.74-2.2-0.74-3.4c0-1.18,0.24-2.3,0.7-3.35c0.46-1.03,1.1-1.97,1.89-2.77c0.8-0.8,1.73-1.43,2.74-1.9
				c1.04-0.46,2.15-0.7,3.31-0.7c1.17,0,2.3,0.24,3.35,0.73c1.03,0.47,1.96,1.11,2.76,1.89s1.44,1.72,1.91,2.79
				c0.46,1.07,0.7,2.18,0.7,3.31C298.28,54.22,298.05,55.39,297.59,56.43z"/>
			<path class="st0" d="M327.03,55.5c-0.37-0.91-0.86-1.74-1.49-2.44c-0.63-0.68-1.38-1.24-2.24-1.65
				c-0.85-0.41-1.79-0.62-2.78-0.62h-6.92c-1.09,0-1.93-0.36-2.53-1.05c-0.56-0.68-0.84-1.35-0.84-2.21c0-0.9,0.29-1.68,0.86-2.32
				c0.58-0.65,1.43-0.99,2.51-0.99h9.81c0.51,0,0.97-0.21,1.41-0.63c0.43-0.43,0.63-0.93,0.63-1.51c0-0.49-0.2-0.96-0.61-1.43
				c-0.39-0.45-0.86-0.67-1.43-0.67h-10.13c-1.04,0.04-2.01,0.27-2.89,0.68c-0.88,0.42-1.66,0.98-2.32,1.67
				c-0.66,0.7-1.18,1.51-1.57,2.42c-0.38,0.89-0.57,1.83-0.57,2.8c0,1.05,0.18,1.95,0.55,2.89c0.36,0.94,0.87,1.76,1.51,2.45
				s1.39,1.24,2.23,1.63c0.83,0.4,1.74,0.59,2.7,0.59h6.75c1.04,0,1.88,0.26,2.5,0.77c0.65,0.53,0.98,1.36,0.98,2.49
				c0,1.04-0.33,1.86-0.95,2.45c-0.62,0.58-1.47,0.86-2.52,0.86h-9.5c-0.59,0.03-1.06,0.26-1.46,0.72
				c-0.41,0.47-0.61,0.98-0.61,1.54c0,0.59,0.18,1.1,0.55,1.51c0.36,0.39,0.79,0.58,1.38,0.58h9.65c1.16,0,2.22-0.19,3.18-0.58
				c0.96-0.38,1.8-0.92,2.51-1.59c0.7-0.66,1.25-1.48,1.63-2.4c0.38-0.93,0.57-1.98,0.57-3.1C327.58,57.39,327.39,56.42,327.03,55.5
				z"/>
			<path class="st0" d="M245.99,39.97c-7.18,0-13.01,5.83-13.01,13.01c0,5.06,2.89,9.44,7.11,11.59l0.01,0.03
				c0.12,0.06,0.27,0.11,0.4,0.17c0.23,0.1,0.46,0.21,0.69,0.3c0.2,0.08,0.4,0.15,0.61,0.23c0.24,0.08,0.49,0.15,0.73,0.21
				c0.21,0.06,0.42,0.12,0.63,0.17c0.27,0.06,0.53,0.1,0.81,0.14c0.2,0.04,0.4,0.08,0.6,0.09c0.36,0.04,0.75,0.05,1.12,0.07
				c0.1,0,0.2,0.02,0.3,0.02c1.05,0,2.07-0.13,3.04-0.36v-0.01c0.95-0.23,1.66-1.09,1.66-2.1c0-1.19-0.97-2.17-2.17-2.17
				c-0.17,0-0.34,0.02-0.5,0.06c-0.64,0.16-1.31,0.23-2.01,0.23c-0.01,0-0.01,0-0.02,0l0,0c-0.04,0-0.07,0-0.11,0
				c-0.3,0-0.59-0.03-0.88-0.06c-0.08-0.01-0.17-0.02-0.26-0.03c-0.3-0.05-0.59-0.1-0.87-0.18c-0.1-0.02-0.2-0.04-0.3-0.07
				c-0.27-0.08-0.54-0.17-0.81-0.27c-0.09-0.04-0.19-0.09-0.28-0.13c-0.21-0.09-0.41-0.19-0.61-0.3c-1.74-0.94-3.12-2.45-3.88-4.29
				c-0.66-1.28,0.09-1.17,0.09-1.17h17.93c0,0,1.24-0.04,2.28-1.24c0.65-0.73,0.66-2.13,0.64-2.32
				C258.24,45.07,252.71,39.97,245.99,39.97z M253.44,50.82h-15.16c0,0-0.71-0.11-0.23-1.31c1.25-3.1,4.38-5.21,7.94-5.21
				c3.53,0,6.55,2.1,7.91,5.12C254.69,50.82,253.44,50.82,253.44,50.82z"/>
			<path class="st0" d="M125.99,61.67h-1.17h-6c-2.92,0-3.76-1.18-3.75-3.74V33.46l0,0c0-0.01,0-0.01,0-0.02
				c0-1.2-0.97-2.17-2.17-2.17c-1.2,0-2.17,0.97-2.17,2.17c0,0,0,0.01,0,0.02l0,0v24.47c0,4.92,2.4,7.66,6.99,8.03l0.05,0.06h8.21
				c0.57,0,1.05-0.21,1.47-0.64c0.43-0.44,0.63-0.9,0.63-1.55c0-0.57-0.2-1.07-0.63-1.51C127.04,61.89,126.56,61.67,125.99,61.67z"
				/>
		</g>
		<g>
			<path class="st1" d="M327.28,89.74c-0.23-0.58-0.54-1.1-0.93-1.53c-0.4-0.44-0.87-0.79-1.41-1.05s-1.14-0.39-1.77-0.39h-4.21
				c-0.61,0-1.07-0.2-1.4-0.59c-0.33-0.4-0.47-0.77-0.47-1.23c0-0.5,0.16-0.94,0.47-1.29c0.32-0.37,0.79-0.55,1.4-0.55h5.96
				c0.36,0,0.68-0.14,0.98-0.44c0.29-0.3,0.43-0.64,0.43-1.04c0-0.34-0.14-0.66-0.41-0.98c-0.27-0.31-0.6-0.46-1-0.46h-6.16
				c-0.65,0.02-1.26,0.17-1.82,0.42c-0.56,0.27-1.05,0.62-1.47,1.05c-0.41,0.44-0.74,0.96-0.98,1.52c-0.23,0.56-0.35,1.16-0.35,1.77
				c0,0.64,0.11,1.21,0.34,1.82c0.22,0.58,0.54,1.11,0.95,1.54c0.4,0.44,0.87,0.78,1.41,1.04c0.53,0.24,1.1,0.36,1.71,0.36h4.1
				c0.6,0,1.07,0.15,1.41,0.43c0.35,0.29,0.53,0.75,0.53,1.38c0,0.58-0.17,1.04-0.52,1.36c-0.34,0.31-0.82,0.48-1.42,0.48h-5.78
				c-0.41,0.02-0.74,0.18-1.01,0.49c-0.28,0.32-0.42,0.67-0.42,1.05c0,0.41,0.12,0.74,0.38,1.03c0.25,0.28,0.57,0.41,0.96,0.41h5.87
				c0.73,0,1.4-0.13,2-0.36s1.13-0.58,1.58-1s0.79-0.93,1.03-1.51c0.24-0.59,0.36-1.24,0.36-1.95
				C327.62,90.92,327.5,90.31,327.28,89.74z"/>
			<path class="st1" d="M304.9,80.15c-4.47,0-8.1,3.64-8.1,8.11c0,3.04,1.67,5.79,4.37,7.18l0.01,0.01l0.05,0.04
				c0.05,0.03,0.26,0.11,0.26,0.11c0.13,0.07,0.28,0.13,0.42,0.18c0.13,0.05,0.25,0.1,0.38,0.14c0.15,0.05,0.3,0.1,0.47,0.14
				c0.13,0.04,0.25,0.07,0.38,0.09c0.16,0.04,0.33,0.06,0.5,0.09l0.11,0.01c0.09,0.02,0.18,0.03,0.26,0.04
				c0.23,0.02,0.46,0.03,0.77,0.05c0.03,0,0.11,0,0.11,0c0.64,0,1.28-0.08,1.89-0.23l0.15-0.04v-0.01c0.59-0.2,0.99-0.77,0.99-1.4
				c0-0.82-0.67-1.49-1.5-1.49c-0.11,0-0.22,0.01-0.34,0.04c-0.39,0.09-0.79,0.14-1.18,0.14h-0.09c-0.18,0-0.35-0.01-0.58-0.04
				l-0.09-0.01c-0.18-0.02-0.35-0.06-0.51-0.1l-0.18-0.05c-0.16-0.05-0.32-0.1-0.48-0.17l-0.16-0.07c-0.13-0.05-0.25-0.12-0.36-0.18
				c-1.03-0.56-1.84-1.45-2.3-2.54c-0.18-0.35-0.14-0.46-0.1-0.46h10.94c0.04,0,0.85-0.04,1.52-0.81c0.44-0.51,0.45-1.4,0.43-1.55
				C312.52,83.27,309.06,80.15,304.9,80.15z M309.69,86.65c-0.05,0.09-0.2,0.11-0.25,0.11h-9.21c0,0-0.04-0.01-0.07-0.07
				c-0.02-0.04-0.07-0.18,0.06-0.49c0.74-1.84,2.62-3.06,4.68-3.06c2.01,0,3.84,1.18,4.68,3.04
				C309.7,86.39,309.75,86.57,309.69,86.65z"/>
			<path class="st1" d="M230.58,77.94c0.44,0,0.82-0.15,1.13-0.46c0.32-0.31,0.47-0.68,0.47-1.14c0-0.42-0.15-0.79-0.47-1.12
				s-0.69-0.49-1.13-0.49h-9.81c-0.47,0-0.84,0.16-1.14,0.49c-0.29,0.33-0.44,0.69-0.44,1.13v18.38c0,0.47,0.15,0.84,0.47,1.15
				c0.31,0.31,0.68,0.45,1.11,0.45h9.81c0.44,0,0.82-0.15,1.13-0.45c0.32-0.31,0.47-0.7,0.47-1.15c0-0.41-0.16-0.78-0.47-1.09
				c-0.32-0.32-0.69-0.47-1.13-0.47h-8.28v-6.75h5.59c0.42,0,0.77-0.15,1.09-0.46c0.32-0.3,0.47-0.67,0.47-1.11
				s-0.16-0.82-0.47-1.13c-0.32-0.32-0.68-0.48-1.09-0.48h-5.59v-5.29L230.58,77.94L230.58,77.94z"/>
			<path class="st1" d="M253.88,74.68c-0.46,0-0.87,0.16-1.18,0.49c-0.33,0.33-0.49,0.71-0.49,1.15c0,0.47,0.16,0.85,0.49,1.18
				c0.32,0.32,0.72,0.49,1.18,0.49c0.44,0,0.81-0.16,1.13-0.49c0.32-0.33,0.47-0.71,0.47-1.18c0-0.44-0.16-0.82-0.47-1.15
				C254.69,74.84,254.32,74.68,253.88,74.68z"/>
			<path class="st1" d="M253.88,80.2c-0.46,0-0.87,0.16-1.19,0.47c-0.33,0.32-0.49,0.7-0.49,1.16v12.82c0,0.49,0.16,0.88,0.49,1.2
				c0.32,0.32,0.72,0.48,1.19,0.48c0.42,0,0.79-0.16,1.12-0.48s0.49-0.71,0.49-1.2V81.84c0-0.46-0.16-0.84-0.49-1.16
				C254.67,80.36,254.29,80.2,253.88,80.2z"/>
			<path class="st1" d="M283.91,82.59c-0.73-0.73-1.59-1.32-2.56-1.76c-0.96-0.43-2-0.65-3.08-0.65c-1.14,0.04-2.21,0.29-3.2,0.72
				s-1.86,1.01-2.6,1.74c-0.73,0.72-1.31,1.58-1.72,2.54c-0.41,0.96-0.62,2.01-0.62,3.12c0,1.16,0.21,2.23,0.63,3.21
				c0.43,0.98,1.01,1.83,1.74,2.55c0.75,0.72,1.61,1.3,2.58,1.69c0.98,0.41,2.03,0.61,3.14,0.61c1.13,0,2.2-0.22,3.17-0.64
				c0.98-0.42,1.84-1,2.56-1.73c0.72-0.74,1.3-1.6,1.72-2.56c0.41-0.96,0.63-2.01,0.63-3.13c0-1.11-0.22-2.17-0.65-3.14
				C285.24,84.19,284.65,83.32,283.91,82.59z M282.85,90.24c-0.27,0.62-0.64,1.16-1.08,1.63c-0.45,0.46-1,0.82-1.6,1.09
				c-0.61,0.27-1.26,0.4-1.93,0.4s-1.32-0.13-1.94-0.4c-0.61-0.27-1.15-0.63-1.6-1.09c-0.44-0.47-0.81-1.01-1.08-1.63
				c-0.27-0.61-0.41-1.26-0.41-1.93c0-0.71,0.14-1.39,0.41-1.98c0.27-0.61,0.63-1.14,1.08-1.59s0.99-0.8,1.6-1.07
				c0.61-0.24,1.27-0.38,1.94-0.38h0.04c1.44,0.09,2.62,0.62,3.52,1.55c0.9,0.94,1.39,2.1,1.46,3.47
				C283.25,88.99,283.11,89.63,282.85,90.24z"/>
			<path class="st1" d="M297.57,81.74c-0.06-0.37-0.18-0.81-0.48-1.13c-0.29-0.32-0.7-0.41-1.1-0.43c-1.08,0.04-2.13,0.28-3.09,0.68
				c-0.97,0.42-1.83,0.98-2.56,1.68c-0.74,0.7-1.33,1.53-1.76,2.46s-0.67,1.95-0.68,3.04v6.8c0.07,0.43,0.24,0.79,0.53,1.09
				c0.28,0.29,0.61,0.44,1.01,0.44c0.42,0,0.77-0.14,1.05-0.41c0.28-0.27,0.46-0.59,0.52-0.93v-6.76c0-0.71,0.14-1.38,0.4-1.98
				c0.27-0.61,0.63-1.13,1.08-1.58c0.45-0.45,0.99-0.82,1.59-1.07s1.25-0.38,1.91-0.38l0,0c0.42-0.03,0.77-0.18,1.07-0.49
				C297.36,82.46,297.53,82.11,297.57,81.74z"/>
			<path class="st1" d="M247.86,74.68c-0.86,0-1.55,0.7-1.55,1.55c0,0.01,0,0.01,0,0.01v5.57l-0.2-0.14
				c-0.84-0.57-1.7-0.96-2.55-1.17c-0.86-0.2-1.61-0.3-2.23-0.3c-1.05,0-2.08,0.2-3.06,0.6c-0.99,0.4-1.9,1-2.73,1.77l-0.13,0.1
				c-0.71,0.76-1.26,1.58-1.63,2.43c-0.38,0.91-0.58,1.97-0.58,3.18c0,1.11,0.22,2.17,0.65,3.14c0.43,0.98,1.02,1.84,1.76,2.58
				c0.73,0.73,1.59,1.32,2.57,1.75c0.97,0.41,2.02,0.63,3.1,0.63c1.07,0,2.1-0.22,3.06-0.66c0.71-0.32,1.36-0.72,1.96-1.2v0.27v0.01
				c0,0.86,0.7,1.56,1.55,1.56c0.86,0,1.56-0.7,1.56-1.55v-6.52V76.24C249.42,75.38,248.72,74.68,247.86,74.68z M245.91,90.24
				c-0.27,0.6-0.64,1.14-1.1,1.59s-1,0.81-1.6,1.08c-0.6,0.27-1.25,0.41-1.92,0.41s-1.32-0.14-1.93-0.41
				c-0.61-0.27-1.15-0.63-1.6-1.09c-0.45-0.45-0.81-0.98-1.08-1.59c-0.26-0.59-0.4-1.25-0.4-1.95c0-0.67,0.13-1.33,0.4-1.94
				s0.63-1.15,1.08-1.6s0.99-0.81,1.6-1.08c0.61-0.26,1.27-0.4,1.93-0.4c0.68,0,1.32,0.14,1.92,0.42c0.6,0.28,1.14,0.66,1.61,1.13
				c0.46,0.48,0.83,1.02,1.09,1.62c0.27,0.61,0.4,1.23,0.4,1.86C246.31,88.99,246.17,89.64,245.91,90.24z"/>
			<path class="st1" d="M269.57,95.15L269.57,95.15c0.05-0.16,0.09-0.32,0.09-0.47c0-0.62-0.38-1.15-0.92-1.36
				c-0.18-0.08-0.37-0.12-0.59-0.12c-0.1,0-0.22,0.01-0.34,0.04c-0.39,0.09-0.78,0.14-1.17,0.14h-0.1c-0.17,0-0.34-0.01-0.58-0.04
				l-0.09-0.01c-0.17-0.02-0.34-0.06-0.51-0.1l-0.17-0.05c-0.16-0.05-0.33-0.1-0.48-0.17l-0.16-0.07c-0.03-0.01-0.04-0.02-0.07-0.03
				V92.9c-0.61-0.28-1.17-0.76-1.63-1.22c-0.45-0.46-0.8-1.01-1.06-1.62s-0.28-1.31-0.28-1.98v-4.94h6.04v-0.01
				c0.02,0.01,0.05,0.01,0.07,0.01c0.8,0,1.45-0.65,1.45-1.45s-0.65-1.46-1.45-1.46c-0.02,0-0.05,0.01-0.07,0.01v-0.01h-6.04v-3.88
				c0-0.04,0-0.06,0-0.09c0-0.86-0.71-1.58-1.58-1.58c-0.86,0-1.56,0.69-1.58,1.55l0,0v11.84c0.02,1.24,0.27,2.38,0.73,3.39
				s1.04,1.89,1.81,2.61s1.7,1.34,2.73,1.72l0,0c0.13,0.06,0.25,0.1,0.38,0.14c0.15,0.05,0.3,0.1,0.47,0.14
				c0.13,0.04,0.25,0.07,0.38,0.09c0.16,0.04,0.33,0.06,0.5,0.09l0.11,0.01c0.08,0.02,0.17,0.03,0.26,0.04
				c0.23,0.02,0.47,0.03,0.77,0.05c0.04,0,0.11,0,0.11,0c0.65,0,1.27-0.08,1.9-0.23l0.15-0.04v-0.01c0.19-0.07,0.35-0.18,0.5-0.31
				c0.05-0.06,0.11-0.1,0.15-0.16c0.03-0.03,0.06-0.06,0.09-0.1C269.47,95.42,269.52,95.28,269.57,95.15z"/>
		</g>
		<g>
			<g>
				<g>
					
						<radialGradient id="SVGID_1_" cx="-34.7216" cy="-3.1829" r="43.615" gradientTransform="matrix(1 0 0 -1 84.7217 49.8171)" gradientUnits="userSpaceOnUse">
						<stop  offset="0" style="stop-color:#FFE181"/>
						<stop  offset="0.1819" style="stop-color:#FEDB68"/>
						<stop  offset="0.5652" style="stop-color:#FCCB2A"/>
						<stop  offset="0.8034" style="stop-color:#FAC100"/>
						<stop  offset="0.8698" style="stop-color:#FABF05"/>
						<stop  offset="0.9466" style="stop-color:#F8B913"/>
						<stop  offset="1" style="stop-color:#F7B321"/>
					</radialGradient>
					<path class="st2" d="M93.62,53c0,24.09-19.53,43.61-43.61,43.61C25.92,96.61,6.39,77.09,6.39,53
						c0-24.08,19.53-43.62,43.62-43.62C74.09,9.38,93.62,28.92,93.62,53z"/>
					<defs>
						<filter id="Adobe_OpacityMaskFilter" filterUnits="userSpaceOnUse" x="7.89" y="10.5" width="84.19" height="83.64">
							<feColorMatrix  type="matrix" values="1 0 0 0 0  0 1 0 0 0  0 0 1 0 0  0 0 0 1 0"/>
						</filter>
					</defs>
					
						<mask maskUnits="userSpaceOnUse" x="7.89" y="10.5" width="84.19" height="83.64" id="SVGID_00000116927393545967378170000000436942287429303689_">
						<g class="st3">
							
								<linearGradient id="SVGID_00000041271950180648824890000016375134711011177906_" gradientUnits="userSpaceOnUse" x1="-7.3805" y1="-41.8388" x2="-41.476" y2="3.6221" gradientTransform="matrix(1 0 0 -1 84.7217 49.8171)">
								<stop  offset="0.073" style="stop-color:#FFFFFF"/>
								<stop  offset="0.1096" style="stop-color:#E7E7E7"/>
								<stop  offset="0.2638" style="stop-color:#858585"/>
								<stop  offset="0.3886" style="stop-color:#3E3E3E"/>
								<stop  offset="0.4776" style="stop-color:#111111"/>
								<stop  offset="0.5225" style="stop-color:#000000"/>
							</linearGradient>
							<path style="fill:url(#SVGID_00000041271950180648824890000016375134711011177906_);" d="M98.45,63.67
								c0,23.11-18.85,41.82-42.1,41.82S14.26,86.76,14.26,63.66S33.1,21.83,56.35,21.83C79.59,21.83,98.45,40.57,98.45,63.67z"/>
						</g>
					</mask>
					
						<radialGradient id="SVGID_00000112629027548208478770000012197314810001988996_" cx="-91.9687" cy="-24.5936" r="79.449" gradientTransform="matrix(0.9904 0 0 -0.984 119.1822 -1.6184)" gradientUnits="userSpaceOnUse">
						<stop  offset="0" style="stop-color:#FFFFFF"/>
						<stop  offset="0.5394" style="stop-color:#EB800A"/>
						<stop  offset="0.9515" style="stop-color:#EE9200"/>
					</radialGradient>
					
						<path style="mask:url(#SVGID_00000116927393545967378170000000436942287429303689_);fill:url(#SVGID_00000112629027548208478770000012197314810001988996_);" d="
						M92.08,52.33c0,23.09-18.83,41.81-42.09,41.81c-23.24,0-42.1-18.72-42.1-41.81c0-23.11,18.85-41.83,42.1-41.83
						C73.25,10.49,92.08,29.22,92.08,52.33z"/>
					<defs>
						
							<filter id="Adobe_OpacityMaskFilter_00000176764793697069913100000005584816532343632521_" filterUnits="userSpaceOnUse" x="15.86" y="11.38" width="68.19" height="51">
							<feColorMatrix  type="matrix" values="1 0 0 0 0  0 1 0 0 0  0 0 1 0 0  0 0 0 1 0"/>
						</filter>
					</defs>
					
						<mask maskUnits="userSpaceOnUse" x="15.86" y="11.38" width="68.19" height="51" id="SVGID_00000024706305141256240520000017489637053613607352_">
						<g style="filter:url(#Adobe_OpacityMaskFilter_00000176764793697069913100000005584816532343632521_);">
							
								<linearGradient id="SVGID_00000005947146508575271450000000693590829243509421_" gradientUnits="userSpaceOnUse" x1="2101.2585" y1="4922.437" x2="2160.5276" y2="4922.437" gradientTransform="matrix(-0.0343 0.9661 1.2931 0.0459 -6241.7837 -2246.9907)">
								<stop  offset="0.0788" style="stop-color:#FFFFFF"/>
								<stop  offset="0.1273" style="stop-color:#E2E2E2"/>
								<stop  offset="0.2363" style="stop-color:#A7A7A7"/>
								<stop  offset="0.3451" style="stop-color:#747474"/>
								<stop  offset="0.4511" style="stop-color:#4A4A4A"/>
								<stop  offset="0.5537" style="stop-color:#2A2A2A"/>
								<stop  offset="0.6521" style="stop-color:#131313"/>
								<stop  offset="0.7443" style="stop-color:#050505"/>
								<stop  offset="0.8242" style="stop-color:#000000"/>
							</linearGradient>
							<path style="fill:url(#SVGID_00000005947146508575271450000000693590829243509421_);" d="M49.32,66.24
								c-21.16-0.75-37.87-14.18-37.3-29.99C12.58,20.44,30.19,8.23,51.34,8.98c21.16,0.74,37.86,14.17,37.3,29.99
								C88.09,54.76,70.48,66.99,49.32,66.24z"/>
						</g>
					</mask>
					
						<linearGradient id="SVGID_00000102523615210860877970000002491398763784223120_" gradientUnits="userSpaceOnUse" x1="2103.7886" y1="4922.1313" x2="2156.5154" y2="4922.1313" gradientTransform="matrix(-0.0343 0.9661 1.2931 0.0459 -6241.7837 -2246.9907)">
						<stop  offset="0.903" style="stop-color:#FFF7EA"/>
						<stop  offset="1" style="stop-color:#F0BB1E"/>
					</linearGradient>
					
						<path style="mask:url(#SVGID_00000024706305141256240520000017489637053613607352_);fill:url(#SVGID_00000102523615210860877970000002491398763784223120_);" d="
						M49.07,62.35c-18.83-0.67-33.69-12.61-33.19-26.68S32.03,10.73,50.86,11.4C69.7,12.07,84.54,24,84.05,38.1
						C83.55,52.17,67.89,63,49.07,62.35z"/>
				</g>
			</g>
			<defs>
				
					<filter id="Adobe_OpacityMaskFilter_00000096741415934658822050000014622787106471056024_" filterUnits="userSpaceOnUse" x="8.09" y="10.25" width="83.73" height="84.15">
					<feColorMatrix  type="matrix" values="1 0 0 0 0  0 1 0 0 0  0 0 1 0 0  0 0 0 1 0"/>
				</filter>
			</defs>
			
				<mask maskUnits="userSpaceOnUse" x="8.09" y="10.25" width="83.73" height="84.15" id="SVGID_00000070804857024487518480000004447027353793348764_">
				<g style="filter:url(#Adobe_OpacityMaskFilter_00000096741415934658822050000014622787106471056024_);">
					
						<linearGradient id="SVGID_00000062871673033721274750000007744224054439049128_" gradientUnits="userSpaceOnUse" x1="-871.7991" y1="-2733.7297" x2="-905.8968" y2="-2688.2659" gradientTransform="matrix(0.3371 0.9415 0.9415 -0.3371 2889.8376 -9.4002)">
						<stop  offset="0.073" style="stop-color:#FFFFFF"/>
						<stop  offset="0.1096" style="stop-color:#E7E7E7"/>
						<stop  offset="0.2638" style="stop-color:#858585"/>
						<stop  offset="0.3886" style="stop-color:#3E3E3E"/>
						<stop  offset="0.4776" style="stop-color:#111111"/>
						<stop  offset="0.5225" style="stop-color:#000000"/>
					</linearGradient>
					<path style="fill:url(#SVGID_00000062871673033721274750000007744224054439049128_);" d="M55.63,101.76
						c-21.76,7.79-45.74-3.64-53.58-25.53C-5.78,54.35,5.5,30.3,27.24,22.5c21.75-7.77,45.73,3.65,53.56,25.54
						C88.65,69.92,77.36,93.99,55.63,101.76z"/>
				</g>
			</mask>
			
				<radialGradient id="SVGID_00000018952208454156117340000009742959082138825902_" cx="-964.2404" cy="-2760.4468" r="79.4548" gradientTransform="matrix(0.3338 0.9324 0.9264 -0.3317 2949.7224 5.1125)" gradientUnits="userSpaceOnUse">
				<stop  offset="0.0485" style="stop-color:#FFFFFF"/>
				<stop  offset="0.5394" style="stop-color:#EB800A"/>
				<stop  offset="0.7247" style="stop-color:#EE9401"/>
				<stop  offset="0.7643" style="stop-color:#EE9605"/>
				<stop  offset="0.8073" style="stop-color:#EF9D12"/>
				<stop  offset="0.8519" style="stop-color:#F1A728"/>
				<stop  offset="0.8976" style="stop-color:#F4B647"/>
				<stop  offset="0.9442" style="stop-color:#F7CA6E"/>
				<stop  offset="0.9908" style="stop-color:#FBE19D"/>
				<stop  offset="1" style="stop-color:#FCE6A7"/>
			</radialGradient>
			
				<path style="mask:url(#SVGID_00000070804857024487518480000004447027353793348764_);fill:url(#SVGID_00000018952208454156117340000009742959082138825902_);" d="
				M64.15,91.95c-21.75,7.79-45.72-3.64-53.56-25.53c-7.84-21.88,3.45-45.94,25.19-53.73c21.75-7.79,45.73,3.64,53.56,25.53
				C97.17,60.12,85.9,84.17,64.15,91.95z"/>
			<g>
				
					<linearGradient id="SVGID_00000034090503726624662490000005059894111302504345_" gradientUnits="userSpaceOnUse" x1="-47.8766" y1="2.2821" x2="-56.6166" y2="2.2821" gradientTransform="matrix(1 0 0 -1 84.7217 49.8171)">
					<stop  offset="0" style="stop-color:#DB0C1E"/>
					<stop  offset="0.2929" style="stop-color:#D90C1E"/>
					<stop  offset="0.4536" style="stop-color:#D10D1E"/>
					<stop  offset="0.5822" style="stop-color:#C30E1E"/>
					<stop  offset="0.6933" style="stop-color:#B0101E"/>
					<stop  offset="0.7273" style="stop-color:#A8111E"/>
				</linearGradient>
				<path style="fill-rule:evenodd;clip-rule:evenodd;fill:url(#SVGID_00000034090503726624662490000005059894111302504345_);" d="
					M36.85,33.38c0-2.41-1.96-4.36-4.37-4.36s-4.37,1.95-4.37,4.36v0.01l0,0v32.67c2.95-1.56,5.79-1.38,8.74,0l-0.02-32.62
					C36.83,33.42,36.85,33.39,36.85,33.38z"/>
				
					<linearGradient id="SVGID_00000080890936116061444420000012009594834397474990_" gradientUnits="userSpaceOnUse" x1="-33.5516" y1="-20.8379" x2="-33.5516" y2="-29.5679" gradientTransform="matrix(1 0 0 -1 84.7217 49.8171)">
					<stop  offset="0" style="stop-color:#DB0C1E"/>
					<stop  offset="0.2929" style="stop-color:#D90C1E"/>
					<stop  offset="0.4536" style="stop-color:#D10D1E"/>
					<stop  offset="0.5822" style="stop-color:#C30E1E"/>
					<stop  offset="0.6933" style="stop-color:#B0101E"/>
					<stop  offset="0.7273" style="stop-color:#A8111E"/>
				</linearGradient>
				<path style="fill-rule:evenodd;clip-rule:evenodd;fill:url(#SVGID_00000080890936116061444420000012009594834397474990_);" d="
					M69.87,70.67c-0.04,0-0.08,0.01-0.13,0.01v-0.02H28.11c1.63,2.96,1.47,5.78,0,8.72h41.6c0.06,0,0.11,0.01,0.16,0.01
					c2.42,0,4.37-1.95,4.37-4.35C74.24,72.62,72.29,70.67,69.87,70.67z"/>
				<g>
					
						<linearGradient id="SVGID_00000182491257305564454620000018113190909165024399_" gradientUnits="userSpaceOnUse" x1="-29.8165" y1="5.3121" x2="-29.8165" y2="-3.4079" gradientTransform="matrix(1 0 0 -1 84.7217 49.8171)">
						<stop  offset="0.2364" style="stop-color:#107FBD"/>
						<stop  offset="0.5879" style="stop-color:#005CA2"/>
						<stop  offset="0.9455" style="stop-color:#00478B"/>
					</linearGradient>
					<path style="fill-rule:evenodd;clip-rule:evenodd;fill:url(#SVGID_00000182491257305564454620000018113190909165024399_);" d="
						M45.67,44.51c-0.02,0-0.05-0.01-0.07-0.01c-2.4,0-4.36,1.95-4.36,4.37c0,2.41,1.95,4.35,4.36,4.35h22.98
						c-1.65-2.95-1.46-5.77,0-8.71H45.67z"/>
					
						<linearGradient id="SVGID_00000081625137183448758200000013238210191486689687_" gradientUnits="userSpaceOnUse" x1="-29.8166" y1="18.3921" x2="-29.8166" y2="9.6721" gradientTransform="matrix(1 0 0 -1 84.7217 49.8171)">
						<stop  offset="0.2364" style="stop-color:#107FBD"/>
						<stop  offset="0.5879" style="stop-color:#005CA2"/>
						<stop  offset="0.9455" style="stop-color:#00478B"/>
					</linearGradient>
					<path style="fill-rule:evenodd;clip-rule:evenodd;fill:url(#SVGID_00000081625137183448758200000013238210191486689687_);" d="
						M68.58,31.42H45.67c-0.02,0-0.05,0-0.07,0c-2.4,0-4.36,1.95-4.36,4.37c0,2.41,1.95,4.35,4.36,4.35h22.98
						C66.93,37.21,67.11,34.36,68.58,31.42z"/>
					
						<linearGradient id="SVGID_00000182522859261559231980000004157629437979034789_" gradientUnits="userSpaceOnUse" x1="-29.8165" y1="-7.7579" x2="-29.8165" y2="-16.4779" gradientTransform="matrix(1 0 0 -1 84.7217 49.8171)">
						<stop  offset="0.2364" style="stop-color:#107FBD"/>
						<stop  offset="0.5879" style="stop-color:#005CA2"/>
						<stop  offset="0.9455" style="stop-color:#00478B"/>
					</linearGradient>
					<path style="fill-rule:evenodd;clip-rule:evenodd;fill:url(#SVGID_00000182522859261559231980000004157629437979034789_);" d="
						M45.67,57.58c-0.02,0-0.05-0.01-0.07-0.01c-2.4,0-4.36,1.95-4.36,4.37c0,2.41,1.95,4.35,4.36,4.35h22.98
						c-1.65-2.94-1.46-5.79,0-8.72L45.67,57.58z"/>
				</g>
			</g>
		</g>
	</g>
</g>
</svg>
