<svg width="21" height="20" viewBox="0 0 21 20" fill="none" xmlns="http://www.w3.org/2000/svg">
<path fill-rule="evenodd" clip-rule="evenodd" d="M10.3394 2C5.92108 2 2.33936 5.58172 2.33936 10C2.33936 14.4183 5.92108 18 10.3394 18C14.7576 18 18.3394 14.4183 18.3394 10C18.3394 5.58172 14.7576 2 10.3394 2ZM0.339355 10C0.339355 4.47715 4.81651 0 10.3394 0C15.8622 0 20.3394 4.47715 20.3394 10C20.3394 15.5228 15.8622 20 10.3394 20C4.81651 20 0.339355 15.5228 0.339355 10ZM10.3394 5C10.8916 5 11.3394 5.44772 11.3394 6V10C11.3394 10.5523 10.8916 11 10.3394 11C9.78707 11 9.33936 10.5523 9.33936 10V6C9.33936 5.44772 9.78707 5 10.3394 5ZM9.33936 14C9.33936 13.4477 9.78707 13 10.3394 13H10.3494C10.9016 13 11.3494 13.4477 11.3494 14C11.3494 14.5523 10.9016 15 10.3494 15H10.3394C9.78707 15 9.33936 14.5523 9.33936 14Z" fill="#545F71"/>
</svg>
