<svg viewBox="0 0 18 18" fill="none" xmlns="http://www.w3.org/2000/svg">
<path fill-rule="evenodd" clip-rule="evenodd" d="M0 1C0 0.447715 0.447715 0 1 0H5C5.55228 0 6 0.447715 6 1C6 1.55228 5.55228 2 5 2H3.41421L6.70711 5.29289C7.09763 5.68342 7.09763 6.31658 6.70711 6.70711C6.31658 7.09763 5.68342 7.09763 5.29289 6.70711L2 3.41421V5C2 5.55228 1.55228 6 1 6C0.447715 6 0 5.55228 0 5V1ZM13 0H17C17.5523 0 18 0.447715 18 1V5C18 5.55228 17.5523 6 17 6C16.4477 6 16 5.55228 16 5V3.41421L12.7071 6.70711C12.3166 7.09763 11.6834 7.09763 11.2929 6.70711C10.9024 6.31658 10.9024 5.68342 11.2929 5.29289L14.5858 2H13C12.4477 2 12 1.55228 12 1C12 0.447715 12.4477 0 13 0ZM6.70711 11.2929C7.09763 11.6834 7.09763 12.3166 6.70711 12.7071L3.41421 16H5C5.55228 16 6 16.4477 6 17C6 17.5523 5.55228 18 5 18H1C0.447715 18 0 17.5523 0 17V13C0 12.4477 0.447715 12 1 12C1.55228 12 2 12.4477 2 13V14.5858L5.29289 11.2929C5.68342 10.9024 6.31658 10.9024 6.70711 11.2929ZM11.2929 11.2929C11.6834 10.9024 12.3166 10.9024 12.7071 11.2929L16 14.5858V13C16 12.4477 16.4477 12 17 12C17.5523 12 18 12.4477 18 13V17C18 17.5523 17.5523 18 17 18H13C12.4477 18 12 17.5523 12 17C12 16.4477 12.4477 16 13 16H14.5858L11.2929 12.7071C10.9024 12.3166 10.9024 11.6834 11.2929 11.2929Z" fill="#545F71"/>
</svg>
