<svg xmlns="http://www.w3.org/2000/svg" viewBox="0 0 106 106"><defs><style>.cls-1{fill:#ed4847;}.cls-2{fill:#fff;}.cls-3{fill:#231f20;}</style></defs><title>favicon</title><g id="Capa_2" data-name="Capa 2"><g id="Capa_1-2" data-name="Capa 1"><rect class="cls-1" width="106" height="106"/><path class="cls-2" d="M22.22,50.49l-4.3-4.3V33.27l4.3-4.3H41v4.3H22.22v12.9H41v4.3H22.22Z"/><polygon class="cls-2" points="88.08 66.03 79.97 66.03 79.97 68.19 79.97 68.19 79.97 68.19 83.31 71.53 79.97 74.89 79.97 74.89 79.97 74.89 79.97 77.03 88.08 77.03 88.08 74.89 83 74.89 86.36 71.53 83 68.19 88.08 68.19 88.08 66.03"/><rect class="cls-2" x="38.9" y="70.08" width="9.02" height="2.91"/><rect class="cls-2" x="18.05" y="55.91" width="70.02" height="2.91"/><polygon class="cls-2" points="29.05 70.08 25.02 70.08 25.02 66.03 22.11 66.03 22.11 70.08 18.05 70.08 18.05 72.98 22.11 72.98 22.11 77.03 25.02 77.03 25.02 72.98 29.05 72.98 29.05 70.08"/><path class="cls-2" d="M68.16,71.54,70.52,66H67.91l-1.08,2.52A4.81,4.81,0,0,0,62.7,66a5.53,5.53,0,0,0,0,11,4.81,4.81,0,0,0,4.13-2.52L67.91,77h2.61Zm-5.45,3a3.07,3.07,0,0,1,0-6A2.55,2.55,0,0,1,65,70.31h0s.23.52.53,1.24c-.31.72-.53,1.23-.53,1.24h0A2.55,2.55,0,0,1,62.71,74.56Z"/><path class="cls-3" d="M65,50.49V29H83.77l4.31,4.3V50.48H83.77V33.27H69.34V50.49Z"/><path class="cls-2" d="M46.37,50.49V29H65.1l4.3,4.3V50.48H65.1V33.27H50.67V50.49Z"/></g></g></svg>