<svg xmlns="http://www.w3.org/2000/svg" viewBox="0 0 106 106"><defs><style>.cls-1{fill:#fff;}.cls-2{fill:#ed4847;}.cls-3{fill:#231f20;}</style></defs><title>favicon</title><g id="Capa_2" data-name="Capa 2"><g id="Capa_1-2" data-name="Capa 1"><rect class="cls-1" width="106" height="106" rx="13.63"/><path class="cls-2" d="M17.9,50.13,13,45.23V30.49l4.9-4.9H39.26v4.9H17.9V45.22H39.26v4.9H17.9Z"/><polygon class="cls-2" points="93 67.86 83.75 67.86 83.75 70.32 83.75 70.32 83.75 70.32 87.57 74.14 83.75 77.96 83.75 77.96 83.75 77.96 83.75 80.41 93 80.41 93 77.96 87.22 77.96 91.04 74.14 87.22 70.32 93 70.32 93 67.86"/><rect class="cls-2" x="36.93" y="72.47" width="10.29" height="3.32"/><rect class="cls-2" x="13.15" y="56.31" width="79.85" height="3.32"/><polygon class="cls-2" points="25.69 72.47 21.09 72.47 21.09 67.86 17.77 67.86 17.77 72.47 13.15 72.47 13.15 75.79 17.77 75.79 17.77 80.41 21.09 80.41 21.09 75.79 25.69 75.79 25.69 72.47"/><path class="cls-2" d="M70.29,74.14,73,67.87H70l-1.23,2.87a5.5,5.5,0,0,0-4.71-2.87c-3.1,0-5.61,2.8-5.61,6.27s2.51,6.27,5.61,6.27a5.48,5.48,0,0,0,4.71-2.87L70,80.42h3Zm-6.21,3.45a3.51,3.51,0,0,1,0-6.91,2.92,2.92,0,0,1,2.63,2h0s.25.6.61,1.42c-.36.82-.61,1.4-.61,1.41h0A2.91,2.91,0,0,1,64.08,77.59Z"/><path class="cls-3" d="M66.74,50.13V25.58H88.1l4.9,4.9V50.12H88.1V30.49H71.64V50.13Z"/><path class="cls-2" d="M45.44,50.13V25.58H66.8l4.91,4.9V50.12H66.8V30.49H50.35V50.13Z"/></g></g></svg>